<?xml version="1.0" encoding="UTF-8"?>
<!--Generator: CustomSymbols by @serious_bret-->
<!DOCTYPE svg
PUBLIC "-//W3C//DTD SVG 1.1//EN"
       "http://www.w3.org/Graphics/SVG/1.1/DTD/svg11.dtd">
<svg version="1.1" xmlns="http://www.w3.org/2000/svg" xmlns:xlink="http://www.w3.org/1999/xlink" width="3300" height="2200">
 <g id="Notes">
  <rect height="2200" id="artboard" style="fill:white;opacity:1" width="3300" x="0" y="0"/>
  <line id="" style="fill:none;stroke:black;opacity:1;stroke-width:0.5;" x1="263" x2="3036" y1="292" y2="292"/>
  <text id="reftext1" style="stroke:none;fill:black;font-family:-apple-system,&quot;SF Pro Display&quot;,&quot;SF Pro Text&quot;,Helvetica,sans-serif;font-weight:bold;" transform="matrix(1 0 0 1 263 322)">Weight/Scale Variations</text>
  <text id="reftext2" style="stroke:none;fill:black;font-family:-apple-system,&quot;SF Pro Display&quot;,&quot;SF Pro Text&quot;,Helvetica,sans-serif;text-anchor:middle;" transform="matrix(1 0 0 1 559.711 322)">Ultralight</text>
  <text style="stroke:none;fill:black;font-family:-apple-system,&quot;SF Pro Display&quot;,&quot;SF Pro Text&quot;,Helvetica,sans-serif;text-anchor:middle;" transform="matrix(1 0 0 1 856.422 322)">Thin</text>
  <text style="stroke:none;fill:black;font-family:-apple-system,&quot;SF Pro Display&quot;,&quot;SF Pro Text&quot;,Helvetica,sans-serif;text-anchor:middle;" transform="matrix(1 0 0 1 1153.13 322)">Light</text>
  <text style="stroke:none;fill:black;font-family:-apple-system,&quot;SF Pro Display&quot;,&quot;SF Pro Text&quot;,Helvetica,sans-serif;text-anchor:middle;" transform="matrix(1 0 0 1 1449.84 322)">Regular</text>
  <text style="stroke:none;fill:black;font-family:-apple-system,&quot;SF Pro Display&quot;,&quot;SF Pro Text&quot;,Helvetica,sans-serif;text-anchor:middle;" transform="matrix(1 0 0 1 1746.56 322)">Medium</text>
  <text style="stroke:none;fill:black;font-family:-apple-system,&quot;SF Pro Display&quot;,&quot;SF Pro Text&quot;,Helvetica,sans-serif;text-anchor:middle;" transform="matrix(1 0 0 1 2043.27 322)">Semibold</text>
  <text style="stroke:none;fill:black;font-family:-apple-system,&quot;SF Pro Display&quot;,&quot;SF Pro Text&quot;,Helvetica,sans-serif;text-anchor:middle;" transform="matrix(1 0 0 1 2339.98 322)">Bold</text>
  <text style="stroke:none;fill:black;font-family:-apple-system,&quot;SF Pro Display&quot;,&quot;SF Pro Text&quot;,Helvetica,sans-serif;text-anchor:middle;" transform="matrix(1 0 0 1 2636.69 322)">Heavy</text>
  <text style="stroke:none;fill:black;font-family:-apple-system,&quot;SF Pro Display&quot;,&quot;SF Pro Text&quot;,Helvetica,sans-serif;text-anchor:middle;" transform="matrix(1 0 0 1 2933.4 322)">Black</text>
  <line id="" style="fill:none;stroke:black;opacity:1;stroke-width:0.5;" x1="263" x2="3036" y1="1903" y2="1903"/>
  <g id="" transform="matrix(1 0 0 1 263 1933)">
   <path d="M9.24805 0.830078C13.5547 0.830078 17.1387-2.74414 17.1387-7.05078C17.1387-11.3574 13.5449-14.9316 9.23828-14.9316C4.94141-14.9316 1.36719-11.3574 1.36719-7.05078C1.36719-2.74414 4.95117 0.830078 9.24805 0.830078ZM9.24805-0.654297C5.70312-0.654297 2.87109-3.49609 2.87109-7.05078C2.87109-10.6055 5.69336-13.4473 9.23828-13.4473C12.793-13.4473 15.6348-10.6055 15.6445-7.05078C15.6543-3.49609 12.8027-0.654297 9.24805-0.654297ZM6.39648-6.31836L8.50586-6.31836L8.50586-4.19922C8.50586-3.75977 8.79883-3.45703 9.22852-3.45703C9.67773-3.45703 9.9707-3.75977 9.9707-4.19922L9.9707-6.31836L12.0996-6.31836C12.5391-6.31836 12.8418-6.61133 12.8418-7.04102C12.8418-7.48047 12.5391-7.7832 12.0996-7.7832L9.9707-7.7832L9.9707-9.89258C9.9707-10.3418 9.67773-10.6445 9.22852-10.6445C8.79883-10.6445 8.50586-10.3418 8.50586-9.89258L8.50586-7.7832L6.39648-7.7832C5.94727-7.7832 5.64453-7.48047 5.64453-7.04102C5.64453-6.61133 5.94727-6.31836 6.39648-6.31836Z"/>
  </g>
  <g id="" transform="matrix(1 0 0 1 281.506 1933)">
   <path d="M11.709 2.91016C17.1582 2.91016 21.6699-1.61133 21.6699-7.05078C21.6699-12.5 17.1484-17.0117 11.6992-17.0117C6.25977-17.0117 1.74805-12.5 1.74805-7.05078C1.74805-1.61133 6.26953 2.91016 11.709 2.91016ZM11.709 1.25C7.09961 1.25 3.41797-2.44141 3.41797-7.05078C3.41797-11.6602 7.08984-15.3516 11.6992-15.3516C16.3086-15.3516 20-11.6602 20.0098-7.05078C20.0195-2.44141 16.3184 1.25 11.709 1.25ZM7.98828-6.23047L10.8789-6.23047L10.8789-3.32031C10.8789-2.83203 11.2109-2.5 11.6895-2.5C12.1777-2.5 12.5195-2.83203 12.5195-3.32031L12.5195-6.23047L15.4297-6.23047C15.918-6.23047 16.25-6.5625 16.25-7.04102C16.25-7.5293 15.918-7.87109 15.4297-7.87109L12.5195-7.87109L12.5195-10.7617C12.5195-11.2695 12.1777-11.6016 11.6895-11.6016C11.2109-11.6016 10.8789-11.2598 10.8789-10.7617L10.8789-7.87109L7.98828-7.87109C7.48047-7.87109 7.14844-7.5293 7.14844-7.04102C7.14844-6.5625 7.49023-6.23047 7.98828-6.23047Z"/>
  </g>
  <g id="" transform="matrix(1 0 0 1 304.924 1933)">
   <path d="M14.9707 5.66406C21.9336 5.66406 27.6953-0.0976562 27.6953-7.05078C27.6953-14.0137 21.9238-19.7754 14.9609-19.7754C8.00781-19.7754 2.25586-14.0137 2.25586-7.05078C2.25586-0.0976562 8.01758 5.66406 14.9707 5.66406ZM14.9707 3.84766C8.93555 3.84766 4.08203-1.01562 4.08203-7.05078C4.08203-13.0957 8.92578-17.9492 14.9609-17.9492C21.0059-17.9492 25.8594-13.0957 25.8691-7.05078C25.8789-1.01562 21.0156 3.84766 14.9707 3.84766ZM10.0586-6.14258L14.0625-6.14258L14.0625-2.12891C14.0625-1.5918 14.4336-1.2207 14.9512-1.2207C15.4883-1.2207 15.8594-1.5918 15.8594-2.12891L15.8594-6.14258L19.8828-6.14258C20.4102-6.14258 20.791-6.51367 20.791-7.03125C20.791-7.56836 20.4199-7.94922 19.8828-7.94922L15.8594-7.94922L15.8594-11.9531C15.8594-12.5098 15.4883-12.8809 14.9512-12.8809C14.4336-12.8809 14.0625-12.5 14.0625-11.9531L14.0625-7.94922L10.0586-7.94922C9.50195-7.94922 9.13086-7.56836 9.13086-7.03125C9.13086-6.51367 9.51172-6.14258 10.0586-6.14258Z"/>
  </g>
  <text style="stroke:none;fill:black;font-family:-apple-system,&quot;SF Pro Display&quot;,&quot;SF Pro Text&quot;,Helvetica,sans-serif;font-weight:bold;" transform="matrix(1 0 0 1 263 1953)">Design Variations</text>
  <text style="stroke:none;fill:black;font-family:-apple-system,&quot;SF Pro Display&quot;,&quot;SF Pro Text&quot;,Helvetica,sans-serif;" transform="matrix(1 0 0 1 263 1971)">Symbols are supported in up to nine weights and three scales.</text>
  <text style="stroke:none;fill:black;font-family:-apple-system,&quot;SF Pro Display&quot;,&quot;SF Pro Text&quot;,Helvetica,sans-serif;" transform="matrix(1 0 0 1 263 1989)">For optimal layout with text and other symbols, vertically align</text>
  <text style="stroke:none;fill:black;font-family:-apple-system,&quot;SF Pro Display&quot;,&quot;SF Pro Text&quot;,Helvetica,sans-serif;" transform="matrix(1 0 0 1 263 2007)">symbols with the adjacent text.</text>
  <line id="" style="fill:none;stroke:#00AEEF;stroke-width:0.5;opacity:1.0;" x1="776" x2="776" y1="1919" y2="1933"/>
  <g id="" transform="matrix(1 0 0 1 776 1933)">
   <path d="M3.31055 0.126953C3.82812 0.126953 4.08203-0.0683594 4.26758-0.605469L5.52734-4.0625L11.2891-4.0625L12.5488-0.605469C12.7344-0.0683594 12.9883 0.126953 13.4961 0.126953C14.0137 0.126953 14.3457-0.185547 14.3457-0.673828C14.3457-0.839844 14.3164-0.986328 14.2383-1.20117L9.6582-13.3887C9.43359-13.9941 9.0332-14.2871 8.4082-14.2871C7.80273-14.2871 7.39258-13.9941 7.17773-13.3984L2.59766-1.19141C2.51953-0.976562 2.49023-0.830078 2.49023-0.664062C2.49023-0.175781 2.80273 0.126953 3.31055 0.126953ZM6.00586-5.53711L8.37891-12.1094L8.42773-12.1094L10.8008-5.53711Z"/>
  </g>
  <line id="" style="fill:none;stroke:#00AEEF;stroke-width:0.5;opacity:1.0;" x1="792.836" x2="792.836" y1="1919" y2="1933"/>
  <text style="stroke:none;fill:black;font-family:-apple-system,&quot;SF Pro Display&quot;,&quot;SF Pro Text&quot;,Helvetica,sans-serif;font-weight:bold;" transform="matrix(1 0 0 1 776 1953)">Margins</text>
  <text style="stroke:none;fill:black;font-family:-apple-system,&quot;SF Pro Display&quot;,&quot;SF Pro Text&quot;,Helvetica,sans-serif;" transform="matrix(1 0 0 1 776 1971)">Leading and trailing margins on the left and right side of each symbol</text>
  <text style="stroke:none;fill:black;font-family:-apple-system,&quot;SF Pro Display&quot;,&quot;SF Pro Text&quot;,Helvetica,sans-serif;" transform="matrix(1 0 0 1 776 1989)">can be adjusted by modifying the x-location of the margin guidelines.</text>
  <text style="stroke:none;fill:black;font-family:-apple-system,&quot;SF Pro Display&quot;,&quot;SF Pro Text&quot;,Helvetica,sans-serif;" transform="matrix(1 0 0 1 776 2007)">Modifications are automatically applied proportionally to all</text>
  <text style="stroke:none;fill:black;font-family:-apple-system,&quot;SF Pro Display&quot;,&quot;SF Pro Text&quot;,Helvetica,sans-serif;" transform="matrix(1 0 0 1 776 2025)">scales and weights.</text>
  <g id="" transform="matrix(1 0 0 1 1289 1933)">
   <path d="M2.8418 1.86523L4.54102 3.57422C5.40039 4.44336 6.38672 4.38477 7.31445 3.35938L17.4902-7.85156C17.7539-7.76367 18.0273-7.7832 18.3398-7.8418L19.4043-8.03711L20.0684-7.36328L20.0293-6.80664C19.9902-6.30859 20.1172-5.92773 20.6055-5.44922L21.3672-4.70703C21.8457-4.22852 22.4609-4.19922 22.9297-4.66797L25.8398-7.58789C26.3086-8.05664 26.2891-8.65234 25.8105-9.13086L25.0391-9.89258C24.5605-10.3711 24.1895-10.5273 23.7109-10.4883L23.1348-10.4395L22.4902-11.0742L22.7344-12.1973C22.8613-12.7637 22.7051-13.2031 22.1191-13.7891L19.9219-15.9766C16.582-19.2969 12.1484-19.2188 9.25781-16.3281C8.83789-15.918 8.80859-15.3418 9.04297-14.9512C9.27734-14.5898 9.73633-14.3555 10.3809-14.5215C11.8457-14.8633 13.3691-14.9219 14.7949-13.9844L14.209-12.5293C14.0137-12.0508 13.9844-11.6504 14.1113-11.2891L3.04688-0.898438C2.06055 0.0195312 1.98242 0.996094 2.8418 1.86523ZM10.752-15.957C13.1836-17.7344 16.4746-17.4316 18.7012-15.2051L21.1328-12.793C21.3672-12.5586 21.4062-12.373 21.3379-12.0312L21.0156-10.5469L22.5195-9.0625L23.5059-9.12109C23.7598-9.13086 23.8379-9.11133 24.0332-8.91602L24.6094-8.33984L22.168-5.89844L21.5918-6.47461C21.3965-6.66992 21.3672-6.74805 21.377-7.01172L21.4453-7.98828L19.9512-9.47266L18.4277-9.21875C18.1055-9.15039 17.959-9.17969 17.7148-9.41406L15.7129-11.416C15.459-11.6504 15.4297-11.8164 15.5859-12.1875L16.4648-14.2773C14.9023-15.7324 12.8711-16.3574 10.8398-15.7617C10.6836-15.7227 10.625-15.8496 10.752-15.957ZM5.27344 2.30469L4.10156 1.14258C3.63281 0.683594 3.74023 0.341797 4.14062-0.0195312L14.9512-10.1953L16.416-8.71094L6.42578 2.27539C6.07422 2.67578 5.74219 2.77344 5.27344 2.30469Z"/>
  </g>
  <text style="stroke:none;fill:black;font-family:-apple-system,&quot;SF Pro Display&quot;,&quot;SF Pro Text&quot;,Helvetica,sans-serif;font-weight:bold;" transform="matrix(1 0 0 1 1289 1953)">Exporting</text>
  <text style="stroke:none;fill:black;font-family:-apple-system,&quot;SF Pro Display&quot;,&quot;SF Pro Text&quot;,Helvetica,sans-serif;" transform="matrix(1 0 0 1 1289 1971)">Symbols should be outlined when exporting to ensure the</text>
  <text style="stroke:none;fill:black;font-family:-apple-system,&quot;SF Pro Display&quot;,&quot;SF Pro Text&quot;,Helvetica,sans-serif;" transform="matrix(1 0 0 1 1289 1989)">design is preserved when submitting to Xcode.</text>
  <text id="template-version" style="stroke:none;fill:black;font-family:-apple-system,&quot;SF Pro Display&quot;,&quot;SF Pro Text&quot;,Helvetica,sans-serif;text-anchor:end;" transform="matrix(1 0 0 1 3036 1933)">Template v.2.0</text>
  <text style="stroke:none;fill:black;font-family:-apple-system,&quot;SF Pro Display&quot;,&quot;SF Pro Text&quot;,Helvetica,sans-serif;text-anchor:end;" transform="matrix(1 0 0 1 3036 1951)">Requires Xcode 12 or greater</text>
  <text style="stroke:none;fill:black;font-family:-apple-system,&quot;SF Pro Display&quot;,&quot;SF Pro Text&quot;,Helvetica,sans-serif;" transform="matrix(1 0 0 1 263 726)">Small</text>
  <text style="stroke:none;fill:black;font-family:-apple-system,&quot;SF Pro Display&quot;,&quot;SF Pro Text&quot;,Helvetica,sans-serif;" transform="matrix(1 0 0 1 263 1156)">Medium</text>
  <text style="stroke:none;fill:black;font-family:-apple-system,&quot;SF Pro Display&quot;,&quot;SF Pro Text&quot;,Helvetica,sans-serif;" transform="matrix(1 0 0 1 263 1586)">Large</text>
 </g>
 <g id="Guides">
  <g id="H-reference" style="fill:#27AAE1;stroke:none;" transform="matrix(1 0 0 1 339 696)">
   <path d="M0.976562 0L3.66211 0L12.9883-24.4629L45.752-24.4629L55.127 0L57.7637 0L30.6152-70.459L28.125-70.459ZM29.3457-67.1387L29.4434-67.1387L44.873-26.709L13.8672-26.709Z"/>
  </g>
  <line id="Baseline-S" style="fill:none;stroke:#27AAE1;opacity:1;stroke-width:0.5;" x1="263" x2="3036" y1="696" y2="696"/>
  <line id="Capline-S" style="fill:none;stroke:#27AAE1;opacity:1;stroke-width:0.5;" x1="263" x2="3036" y1="625.541" y2="625.541"/>
  <g id="H-reference" style="fill:#27AAE1;stroke:none;" transform="matrix(1 0 0 1 339 1126)">
   <path d="M0.976562 0L3.66211 0L12.9883-24.4629L45.752-24.4629L55.127 0L57.7637 0L30.6152-70.459L28.125-70.459ZM29.3457-67.1387L29.4434-67.1387L44.873-26.709L13.8672-26.709Z"/>
  </g>
  <line id="Baseline-M" style="fill:none;stroke:#27AAE1;opacity:1;stroke-width:0.5;" x1="263" x2="3036" y1="1126" y2="1126"/>
  <line id="Capline-M" style="fill:none;stroke:#27AAE1;opacity:1;stroke-width:0.5;" x1="263" x2="3036" y1="1055.54" y2="1055.54"/>
  <g id="H-reference" style="fill:#27AAE1;stroke:none;" transform="matrix(1 0 0 1 339 1556)">
   <path d="M0.976562 0L3.66211 0L12.9883-24.4629L45.752-24.4629L55.127 0L57.7637 0L30.6152-70.459L28.125-70.459ZM29.3457-67.1387L29.4434-67.1387L44.873-26.709L13.8672-26.709Z"/>
  </g>
  <line id="Baseline-L" style="fill:none;stroke:#27AAE1;opacity:1;stroke-width:0.5;" x1="263" x2="3036" y1="1556" y2="1556"/>
  <line id="Capline-L" style="fill:none;stroke:#27AAE1;opacity:1;stroke-width:0.5;" x1="263" x2="3036" y1="1485.54" y2="1485.54"/>
  <line id="left-margin" x1="1415.3329373506665" x2="1415.3329373506665" y1="1030.79" y2="1150.12" style="fill:none;stroke:#00AEEF;stroke-width:0.5;opacity:1.0;"/>
  <line id="right-margin" x1="1486.9270626493333" x2="1486.9270626493333" y1="1030.79" y2="1150.12" style="fill:none;stroke:#00AEEF;stroke-width:0.5;opacity:1.0;"/>
 </g>
 <g id="Symbols">
  <g id="Black-L" transform="matrix(1.0,0.0,0.0,1.0,2888.958999190455,1475.0490187217051)">  <path stroke-miterlimit="4" stroke-linejoin="miter" stroke-width="1px" fill="#000000" xml:space="preserve" stroke-dasharray="none" x="0px" fill-rule="nonzero" stroke="none" version="1.1" stroke-linecap="butt" fill-opacity="1" xmlns:xlink="http://www.w3.org/1999/xlink" y="0px" stroke-opacity="1" d="M64.755,70.124C61.975,70.124,57.879,68.368,52.575,64.857L33.775,64.857C31.763,64.857,29.788,64.455,27.922,63.686C26.13,62.918,24.521,61.858,23.167,60.468C21.814,59.114,20.717,57.468,19.949,55.713C19.181,53.847,18.778,51.872,18.778,49.86L18.778,41.777C18.778,39.765,19.181,37.79,19.949,35.925C20.717,34.132,21.777,32.523,23.167,31.17C24.521,29.816,26.167,28.719,27.922,27.951C29.751,27.183,31.763,26.78,33.775,26.78L59.049,26.78C61.061,26.78,63.036,27.183,64.902,27.951C66.694,28.719,68.303,29.78,69.656,31.17C71.01,32.523,72.107,34.169,72.875,35.925C73.643,37.79,74.046,39.765,74.046,41.777L74.046,49.86C74.046,52.238,73.497,54.579,72.4,56.664C71.339,58.712,69.876,60.468,68.047,61.858C68.779,63.028,69.218,64.381,69.254,65.735C69.218,67.198,68.486,68.551,67.242,69.356C66.547,69.904,65.67,70.161,64.755,70.124ZM47.162,45.983C47.015,45.983,46.906,45.983,46.833,45.983C44.199,45.947,41.639,46.678,39.444,48.105C37.944,49.129,36.811,50.592,36.152,52.311C35.823,53.152,35.64,54.067,35.64,54.945C35.567,55.493,35.713,56.005,36.042,56.444C36.628,56.993,41.712,57.212,46.284,57.212C51.734,57.212,57.659,56.92,58.135,56.444C58.501,56.078,58.537,54.286,57.732,52.311C57.037,50.592,55.904,49.129,54.404,48.032C52.246,46.605,49.722,45.91,47.162,45.983ZM46.979,32.596C43.687,32.596,41.053,35.266,41.017,38.558C41.017,41.85,43.687,44.484,46.979,44.52C50.271,44.52,52.904,41.85,52.941,38.558C52.941,35.266,50.271,32.633,46.979,32.596ZM46.979,32.596"/>
</g>
  <g id="Heavy-L" transform="matrix(1.0,0.0,0.0,1.0,2592.248999190455,1475.0490187217051)">  <path stroke-opacity="1" xmlns:xlink="http://www.w3.org/1999/xlink" stroke-width="1px" stroke-miterlimit="4" stroke-linecap="butt" stroke-linejoin="miter" y="0px" x="0px" stroke-dasharray="none" xml:space="preserve" fill-opacity="1" fill="#000000" stroke="none" version="1.1" fill-rule="nonzero" d="M64.755,70.124C61.975,70.124,57.879,68.368,52.575,64.857L33.775,64.857C31.763,64.857,29.788,64.455,27.922,63.686C26.13,62.918,24.521,61.858,23.167,60.468C21.814,59.114,20.717,57.468,19.949,55.713C19.181,53.847,18.778,51.872,18.778,49.86L18.778,41.777C18.778,39.765,19.181,37.79,19.949,35.925C20.717,34.132,21.777,32.523,23.167,31.17C24.521,29.816,26.167,28.719,27.922,27.951C29.751,27.183,31.763,26.78,33.775,26.78L59.049,26.78C61.061,26.78,63.036,27.183,64.902,27.951C66.694,28.719,68.303,29.78,69.656,31.17C71.01,32.523,72.107,34.169,72.875,35.925C73.643,37.79,74.046,39.765,74.046,41.777L74.046,49.86C74.046,52.238,73.497,54.579,72.4,56.664C71.339,58.712,69.876,60.468,68.047,61.858C68.779,63.028,69.218,64.381,69.254,65.735C69.218,67.198,68.486,68.551,67.242,69.356C66.547,69.904,65.67,70.161,64.755,70.124ZM47.162,45.983C47.015,45.983,46.906,45.983,46.833,45.983C44.199,45.947,41.639,46.678,39.444,48.105C37.944,49.129,36.811,50.592,36.152,52.311C35.823,53.152,35.64,54.067,35.64,54.945C35.567,55.493,35.713,56.005,36.042,56.444C36.628,56.993,41.712,57.212,46.284,57.212C51.734,57.212,57.659,56.92,58.135,56.444C58.501,56.078,58.537,54.286,57.732,52.311C57.037,50.592,55.904,49.129,54.404,48.032C52.246,46.605,49.722,45.91,47.162,45.983ZM46.979,32.596C43.687,32.596,41.053,35.266,41.017,38.558C41.017,41.85,43.687,44.484,46.979,44.52C50.271,44.52,52.904,41.85,52.941,38.558C52.941,35.266,50.271,32.633,46.979,32.596ZM46.979,32.596"/>
</g>
  <g id="Bold-L" transform="matrix(1.0,0.0,0.0,1.0,2295.538999190455,1475.0490187217051)">  <path stroke-linecap="butt" stroke-opacity="1" fill-opacity="1" stroke="none" stroke-width="1px" x="0px" xmlns:xlink="http://www.w3.org/1999/xlink" xml:space="preserve" stroke-linejoin="miter" y="0px" stroke-miterlimit="4" stroke-dasharray="none" fill="#000000" fill-rule="nonzero" version="1.1" d="M64.755,70.124C61.975,70.124,57.879,68.368,52.575,64.857L33.775,64.857C31.763,64.857,29.788,64.455,27.922,63.686C26.13,62.918,24.521,61.858,23.167,60.468C21.814,59.114,20.717,57.468,19.949,55.713C19.181,53.847,18.778,51.872,18.778,49.86L18.778,41.777C18.778,39.765,19.181,37.79,19.949,35.925C20.717,34.132,21.777,32.523,23.167,31.17C24.521,29.816,26.167,28.719,27.922,27.951C29.751,27.183,31.763,26.78,33.775,26.78L59.049,26.78C61.061,26.78,63.036,27.183,64.902,27.951C66.694,28.719,68.303,29.78,69.656,31.17C71.01,32.523,72.107,34.169,72.875,35.925C73.643,37.79,74.046,39.765,74.046,41.777L74.046,49.86C74.046,52.238,73.497,54.579,72.4,56.664C71.339,58.712,69.876,60.468,68.047,61.858C68.779,63.028,69.218,64.381,69.254,65.735C69.218,67.198,68.486,68.551,67.242,69.356C66.547,69.904,65.67,70.161,64.755,70.124ZM47.162,45.983C47.015,45.983,46.906,45.983,46.833,45.983C44.199,45.947,41.639,46.678,39.444,48.105C37.944,49.129,36.811,50.592,36.152,52.311C35.823,53.152,35.64,54.067,35.64,54.945C35.567,55.493,35.713,56.005,36.042,56.444C36.628,56.993,41.712,57.212,46.284,57.212C51.734,57.212,57.659,56.92,58.135,56.444C58.501,56.078,58.537,54.286,57.732,52.311C57.037,50.592,55.904,49.129,54.404,48.032C52.246,46.605,49.722,45.91,47.162,45.983ZM46.979,32.596C43.687,32.596,41.053,35.266,41.017,38.558C41.017,41.85,43.687,44.484,46.979,44.52C50.271,44.52,52.904,41.85,52.941,38.558C52.941,35.266,50.271,32.633,46.979,32.596ZM46.979,32.596"/>
</g>
  <g id="Semibold-L" transform="matrix(1.0,0.0,0.0,1.0,1998.828999190455,1475.0490187217051)">  <path xmlns:xlink="http://www.w3.org/1999/xlink" stroke-linecap="butt" version="1.1" fill-opacity="1" x="0px" stroke-miterlimit="4" stroke-width="1px" fill="#000000" stroke-linejoin="miter" xml:space="preserve" fill-rule="nonzero" stroke-dasharray="none" stroke="none" stroke-opacity="1" y="0px" d="M64.755,70.124C61.975,70.124,57.879,68.368,52.575,64.857L33.775,64.857C31.763,64.857,29.788,64.455,27.922,63.686C26.13,62.918,24.521,61.858,23.167,60.468C21.814,59.114,20.717,57.468,19.949,55.713C19.181,53.847,18.778,51.872,18.778,49.86L18.778,41.777C18.778,39.765,19.181,37.79,19.949,35.925C20.717,34.132,21.777,32.523,23.167,31.17C24.521,29.816,26.167,28.719,27.922,27.951C29.751,27.183,31.763,26.78,33.775,26.78L59.049,26.78C61.061,26.78,63.036,27.183,64.902,27.951C66.694,28.719,68.303,29.78,69.656,31.17C71.01,32.523,72.107,34.169,72.875,35.925C73.643,37.79,74.046,39.765,74.046,41.777L74.046,49.86C74.046,52.238,73.497,54.579,72.4,56.664C71.339,58.712,69.876,60.468,68.047,61.858C68.779,63.028,69.218,64.381,69.254,65.735C69.218,67.198,68.486,68.551,67.242,69.356C66.547,69.904,65.67,70.161,64.755,70.124ZM47.162,45.983C47.015,45.983,46.906,45.983,46.833,45.983C44.199,45.947,41.639,46.678,39.444,48.105C37.944,49.129,36.811,50.592,36.152,52.311C35.823,53.152,35.64,54.067,35.64,54.945C35.567,55.493,35.713,56.005,36.042,56.444C36.628,56.993,41.712,57.212,46.284,57.212C51.734,57.212,57.659,56.92,58.135,56.444C58.501,56.078,58.537,54.286,57.732,52.311C57.037,50.592,55.904,49.129,54.404,48.032C52.246,46.605,49.722,45.91,47.162,45.983ZM46.979,32.596C43.687,32.596,41.053,35.266,41.017,38.558C41.017,41.85,43.687,44.484,46.979,44.52C50.271,44.52,52.904,41.85,52.941,38.558C52.941,35.266,50.271,32.633,46.979,32.596ZM46.979,32.596"/>
</g>
  <g id="Medium-L" transform="matrix(1.0,0.0,0.0,1.0,1702.118999190455,1475.0490187217051)">  <path fill-rule="nonzero" xml:space="preserve" y="0px" x="0px" stroke-miterlimit="4" stroke-dasharray="none" stroke="none" stroke-width="1px" fill="#000000" version="1.1" stroke-linejoin="miter" fill-opacity="1" stroke-linecap="butt" stroke-opacity="1" xmlns:xlink="http://www.w3.org/1999/xlink" d="M64.755,70.124C61.975,70.124,57.879,68.368,52.575,64.857L33.775,64.857C31.763,64.857,29.788,64.455,27.922,63.686C26.13,62.918,24.521,61.858,23.167,60.468C21.814,59.114,20.717,57.468,19.949,55.713C19.181,53.847,18.778,51.872,18.778,49.86L18.778,41.777C18.778,39.765,19.181,37.79,19.949,35.925C20.717,34.132,21.777,32.523,23.167,31.17C24.521,29.816,26.167,28.719,27.922,27.951C29.751,27.183,31.763,26.78,33.775,26.78L59.049,26.78C61.061,26.78,63.036,27.183,64.902,27.951C66.694,28.719,68.303,29.78,69.656,31.17C71.01,32.523,72.107,34.169,72.875,35.925C73.643,37.79,74.046,39.765,74.046,41.777L74.046,49.86C74.046,52.238,73.497,54.579,72.4,56.664C71.339,58.712,69.876,60.468,68.047,61.858C68.779,63.028,69.218,64.381,69.254,65.735C69.218,67.198,68.486,68.551,67.242,69.356C66.547,69.904,65.67,70.161,64.755,70.124ZM47.162,45.983C47.015,45.983,46.906,45.983,46.833,45.983C44.199,45.947,41.639,46.678,39.444,48.105C37.944,49.129,36.811,50.592,36.152,52.311C35.823,53.152,35.64,54.067,35.64,54.945C35.567,55.493,35.713,56.005,36.042,56.444C36.628,56.993,41.712,57.212,46.284,57.212C51.734,57.212,57.659,56.92,58.135,56.444C58.501,56.078,58.537,54.286,57.732,52.311C57.037,50.592,55.904,49.129,54.404,48.032C52.246,46.605,49.722,45.91,47.162,45.983ZM46.979,32.596C43.687,32.596,41.053,35.266,41.017,38.558C41.017,41.85,43.687,44.484,46.979,44.52C50.271,44.52,52.904,41.85,52.941,38.558C52.941,35.266,50.271,32.633,46.979,32.596ZM46.979,32.596"/>
</g>
  <g id="Regular-L" transform="matrix(1.0,0.0,0.0,1.0,1405.408999190455,1475.0490187217051)">  <path xml:space="preserve" stroke="none" stroke-linejoin="miter" xmlns:xlink="http://www.w3.org/1999/xlink" stroke-width="1px" x="0px" fill-opacity="1" y="0px" fill="#000000" stroke-dasharray="none" stroke-linecap="butt" stroke-opacity="1" fill-rule="nonzero" version="1.1" stroke-miterlimit="4" d="M64.755,70.124C61.975,70.124,57.879,68.368,52.575,64.857L33.775,64.857C31.763,64.857,29.788,64.455,27.922,63.686C26.13,62.918,24.521,61.858,23.167,60.468C21.814,59.114,20.717,57.468,19.949,55.713C19.181,53.847,18.778,51.872,18.778,49.86L18.778,41.777C18.778,39.765,19.181,37.79,19.949,35.925C20.717,34.132,21.777,32.523,23.167,31.17C24.521,29.816,26.167,28.719,27.922,27.951C29.751,27.183,31.763,26.78,33.775,26.78L59.049,26.78C61.061,26.78,63.036,27.183,64.902,27.951C66.694,28.719,68.303,29.78,69.656,31.17C71.01,32.523,72.107,34.169,72.875,35.925C73.643,37.79,74.046,39.765,74.046,41.777L74.046,49.86C74.046,52.238,73.497,54.579,72.4,56.664C71.339,58.712,69.876,60.468,68.047,61.858C68.779,63.028,69.218,64.381,69.254,65.735C69.218,67.198,68.486,68.551,67.242,69.356C66.547,69.904,65.67,70.161,64.755,70.124ZM47.162,45.983C47.015,45.983,46.906,45.983,46.833,45.983C44.199,45.947,41.639,46.678,39.444,48.105C37.944,49.129,36.811,50.592,36.152,52.311C35.823,53.152,35.64,54.067,35.64,54.945C35.567,55.493,35.713,56.005,36.042,56.444C36.628,56.993,41.712,57.212,46.284,57.212C51.734,57.212,57.659,56.92,58.135,56.444C58.501,56.078,58.537,54.286,57.732,52.311C57.037,50.592,55.904,49.129,54.404,48.032C52.246,46.605,49.722,45.91,47.162,45.983ZM46.979,32.596C43.687,32.596,41.053,35.266,41.017,38.558C41.017,41.85,43.687,44.484,46.979,44.52C50.271,44.52,52.904,41.85,52.941,38.558C52.941,35.266,50.271,32.633,46.979,32.596ZM46.979,32.596"/>
</g>
  <g id="Light-L" transform="matrix(1.0,0.0,0.0,1.0,1108.6989991904552,1475.0490187217051)">  <path stroke-width="1px" fill-opacity="1" stroke-opacity="1" xml:space="preserve" fill-rule="nonzero" x="0px" stroke-linejoin="miter" fill="#000000" y="0px" version="1.1" xmlns:xlink="http://www.w3.org/1999/xlink" stroke-dasharray="none" stroke="none" stroke-miterlimit="4" stroke-linecap="butt" d="M64.755,70.124C61.975,70.124,57.879,68.368,52.575,64.857L33.775,64.857C31.763,64.857,29.788,64.455,27.922,63.686C26.13,62.918,24.521,61.858,23.167,60.468C21.814,59.114,20.717,57.468,19.949,55.713C19.181,53.847,18.778,51.872,18.778,49.86L18.778,41.777C18.778,39.765,19.181,37.79,19.949,35.925C20.717,34.132,21.777,32.523,23.167,31.17C24.521,29.816,26.167,28.719,27.922,27.951C29.751,27.183,31.763,26.78,33.775,26.78L59.049,26.78C61.061,26.78,63.036,27.183,64.902,27.951C66.694,28.719,68.303,29.78,69.656,31.17C71.01,32.523,72.107,34.169,72.875,35.925C73.643,37.79,74.046,39.765,74.046,41.777L74.046,49.86C74.046,52.238,73.497,54.579,72.4,56.664C71.339,58.712,69.876,60.468,68.047,61.858C68.779,63.028,69.218,64.381,69.254,65.735C69.218,67.198,68.486,68.551,67.242,69.356C66.547,69.904,65.67,70.161,64.755,70.124ZM47.162,45.983C47.015,45.983,46.906,45.983,46.833,45.983C44.199,45.947,41.639,46.678,39.444,48.105C37.944,49.129,36.811,50.592,36.152,52.311C35.823,53.152,35.64,54.067,35.64,54.945C35.567,55.493,35.713,56.005,36.042,56.444C36.628,56.993,41.712,57.212,46.284,57.212C51.734,57.212,57.659,56.92,58.135,56.444C58.501,56.078,58.537,54.286,57.732,52.311C57.037,50.592,55.904,49.129,54.404,48.032C52.246,46.605,49.722,45.91,47.162,45.983ZM46.979,32.596C43.687,32.596,41.053,35.266,41.017,38.558C41.017,41.85,43.687,44.484,46.979,44.52C50.271,44.52,52.904,41.85,52.941,38.558C52.941,35.266,50.271,32.633,46.979,32.596ZM46.979,32.596"/>
</g>
  <g id="Thin-L" transform="matrix(1.0,0.0,0.0,1.0,811.9889991904553,1475.0490187217051)">  <path stroke-width="1px" x="0px" fill-rule="nonzero" xmlns:xlink="http://www.w3.org/1999/xlink" y="0px" stroke-miterlimit="4" fill-opacity="1" stroke-linecap="butt" stroke-opacity="1" fill="#000000" xml:space="preserve" stroke="none" version="1.1" stroke-dasharray="none" stroke-linejoin="miter" d="M64.755,70.124C61.975,70.124,57.879,68.368,52.575,64.857L33.775,64.857C31.763,64.857,29.788,64.455,27.922,63.686C26.13,62.918,24.521,61.858,23.167,60.468C21.814,59.114,20.717,57.468,19.949,55.713C19.181,53.847,18.778,51.872,18.778,49.86L18.778,41.777C18.778,39.765,19.181,37.79,19.949,35.925C20.717,34.132,21.777,32.523,23.167,31.17C24.521,29.816,26.167,28.719,27.922,27.951C29.751,27.183,31.763,26.78,33.775,26.78L59.049,26.78C61.061,26.78,63.036,27.183,64.902,27.951C66.694,28.719,68.303,29.78,69.656,31.17C71.01,32.523,72.107,34.169,72.875,35.925C73.643,37.79,74.046,39.765,74.046,41.777L74.046,49.86C74.046,52.238,73.497,54.579,72.4,56.664C71.339,58.712,69.876,60.468,68.047,61.858C68.779,63.028,69.218,64.381,69.254,65.735C69.218,67.198,68.486,68.551,67.242,69.356C66.547,69.904,65.67,70.161,64.755,70.124ZM47.162,45.983C47.015,45.983,46.906,45.983,46.833,45.983C44.199,45.947,41.639,46.678,39.444,48.105C37.944,49.129,36.811,50.592,36.152,52.311C35.823,53.152,35.64,54.067,35.64,54.945C35.567,55.493,35.713,56.005,36.042,56.444C36.628,56.993,41.712,57.212,46.284,57.212C51.734,57.212,57.659,56.92,58.135,56.444C58.501,56.078,58.537,54.286,57.732,52.311C57.037,50.592,55.904,49.129,54.404,48.032C52.246,46.605,49.722,45.91,47.162,45.983ZM46.979,32.596C43.687,32.596,41.053,35.266,41.017,38.558C41.017,41.85,43.687,44.484,46.979,44.52C50.271,44.52,52.904,41.85,52.941,38.558C52.941,35.266,50.271,32.633,46.979,32.596ZM46.979,32.596"/>
</g>
  <g id="Ultralight-L" transform="matrix(1.0,0.0,0.0,1.0,515.2789991904552,1475.0490187217051)">  <path xmlns:xlink="http://www.w3.org/1999/xlink" fill-rule="nonzero" version="1.1" stroke="none" stroke-linejoin="miter" stroke-dasharray="none" stroke-miterlimit="4" fill="#000000" xml:space="preserve" stroke-linecap="butt" stroke-width="1px" stroke-opacity="1" x="0px" y="0px" fill-opacity="1" d="M64.755,70.124C61.975,70.124,57.879,68.368,52.575,64.857L33.775,64.857C31.763,64.857,29.788,64.455,27.922,63.686C26.13,62.918,24.521,61.858,23.167,60.468C21.814,59.114,20.717,57.468,19.949,55.713C19.181,53.847,18.778,51.872,18.778,49.86L18.778,41.777C18.778,39.765,19.181,37.79,19.949,35.925C20.717,34.132,21.777,32.523,23.167,31.17C24.521,29.816,26.167,28.719,27.922,27.951C29.751,27.183,31.763,26.78,33.775,26.78L59.049,26.78C61.061,26.78,63.036,27.183,64.902,27.951C66.694,28.719,68.303,29.78,69.656,31.17C71.01,32.523,72.107,34.169,72.875,35.925C73.643,37.79,74.046,39.765,74.046,41.777L74.046,49.86C74.046,52.238,73.497,54.579,72.4,56.664C71.339,58.712,69.876,60.468,68.047,61.858C68.779,63.028,69.218,64.381,69.254,65.735C69.218,67.198,68.486,68.551,67.242,69.356C66.547,69.904,65.67,70.161,64.755,70.124ZM47.162,45.983C47.015,45.983,46.906,45.983,46.833,45.983C44.199,45.947,41.639,46.678,39.444,48.105C37.944,49.129,36.811,50.592,36.152,52.311C35.823,53.152,35.64,54.067,35.64,54.945C35.567,55.493,35.713,56.005,36.042,56.444C36.628,56.993,41.712,57.212,46.284,57.212C51.734,57.212,57.659,56.92,58.135,56.444C58.501,56.078,58.537,54.286,57.732,52.311C57.037,50.592,55.904,49.129,54.404,48.032C52.246,46.605,49.722,45.91,47.162,45.983ZM46.979,32.596C43.687,32.596,41.053,35.266,41.017,38.558C41.017,41.85,43.687,44.484,46.979,44.52C50.271,44.52,52.904,41.85,52.941,38.558C52.941,35.266,50.271,32.633,46.979,32.596ZM46.979,32.596"/>
</g>
  <g id="Black-M" transform="matrix(1.0,0.0,0.0,1.0,2899.237363713531,1055.3273832447812)">  <path stroke-miterlimit="4" stroke-linejoin="miter" stroke-width="1px" fill="#000000" xml:space="preserve" stroke-dasharray="none" x="0px" fill-rule="nonzero" stroke="none" version="1.1" stroke-linecap="butt" fill-opacity="1" xmlns:xlink="http://www.w3.org/1999/xlink" y="0px" stroke-opacity="1" d="M50.198,54.36C48.043,54.36,44.867,52.999,40.756,50.277L26.182,50.277C24.622,50.277,23.091,49.965,21.645,49.369C20.256,48.774,19.008,47.952,17.959,46.874C16.91,45.825,16.059,44.549,15.464,43.188C14.869,41.742,14.557,40.211,14.557,38.651L14.557,32.385C14.557,30.826,14.869,29.295,15.464,27.849C16.059,26.459,16.882,25.212,17.959,24.163C19.008,23.113,20.284,22.263,21.645,21.667C23.063,21.072,24.622,20.76,26.182,20.76L45.775,20.76C47.334,20.76,48.865,21.072,50.311,21.667C51.701,22.263,52.948,23.085,53.997,24.163C55.046,25.212,55.897,26.488,56.492,27.849C57.088,29.295,57.4,30.826,57.4,32.385L57.4,38.651C57.4,40.494,56.974,42.309,56.124,43.925C55.302,45.513,54.167,46.874,52.75,47.952C53.317,48.859,53.657,49.908,53.685,50.957C53.657,52.091,53.09,53.14,52.126,53.764C51.587,54.19,50.907,54.388,50.198,54.36ZM36.559,35.646C36.446,35.646,36.361,35.646,36.304,35.646C34.263,35.618,32.278,36.185,30.577,37.29C29.414,38.084,28.535,39.219,28.025,40.551C27.77,41.203,27.628,41.912,27.628,42.593C27.571,43.018,27.685,43.415,27.94,43.755C28.394,44.181,32.335,44.351,35.879,44.351C40.104,44.351,44.697,44.124,45.066,43.755C45.349,43.472,45.378,42.082,44.754,40.551C44.215,39.219,43.336,38.084,42.174,37.234C40.501,36.128,38.544,35.589,36.559,35.646ZM36.418,25.268C33.866,25.268,31.824,27.338,31.796,29.89C31.796,32.442,33.866,34.483,36.418,34.512C38.97,34.512,41.011,32.442,41.039,29.89C41.039,27.338,38.97,25.297,36.418,25.268ZM36.418,25.268"/>
</g>
  <g id="Heavy-M" transform="matrix(1.0,0.0,0.0,1.0,2602.527363713531,1055.3273832447812)">  <path stroke-opacity="1" xmlns:xlink="http://www.w3.org/1999/xlink" stroke-width="1px" stroke-miterlimit="4" stroke-linecap="butt" stroke-linejoin="miter" y="0px" x="0px" stroke-dasharray="none" xml:space="preserve" fill-opacity="1" fill="#000000" stroke="none" version="1.1" fill-rule="nonzero" d="M50.198,54.36C48.043,54.36,44.867,52.999,40.756,50.277L26.182,50.277C24.622,50.277,23.091,49.965,21.645,49.369C20.256,48.774,19.008,47.952,17.959,46.874C16.91,45.825,16.059,44.549,15.464,43.188C14.869,41.742,14.557,40.211,14.557,38.651L14.557,32.385C14.557,30.826,14.869,29.295,15.464,27.849C16.059,26.459,16.882,25.212,17.959,24.163C19.008,23.113,20.284,22.263,21.645,21.667C23.063,21.072,24.622,20.76,26.182,20.76L45.775,20.76C47.334,20.76,48.865,21.072,50.311,21.667C51.701,22.263,52.948,23.085,53.997,24.163C55.046,25.212,55.897,26.488,56.492,27.849C57.088,29.295,57.4,30.826,57.4,32.385L57.4,38.651C57.4,40.494,56.974,42.309,56.124,43.925C55.302,45.513,54.167,46.874,52.75,47.952C53.317,48.859,53.657,49.908,53.685,50.957C53.657,52.091,53.09,53.14,52.126,53.764C51.587,54.19,50.907,54.388,50.198,54.36ZM36.559,35.646C36.446,35.646,36.361,35.646,36.304,35.646C34.263,35.618,32.278,36.185,30.577,37.29C29.414,38.084,28.535,39.219,28.025,40.551C27.77,41.203,27.628,41.912,27.628,42.593C27.571,43.018,27.685,43.415,27.94,43.755C28.394,44.181,32.335,44.351,35.879,44.351C40.104,44.351,44.697,44.124,45.066,43.755C45.349,43.472,45.378,42.082,44.754,40.551C44.215,39.219,43.336,38.084,42.174,37.234C40.501,36.128,38.544,35.589,36.559,35.646ZM36.418,25.268C33.866,25.268,31.824,27.338,31.796,29.89C31.796,32.442,33.866,34.483,36.418,34.512C38.97,34.512,41.011,32.442,41.039,29.89C41.039,27.338,38.97,25.297,36.418,25.268ZM36.418,25.268"/>
</g>
  <g id="Bold-M" transform="matrix(1.0,0.0,0.0,1.0,2305.817363713531,1055.3273832447812)">  <path stroke-linecap="butt" stroke-opacity="1" fill-opacity="1" stroke="none" stroke-width="1px" x="0px" xmlns:xlink="http://www.w3.org/1999/xlink" xml:space="preserve" stroke-linejoin="miter" y="0px" stroke-miterlimit="4" stroke-dasharray="none" fill="#000000" fill-rule="nonzero" version="1.1" d="M50.198,54.36C48.043,54.36,44.867,52.999,40.756,50.277L26.182,50.277C24.622,50.277,23.091,49.965,21.645,49.369C20.256,48.774,19.008,47.952,17.959,46.874C16.91,45.825,16.059,44.549,15.464,43.188C14.869,41.742,14.557,40.211,14.557,38.651L14.557,32.385C14.557,30.826,14.869,29.295,15.464,27.849C16.059,26.459,16.882,25.212,17.959,24.163C19.008,23.113,20.284,22.263,21.645,21.667C23.063,21.072,24.622,20.76,26.182,20.76L45.775,20.76C47.334,20.76,48.865,21.072,50.311,21.667C51.701,22.263,52.948,23.085,53.997,24.163C55.046,25.212,55.897,26.488,56.492,27.849C57.088,29.295,57.4,30.826,57.4,32.385L57.4,38.651C57.4,40.494,56.974,42.309,56.124,43.925C55.302,45.513,54.167,46.874,52.75,47.952C53.317,48.859,53.657,49.908,53.685,50.957C53.657,52.091,53.09,53.14,52.126,53.764C51.587,54.19,50.907,54.388,50.198,54.36ZM36.559,35.646C36.446,35.646,36.361,35.646,36.304,35.646C34.263,35.618,32.278,36.185,30.577,37.29C29.414,38.084,28.535,39.219,28.025,40.551C27.77,41.203,27.628,41.912,27.628,42.593C27.571,43.018,27.685,43.415,27.94,43.755C28.394,44.181,32.335,44.351,35.879,44.351C40.104,44.351,44.697,44.124,45.066,43.755C45.349,43.472,45.378,42.082,44.754,40.551C44.215,39.219,43.336,38.084,42.174,37.234C40.501,36.128,38.544,35.589,36.559,35.646ZM36.418,25.268C33.866,25.268,31.824,27.338,31.796,29.89C31.796,32.442,33.866,34.483,36.418,34.512C38.97,34.512,41.011,32.442,41.039,29.89C41.039,27.338,38.97,25.297,36.418,25.268ZM36.418,25.268"/>
</g>
  <g id="Semibold-M" transform="matrix(1.0,0.0,0.0,1.0,2009.1073637135312,1055.3273832447812)">  <path xmlns:xlink="http://www.w3.org/1999/xlink" stroke-linecap="butt" version="1.1" fill-opacity="1" x="0px" stroke-miterlimit="4" stroke-width="1px" fill="#000000" stroke-linejoin="miter" xml:space="preserve" fill-rule="nonzero" stroke-dasharray="none" stroke="none" stroke-opacity="1" y="0px" d="M50.198,54.36C48.043,54.36,44.867,52.999,40.756,50.277L26.182,50.277C24.622,50.277,23.091,49.965,21.645,49.369C20.256,48.774,19.008,47.952,17.959,46.874C16.91,45.825,16.059,44.549,15.464,43.188C14.869,41.742,14.557,40.211,14.557,38.651L14.557,32.385C14.557,30.826,14.869,29.295,15.464,27.849C16.059,26.459,16.882,25.212,17.959,24.163C19.008,23.113,20.284,22.263,21.645,21.667C23.063,21.072,24.622,20.76,26.182,20.76L45.775,20.76C47.334,20.76,48.865,21.072,50.311,21.667C51.701,22.263,52.948,23.085,53.997,24.163C55.046,25.212,55.897,26.488,56.492,27.849C57.088,29.295,57.4,30.826,57.4,32.385L57.4,38.651C57.4,40.494,56.974,42.309,56.124,43.925C55.302,45.513,54.167,46.874,52.75,47.952C53.317,48.859,53.657,49.908,53.685,50.957C53.657,52.091,53.09,53.14,52.126,53.764C51.587,54.19,50.907,54.388,50.198,54.36ZM36.559,35.646C36.446,35.646,36.361,35.646,36.304,35.646C34.263,35.618,32.278,36.185,30.577,37.29C29.414,38.084,28.535,39.219,28.025,40.551C27.77,41.203,27.628,41.912,27.628,42.593C27.571,43.018,27.685,43.415,27.94,43.755C28.394,44.181,32.335,44.351,35.879,44.351C40.104,44.351,44.697,44.124,45.066,43.755C45.349,43.472,45.378,42.082,44.754,40.551C44.215,39.219,43.336,38.084,42.174,37.234C40.501,36.128,38.544,35.589,36.559,35.646ZM36.418,25.268C33.866,25.268,31.824,27.338,31.796,29.89C31.796,32.442,33.866,34.483,36.418,34.512C38.97,34.512,41.011,32.442,41.039,29.89C41.039,27.338,38.97,25.297,36.418,25.268ZM36.418,25.268"/>
</g>
  <g id="Medium-M" transform="matrix(1.0,0.0,0.0,1.0,1712.3973637135311,1055.3273832447812)">  <path fill-rule="nonzero" xml:space="preserve" y="0px" x="0px" stroke-miterlimit="4" stroke-dasharray="none" stroke="none" stroke-width="1px" fill="#000000" version="1.1" stroke-linejoin="miter" fill-opacity="1" stroke-linecap="butt" stroke-opacity="1" xmlns:xlink="http://www.w3.org/1999/xlink" d="M50.198,54.36C48.043,54.36,44.867,52.999,40.756,50.277L26.182,50.277C24.622,50.277,23.091,49.965,21.645,49.369C20.256,48.774,19.008,47.952,17.959,46.874C16.91,45.825,16.059,44.549,15.464,43.188C14.869,41.742,14.557,40.211,14.557,38.651L14.557,32.385C14.557,30.826,14.869,29.295,15.464,27.849C16.059,26.459,16.882,25.212,17.959,24.163C19.008,23.113,20.284,22.263,21.645,21.667C23.063,21.072,24.622,20.76,26.182,20.76L45.775,20.76C47.334,20.76,48.865,21.072,50.311,21.667C51.701,22.263,52.948,23.085,53.997,24.163C55.046,25.212,55.897,26.488,56.492,27.849C57.088,29.295,57.4,30.826,57.4,32.385L57.4,38.651C57.4,40.494,56.974,42.309,56.124,43.925C55.302,45.513,54.167,46.874,52.75,47.952C53.317,48.859,53.657,49.908,53.685,50.957C53.657,52.091,53.09,53.14,52.126,53.764C51.587,54.19,50.907,54.388,50.198,54.36ZM36.559,35.646C36.446,35.646,36.361,35.646,36.304,35.646C34.263,35.618,32.278,36.185,30.577,37.29C29.414,38.084,28.535,39.219,28.025,40.551C27.77,41.203,27.628,41.912,27.628,42.593C27.571,43.018,27.685,43.415,27.94,43.755C28.394,44.181,32.335,44.351,35.879,44.351C40.104,44.351,44.697,44.124,45.066,43.755C45.349,43.472,45.378,42.082,44.754,40.551C44.215,39.219,43.336,38.084,42.174,37.234C40.501,36.128,38.544,35.589,36.559,35.646ZM36.418,25.268C33.866,25.268,31.824,27.338,31.796,29.89C31.796,32.442,33.866,34.483,36.418,34.512C38.97,34.512,41.011,32.442,41.039,29.89C41.039,27.338,38.97,25.297,36.418,25.268ZM36.418,25.268"/>
</g>
  <g id="Regular-M" transform="matrix(1.0,0.0,0.0,1.0,1415.687363713531,1055.3273832447812)">  <path xml:space="preserve" stroke="none" stroke-linejoin="miter" xmlns:xlink="http://www.w3.org/1999/xlink" stroke-width="1px" x="0px" fill-opacity="1" y="0px" fill="#000000" stroke-dasharray="none" stroke-linecap="butt" stroke-opacity="1" fill-rule="nonzero" version="1.1" stroke-miterlimit="4" d="M50.198,54.36C48.043,54.36,44.867,52.999,40.756,50.277L26.182,50.277C24.622,50.277,23.091,49.965,21.645,49.369C20.256,48.774,19.008,47.952,17.959,46.874C16.91,45.825,16.059,44.549,15.464,43.188C14.869,41.742,14.557,40.211,14.557,38.651L14.557,32.385C14.557,30.826,14.869,29.295,15.464,27.849C16.059,26.459,16.882,25.212,17.959,24.163C19.008,23.113,20.284,22.263,21.645,21.667C23.063,21.072,24.622,20.76,26.182,20.76L45.775,20.76C47.334,20.76,48.865,21.072,50.311,21.667C51.701,22.263,52.948,23.085,53.997,24.163C55.046,25.212,55.897,26.488,56.492,27.849C57.088,29.295,57.4,30.826,57.4,32.385L57.4,38.651C57.4,40.494,56.974,42.309,56.124,43.925C55.302,45.513,54.167,46.874,52.75,47.952C53.317,48.859,53.657,49.908,53.685,50.957C53.657,52.091,53.09,53.14,52.126,53.764C51.587,54.19,50.907,54.388,50.198,54.36ZM36.559,35.646C36.446,35.646,36.361,35.646,36.304,35.646C34.263,35.618,32.278,36.185,30.577,37.29C29.414,38.084,28.535,39.219,28.025,40.551C27.77,41.203,27.628,41.912,27.628,42.593C27.571,43.018,27.685,43.415,27.94,43.755C28.394,44.181,32.335,44.351,35.879,44.351C40.104,44.351,44.697,44.124,45.066,43.755C45.349,43.472,45.378,42.082,44.754,40.551C44.215,39.219,43.336,38.084,42.174,37.234C40.501,36.128,38.544,35.589,36.559,35.646ZM36.418,25.268C33.866,25.268,31.824,27.338,31.796,29.89C31.796,32.442,33.866,34.483,36.418,34.512C38.97,34.512,41.011,32.442,41.039,29.89C41.039,27.338,38.97,25.297,36.418,25.268ZM36.418,25.268"/>
</g>
  <g id="Light-M" transform="matrix(1.0,0.0,0.0,1.0,1118.9773637135313,1055.3273832447812)">  <path stroke-width="1px" fill-opacity="1" stroke-opacity="1" xml:space="preserve" fill-rule="nonzero" x="0px" stroke-linejoin="miter" fill="#000000" y="0px" version="1.1" xmlns:xlink="http://www.w3.org/1999/xlink" stroke-dasharray="none" stroke="none" stroke-miterlimit="4" stroke-linecap="butt" d="M50.198,54.36C48.043,54.36,44.867,52.999,40.756,50.277L26.182,50.277C24.622,50.277,23.091,49.965,21.645,49.369C20.256,48.774,19.008,47.952,17.959,46.874C16.91,45.825,16.059,44.549,15.464,43.188C14.869,41.742,14.557,40.211,14.557,38.651L14.557,32.385C14.557,30.826,14.869,29.295,15.464,27.849C16.059,26.459,16.882,25.212,17.959,24.163C19.008,23.113,20.284,22.263,21.645,21.667C23.063,21.072,24.622,20.76,26.182,20.76L45.775,20.76C47.334,20.76,48.865,21.072,50.311,21.667C51.701,22.263,52.948,23.085,53.997,24.163C55.046,25.212,55.897,26.488,56.492,27.849C57.088,29.295,57.4,30.826,57.4,32.385L57.4,38.651C57.4,40.494,56.974,42.309,56.124,43.925C55.302,45.513,54.167,46.874,52.75,47.952C53.317,48.859,53.657,49.908,53.685,50.957C53.657,52.091,53.09,53.14,52.126,53.764C51.587,54.19,50.907,54.388,50.198,54.36ZM36.559,35.646C36.446,35.646,36.361,35.646,36.304,35.646C34.263,35.618,32.278,36.185,30.577,37.29C29.414,38.084,28.535,39.219,28.025,40.551C27.77,41.203,27.628,41.912,27.628,42.593C27.571,43.018,27.685,43.415,27.94,43.755C28.394,44.181,32.335,44.351,35.879,44.351C40.104,44.351,44.697,44.124,45.066,43.755C45.349,43.472,45.378,42.082,44.754,40.551C44.215,39.219,43.336,38.084,42.174,37.234C40.501,36.128,38.544,35.589,36.559,35.646ZM36.418,25.268C33.866,25.268,31.824,27.338,31.796,29.89C31.796,32.442,33.866,34.483,36.418,34.512C38.97,34.512,41.011,32.442,41.039,29.89C41.039,27.338,38.97,25.297,36.418,25.268ZM36.418,25.268"/>
</g>
  <g id="Thin-M" transform="matrix(1.0,0.0,0.0,1.0,822.2673637135313,1055.3273832447812)">  <path stroke-width="1px" x="0px" fill-rule="nonzero" xmlns:xlink="http://www.w3.org/1999/xlink" y="0px" stroke-miterlimit="4" fill-opacity="1" stroke-linecap="butt" stroke-opacity="1" fill="#000000" xml:space="preserve" stroke="none" version="1.1" stroke-dasharray="none" stroke-linejoin="miter" d="M50.198,54.36C48.043,54.36,44.867,52.999,40.756,50.277L26.182,50.277C24.622,50.277,23.091,49.965,21.645,49.369C20.256,48.774,19.008,47.952,17.959,46.874C16.91,45.825,16.059,44.549,15.464,43.188C14.869,41.742,14.557,40.211,14.557,38.651L14.557,32.385C14.557,30.826,14.869,29.295,15.464,27.849C16.059,26.459,16.882,25.212,17.959,24.163C19.008,23.113,20.284,22.263,21.645,21.667C23.063,21.072,24.622,20.76,26.182,20.76L45.775,20.76C47.334,20.76,48.865,21.072,50.311,21.667C51.701,22.263,52.948,23.085,53.997,24.163C55.046,25.212,55.897,26.488,56.492,27.849C57.088,29.295,57.4,30.826,57.4,32.385L57.4,38.651C57.4,40.494,56.974,42.309,56.124,43.925C55.302,45.513,54.167,46.874,52.75,47.952C53.317,48.859,53.657,49.908,53.685,50.957C53.657,52.091,53.09,53.14,52.126,53.764C51.587,54.19,50.907,54.388,50.198,54.36ZM36.559,35.646C36.446,35.646,36.361,35.646,36.304,35.646C34.263,35.618,32.278,36.185,30.577,37.29C29.414,38.084,28.535,39.219,28.025,40.551C27.77,41.203,27.628,41.912,27.628,42.593C27.571,43.018,27.685,43.415,27.94,43.755C28.394,44.181,32.335,44.351,35.879,44.351C40.104,44.351,44.697,44.124,45.066,43.755C45.349,43.472,45.378,42.082,44.754,40.551C44.215,39.219,43.336,38.084,42.174,37.234C40.501,36.128,38.544,35.589,36.559,35.646ZM36.418,25.268C33.866,25.268,31.824,27.338,31.796,29.89C31.796,32.442,33.866,34.483,36.418,34.512C38.97,34.512,41.011,32.442,41.039,29.89C41.039,27.338,38.97,25.297,36.418,25.268ZM36.418,25.268"/>
</g>
  <g id="Ultralight-M" transform="matrix(1.0,0.0,0.0,1.0,525.5573637135312,1055.3273832447812)">  <path xmlns:xlink="http://www.w3.org/1999/xlink" fill-rule="nonzero" version="1.1" stroke="none" stroke-linejoin="miter" stroke-dasharray="none" stroke-miterlimit="4" fill="#000000" xml:space="preserve" stroke-linecap="butt" stroke-width="1px" stroke-opacity="1" x="0px" y="0px" fill-opacity="1" d="M50.198,54.36C48.043,54.36,44.867,52.999,40.756,50.277L26.182,50.277C24.622,50.277,23.091,49.965,21.645,49.369C20.256,48.774,19.008,47.952,17.959,46.874C16.91,45.825,16.059,44.549,15.464,43.188C14.869,41.742,14.557,40.211,14.557,38.651L14.557,32.385C14.557,30.826,14.869,29.295,15.464,27.849C16.059,26.459,16.882,25.212,17.959,24.163C19.008,23.113,20.284,22.263,21.645,21.667C23.063,21.072,24.622,20.76,26.182,20.76L45.775,20.76C47.334,20.76,48.865,21.072,50.311,21.667C51.701,22.263,52.948,23.085,53.997,24.163C55.046,25.212,55.897,26.488,56.492,27.849C57.088,29.295,57.4,30.826,57.4,32.385L57.4,38.651C57.4,40.494,56.974,42.309,56.124,43.925C55.302,45.513,54.167,46.874,52.75,47.952C53.317,48.859,53.657,49.908,53.685,50.957C53.657,52.091,53.09,53.14,52.126,53.764C51.587,54.19,50.907,54.388,50.198,54.36ZM36.559,35.646C36.446,35.646,36.361,35.646,36.304,35.646C34.263,35.618,32.278,36.185,30.577,37.29C29.414,38.084,28.535,39.219,28.025,40.551C27.77,41.203,27.628,41.912,27.628,42.593C27.571,43.018,27.685,43.415,27.94,43.755C28.394,44.181,32.335,44.351,35.879,44.351C40.104,44.351,44.697,44.124,45.066,43.755C45.349,43.472,45.378,42.082,44.754,40.551C44.215,39.219,43.336,38.084,42.174,37.234C40.501,36.128,38.544,35.589,36.559,35.646ZM36.418,25.268C33.866,25.268,31.824,27.338,31.796,29.89C31.796,32.442,33.866,34.483,36.418,34.512C38.97,34.512,41.011,32.442,41.039,29.89C41.039,27.338,38.97,25.297,36.418,25.268ZM36.418,25.268"/>
</g>
  <g id="Black-S" transform="matrix(1.0,0.0,0.0,1.0,2906.9284157876946,633.018435318945)">  <path stroke-miterlimit="4" stroke-linejoin="miter" stroke-width="1px" fill="#000000" xml:space="preserve" stroke-dasharray="none" x="0px" fill-rule="nonzero" stroke="none" version="1.1" stroke-linecap="butt" fill-opacity="1" xmlns:xlink="http://www.w3.org/1999/xlink" y="0px" stroke-opacity="1" d="M39.305,42.564C37.618,42.564,35.131,41.498,31.912,39.367L20.5,39.367C19.279,39.367,18.08,39.122,16.948,38.656C15.86,38.19,14.884,37.546,14.062,36.702C13.241,35.881,12.575,34.882,12.108,33.816C11.642,32.684,11.398,31.485,11.398,30.264L11.398,25.358C11.398,24.137,11.642,22.938,12.108,21.805C12.575,20.718,13.218,19.741,14.062,18.919C14.884,18.098,15.883,17.432,16.948,16.966C18.058,16.499,19.279,16.255,20.5,16.255L35.842,16.255C37.063,16.255,38.261,16.499,39.394,16.966C40.482,17.432,41.458,18.076,42.28,18.919C43.101,19.741,43.767,20.74,44.234,21.805C44.7,22.938,44.944,24.137,44.944,25.358L44.944,30.264C44.944,31.707,44.611,33.128,43.945,34.394C43.301,35.637,42.413,36.702,41.303,37.546C41.747,38.257,42.013,39.078,42.036,39.899C42.013,40.788,41.569,41.609,40.815,42.097C40.393,42.43,39.86,42.586,39.305,42.564ZM28.626,27.911C28.537,27.911,28.471,27.911,28.426,27.911C26.828,27.889,25.274,28.333,23.942,29.198C23.031,29.82,22.343,30.708,21.944,31.752C21.744,32.262,21.633,32.817,21.633,33.35C21.588,33.683,21.677,33.994,21.877,34.26C22.232,34.593,25.318,34.727,28.093,34.727C31.401,34.727,34.998,34.549,35.286,34.26C35.508,34.038,35.531,32.95,35.042,31.752C34.62,30.708,33.932,29.82,33.022,29.154C31.712,28.288,30.18,27.866,28.626,27.911ZM28.515,19.785C26.517,19.785,24.918,21.406,24.896,23.404C24.896,25.402,26.517,27.001,28.515,27.023C30.513,27.023,32.112,25.402,32.134,23.404C32.134,21.406,30.513,19.807,28.515,19.785ZM28.515,19.785"/>
</g>
  <g id="Heavy-S" transform="matrix(1.0,0.0,0.0,1.0,2610.2184157876945,633.018435318945)">  <path stroke-opacity="1" xmlns:xlink="http://www.w3.org/1999/xlink" stroke-width="1px" stroke-miterlimit="4" stroke-linecap="butt" stroke-linejoin="miter" y="0px" x="0px" stroke-dasharray="none" xml:space="preserve" fill-opacity="1" fill="#000000" stroke="none" version="1.1" fill-rule="nonzero" d="M39.305,42.564C37.618,42.564,35.131,41.498,31.912,39.367L20.5,39.367C19.279,39.367,18.08,39.122,16.948,38.656C15.86,38.19,14.884,37.546,14.062,36.702C13.241,35.881,12.575,34.882,12.108,33.816C11.642,32.684,11.398,31.485,11.398,30.264L11.398,25.358C11.398,24.137,11.642,22.938,12.108,21.805C12.575,20.718,13.218,19.741,14.062,18.919C14.884,18.098,15.883,17.432,16.948,16.966C18.058,16.499,19.279,16.255,20.5,16.255L35.842,16.255C37.063,16.255,38.261,16.499,39.394,16.966C40.482,17.432,41.458,18.076,42.28,18.919C43.101,19.741,43.767,20.74,44.234,21.805C44.7,22.938,44.944,24.137,44.944,25.358L44.944,30.264C44.944,31.707,44.611,33.128,43.945,34.394C43.301,35.637,42.413,36.702,41.303,37.546C41.747,38.257,42.013,39.078,42.036,39.899C42.013,40.788,41.569,41.609,40.815,42.097C40.393,42.43,39.86,42.586,39.305,42.564ZM28.626,27.911C28.537,27.911,28.471,27.911,28.426,27.911C26.828,27.889,25.274,28.333,23.942,29.198C23.031,29.82,22.343,30.708,21.944,31.752C21.744,32.262,21.633,32.817,21.633,33.35C21.588,33.683,21.677,33.994,21.877,34.26C22.232,34.593,25.318,34.727,28.093,34.727C31.401,34.727,34.998,34.549,35.286,34.26C35.508,34.038,35.531,32.95,35.042,31.752C34.62,30.708,33.932,29.82,33.022,29.154C31.712,28.288,30.18,27.866,28.626,27.911ZM28.515,19.785C26.517,19.785,24.918,21.406,24.896,23.404C24.896,25.402,26.517,27.001,28.515,27.023C30.513,27.023,32.112,25.402,32.134,23.404C32.134,21.406,30.513,19.807,28.515,19.785ZM28.515,19.785"/>
</g>
  <g id="Bold-S" transform="matrix(1.0,0.0,0.0,1.0,2313.5084157876945,633.018435318945)">  <path stroke-linecap="butt" stroke-opacity="1" fill-opacity="1" stroke="none" stroke-width="1px" x="0px" xmlns:xlink="http://www.w3.org/1999/xlink" xml:space="preserve" stroke-linejoin="miter" y="0px" stroke-miterlimit="4" stroke-dasharray="none" fill="#000000" fill-rule="nonzero" version="1.1" d="M39.305,42.564C37.618,42.564,35.131,41.498,31.912,39.367L20.5,39.367C19.279,39.367,18.08,39.122,16.948,38.656C15.86,38.19,14.884,37.546,14.062,36.702C13.241,35.881,12.575,34.882,12.108,33.816C11.642,32.684,11.398,31.485,11.398,30.264L11.398,25.358C11.398,24.137,11.642,22.938,12.108,21.805C12.575,20.718,13.218,19.741,14.062,18.919C14.884,18.098,15.883,17.432,16.948,16.966C18.058,16.499,19.279,16.255,20.5,16.255L35.842,16.255C37.063,16.255,38.261,16.499,39.394,16.966C40.482,17.432,41.458,18.076,42.28,18.919C43.101,19.741,43.767,20.74,44.234,21.805C44.7,22.938,44.944,24.137,44.944,25.358L44.944,30.264C44.944,31.707,44.611,33.128,43.945,34.394C43.301,35.637,42.413,36.702,41.303,37.546C41.747,38.257,42.013,39.078,42.036,39.899C42.013,40.788,41.569,41.609,40.815,42.097C40.393,42.43,39.86,42.586,39.305,42.564ZM28.626,27.911C28.537,27.911,28.471,27.911,28.426,27.911C26.828,27.889,25.274,28.333,23.942,29.198C23.031,29.82,22.343,30.708,21.944,31.752C21.744,32.262,21.633,32.817,21.633,33.35C21.588,33.683,21.677,33.994,21.877,34.26C22.232,34.593,25.318,34.727,28.093,34.727C31.401,34.727,34.998,34.549,35.286,34.26C35.508,34.038,35.531,32.95,35.042,31.752C34.62,30.708,33.932,29.82,33.022,29.154C31.712,28.288,30.18,27.866,28.626,27.911ZM28.515,19.785C26.517,19.785,24.918,21.406,24.896,23.404C24.896,25.402,26.517,27.001,28.515,27.023C30.513,27.023,32.112,25.402,32.134,23.404C32.134,21.406,30.513,19.807,28.515,19.785ZM28.515,19.785"/>
</g>
  <g id="Semibold-S" transform="matrix(1.0,0.0,0.0,1.0,2016.798415787695,633.018435318945)">  <path xmlns:xlink="http://www.w3.org/1999/xlink" stroke-linecap="butt" version="1.1" fill-opacity="1" x="0px" stroke-miterlimit="4" stroke-width="1px" fill="#000000" stroke-linejoin="miter" xml:space="preserve" fill-rule="nonzero" stroke-dasharray="none" stroke="none" stroke-opacity="1" y="0px" d="M39.305,42.564C37.618,42.564,35.131,41.498,31.912,39.367L20.5,39.367C19.279,39.367,18.08,39.122,16.948,38.656C15.86,38.19,14.884,37.546,14.062,36.702C13.241,35.881,12.575,34.882,12.108,33.816C11.642,32.684,11.398,31.485,11.398,30.264L11.398,25.358C11.398,24.137,11.642,22.938,12.108,21.805C12.575,20.718,13.218,19.741,14.062,18.919C14.884,18.098,15.883,17.432,16.948,16.966C18.058,16.499,19.279,16.255,20.5,16.255L35.842,16.255C37.063,16.255,38.261,16.499,39.394,16.966C40.482,17.432,41.458,18.076,42.28,18.919C43.101,19.741,43.767,20.74,44.234,21.805C44.7,22.938,44.944,24.137,44.944,25.358L44.944,30.264C44.944,31.707,44.611,33.128,43.945,34.394C43.301,35.637,42.413,36.702,41.303,37.546C41.747,38.257,42.013,39.078,42.036,39.899C42.013,40.788,41.569,41.609,40.815,42.097C40.393,42.43,39.86,42.586,39.305,42.564ZM28.626,27.911C28.537,27.911,28.471,27.911,28.426,27.911C26.828,27.889,25.274,28.333,23.942,29.198C23.031,29.82,22.343,30.708,21.944,31.752C21.744,32.262,21.633,32.817,21.633,33.35C21.588,33.683,21.677,33.994,21.877,34.26C22.232,34.593,25.318,34.727,28.093,34.727C31.401,34.727,34.998,34.549,35.286,34.26C35.508,34.038,35.531,32.95,35.042,31.752C34.62,30.708,33.932,29.82,33.022,29.154C31.712,28.288,30.18,27.866,28.626,27.911ZM28.515,19.785C26.517,19.785,24.918,21.406,24.896,23.404C24.896,25.402,26.517,27.001,28.515,27.023C30.513,27.023,32.112,25.402,32.134,23.404C32.134,21.406,30.513,19.807,28.515,19.785ZM28.515,19.785"/>
</g>
  <g id="Medium-S" transform="matrix(1.0,0.0,0.0,1.0,1720.0884157876949,633.018435318945)">  <path fill-rule="nonzero" xml:space="preserve" y="0px" x="0px" stroke-miterlimit="4" stroke-dasharray="none" stroke="none" stroke-width="1px" fill="#000000" version="1.1" stroke-linejoin="miter" fill-opacity="1" stroke-linecap="butt" stroke-opacity="1" xmlns:xlink="http://www.w3.org/1999/xlink" d="M39.305,42.564C37.618,42.564,35.131,41.498,31.912,39.367L20.5,39.367C19.279,39.367,18.08,39.122,16.948,38.656C15.86,38.19,14.884,37.546,14.062,36.702C13.241,35.881,12.575,34.882,12.108,33.816C11.642,32.684,11.398,31.485,11.398,30.264L11.398,25.358C11.398,24.137,11.642,22.938,12.108,21.805C12.575,20.718,13.218,19.741,14.062,18.919C14.884,18.098,15.883,17.432,16.948,16.966C18.058,16.499,19.279,16.255,20.5,16.255L35.842,16.255C37.063,16.255,38.261,16.499,39.394,16.966C40.482,17.432,41.458,18.076,42.28,18.919C43.101,19.741,43.767,20.74,44.234,21.805C44.7,22.938,44.944,24.137,44.944,25.358L44.944,30.264C44.944,31.707,44.611,33.128,43.945,34.394C43.301,35.637,42.413,36.702,41.303,37.546C41.747,38.257,42.013,39.078,42.036,39.899C42.013,40.788,41.569,41.609,40.815,42.097C40.393,42.43,39.86,42.586,39.305,42.564ZM28.626,27.911C28.537,27.911,28.471,27.911,28.426,27.911C26.828,27.889,25.274,28.333,23.942,29.198C23.031,29.82,22.343,30.708,21.944,31.752C21.744,32.262,21.633,32.817,21.633,33.35C21.588,33.683,21.677,33.994,21.877,34.26C22.232,34.593,25.318,34.727,28.093,34.727C31.401,34.727,34.998,34.549,35.286,34.26C35.508,34.038,35.531,32.95,35.042,31.752C34.62,30.708,33.932,29.82,33.022,29.154C31.712,28.288,30.18,27.866,28.626,27.911ZM28.515,19.785C26.517,19.785,24.918,21.406,24.896,23.404C24.896,25.402,26.517,27.001,28.515,27.023C30.513,27.023,32.112,25.402,32.134,23.404C32.134,21.406,30.513,19.807,28.515,19.785ZM28.515,19.785"/>
</g>
  <g id="Regular-S" transform="matrix(1.0,0.0,0.0,1.0,1423.3784157876948,633.018435318945)">  <path xml:space="preserve" stroke="none" stroke-linejoin="miter" xmlns:xlink="http://www.w3.org/1999/xlink" stroke-width="1px" x="0px" fill-opacity="1" y="0px" fill="#000000" stroke-dasharray="none" stroke-linecap="butt" stroke-opacity="1" fill-rule="nonzero" version="1.1" stroke-miterlimit="4" d="M39.305,42.564C37.618,42.564,35.131,41.498,31.912,39.367L20.5,39.367C19.279,39.367,18.08,39.122,16.948,38.656C15.86,38.19,14.884,37.546,14.062,36.702C13.241,35.881,12.575,34.882,12.108,33.816C11.642,32.684,11.398,31.485,11.398,30.264L11.398,25.358C11.398,24.137,11.642,22.938,12.108,21.805C12.575,20.718,13.218,19.741,14.062,18.919C14.884,18.098,15.883,17.432,16.948,16.966C18.058,16.499,19.279,16.255,20.5,16.255L35.842,16.255C37.063,16.255,38.261,16.499,39.394,16.966C40.482,17.432,41.458,18.076,42.28,18.919C43.101,19.741,43.767,20.74,44.234,21.805C44.7,22.938,44.944,24.137,44.944,25.358L44.944,30.264C44.944,31.707,44.611,33.128,43.945,34.394C43.301,35.637,42.413,36.702,41.303,37.546C41.747,38.257,42.013,39.078,42.036,39.899C42.013,40.788,41.569,41.609,40.815,42.097C40.393,42.43,39.86,42.586,39.305,42.564ZM28.626,27.911C28.537,27.911,28.471,27.911,28.426,27.911C26.828,27.889,25.274,28.333,23.942,29.198C23.031,29.82,22.343,30.708,21.944,31.752C21.744,32.262,21.633,32.817,21.633,33.35C21.588,33.683,21.677,33.994,21.877,34.26C22.232,34.593,25.318,34.727,28.093,34.727C31.401,34.727,34.998,34.549,35.286,34.26C35.508,34.038,35.531,32.95,35.042,31.752C34.62,30.708,33.932,29.82,33.022,29.154C31.712,28.288,30.18,27.866,28.626,27.911ZM28.515,19.785C26.517,19.785,24.918,21.406,24.896,23.404C24.896,25.402,26.517,27.001,28.515,27.023C30.513,27.023,32.112,25.402,32.134,23.404C32.134,21.406,30.513,19.807,28.515,19.785ZM28.515,19.785"/>
</g>
  <g id="Light-S" transform="matrix(1.0,0.0,0.0,1.0,1126.668415787695,633.018435318945)">  <path stroke-width="1px" fill-opacity="1" stroke-opacity="1" xml:space="preserve" fill-rule="nonzero" x="0px" stroke-linejoin="miter" fill="#000000" y="0px" version="1.1" xmlns:xlink="http://www.w3.org/1999/xlink" stroke-dasharray="none" stroke="none" stroke-miterlimit="4" stroke-linecap="butt" d="M39.305,42.564C37.618,42.564,35.131,41.498,31.912,39.367L20.5,39.367C19.279,39.367,18.08,39.122,16.948,38.656C15.86,38.19,14.884,37.546,14.062,36.702C13.241,35.881,12.575,34.882,12.108,33.816C11.642,32.684,11.398,31.485,11.398,30.264L11.398,25.358C11.398,24.137,11.642,22.938,12.108,21.805C12.575,20.718,13.218,19.741,14.062,18.919C14.884,18.098,15.883,17.432,16.948,16.966C18.058,16.499,19.279,16.255,20.5,16.255L35.842,16.255C37.063,16.255,38.261,16.499,39.394,16.966C40.482,17.432,41.458,18.076,42.28,18.919C43.101,19.741,43.767,20.74,44.234,21.805C44.7,22.938,44.944,24.137,44.944,25.358L44.944,30.264C44.944,31.707,44.611,33.128,43.945,34.394C43.301,35.637,42.413,36.702,41.303,37.546C41.747,38.257,42.013,39.078,42.036,39.899C42.013,40.788,41.569,41.609,40.815,42.097C40.393,42.43,39.86,42.586,39.305,42.564ZM28.626,27.911C28.537,27.911,28.471,27.911,28.426,27.911C26.828,27.889,25.274,28.333,23.942,29.198C23.031,29.82,22.343,30.708,21.944,31.752C21.744,32.262,21.633,32.817,21.633,33.35C21.588,33.683,21.677,33.994,21.877,34.26C22.232,34.593,25.318,34.727,28.093,34.727C31.401,34.727,34.998,34.549,35.286,34.26C35.508,34.038,35.531,32.95,35.042,31.752C34.62,30.708,33.932,29.82,33.022,29.154C31.712,28.288,30.18,27.866,28.626,27.911ZM28.515,19.785C26.517,19.785,24.918,21.406,24.896,23.404C24.896,25.402,26.517,27.001,28.515,27.023C30.513,27.023,32.112,25.402,32.134,23.404C32.134,21.406,30.513,19.807,28.515,19.785ZM28.515,19.785"/>
</g>
  <g id="Thin-S" transform="matrix(1.0,0.0,0.0,1.0,829.958415787695,633.018435318945)">  <path stroke-width="1px" x="0px" fill-rule="nonzero" xmlns:xlink="http://www.w3.org/1999/xlink" y="0px" stroke-miterlimit="4" fill-opacity="1" stroke-linecap="butt" stroke-opacity="1" fill="#000000" xml:space="preserve" stroke="none" version="1.1" stroke-dasharray="none" stroke-linejoin="miter" d="M39.305,42.564C37.618,42.564,35.131,41.498,31.912,39.367L20.5,39.367C19.279,39.367,18.08,39.122,16.948,38.656C15.86,38.19,14.884,37.546,14.062,36.702C13.241,35.881,12.575,34.882,12.108,33.816C11.642,32.684,11.398,31.485,11.398,30.264L11.398,25.358C11.398,24.137,11.642,22.938,12.108,21.805C12.575,20.718,13.218,19.741,14.062,18.919C14.884,18.098,15.883,17.432,16.948,16.966C18.058,16.499,19.279,16.255,20.5,16.255L35.842,16.255C37.063,16.255,38.261,16.499,39.394,16.966C40.482,17.432,41.458,18.076,42.28,18.919C43.101,19.741,43.767,20.74,44.234,21.805C44.7,22.938,44.944,24.137,44.944,25.358L44.944,30.264C44.944,31.707,44.611,33.128,43.945,34.394C43.301,35.637,42.413,36.702,41.303,37.546C41.747,38.257,42.013,39.078,42.036,39.899C42.013,40.788,41.569,41.609,40.815,42.097C40.393,42.43,39.86,42.586,39.305,42.564ZM28.626,27.911C28.537,27.911,28.471,27.911,28.426,27.911C26.828,27.889,25.274,28.333,23.942,29.198C23.031,29.82,22.343,30.708,21.944,31.752C21.744,32.262,21.633,32.817,21.633,33.35C21.588,33.683,21.677,33.994,21.877,34.26C22.232,34.593,25.318,34.727,28.093,34.727C31.401,34.727,34.998,34.549,35.286,34.26C35.508,34.038,35.531,32.95,35.042,31.752C34.62,30.708,33.932,29.82,33.022,29.154C31.712,28.288,30.18,27.866,28.626,27.911ZM28.515,19.785C26.517,19.785,24.918,21.406,24.896,23.404C24.896,25.402,26.517,27.001,28.515,27.023C30.513,27.023,32.112,25.402,32.134,23.404C32.134,21.406,30.513,19.807,28.515,19.785ZM28.515,19.785"/>
</g>
  <g id="Ultralight-S" transform="matrix(1.0,0.0,0.0,1.0,533.248415787695,633.018435318945)">  <path xmlns:xlink="http://www.w3.org/1999/xlink" fill-rule="nonzero" version="1.1" stroke="none" stroke-linejoin="miter" stroke-dasharray="none" stroke-miterlimit="4" fill="#000000" xml:space="preserve" stroke-linecap="butt" stroke-width="1px" stroke-opacity="1" x="0px" y="0px" fill-opacity="1" d="M39.305,42.564C37.618,42.564,35.131,41.498,31.912,39.367L20.5,39.367C19.279,39.367,18.08,39.122,16.948,38.656C15.86,38.19,14.884,37.546,14.062,36.702C13.241,35.881,12.575,34.882,12.108,33.816C11.642,32.684,11.398,31.485,11.398,30.264L11.398,25.358C11.398,24.137,11.642,22.938,12.108,21.805C12.575,20.718,13.218,19.741,14.062,18.919C14.884,18.098,15.883,17.432,16.948,16.966C18.058,16.499,19.279,16.255,20.5,16.255L35.842,16.255C37.063,16.255,38.261,16.499,39.394,16.966C40.482,17.432,41.458,18.076,42.28,18.919C43.101,19.741,43.767,20.74,44.234,21.805C44.7,22.938,44.944,24.137,44.944,25.358L44.944,30.264C44.944,31.707,44.611,33.128,43.945,34.394C43.301,35.637,42.413,36.702,41.303,37.546C41.747,38.257,42.013,39.078,42.036,39.899C42.013,40.788,41.569,41.609,40.815,42.097C40.393,42.43,39.86,42.586,39.305,42.564ZM28.626,27.911C28.537,27.911,28.471,27.911,28.426,27.911C26.828,27.889,25.274,28.333,23.942,29.198C23.031,29.82,22.343,30.708,21.944,31.752C21.744,32.262,21.633,32.817,21.633,33.35C21.588,33.683,21.677,33.994,21.877,34.26C22.232,34.593,25.318,34.727,28.093,34.727C31.401,34.727,34.998,34.549,35.286,34.26C35.508,34.038,35.531,32.95,35.042,31.752C34.62,30.708,33.932,29.82,33.022,29.154C31.712,28.288,30.18,27.866,28.626,27.911ZM28.515,19.785C26.517,19.785,24.918,21.406,24.896,23.404C24.896,25.402,26.517,27.001,28.515,27.023C30.513,27.023,32.112,25.402,32.134,23.404C32.134,21.406,30.513,19.807,28.515,19.785ZM28.515,19.785"/>
</g>
 </g>
</svg>
