<?xml version="1.0" encoding="UTF-8"?>
<!--Generator: CustomSymbols by @serious_bret-->
<!DOCTYPE svg
PUBLIC "-//W3C//DTD SVG 1.1//EN"
       "http://www.w3.org/Graphics/SVG/1.1/DTD/svg11.dtd">
<svg version="1.1" xmlns="http://www.w3.org/2000/svg" xmlns:xlink="http://www.w3.org/1999/xlink" width="3300" height="2200">
 <g id="Notes">
  <rect height="2200" id="artboard" style="fill:white;opacity:1" width="3300" x="0" y="0"/>
  <line id="" style="fill:none;stroke:black;opacity:1;stroke-width:0.5;" x1="263" x2="3036" y1="292" y2="292"/>
  <text id="reftext1" style="stroke:none;fill:black;font-family:-apple-system,&quot;SF Pro Display&quot;,&quot;SF Pro Text&quot;,Helvetica,sans-serif;font-weight:bold;" transform="matrix(1 0 0 1 263 322)">Weight/Scale Variations</text>
  <text id="reftext2" style="stroke:none;fill:black;font-family:-apple-system,&quot;SF Pro Display&quot;,&quot;SF Pro Text&quot;,Helvetica,sans-serif;text-anchor:middle;" transform="matrix(1 0 0 1 559.711 322)">Ultralight</text>
  <text style="stroke:none;fill:black;font-family:-apple-system,&quot;SF Pro Display&quot;,&quot;SF Pro Text&quot;,Helvetica,sans-serif;text-anchor:middle;" transform="matrix(1 0 0 1 856.422 322)">Thin</text>
  <text style="stroke:none;fill:black;font-family:-apple-system,&quot;SF Pro Display&quot;,&quot;SF Pro Text&quot;,Helvetica,sans-serif;text-anchor:middle;" transform="matrix(1 0 0 1 1153.13 322)">Light</text>
  <text style="stroke:none;fill:black;font-family:-apple-system,&quot;SF Pro Display&quot;,&quot;SF Pro Text&quot;,Helvetica,sans-serif;text-anchor:middle;" transform="matrix(1 0 0 1 1449.84 322)">Regular</text>
  <text style="stroke:none;fill:black;font-family:-apple-system,&quot;SF Pro Display&quot;,&quot;SF Pro Text&quot;,Helvetica,sans-serif;text-anchor:middle;" transform="matrix(1 0 0 1 1746.56 322)">Medium</text>
  <text style="stroke:none;fill:black;font-family:-apple-system,&quot;SF Pro Display&quot;,&quot;SF Pro Text&quot;,Helvetica,sans-serif;text-anchor:middle;" transform="matrix(1 0 0 1 2043.27 322)">Semibold</text>
  <text style="stroke:none;fill:black;font-family:-apple-system,&quot;SF Pro Display&quot;,&quot;SF Pro Text&quot;,Helvetica,sans-serif;text-anchor:middle;" transform="matrix(1 0 0 1 2339.98 322)">Bold</text>
  <text style="stroke:none;fill:black;font-family:-apple-system,&quot;SF Pro Display&quot;,&quot;SF Pro Text&quot;,Helvetica,sans-serif;text-anchor:middle;" transform="matrix(1 0 0 1 2636.69 322)">Heavy</text>
  <text style="stroke:none;fill:black;font-family:-apple-system,&quot;SF Pro Display&quot;,&quot;SF Pro Text&quot;,Helvetica,sans-serif;text-anchor:middle;" transform="matrix(1 0 0 1 2933.4 322)">Black</text>
  <line id="" style="fill:none;stroke:black;opacity:1;stroke-width:0.5;" x1="263" x2="3036" y1="1903" y2="1903"/>
  <g id="" transform="matrix(1 0 0 1 263 1933)">
   <path d="M9.24805 0.830078C13.5547 0.830078 17.1387-2.74414 17.1387-7.05078C17.1387-11.3574 13.5449-14.9316 9.23828-14.9316C4.94141-14.9316 1.36719-11.3574 1.36719-7.05078C1.36719-2.74414 4.95117 0.830078 9.24805 0.830078ZM9.24805-0.654297C5.70312-0.654297 2.87109-3.49609 2.87109-7.05078C2.87109-10.6055 5.69336-13.4473 9.23828-13.4473C12.793-13.4473 15.6348-10.6055 15.6445-7.05078C15.6543-3.49609 12.8027-0.654297 9.24805-0.654297ZM6.39648-6.31836L8.50586-6.31836L8.50586-4.19922C8.50586-3.75977 8.79883-3.45703 9.22852-3.45703C9.67773-3.45703 9.9707-3.75977 9.9707-4.19922L9.9707-6.31836L12.0996-6.31836C12.5391-6.31836 12.8418-6.61133 12.8418-7.04102C12.8418-7.48047 12.5391-7.7832 12.0996-7.7832L9.9707-7.7832L9.9707-9.89258C9.9707-10.3418 9.67773-10.6445 9.22852-10.6445C8.79883-10.6445 8.50586-10.3418 8.50586-9.89258L8.50586-7.7832L6.39648-7.7832C5.94727-7.7832 5.64453-7.48047 5.64453-7.04102C5.64453-6.61133 5.94727-6.31836 6.39648-6.31836Z"/>
  </g>
  <g id="" transform="matrix(1 0 0 1 281.506 1933)">
   <path d="M11.709 2.91016C17.1582 2.91016 21.6699-1.61133 21.6699-7.05078C21.6699-12.5 17.1484-17.0117 11.6992-17.0117C6.25977-17.0117 1.74805-12.5 1.74805-7.05078C1.74805-1.61133 6.26953 2.91016 11.709 2.91016ZM11.709 1.25C7.09961 1.25 3.41797-2.44141 3.41797-7.05078C3.41797-11.6602 7.08984-15.3516 11.6992-15.3516C16.3086-15.3516 20-11.6602 20.0098-7.05078C20.0195-2.44141 16.3184 1.25 11.709 1.25ZM7.98828-6.23047L10.8789-6.23047L10.8789-3.32031C10.8789-2.83203 11.2109-2.5 11.6895-2.5C12.1777-2.5 12.5195-2.83203 12.5195-3.32031L12.5195-6.23047L15.4297-6.23047C15.918-6.23047 16.25-6.5625 16.25-7.04102C16.25-7.5293 15.918-7.87109 15.4297-7.87109L12.5195-7.87109L12.5195-10.7617C12.5195-11.2695 12.1777-11.6016 11.6895-11.6016C11.2109-11.6016 10.8789-11.2598 10.8789-10.7617L10.8789-7.87109L7.98828-7.87109C7.48047-7.87109 7.14844-7.5293 7.14844-7.04102C7.14844-6.5625 7.49023-6.23047 7.98828-6.23047Z"/>
  </g>
  <g id="" transform="matrix(1 0 0 1 304.924 1933)">
   <path d="M14.9707 5.66406C21.9336 5.66406 27.6953-0.0976562 27.6953-7.05078C27.6953-14.0137 21.9238-19.7754 14.9609-19.7754C8.00781-19.7754 2.25586-14.0137 2.25586-7.05078C2.25586-0.0976562 8.01758 5.66406 14.9707 5.66406ZM14.9707 3.84766C8.93555 3.84766 4.08203-1.01562 4.08203-7.05078C4.08203-13.0957 8.92578-17.9492 14.9609-17.9492C21.0059-17.9492 25.8594-13.0957 25.8691-7.05078C25.8789-1.01562 21.0156 3.84766 14.9707 3.84766ZM10.0586-6.14258L14.0625-6.14258L14.0625-2.12891C14.0625-1.5918 14.4336-1.2207 14.9512-1.2207C15.4883-1.2207 15.8594-1.5918 15.8594-2.12891L15.8594-6.14258L19.8828-6.14258C20.4102-6.14258 20.791-6.51367 20.791-7.03125C20.791-7.56836 20.4199-7.94922 19.8828-7.94922L15.8594-7.94922L15.8594-11.9531C15.8594-12.5098 15.4883-12.8809 14.9512-12.8809C14.4336-12.8809 14.0625-12.5 14.0625-11.9531L14.0625-7.94922L10.0586-7.94922C9.50195-7.94922 9.13086-7.56836 9.13086-7.03125C9.13086-6.51367 9.51172-6.14258 10.0586-6.14258Z"/>
  </g>
  <text style="stroke:none;fill:black;font-family:-apple-system,&quot;SF Pro Display&quot;,&quot;SF Pro Text&quot;,Helvetica,sans-serif;font-weight:bold;" transform="matrix(1 0 0 1 263 1953)">Design Variations</text>
  <text style="stroke:none;fill:black;font-family:-apple-system,&quot;SF Pro Display&quot;,&quot;SF Pro Text&quot;,Helvetica,sans-serif;" transform="matrix(1 0 0 1 263 1971)">Symbols are supported in up to nine weights and three scales.</text>
  <text style="stroke:none;fill:black;font-family:-apple-system,&quot;SF Pro Display&quot;,&quot;SF Pro Text&quot;,Helvetica,sans-serif;" transform="matrix(1 0 0 1 263 1989)">For optimal layout with text and other symbols, vertically align</text>
  <text style="stroke:none;fill:black;font-family:-apple-system,&quot;SF Pro Display&quot;,&quot;SF Pro Text&quot;,Helvetica,sans-serif;" transform="matrix(1 0 0 1 263 2007)">symbols with the adjacent text.</text>
  <line id="" style="fill:none;stroke:#00AEEF;stroke-width:0.5;opacity:1.0;" x1="776" x2="776" y1="1919" y2="1933"/>
  <g id="" transform="matrix(1 0 0 1 776 1933)">
   <path d="M3.31055 0.126953C3.82812 0.126953 4.08203-0.0683594 4.26758-0.605469L5.52734-4.0625L11.2891-4.0625L12.5488-0.605469C12.7344-0.0683594 12.9883 0.126953 13.4961 0.126953C14.0137 0.126953 14.3457-0.185547 14.3457-0.673828C14.3457-0.839844 14.3164-0.986328 14.2383-1.20117L9.6582-13.3887C9.43359-13.9941 9.0332-14.2871 8.4082-14.2871C7.80273-14.2871 7.39258-13.9941 7.17773-13.3984L2.59766-1.19141C2.51953-0.976562 2.49023-0.830078 2.49023-0.664062C2.49023-0.175781 2.80273 0.126953 3.31055 0.126953ZM6.00586-5.53711L8.37891-12.1094L8.42773-12.1094L10.8008-5.53711Z"/>
  </g>
  <line id="" style="fill:none;stroke:#00AEEF;stroke-width:0.5;opacity:1.0;" x1="792.836" x2="792.836" y1="1919" y2="1933"/>
  <text style="stroke:none;fill:black;font-family:-apple-system,&quot;SF Pro Display&quot;,&quot;SF Pro Text&quot;,Helvetica,sans-serif;font-weight:bold;" transform="matrix(1 0 0 1 776 1953)">Margins</text>
  <text style="stroke:none;fill:black;font-family:-apple-system,&quot;SF Pro Display&quot;,&quot;SF Pro Text&quot;,Helvetica,sans-serif;" transform="matrix(1 0 0 1 776 1971)">Leading and trailing margins on the left and right side of each symbol</text>
  <text style="stroke:none;fill:black;font-family:-apple-system,&quot;SF Pro Display&quot;,&quot;SF Pro Text&quot;,Helvetica,sans-serif;" transform="matrix(1 0 0 1 776 1989)">can be adjusted by modifying the x-location of the margin guidelines.</text>
  <text style="stroke:none;fill:black;font-family:-apple-system,&quot;SF Pro Display&quot;,&quot;SF Pro Text&quot;,Helvetica,sans-serif;" transform="matrix(1 0 0 1 776 2007)">Modifications are automatically applied proportionally to all</text>
  <text style="stroke:none;fill:black;font-family:-apple-system,&quot;SF Pro Display&quot;,&quot;SF Pro Text&quot;,Helvetica,sans-serif;" transform="matrix(1 0 0 1 776 2025)">scales and weights.</text>
  <g id="" transform="matrix(1 0 0 1 1289 1933)">
   <path d="M2.8418 1.86523L4.54102 3.57422C5.40039 4.44336 6.38672 4.38477 7.31445 3.35938L17.4902-7.85156C17.7539-7.76367 18.0273-7.7832 18.3398-7.8418L19.4043-8.03711L20.0684-7.36328L20.0293-6.80664C19.9902-6.30859 20.1172-5.92773 20.6055-5.44922L21.3672-4.70703C21.8457-4.22852 22.4609-4.19922 22.9297-4.66797L25.8398-7.58789C26.3086-8.05664 26.2891-8.65234 25.8105-9.13086L25.0391-9.89258C24.5605-10.3711 24.1895-10.5273 23.7109-10.4883L23.1348-10.4395L22.4902-11.0742L22.7344-12.1973C22.8613-12.7637 22.7051-13.2031 22.1191-13.7891L19.9219-15.9766C16.582-19.2969 12.1484-19.2188 9.25781-16.3281C8.83789-15.918 8.80859-15.3418 9.04297-14.9512C9.27734-14.5898 9.73633-14.3555 10.3809-14.5215C11.8457-14.8633 13.3691-14.9219 14.7949-13.9844L14.209-12.5293C14.0137-12.0508 13.9844-11.6504 14.1113-11.2891L3.04688-0.898438C2.06055 0.0195312 1.98242 0.996094 2.8418 1.86523ZM10.752-15.957C13.1836-17.7344 16.4746-17.4316 18.7012-15.2051L21.1328-12.793C21.3672-12.5586 21.4062-12.373 21.3379-12.0312L21.0156-10.5469L22.5195-9.0625L23.5059-9.12109C23.7598-9.13086 23.8379-9.11133 24.0332-8.91602L24.6094-8.33984L22.168-5.89844L21.5918-6.47461C21.3965-6.66992 21.3672-6.74805 21.377-7.01172L21.4453-7.98828L19.9512-9.47266L18.4277-9.21875C18.1055-9.15039 17.959-9.17969 17.7148-9.41406L15.7129-11.416C15.459-11.6504 15.4297-11.8164 15.5859-12.1875L16.4648-14.2773C14.9023-15.7324 12.8711-16.3574 10.8398-15.7617C10.6836-15.7227 10.625-15.8496 10.752-15.957ZM5.27344 2.30469L4.10156 1.14258C3.63281 0.683594 3.74023 0.341797 4.14062-0.0195312L14.9512-10.1953L16.416-8.71094L6.42578 2.27539C6.07422 2.67578 5.74219 2.77344 5.27344 2.30469Z"/>
  </g>
  <text style="stroke:none;fill:black;font-family:-apple-system,&quot;SF Pro Display&quot;,&quot;SF Pro Text&quot;,Helvetica,sans-serif;font-weight:bold;" transform="matrix(1 0 0 1 1289 1953)">Exporting</text>
  <text style="stroke:none;fill:black;font-family:-apple-system,&quot;SF Pro Display&quot;,&quot;SF Pro Text&quot;,Helvetica,sans-serif;" transform="matrix(1 0 0 1 1289 1971)">Symbols should be outlined when exporting to ensure the</text>
  <text style="stroke:none;fill:black;font-family:-apple-system,&quot;SF Pro Display&quot;,&quot;SF Pro Text&quot;,Helvetica,sans-serif;" transform="matrix(1 0 0 1 1289 1989)">design is preserved when submitting to Xcode.</text>
  <text id="template-version" style="stroke:none;fill:black;font-family:-apple-system,&quot;SF Pro Display&quot;,&quot;SF Pro Text&quot;,Helvetica,sans-serif;text-anchor:end;" transform="matrix(1 0 0 1 3036 1933)">Template v.2.0</text>
  <text style="stroke:none;fill:black;font-family:-apple-system,&quot;SF Pro Display&quot;,&quot;SF Pro Text&quot;,Helvetica,sans-serif;text-anchor:end;" transform="matrix(1 0 0 1 3036 1951)">Requires Xcode 12 or greater</text>
  <text style="stroke:none;fill:black;font-family:-apple-system,&quot;SF Pro Display&quot;,&quot;SF Pro Text&quot;,Helvetica,sans-serif;" transform="matrix(1 0 0 1 263 726)">Small</text>
  <text style="stroke:none;fill:black;font-family:-apple-system,&quot;SF Pro Display&quot;,&quot;SF Pro Text&quot;,Helvetica,sans-serif;" transform="matrix(1 0 0 1 263 1156)">Medium</text>
  <text style="stroke:none;fill:black;font-family:-apple-system,&quot;SF Pro Display&quot;,&quot;SF Pro Text&quot;,Helvetica,sans-serif;" transform="matrix(1 0 0 1 263 1586)">Large</text>
 </g>
 <g id="Guides">
  <g id="H-reference" style="fill:#27AAE1;stroke:none;" transform="matrix(1 0 0 1 339 696)">
   <path d="M0.976562 0L3.66211 0L12.9883-24.4629L45.752-24.4629L55.127 0L57.7637 0L30.6152-70.459L28.125-70.459ZM29.3457-67.1387L29.4434-67.1387L44.873-26.709L13.8672-26.709Z"/>
  </g>
  <line id="Baseline-S" style="fill:none;stroke:#27AAE1;opacity:1;stroke-width:0.5;" x1="263" x2="3036" y1="696" y2="696"/>
  <line id="Capline-S" style="fill:none;stroke:#27AAE1;opacity:1;stroke-width:0.5;" x1="263" x2="3036" y1="625.541" y2="625.541"/>
  <g id="H-reference" style="fill:#27AAE1;stroke:none;" transform="matrix(1 0 0 1 339 1126)">
   <path d="M0.976562 0L3.66211 0L12.9883-24.4629L45.752-24.4629L55.127 0L57.7637 0L30.6152-70.459L28.125-70.459ZM29.3457-67.1387L29.4434-67.1387L44.873-26.709L13.8672-26.709Z"/>
  </g>
  <line id="Baseline-M" style="fill:none;stroke:#27AAE1;opacity:1;stroke-width:0.5;" x1="263" x2="3036" y1="1126" y2="1126"/>
  <line id="Capline-M" style="fill:none;stroke:#27AAE1;opacity:1;stroke-width:0.5;" x1="263" x2="3036" y1="1055.54" y2="1055.54"/>
  <g id="H-reference" style="fill:#27AAE1;stroke:none;" transform="matrix(1 0 0 1 339 1556)">
   <path d="M0.976562 0L3.66211 0L12.9883-24.4629L45.752-24.4629L55.127 0L57.7637 0L30.6152-70.459L28.125-70.459ZM29.3457-67.1387L29.4434-67.1387L44.873-26.709L13.8672-26.709Z"/>
  </g>
  <line id="Baseline-L" style="fill:none;stroke:#27AAE1;opacity:1;stroke-width:0.5;" x1="263" x2="3036" y1="1556" y2="1556"/>
  <line id="Capline-L" style="fill:none;stroke:#27AAE1;opacity:1;stroke-width:0.5;" x1="263" x2="3036" y1="1485.54" y2="1485.54"/>
  <line id="left-margin" x1="1415.3329373506665" x2="1415.3329373506665" y1="1030.79" y2="1150.12" style="fill:none;stroke:#00AEEF;stroke-width:0.5;opacity:1.0;"/>
  <line id="right-margin" x1="1486.9270626493333" x2="1486.9270626493333" y1="1030.79" y2="1150.12" style="fill:none;stroke:#00AEEF;stroke-width:0.5;opacity:1.0;"/>
 </g>
 <g id="Symbols">
  <g id="Black-L" transform="matrix(1.0,0.0,0.0,1.0,2888.958999190455,1475.0490187217051)">  <path stroke-width="1px" stroke-opacity="1" stroke="none" stroke-dasharray="none" stroke-linecap="butt" stroke-linejoin="miter" stroke-miterlimit="4" fill="#000000" fill-opacity="1" fill-rule="nonzero" d="M45.721,91.442C39.609,91.453,33.556,90.231,27.926,87.85C25.209,86.698,22.604,85.286,20.161,83.637C17.732,81.994,15.468,80.125,13.394,78.055C11.324,75.981,9.451,73.717,7.813,71.288C6.16,68.841,4.748,66.241,3.599,63.523C1.211,57.886,-0.011,51.833,0,45.721C-0.011,39.609,1.211,33.556,3.592,27.923C4.744,25.205,6.156,22.601,7.805,20.154C9.448,17.725,11.317,15.461,13.387,13.387C15.461,11.317,17.725,9.448,20.154,7.805C22.601,6.152,25.201,4.74,27.919,3.592C33.556,1.211,39.609,-0.011,45.721,0C51.833,-0.011,57.886,1.211,63.519,3.592C66.237,4.744,68.841,6.156,71.285,7.805C73.713,9.448,75.977,11.317,78.051,13.387C80.121,15.461,81.991,17.725,83.633,20.154C85.286,22.601,86.698,25.201,87.847,27.923C90.228,33.552,91.449,39.605,91.438,45.717C91.449,51.829,90.228,57.883,87.847,63.512C86.694,66.23,85.282,68.83,83.633,71.277C81.991,73.706,80.121,75.97,78.051,78.044C75.977,80.114,73.713,81.987,71.285,83.626C68.838,85.279,66.237,86.691,63.519,87.839C57.89,90.224,51.837,91.446,45.725,91.435ZM45.728,22.008C44.064,22.008,42.451,22.593,41.167,23.654L25.593,36.573C24.247,37.663,23.351,39.214,23.08,40.926C22.934,41.401,22.857,41.899,22.86,42.396L22.86,60.008C22.853,62.473,23.833,64.836,25.582,66.573C27.319,68.322,29.686,69.302,32.147,69.295L59.295,69.295C61.76,69.302,64.123,68.322,65.86,66.573C67.609,64.836,68.589,62.47,68.582,60.008L68.582,42.396C68.582,41.932,68.516,41.467,68.388,41.017C68.139,39.269,67.235,37.681,65.86,36.573L50.286,23.654C49.006,22.59,47.393,22.008,45.725,22.008L45.725,22.008ZM45.728,22.008"/>
</g>
  <g id="Heavy-L" transform="matrix(1.0,0.0,0.0,1.0,2592.248999190455,1475.0490187217051)">  <path fill="#000000" fill-rule="nonzero" stroke-width="1px" stroke-linejoin="miter" stroke="none" fill-opacity="1" stroke-opacity="1" stroke-linecap="butt" stroke-dasharray="none" stroke-miterlimit="4" d="M45.721,91.442C39.609,91.453,33.556,90.231,27.926,87.85C25.209,86.698,22.604,85.286,20.161,83.637C17.732,81.994,15.468,80.125,13.394,78.055C11.324,75.981,9.451,73.717,7.813,71.288C6.16,68.841,4.748,66.241,3.599,63.523C1.211,57.886,-0.011,51.833,0,45.721C-0.011,39.609,1.211,33.556,3.592,27.923C4.744,25.205,6.156,22.601,7.805,20.154C9.448,17.725,11.317,15.461,13.387,13.387C15.461,11.317,17.725,9.448,20.154,7.805C22.601,6.152,25.201,4.74,27.919,3.592C33.556,1.211,39.609,-0.011,45.721,0C51.833,-0.011,57.886,1.211,63.519,3.592C66.237,4.744,68.841,6.156,71.285,7.805C73.713,9.448,75.977,11.317,78.051,13.387C80.121,15.461,81.991,17.725,83.633,20.154C85.286,22.601,86.698,25.201,87.847,27.923C90.228,33.552,91.449,39.605,91.438,45.717C91.449,51.829,90.228,57.883,87.847,63.512C86.694,66.23,85.282,68.83,83.633,71.277C81.991,73.706,80.121,75.97,78.051,78.044C75.977,80.114,73.713,81.987,71.285,83.626C68.838,85.279,66.237,86.691,63.519,87.839C57.89,90.224,51.837,91.446,45.725,91.435ZM45.728,22.008C44.064,22.008,42.451,22.593,41.167,23.654L25.593,36.573C24.247,37.663,23.351,39.214,23.08,40.926C22.934,41.401,22.857,41.899,22.86,42.396L22.86,60.008C22.853,62.473,23.833,64.836,25.582,66.573C27.319,68.322,29.686,69.302,32.147,69.295L59.295,69.295C61.76,69.302,64.123,68.322,65.86,66.573C67.609,64.836,68.589,62.47,68.582,60.008L68.582,42.396C68.582,41.932,68.516,41.467,68.388,41.017C68.139,39.269,67.235,37.681,65.86,36.573L50.286,23.654C49.006,22.59,47.393,22.008,45.725,22.008L45.725,22.008ZM45.728,22.008"/>
</g>
  <g id="Bold-L" transform="matrix(1.0,0.0,0.0,1.0,2295.538999190455,1475.0490187217051)">  <path stroke-linejoin="miter" fill-opacity="1" fill-rule="nonzero" stroke-linecap="butt" stroke-width="1px" fill="#000000" stroke-miterlimit="4" stroke-dasharray="none" stroke="none" stroke-opacity="1" d="M45.721,91.442C39.609,91.453,33.556,90.231,27.926,87.85C25.209,86.698,22.604,85.286,20.161,83.637C17.732,81.994,15.468,80.125,13.394,78.055C11.324,75.981,9.451,73.717,7.813,71.288C6.16,68.841,4.748,66.241,3.599,63.523C1.211,57.886,-0.011,51.833,0,45.721C-0.011,39.609,1.211,33.556,3.592,27.923C4.744,25.205,6.156,22.601,7.805,20.154C9.448,17.725,11.317,15.461,13.387,13.387C15.461,11.317,17.725,9.448,20.154,7.805C22.601,6.152,25.201,4.74,27.919,3.592C33.556,1.211,39.609,-0.011,45.721,0C51.833,-0.011,57.886,1.211,63.519,3.592C66.237,4.744,68.841,6.156,71.285,7.805C73.713,9.448,75.977,11.317,78.051,13.387C80.121,15.461,81.991,17.725,83.633,20.154C85.286,22.601,86.698,25.201,87.847,27.923C90.228,33.552,91.449,39.605,91.438,45.717C91.449,51.829,90.228,57.883,87.847,63.512C86.694,66.23,85.282,68.83,83.633,71.277C81.991,73.706,80.121,75.97,78.051,78.044C75.977,80.114,73.713,81.987,71.285,83.626C68.838,85.279,66.237,86.691,63.519,87.839C57.89,90.224,51.837,91.446,45.725,91.435ZM45.728,22.008C44.064,22.008,42.451,22.593,41.167,23.654L25.593,36.573C24.247,37.663,23.351,39.214,23.08,40.926C22.934,41.401,22.857,41.899,22.86,42.396L22.86,60.008C22.853,62.473,23.833,64.836,25.582,66.573C27.319,68.322,29.686,69.302,32.147,69.295L59.295,69.295C61.76,69.302,64.123,68.322,65.86,66.573C67.609,64.836,68.589,62.47,68.582,60.008L68.582,42.396C68.582,41.932,68.516,41.467,68.388,41.017C68.139,39.269,67.235,37.681,65.86,36.573L50.286,23.654C49.006,22.59,47.393,22.008,45.725,22.008L45.725,22.008ZM45.728,22.008"/>
</g>
  <g id="Semibold-L" transform="matrix(1.0,0.0,0.0,1.0,1998.828999190455,1475.0490187217051)">  <path stroke="none" stroke-dasharray="none" stroke-linejoin="miter" stroke-miterlimit="4" stroke-opacity="1" fill-opacity="1" stroke-linecap="butt" fill-rule="nonzero" fill="#000000" stroke-width="1px" d="M45.721,91.442C39.609,91.453,33.556,90.231,27.926,87.85C25.209,86.698,22.604,85.286,20.161,83.637C17.732,81.994,15.468,80.125,13.394,78.055C11.324,75.981,9.451,73.717,7.813,71.288C6.16,68.841,4.748,66.241,3.599,63.523C1.211,57.886,-0.011,51.833,0,45.721C-0.011,39.609,1.211,33.556,3.592,27.923C4.744,25.205,6.156,22.601,7.805,20.154C9.448,17.725,11.317,15.461,13.387,13.387C15.461,11.317,17.725,9.448,20.154,7.805C22.601,6.152,25.201,4.74,27.919,3.592C33.556,1.211,39.609,-0.011,45.721,0C51.833,-0.011,57.886,1.211,63.519,3.592C66.237,4.744,68.841,6.156,71.285,7.805C73.713,9.448,75.977,11.317,78.051,13.387C80.121,15.461,81.991,17.725,83.633,20.154C85.286,22.601,86.698,25.201,87.847,27.923C90.228,33.552,91.449,39.605,91.438,45.717C91.449,51.829,90.228,57.883,87.847,63.512C86.694,66.23,85.282,68.83,83.633,71.277C81.991,73.706,80.121,75.97,78.051,78.044C75.977,80.114,73.713,81.987,71.285,83.626C68.838,85.279,66.237,86.691,63.519,87.839C57.89,90.224,51.837,91.446,45.725,91.435ZM45.728,22.008C44.064,22.008,42.451,22.593,41.167,23.654L25.593,36.573C24.247,37.663,23.351,39.214,23.08,40.926C22.934,41.401,22.857,41.899,22.86,42.396L22.86,60.008C22.853,62.473,23.833,64.836,25.582,66.573C27.319,68.322,29.686,69.302,32.147,69.295L59.295,69.295C61.76,69.302,64.123,68.322,65.86,66.573C67.609,64.836,68.589,62.47,68.582,60.008L68.582,42.396C68.582,41.932,68.516,41.467,68.388,41.017C68.139,39.269,67.235,37.681,65.86,36.573L50.286,23.654C49.006,22.59,47.393,22.008,45.725,22.008L45.725,22.008ZM45.728,22.008"/>
</g>
  <g id="Medium-L" transform="matrix(1.0,0.0,0.0,1.0,1702.118999190455,1475.0490187217051)">  <path stroke-miterlimit="4" stroke-dasharray="none" stroke="none" fill-rule="nonzero" fill-opacity="1" stroke-opacity="1" stroke-width="1px" fill="#000000" stroke-linecap="butt" stroke-linejoin="miter" d="M45.721,91.442C39.609,91.453,33.556,90.231,27.926,87.85C25.209,86.698,22.604,85.286,20.161,83.637C17.732,81.994,15.468,80.125,13.394,78.055C11.324,75.981,9.451,73.717,7.813,71.288C6.16,68.841,4.748,66.241,3.599,63.523C1.211,57.886,-0.011,51.833,0,45.721C-0.011,39.609,1.211,33.556,3.592,27.923C4.744,25.205,6.156,22.601,7.805,20.154C9.448,17.725,11.317,15.461,13.387,13.387C15.461,11.317,17.725,9.448,20.154,7.805C22.601,6.152,25.201,4.74,27.919,3.592C33.556,1.211,39.609,-0.011,45.721,0C51.833,-0.011,57.886,1.211,63.519,3.592C66.237,4.744,68.841,6.156,71.285,7.805C73.713,9.448,75.977,11.317,78.051,13.387C80.121,15.461,81.991,17.725,83.633,20.154C85.286,22.601,86.698,25.201,87.847,27.923C90.228,33.552,91.449,39.605,91.438,45.717C91.449,51.829,90.228,57.883,87.847,63.512C86.694,66.23,85.282,68.83,83.633,71.277C81.991,73.706,80.121,75.97,78.051,78.044C75.977,80.114,73.713,81.987,71.285,83.626C68.838,85.279,66.237,86.691,63.519,87.839C57.89,90.224,51.837,91.446,45.725,91.435ZM45.728,22.008C44.064,22.008,42.451,22.593,41.167,23.654L25.593,36.573C24.247,37.663,23.351,39.214,23.08,40.926C22.934,41.401,22.857,41.899,22.86,42.396L22.86,60.008C22.853,62.473,23.833,64.836,25.582,66.573C27.319,68.322,29.686,69.302,32.147,69.295L59.295,69.295C61.76,69.302,64.123,68.322,65.86,66.573C67.609,64.836,68.589,62.47,68.582,60.008L68.582,42.396C68.582,41.932,68.516,41.467,68.388,41.017C68.139,39.269,67.235,37.681,65.86,36.573L50.286,23.654C49.006,22.59,47.393,22.008,45.725,22.008L45.725,22.008ZM45.728,22.008"/>
</g>
  <g id="Regular-L" transform="matrix(1.0,0.0,0.0,1.0,1405.408999190455,1475.0490187217051)">  <path stroke="none" stroke-dasharray="none" stroke-linecap="butt" fill-opacity="1" fill="#000000" stroke-opacity="1" stroke-linejoin="miter" stroke-width="1px" stroke-miterlimit="4" fill-rule="nonzero" d="M45.721,91.442C39.609,91.453,33.556,90.231,27.926,87.85C25.209,86.698,22.604,85.286,20.161,83.637C17.732,81.994,15.468,80.125,13.394,78.055C11.324,75.981,9.451,73.717,7.813,71.288C6.16,68.841,4.748,66.241,3.599,63.523C1.211,57.886,-0.011,51.833,0,45.721C-0.011,39.609,1.211,33.556,3.592,27.923C4.744,25.205,6.156,22.601,7.805,20.154C9.448,17.725,11.317,15.461,13.387,13.387C15.461,11.317,17.725,9.448,20.154,7.805C22.601,6.152,25.201,4.74,27.919,3.592C33.556,1.211,39.609,-0.011,45.721,0C51.833,-0.011,57.886,1.211,63.519,3.592C66.237,4.744,68.841,6.156,71.285,7.805C73.713,9.448,75.977,11.317,78.051,13.387C80.121,15.461,81.991,17.725,83.633,20.154C85.286,22.601,86.698,25.201,87.847,27.923C90.228,33.552,91.449,39.605,91.438,45.717C91.449,51.829,90.228,57.883,87.847,63.512C86.694,66.23,85.282,68.83,83.633,71.277C81.991,73.706,80.121,75.97,78.051,78.044C75.977,80.114,73.713,81.987,71.285,83.626C68.838,85.279,66.237,86.691,63.519,87.839C57.89,90.224,51.837,91.446,45.725,91.435ZM45.728,22.008C44.064,22.008,42.451,22.593,41.167,23.654L25.593,36.573C24.247,37.663,23.351,39.214,23.08,40.926C22.934,41.401,22.857,41.899,22.86,42.396L22.86,60.008C22.853,62.473,23.833,64.836,25.582,66.573C27.319,68.322,29.686,69.302,32.147,69.295L59.295,69.295C61.76,69.302,64.123,68.322,65.86,66.573C67.609,64.836,68.589,62.47,68.582,60.008L68.582,42.396C68.582,41.932,68.516,41.467,68.388,41.017C68.139,39.269,67.235,37.681,65.86,36.573L50.286,23.654C49.006,22.59,47.393,22.008,45.725,22.008L45.725,22.008ZM45.728,22.008"/>
</g>
  <g id="Light-L" transform="matrix(1.0,0.0,0.0,1.0,1108.6989991904552,1475.0490187217051)">  <path stroke-linejoin="miter" fill="#000000" fill-opacity="1" stroke-opacity="1" stroke-dasharray="none" fill-rule="nonzero" stroke="none" stroke-width="1px" stroke-linecap="butt" stroke-miterlimit="4" d="M45.721,91.442C39.609,91.453,33.556,90.231,27.926,87.85C25.209,86.698,22.604,85.286,20.161,83.637C17.732,81.994,15.468,80.125,13.394,78.055C11.324,75.981,9.451,73.717,7.813,71.288C6.16,68.841,4.748,66.241,3.599,63.523C1.211,57.886,-0.011,51.833,0,45.721C-0.011,39.609,1.211,33.556,3.592,27.923C4.744,25.205,6.156,22.601,7.805,20.154C9.448,17.725,11.317,15.461,13.387,13.387C15.461,11.317,17.725,9.448,20.154,7.805C22.601,6.152,25.201,4.74,27.919,3.592C33.556,1.211,39.609,-0.011,45.721,0C51.833,-0.011,57.886,1.211,63.519,3.592C66.237,4.744,68.841,6.156,71.285,7.805C73.713,9.448,75.977,11.317,78.051,13.387C80.121,15.461,81.991,17.725,83.633,20.154C85.286,22.601,86.698,25.201,87.847,27.923C90.228,33.552,91.449,39.605,91.438,45.717C91.449,51.829,90.228,57.883,87.847,63.512C86.694,66.23,85.282,68.83,83.633,71.277C81.991,73.706,80.121,75.97,78.051,78.044C75.977,80.114,73.713,81.987,71.285,83.626C68.838,85.279,66.237,86.691,63.519,87.839C57.89,90.224,51.837,91.446,45.725,91.435ZM45.728,22.008C44.064,22.008,42.451,22.593,41.167,23.654L25.593,36.573C24.247,37.663,23.351,39.214,23.08,40.926C22.934,41.401,22.857,41.899,22.86,42.396L22.86,60.008C22.853,62.473,23.833,64.836,25.582,66.573C27.319,68.322,29.686,69.302,32.147,69.295L59.295,69.295C61.76,69.302,64.123,68.322,65.86,66.573C67.609,64.836,68.589,62.47,68.582,60.008L68.582,42.396C68.582,41.932,68.516,41.467,68.388,41.017C68.139,39.269,67.235,37.681,65.86,36.573L50.286,23.654C49.006,22.59,47.393,22.008,45.725,22.008L45.725,22.008ZM45.728,22.008"/>
</g>
  <g id="Thin-L" transform="matrix(1.0,0.0,0.0,1.0,811.9889991904553,1475.0490187217051)">  <path stroke-width="1px" stroke-linejoin="miter" fill="#000000" fill-opacity="1" stroke-linecap="butt" fill-rule="nonzero" stroke-dasharray="none" stroke-opacity="1" stroke-miterlimit="4" stroke="none" d="M45.721,91.442C39.609,91.453,33.556,90.231,27.926,87.85C25.209,86.698,22.604,85.286,20.161,83.637C17.732,81.994,15.468,80.125,13.394,78.055C11.324,75.981,9.451,73.717,7.813,71.288C6.16,68.841,4.748,66.241,3.599,63.523C1.211,57.886,-0.011,51.833,0,45.721C-0.011,39.609,1.211,33.556,3.592,27.923C4.744,25.205,6.156,22.601,7.805,20.154C9.448,17.725,11.317,15.461,13.387,13.387C15.461,11.317,17.725,9.448,20.154,7.805C22.601,6.152,25.201,4.74,27.919,3.592C33.556,1.211,39.609,-0.011,45.721,0C51.833,-0.011,57.886,1.211,63.519,3.592C66.237,4.744,68.841,6.156,71.285,7.805C73.713,9.448,75.977,11.317,78.051,13.387C80.121,15.461,81.991,17.725,83.633,20.154C85.286,22.601,86.698,25.201,87.847,27.923C90.228,33.552,91.449,39.605,91.438,45.717C91.449,51.829,90.228,57.883,87.847,63.512C86.694,66.23,85.282,68.83,83.633,71.277C81.991,73.706,80.121,75.97,78.051,78.044C75.977,80.114,73.713,81.987,71.285,83.626C68.838,85.279,66.237,86.691,63.519,87.839C57.89,90.224,51.837,91.446,45.725,91.435ZM45.728,22.008C44.064,22.008,42.451,22.593,41.167,23.654L25.593,36.573C24.247,37.663,23.351,39.214,23.08,40.926C22.934,41.401,22.857,41.899,22.86,42.396L22.86,60.008C22.853,62.473,23.833,64.836,25.582,66.573C27.319,68.322,29.686,69.302,32.147,69.295L59.295,69.295C61.76,69.302,64.123,68.322,65.86,66.573C67.609,64.836,68.589,62.47,68.582,60.008L68.582,42.396C68.582,41.932,68.516,41.467,68.388,41.017C68.139,39.269,67.235,37.681,65.86,36.573L50.286,23.654C49.006,22.59,47.393,22.008,45.725,22.008L45.725,22.008ZM45.728,22.008"/>
</g>
  <g id="Ultralight-L" transform="matrix(1.0,0.0,0.0,1.0,515.2789991904552,1475.0490187217051)">  <path stroke-dasharray="none" stroke="none" fill="#000000" stroke-width="1px" stroke-linecap="butt" stroke-miterlimit="4" stroke-opacity="1" stroke-linejoin="miter" fill-rule="nonzero" fill-opacity="1" d="M45.721,91.442C39.609,91.453,33.556,90.231,27.926,87.85C25.209,86.698,22.604,85.286,20.161,83.637C17.732,81.994,15.468,80.125,13.394,78.055C11.324,75.981,9.451,73.717,7.813,71.288C6.16,68.841,4.748,66.241,3.599,63.523C1.211,57.886,-0.011,51.833,0,45.721C-0.011,39.609,1.211,33.556,3.592,27.923C4.744,25.205,6.156,22.601,7.805,20.154C9.448,17.725,11.317,15.461,13.387,13.387C15.461,11.317,17.725,9.448,20.154,7.805C22.601,6.152,25.201,4.74,27.919,3.592C33.556,1.211,39.609,-0.011,45.721,0C51.833,-0.011,57.886,1.211,63.519,3.592C66.237,4.744,68.841,6.156,71.285,7.805C73.713,9.448,75.977,11.317,78.051,13.387C80.121,15.461,81.991,17.725,83.633,20.154C85.286,22.601,86.698,25.201,87.847,27.923C90.228,33.552,91.449,39.605,91.438,45.717C91.449,51.829,90.228,57.883,87.847,63.512C86.694,66.23,85.282,68.83,83.633,71.277C81.991,73.706,80.121,75.97,78.051,78.044C75.977,80.114,73.713,81.987,71.285,83.626C68.838,85.279,66.237,86.691,63.519,87.839C57.89,90.224,51.837,91.446,45.725,91.435ZM45.728,22.008C44.064,22.008,42.451,22.593,41.167,23.654L25.593,36.573C24.247,37.663,23.351,39.214,23.08,40.926C22.934,41.401,22.857,41.899,22.86,42.396L22.86,60.008C22.853,62.473,23.833,64.836,25.582,66.573C27.319,68.322,29.686,69.302,32.147,69.295L59.295,69.295C61.76,69.302,64.123,68.322,65.86,66.573C67.609,64.836,68.589,62.47,68.582,60.008L68.582,42.396C68.582,41.932,68.516,41.467,68.388,41.017C68.139,39.269,67.235,37.681,65.86,36.573L50.286,23.654C49.006,22.59,47.393,22.008,45.725,22.008L45.725,22.008ZM45.728,22.008"/>
</g>
  <g id="Black-M" transform="matrix(1.0,0.0,0.0,1.0,2899.237363713531,1055.3273832447812)">  <path stroke-width="1px" stroke-opacity="1" stroke="none" stroke-dasharray="none" stroke-linecap="butt" stroke-linejoin="miter" stroke-miterlimit="4" fill="#000000" fill-opacity="1" fill-rule="nonzero" d="M35.443,70.885C30.705,70.894,26.012,69.947,21.648,68.101C19.542,67.208,17.523,66.113,15.629,64.835C13.746,63.561,11.991,62.113,10.383,60.508C8.778,58.9,7.327,57.145,6.056,55.262C4.775,53.365,3.68,51.349,2.79,49.243C0.939,44.873,-0.009,40.181,0,35.443C-0.009,30.705,0.939,26.012,2.784,21.646C3.678,19.539,4.772,17.52,6.051,15.623C7.324,13.74,8.773,11.985,10.378,10.378C11.985,8.773,13.74,7.324,15.623,6.051C17.52,4.769,19.536,3.675,21.643,2.784C26.012,0.939,30.705,-0.009,35.443,0C40.181,-0.009,44.873,0.939,49.24,2.784C51.346,3.678,53.365,4.772,55.259,6.051C57.142,7.324,58.897,8.773,60.505,10.378C62.11,11.985,63.559,13.74,64.832,15.623C66.113,17.52,67.208,19.536,68.098,21.646C69.944,26.009,70.891,30.702,70.882,35.44C70.891,40.178,69.944,44.87,68.098,49.234C67.205,51.341,66.11,53.357,64.832,55.254C63.559,57.136,62.11,58.891,60.505,60.499C58.897,62.104,57.142,63.556,55.259,64.826C53.362,66.108,51.346,67.202,49.24,68.092C44.876,69.941,40.183,70.888,35.445,70.88ZM35.448,17.061C34.158,17.061,32.908,17.514,31.913,18.337L19.839,28.351C18.796,29.196,18.101,30.398,17.891,31.725C17.778,32.094,17.718,32.48,17.721,32.865L17.721,46.518C17.716,48.429,18.476,50.26,19.831,51.607C21.178,52.963,23.012,53.723,24.92,53.717L45.965,53.717C47.876,53.723,49.708,52.963,51.054,51.607C52.41,50.26,53.17,48.426,53.164,46.518L53.164,32.865C53.164,32.505,53.113,32.145,53.014,31.796C52.821,30.441,52.121,29.21,51.054,28.351L38.981,18.337C37.989,17.511,36.738,17.061,35.445,17.061L35.445,17.061ZM35.448,17.061"/>
</g>
  <g id="Heavy-M" transform="matrix(1.0,0.0,0.0,1.0,2602.527363713531,1055.3273832447812)">  <path fill="#000000" fill-rule="nonzero" stroke-width="1px" stroke-linejoin="miter" stroke="none" fill-opacity="1" stroke-opacity="1" stroke-linecap="butt" stroke-dasharray="none" stroke-miterlimit="4" d="M35.443,70.885C30.705,70.894,26.012,69.947,21.648,68.101C19.542,67.208,17.523,66.113,15.629,64.835C13.746,63.561,11.991,62.113,10.383,60.508C8.778,58.9,7.327,57.145,6.056,55.262C4.775,53.365,3.68,51.349,2.79,49.243C0.939,44.873,-0.009,40.181,0,35.443C-0.009,30.705,0.939,26.012,2.784,21.646C3.678,19.539,4.772,17.52,6.051,15.623C7.324,13.74,8.773,11.985,10.378,10.378C11.985,8.773,13.74,7.324,15.623,6.051C17.52,4.769,19.536,3.675,21.643,2.784C26.012,0.939,30.705,-0.009,35.443,0C40.181,-0.009,44.873,0.939,49.24,2.784C51.346,3.678,53.365,4.772,55.259,6.051C57.142,7.324,58.897,8.773,60.505,10.378C62.11,11.985,63.559,13.74,64.832,15.623C66.113,17.52,67.208,19.536,68.098,21.646C69.944,26.009,70.891,30.702,70.882,35.44C70.891,40.178,69.944,44.87,68.098,49.234C67.205,51.341,66.11,53.357,64.832,55.254C63.559,57.136,62.11,58.891,60.505,60.499C58.897,62.104,57.142,63.556,55.259,64.826C53.362,66.108,51.346,67.202,49.24,68.092C44.876,69.941,40.183,70.888,35.445,70.88ZM35.448,17.061C34.158,17.061,32.908,17.514,31.913,18.337L19.839,28.351C18.796,29.196,18.101,30.398,17.891,31.725C17.778,32.094,17.718,32.48,17.721,32.865L17.721,46.518C17.716,48.429,18.476,50.26,19.831,51.607C21.178,52.963,23.012,53.723,24.92,53.717L45.965,53.717C47.876,53.723,49.708,52.963,51.054,51.607C52.41,50.26,53.17,48.426,53.164,46.518L53.164,32.865C53.164,32.505,53.113,32.145,53.014,31.796C52.821,30.441,52.121,29.21,51.054,28.351L38.981,18.337C37.989,17.511,36.738,17.061,35.445,17.061L35.445,17.061ZM35.448,17.061"/>
</g>
  <g id="Bold-M" transform="matrix(1.0,0.0,0.0,1.0,2305.817363713531,1055.3273832447812)">  <path stroke-linejoin="miter" fill-opacity="1" fill-rule="nonzero" stroke-linecap="butt" stroke-width="1px" fill="#000000" stroke-miterlimit="4" stroke-dasharray="none" stroke="none" stroke-opacity="1" d="M35.443,70.885C30.705,70.894,26.012,69.947,21.648,68.101C19.542,67.208,17.523,66.113,15.629,64.835C13.746,63.561,11.991,62.113,10.383,60.508C8.778,58.9,7.327,57.145,6.056,55.262C4.775,53.365,3.68,51.349,2.79,49.243C0.939,44.873,-0.009,40.181,0,35.443C-0.009,30.705,0.939,26.012,2.784,21.646C3.678,19.539,4.772,17.52,6.051,15.623C7.324,13.74,8.773,11.985,10.378,10.378C11.985,8.773,13.74,7.324,15.623,6.051C17.52,4.769,19.536,3.675,21.643,2.784C26.012,0.939,30.705,-0.009,35.443,0C40.181,-0.009,44.873,0.939,49.24,2.784C51.346,3.678,53.365,4.772,55.259,6.051C57.142,7.324,58.897,8.773,60.505,10.378C62.11,11.985,63.559,13.74,64.832,15.623C66.113,17.52,67.208,19.536,68.098,21.646C69.944,26.009,70.891,30.702,70.882,35.44C70.891,40.178,69.944,44.87,68.098,49.234C67.205,51.341,66.11,53.357,64.832,55.254C63.559,57.136,62.11,58.891,60.505,60.499C58.897,62.104,57.142,63.556,55.259,64.826C53.362,66.108,51.346,67.202,49.24,68.092C44.876,69.941,40.183,70.888,35.445,70.88ZM35.448,17.061C34.158,17.061,32.908,17.514,31.913,18.337L19.839,28.351C18.796,29.196,18.101,30.398,17.891,31.725C17.778,32.094,17.718,32.48,17.721,32.865L17.721,46.518C17.716,48.429,18.476,50.26,19.831,51.607C21.178,52.963,23.012,53.723,24.92,53.717L45.965,53.717C47.876,53.723,49.708,52.963,51.054,51.607C52.41,50.26,53.17,48.426,53.164,46.518L53.164,32.865C53.164,32.505,53.113,32.145,53.014,31.796C52.821,30.441,52.121,29.21,51.054,28.351L38.981,18.337C37.989,17.511,36.738,17.061,35.445,17.061L35.445,17.061ZM35.448,17.061"/>
</g>
  <g id="Semibold-M" transform="matrix(1.0,0.0,0.0,1.0,2009.1073637135312,1055.3273832447812)">  <path stroke="none" stroke-dasharray="none" stroke-linejoin="miter" stroke-miterlimit="4" stroke-opacity="1" fill-opacity="1" stroke-linecap="butt" fill-rule="nonzero" fill="#000000" stroke-width="1px" d="M35.443,70.885C30.705,70.894,26.012,69.947,21.648,68.101C19.542,67.208,17.523,66.113,15.629,64.835C13.746,63.561,11.991,62.113,10.383,60.508C8.778,58.9,7.327,57.145,6.056,55.262C4.775,53.365,3.68,51.349,2.79,49.243C0.939,44.873,-0.009,40.181,0,35.443C-0.009,30.705,0.939,26.012,2.784,21.646C3.678,19.539,4.772,17.52,6.051,15.623C7.324,13.74,8.773,11.985,10.378,10.378C11.985,8.773,13.74,7.324,15.623,6.051C17.52,4.769,19.536,3.675,21.643,2.784C26.012,0.939,30.705,-0.009,35.443,0C40.181,-0.009,44.873,0.939,49.24,2.784C51.346,3.678,53.365,4.772,55.259,6.051C57.142,7.324,58.897,8.773,60.505,10.378C62.11,11.985,63.559,13.74,64.832,15.623C66.113,17.52,67.208,19.536,68.098,21.646C69.944,26.009,70.891,30.702,70.882,35.44C70.891,40.178,69.944,44.87,68.098,49.234C67.205,51.341,66.11,53.357,64.832,55.254C63.559,57.136,62.11,58.891,60.505,60.499C58.897,62.104,57.142,63.556,55.259,64.826C53.362,66.108,51.346,67.202,49.24,68.092C44.876,69.941,40.183,70.888,35.445,70.88ZM35.448,17.061C34.158,17.061,32.908,17.514,31.913,18.337L19.839,28.351C18.796,29.196,18.101,30.398,17.891,31.725C17.778,32.094,17.718,32.48,17.721,32.865L17.721,46.518C17.716,48.429,18.476,50.26,19.831,51.607C21.178,52.963,23.012,53.723,24.92,53.717L45.965,53.717C47.876,53.723,49.708,52.963,51.054,51.607C52.41,50.26,53.17,48.426,53.164,46.518L53.164,32.865C53.164,32.505,53.113,32.145,53.014,31.796C52.821,30.441,52.121,29.21,51.054,28.351L38.981,18.337C37.989,17.511,36.738,17.061,35.445,17.061L35.445,17.061ZM35.448,17.061"/>
</g>
  <g id="Medium-M" transform="matrix(1.0,0.0,0.0,1.0,1712.3973637135311,1055.3273832447812)">  <path stroke-miterlimit="4" stroke-dasharray="none" stroke="none" fill-rule="nonzero" fill-opacity="1" stroke-opacity="1" stroke-width="1px" fill="#000000" stroke-linecap="butt" stroke-linejoin="miter" d="M35.443,70.885C30.705,70.894,26.012,69.947,21.648,68.101C19.542,67.208,17.523,66.113,15.629,64.835C13.746,63.561,11.991,62.113,10.383,60.508C8.778,58.9,7.327,57.145,6.056,55.262C4.775,53.365,3.68,51.349,2.79,49.243C0.939,44.873,-0.009,40.181,0,35.443C-0.009,30.705,0.939,26.012,2.784,21.646C3.678,19.539,4.772,17.52,6.051,15.623C7.324,13.74,8.773,11.985,10.378,10.378C11.985,8.773,13.74,7.324,15.623,6.051C17.52,4.769,19.536,3.675,21.643,2.784C26.012,0.939,30.705,-0.009,35.443,0C40.181,-0.009,44.873,0.939,49.24,2.784C51.346,3.678,53.365,4.772,55.259,6.051C57.142,7.324,58.897,8.773,60.505,10.378C62.11,11.985,63.559,13.74,64.832,15.623C66.113,17.52,67.208,19.536,68.098,21.646C69.944,26.009,70.891,30.702,70.882,35.44C70.891,40.178,69.944,44.87,68.098,49.234C67.205,51.341,66.11,53.357,64.832,55.254C63.559,57.136,62.11,58.891,60.505,60.499C58.897,62.104,57.142,63.556,55.259,64.826C53.362,66.108,51.346,67.202,49.24,68.092C44.876,69.941,40.183,70.888,35.445,70.88ZM35.448,17.061C34.158,17.061,32.908,17.514,31.913,18.337L19.839,28.351C18.796,29.196,18.101,30.398,17.891,31.725C17.778,32.094,17.718,32.48,17.721,32.865L17.721,46.518C17.716,48.429,18.476,50.26,19.831,51.607C21.178,52.963,23.012,53.723,24.92,53.717L45.965,53.717C47.876,53.723,49.708,52.963,51.054,51.607C52.41,50.26,53.17,48.426,53.164,46.518L53.164,32.865C53.164,32.505,53.113,32.145,53.014,31.796C52.821,30.441,52.121,29.21,51.054,28.351L38.981,18.337C37.989,17.511,36.738,17.061,35.445,17.061L35.445,17.061ZM35.448,17.061"/>
</g>
  <g id="Regular-M" transform="matrix(1.0,0.0,0.0,1.0,1415.687363713531,1055.3273832447812)">  <path stroke="none" stroke-dasharray="none" stroke-linecap="butt" fill-opacity="1" fill="#000000" stroke-opacity="1" stroke-linejoin="miter" stroke-width="1px" stroke-miterlimit="4" fill-rule="nonzero" d="M35.443,70.885C30.705,70.894,26.012,69.947,21.648,68.101C19.542,67.208,17.523,66.113,15.629,64.835C13.746,63.561,11.991,62.113,10.383,60.508C8.778,58.9,7.327,57.145,6.056,55.262C4.775,53.365,3.68,51.349,2.79,49.243C0.939,44.873,-0.009,40.181,0,35.443C-0.009,30.705,0.939,26.012,2.784,21.646C3.678,19.539,4.772,17.52,6.051,15.623C7.324,13.74,8.773,11.985,10.378,10.378C11.985,8.773,13.74,7.324,15.623,6.051C17.52,4.769,19.536,3.675,21.643,2.784C26.012,0.939,30.705,-0.009,35.443,0C40.181,-0.009,44.873,0.939,49.24,2.784C51.346,3.678,53.365,4.772,55.259,6.051C57.142,7.324,58.897,8.773,60.505,10.378C62.11,11.985,63.559,13.74,64.832,15.623C66.113,17.52,67.208,19.536,68.098,21.646C69.944,26.009,70.891,30.702,70.882,35.44C70.891,40.178,69.944,44.87,68.098,49.234C67.205,51.341,66.11,53.357,64.832,55.254C63.559,57.136,62.11,58.891,60.505,60.499C58.897,62.104,57.142,63.556,55.259,64.826C53.362,66.108,51.346,67.202,49.24,68.092C44.876,69.941,40.183,70.888,35.445,70.88ZM35.448,17.061C34.158,17.061,32.908,17.514,31.913,18.337L19.839,28.351C18.796,29.196,18.101,30.398,17.891,31.725C17.778,32.094,17.718,32.48,17.721,32.865L17.721,46.518C17.716,48.429,18.476,50.26,19.831,51.607C21.178,52.963,23.012,53.723,24.92,53.717L45.965,53.717C47.876,53.723,49.708,52.963,51.054,51.607C52.41,50.26,53.17,48.426,53.164,46.518L53.164,32.865C53.164,32.505,53.113,32.145,53.014,31.796C52.821,30.441,52.121,29.21,51.054,28.351L38.981,18.337C37.989,17.511,36.738,17.061,35.445,17.061L35.445,17.061ZM35.448,17.061"/>
</g>
  <g id="Light-M" transform="matrix(1.0,0.0,0.0,1.0,1118.9773637135313,1055.3273832447812)">  <path stroke-linejoin="miter" fill="#000000" fill-opacity="1" stroke-opacity="1" stroke-dasharray="none" fill-rule="nonzero" stroke="none" stroke-width="1px" stroke-linecap="butt" stroke-miterlimit="4" d="M35.443,70.885C30.705,70.894,26.012,69.947,21.648,68.101C19.542,67.208,17.523,66.113,15.629,64.835C13.746,63.561,11.991,62.113,10.383,60.508C8.778,58.9,7.327,57.145,6.056,55.262C4.775,53.365,3.68,51.349,2.79,49.243C0.939,44.873,-0.009,40.181,0,35.443C-0.009,30.705,0.939,26.012,2.784,21.646C3.678,19.539,4.772,17.52,6.051,15.623C7.324,13.74,8.773,11.985,10.378,10.378C11.985,8.773,13.74,7.324,15.623,6.051C17.52,4.769,19.536,3.675,21.643,2.784C26.012,0.939,30.705,-0.009,35.443,0C40.181,-0.009,44.873,0.939,49.24,2.784C51.346,3.678,53.365,4.772,55.259,6.051C57.142,7.324,58.897,8.773,60.505,10.378C62.11,11.985,63.559,13.74,64.832,15.623C66.113,17.52,67.208,19.536,68.098,21.646C69.944,26.009,70.891,30.702,70.882,35.44C70.891,40.178,69.944,44.87,68.098,49.234C67.205,51.341,66.11,53.357,64.832,55.254C63.559,57.136,62.11,58.891,60.505,60.499C58.897,62.104,57.142,63.556,55.259,64.826C53.362,66.108,51.346,67.202,49.24,68.092C44.876,69.941,40.183,70.888,35.445,70.88ZM35.448,17.061C34.158,17.061,32.908,17.514,31.913,18.337L19.839,28.351C18.796,29.196,18.101,30.398,17.891,31.725C17.778,32.094,17.718,32.48,17.721,32.865L17.721,46.518C17.716,48.429,18.476,50.26,19.831,51.607C21.178,52.963,23.012,53.723,24.92,53.717L45.965,53.717C47.876,53.723,49.708,52.963,51.054,51.607C52.41,50.26,53.17,48.426,53.164,46.518L53.164,32.865C53.164,32.505,53.113,32.145,53.014,31.796C52.821,30.441,52.121,29.21,51.054,28.351L38.981,18.337C37.989,17.511,36.738,17.061,35.445,17.061L35.445,17.061ZM35.448,17.061"/>
</g>
  <g id="Thin-M" transform="matrix(1.0,0.0,0.0,1.0,822.2673637135313,1055.3273832447812)">  <path stroke-width="1px" stroke-linejoin="miter" fill="#000000" fill-opacity="1" stroke-linecap="butt" fill-rule="nonzero" stroke-dasharray="none" stroke-opacity="1" stroke-miterlimit="4" stroke="none" d="M35.443,70.885C30.705,70.894,26.012,69.947,21.648,68.101C19.542,67.208,17.523,66.113,15.629,64.835C13.746,63.561,11.991,62.113,10.383,60.508C8.778,58.9,7.327,57.145,6.056,55.262C4.775,53.365,3.68,51.349,2.79,49.243C0.939,44.873,-0.009,40.181,0,35.443C-0.009,30.705,0.939,26.012,2.784,21.646C3.678,19.539,4.772,17.52,6.051,15.623C7.324,13.74,8.773,11.985,10.378,10.378C11.985,8.773,13.74,7.324,15.623,6.051C17.52,4.769,19.536,3.675,21.643,2.784C26.012,0.939,30.705,-0.009,35.443,0C40.181,-0.009,44.873,0.939,49.24,2.784C51.346,3.678,53.365,4.772,55.259,6.051C57.142,7.324,58.897,8.773,60.505,10.378C62.11,11.985,63.559,13.74,64.832,15.623C66.113,17.52,67.208,19.536,68.098,21.646C69.944,26.009,70.891,30.702,70.882,35.44C70.891,40.178,69.944,44.87,68.098,49.234C67.205,51.341,66.11,53.357,64.832,55.254C63.559,57.136,62.11,58.891,60.505,60.499C58.897,62.104,57.142,63.556,55.259,64.826C53.362,66.108,51.346,67.202,49.24,68.092C44.876,69.941,40.183,70.888,35.445,70.88ZM35.448,17.061C34.158,17.061,32.908,17.514,31.913,18.337L19.839,28.351C18.796,29.196,18.101,30.398,17.891,31.725C17.778,32.094,17.718,32.48,17.721,32.865L17.721,46.518C17.716,48.429,18.476,50.26,19.831,51.607C21.178,52.963,23.012,53.723,24.92,53.717L45.965,53.717C47.876,53.723,49.708,52.963,51.054,51.607C52.41,50.26,53.17,48.426,53.164,46.518L53.164,32.865C53.164,32.505,53.113,32.145,53.014,31.796C52.821,30.441,52.121,29.21,51.054,28.351L38.981,18.337C37.989,17.511,36.738,17.061,35.445,17.061L35.445,17.061ZM35.448,17.061"/>
</g>
  <g id="Ultralight-M" transform="matrix(1.0,0.0,0.0,1.0,525.5573637135312,1055.3273832447812)">  <path stroke-dasharray="none" stroke="none" fill="#000000" stroke-width="1px" stroke-linecap="butt" stroke-miterlimit="4" stroke-opacity="1" stroke-linejoin="miter" fill-rule="nonzero" fill-opacity="1" d="M35.443,70.885C30.705,70.894,26.012,69.947,21.648,68.101C19.542,67.208,17.523,66.113,15.629,64.835C13.746,63.561,11.991,62.113,10.383,60.508C8.778,58.9,7.327,57.145,6.056,55.262C4.775,53.365,3.68,51.349,2.79,49.243C0.939,44.873,-0.009,40.181,0,35.443C-0.009,30.705,0.939,26.012,2.784,21.646C3.678,19.539,4.772,17.52,6.051,15.623C7.324,13.74,8.773,11.985,10.378,10.378C11.985,8.773,13.74,7.324,15.623,6.051C17.52,4.769,19.536,3.675,21.643,2.784C26.012,0.939,30.705,-0.009,35.443,0C40.181,-0.009,44.873,0.939,49.24,2.784C51.346,3.678,53.365,4.772,55.259,6.051C57.142,7.324,58.897,8.773,60.505,10.378C62.11,11.985,63.559,13.74,64.832,15.623C66.113,17.52,67.208,19.536,68.098,21.646C69.944,26.009,70.891,30.702,70.882,35.44C70.891,40.178,69.944,44.87,68.098,49.234C67.205,51.341,66.11,53.357,64.832,55.254C63.559,57.136,62.11,58.891,60.505,60.499C58.897,62.104,57.142,63.556,55.259,64.826C53.362,66.108,51.346,67.202,49.24,68.092C44.876,69.941,40.183,70.888,35.445,70.88ZM35.448,17.061C34.158,17.061,32.908,17.514,31.913,18.337L19.839,28.351C18.796,29.196,18.101,30.398,17.891,31.725C17.778,32.094,17.718,32.48,17.721,32.865L17.721,46.518C17.716,48.429,18.476,50.26,19.831,51.607C21.178,52.963,23.012,53.723,24.92,53.717L45.965,53.717C47.876,53.723,49.708,52.963,51.054,51.607C52.41,50.26,53.17,48.426,53.164,46.518L53.164,32.865C53.164,32.505,53.113,32.145,53.014,31.796C52.821,30.441,52.121,29.21,51.054,28.351L38.981,18.337C37.989,17.511,36.738,17.061,35.445,17.061L35.445,17.061ZM35.448,17.061"/>
</g>
  <g id="Black-S" transform="matrix(1.0,0.0,0.0,1.0,2906.9284157876946,633.018435318945)">  <path stroke-width="1px" stroke-opacity="1" stroke="none" stroke-dasharray="none" stroke-linecap="butt" stroke-linejoin="miter" stroke-miterlimit="4" fill="#000000" fill-opacity="1" fill-rule="nonzero" d="M27.752,55.503C24.042,55.51,20.367,54.768,16.951,53.323C15.301,52.624,13.72,51.767,12.237,50.765C10.763,49.769,9.389,48.634,8.13,47.378C6.874,46.119,5.737,44.744,4.742,43.27C3.739,41.785,2.882,40.206,2.185,38.557C0.735,35.136,-0.007,31.461,0,27.752C-0.007,24.042,0.735,20.367,2.18,16.948C2.88,15.299,3.736,13.718,4.738,12.233C5.735,10.759,6.869,9.384,8.126,8.126C9.384,6.869,10.759,5.735,12.233,4.738C13.718,3.734,15.297,2.877,16.946,2.18C20.367,0.735,24.042,-0.007,27.752,0C31.461,-0.007,35.136,0.735,38.555,2.18C40.204,2.88,41.785,3.736,43.268,4.738C44.742,5.735,46.116,6.869,47.375,8.126C48.632,9.384,49.766,10.759,50.763,12.233C51.767,13.718,52.624,15.297,53.321,16.948C54.766,20.365,55.508,24.04,55.501,27.749C55.508,31.459,54.766,35.134,53.321,38.55C52.621,40.2,51.764,41.778,50.763,43.264C49.766,44.738,48.632,46.112,47.375,47.371C46.116,48.627,44.742,49.764,43.268,50.759C41.783,51.762,40.204,52.619,38.555,53.316C35.138,54.764,31.464,55.505,27.754,55.499ZM27.756,13.359C26.746,13.359,25.767,13.714,24.988,14.358L15.534,22.199C14.717,22.861,14.173,23.802,14.009,24.841C13.92,25.13,13.874,25.432,13.876,25.733L13.876,36.423C13.871,37.92,14.466,39.354,15.528,40.409C16.582,41.47,18.019,42.065,19.513,42.06L35.99,42.06C37.487,42.065,38.921,41.47,39.976,40.409C41.037,39.354,41.632,37.918,41.627,36.423L41.627,25.733C41.627,25.452,41.587,25.17,41.51,24.897C41.359,23.835,40.81,22.872,39.976,22.199L30.522,14.358C29.745,13.712,28.766,13.359,27.754,13.359L27.754,13.359ZM27.756,13.359"/>
</g>
  <g id="Heavy-S" transform="matrix(1.0,0.0,0.0,1.0,2610.2184157876945,633.018435318945)">  <path fill="#000000" fill-rule="nonzero" stroke-width="1px" stroke-linejoin="miter" stroke="none" fill-opacity="1" stroke-opacity="1" stroke-linecap="butt" stroke-dasharray="none" stroke-miterlimit="4" d="M27.752,55.503C24.042,55.51,20.367,54.768,16.951,53.323C15.301,52.624,13.72,51.767,12.237,50.765C10.763,49.769,9.389,48.634,8.13,47.378C6.874,46.119,5.737,44.744,4.742,43.27C3.739,41.785,2.882,40.206,2.185,38.557C0.735,35.136,-0.007,31.461,0,27.752C-0.007,24.042,0.735,20.367,2.18,16.948C2.88,15.299,3.736,13.718,4.738,12.233C5.735,10.759,6.869,9.384,8.126,8.126C9.384,6.869,10.759,5.735,12.233,4.738C13.718,3.734,15.297,2.877,16.946,2.18C20.367,0.735,24.042,-0.007,27.752,0C31.461,-0.007,35.136,0.735,38.555,2.18C40.204,2.88,41.785,3.736,43.268,4.738C44.742,5.735,46.116,6.869,47.375,8.126C48.632,9.384,49.766,10.759,50.763,12.233C51.767,13.718,52.624,15.297,53.321,16.948C54.766,20.365,55.508,24.04,55.501,27.749C55.508,31.459,54.766,35.134,53.321,38.55C52.621,40.2,51.764,41.778,50.763,43.264C49.766,44.738,48.632,46.112,47.375,47.371C46.116,48.627,44.742,49.764,43.268,50.759C41.783,51.762,40.204,52.619,38.555,53.316C35.138,54.764,31.464,55.505,27.754,55.499ZM27.756,13.359C26.746,13.359,25.767,13.714,24.988,14.358L15.534,22.199C14.717,22.861,14.173,23.802,14.009,24.841C13.92,25.13,13.874,25.432,13.876,25.733L13.876,36.423C13.871,37.92,14.466,39.354,15.528,40.409C16.582,41.47,18.019,42.065,19.513,42.06L35.99,42.06C37.487,42.065,38.921,41.47,39.976,40.409C41.037,39.354,41.632,37.918,41.627,36.423L41.627,25.733C41.627,25.452,41.587,25.17,41.51,24.897C41.359,23.835,40.81,22.872,39.976,22.199L30.522,14.358C29.745,13.712,28.766,13.359,27.754,13.359L27.754,13.359ZM27.756,13.359"/>
</g>
  <g id="Bold-S" transform="matrix(1.0,0.0,0.0,1.0,2313.5084157876945,633.018435318945)">  <path stroke-linejoin="miter" fill-opacity="1" fill-rule="nonzero" stroke-linecap="butt" stroke-width="1px" fill="#000000" stroke-miterlimit="4" stroke-dasharray="none" stroke="none" stroke-opacity="1" d="M27.752,55.503C24.042,55.51,20.367,54.768,16.951,53.323C15.301,52.624,13.72,51.767,12.237,50.765C10.763,49.769,9.389,48.634,8.13,47.378C6.874,46.119,5.737,44.744,4.742,43.27C3.739,41.785,2.882,40.206,2.185,38.557C0.735,35.136,-0.007,31.461,0,27.752C-0.007,24.042,0.735,20.367,2.18,16.948C2.88,15.299,3.736,13.718,4.738,12.233C5.735,10.759,6.869,9.384,8.126,8.126C9.384,6.869,10.759,5.735,12.233,4.738C13.718,3.734,15.297,2.877,16.946,2.18C20.367,0.735,24.042,-0.007,27.752,0C31.461,-0.007,35.136,0.735,38.555,2.18C40.204,2.88,41.785,3.736,43.268,4.738C44.742,5.735,46.116,6.869,47.375,8.126C48.632,9.384,49.766,10.759,50.763,12.233C51.767,13.718,52.624,15.297,53.321,16.948C54.766,20.365,55.508,24.04,55.501,27.749C55.508,31.459,54.766,35.134,53.321,38.55C52.621,40.2,51.764,41.778,50.763,43.264C49.766,44.738,48.632,46.112,47.375,47.371C46.116,48.627,44.742,49.764,43.268,50.759C41.783,51.762,40.204,52.619,38.555,53.316C35.138,54.764,31.464,55.505,27.754,55.499ZM27.756,13.359C26.746,13.359,25.767,13.714,24.988,14.358L15.534,22.199C14.717,22.861,14.173,23.802,14.009,24.841C13.92,25.13,13.874,25.432,13.876,25.733L13.876,36.423C13.871,37.92,14.466,39.354,15.528,40.409C16.582,41.47,18.019,42.065,19.513,42.06L35.99,42.06C37.487,42.065,38.921,41.47,39.976,40.409C41.037,39.354,41.632,37.918,41.627,36.423L41.627,25.733C41.627,25.452,41.587,25.17,41.51,24.897C41.359,23.835,40.81,22.872,39.976,22.199L30.522,14.358C29.745,13.712,28.766,13.359,27.754,13.359L27.754,13.359ZM27.756,13.359"/>
</g>
  <g id="Semibold-S" transform="matrix(1.0,0.0,0.0,1.0,2016.798415787695,633.018435318945)">  <path stroke="none" stroke-dasharray="none" stroke-linejoin="miter" stroke-miterlimit="4" stroke-opacity="1" fill-opacity="1" stroke-linecap="butt" fill-rule="nonzero" fill="#000000" stroke-width="1px" d="M27.752,55.503C24.042,55.51,20.367,54.768,16.951,53.323C15.301,52.624,13.72,51.767,12.237,50.765C10.763,49.769,9.389,48.634,8.13,47.378C6.874,46.119,5.737,44.744,4.742,43.27C3.739,41.785,2.882,40.206,2.185,38.557C0.735,35.136,-0.007,31.461,0,27.752C-0.007,24.042,0.735,20.367,2.18,16.948C2.88,15.299,3.736,13.718,4.738,12.233C5.735,10.759,6.869,9.384,8.126,8.126C9.384,6.869,10.759,5.735,12.233,4.738C13.718,3.734,15.297,2.877,16.946,2.18C20.367,0.735,24.042,-0.007,27.752,0C31.461,-0.007,35.136,0.735,38.555,2.18C40.204,2.88,41.785,3.736,43.268,4.738C44.742,5.735,46.116,6.869,47.375,8.126C48.632,9.384,49.766,10.759,50.763,12.233C51.767,13.718,52.624,15.297,53.321,16.948C54.766,20.365,55.508,24.04,55.501,27.749C55.508,31.459,54.766,35.134,53.321,38.55C52.621,40.2,51.764,41.778,50.763,43.264C49.766,44.738,48.632,46.112,47.375,47.371C46.116,48.627,44.742,49.764,43.268,50.759C41.783,51.762,40.204,52.619,38.555,53.316C35.138,54.764,31.464,55.505,27.754,55.499ZM27.756,13.359C26.746,13.359,25.767,13.714,24.988,14.358L15.534,22.199C14.717,22.861,14.173,23.802,14.009,24.841C13.92,25.13,13.874,25.432,13.876,25.733L13.876,36.423C13.871,37.92,14.466,39.354,15.528,40.409C16.582,41.47,18.019,42.065,19.513,42.06L35.99,42.06C37.487,42.065,38.921,41.47,39.976,40.409C41.037,39.354,41.632,37.918,41.627,36.423L41.627,25.733C41.627,25.452,41.587,25.17,41.51,24.897C41.359,23.835,40.81,22.872,39.976,22.199L30.522,14.358C29.745,13.712,28.766,13.359,27.754,13.359L27.754,13.359ZM27.756,13.359"/>
</g>
  <g id="Medium-S" transform="matrix(1.0,0.0,0.0,1.0,1720.0884157876949,633.018435318945)">  <path stroke-miterlimit="4" stroke-dasharray="none" stroke="none" fill-rule="nonzero" fill-opacity="1" stroke-opacity="1" stroke-width="1px" fill="#000000" stroke-linecap="butt" stroke-linejoin="miter" d="M27.752,55.503C24.042,55.51,20.367,54.768,16.951,53.323C15.301,52.624,13.72,51.767,12.237,50.765C10.763,49.769,9.389,48.634,8.13,47.378C6.874,46.119,5.737,44.744,4.742,43.27C3.739,41.785,2.882,40.206,2.185,38.557C0.735,35.136,-0.007,31.461,0,27.752C-0.007,24.042,0.735,20.367,2.18,16.948C2.88,15.299,3.736,13.718,4.738,12.233C5.735,10.759,6.869,9.384,8.126,8.126C9.384,6.869,10.759,5.735,12.233,4.738C13.718,3.734,15.297,2.877,16.946,2.18C20.367,0.735,24.042,-0.007,27.752,0C31.461,-0.007,35.136,0.735,38.555,2.18C40.204,2.88,41.785,3.736,43.268,4.738C44.742,5.735,46.116,6.869,47.375,8.126C48.632,9.384,49.766,10.759,50.763,12.233C51.767,13.718,52.624,15.297,53.321,16.948C54.766,20.365,55.508,24.04,55.501,27.749C55.508,31.459,54.766,35.134,53.321,38.55C52.621,40.2,51.764,41.778,50.763,43.264C49.766,44.738,48.632,46.112,47.375,47.371C46.116,48.627,44.742,49.764,43.268,50.759C41.783,51.762,40.204,52.619,38.555,53.316C35.138,54.764,31.464,55.505,27.754,55.499ZM27.756,13.359C26.746,13.359,25.767,13.714,24.988,14.358L15.534,22.199C14.717,22.861,14.173,23.802,14.009,24.841C13.92,25.13,13.874,25.432,13.876,25.733L13.876,36.423C13.871,37.92,14.466,39.354,15.528,40.409C16.582,41.47,18.019,42.065,19.513,42.06L35.99,42.06C37.487,42.065,38.921,41.47,39.976,40.409C41.037,39.354,41.632,37.918,41.627,36.423L41.627,25.733C41.627,25.452,41.587,25.17,41.51,24.897C41.359,23.835,40.81,22.872,39.976,22.199L30.522,14.358C29.745,13.712,28.766,13.359,27.754,13.359L27.754,13.359ZM27.756,13.359"/>
</g>
  <g id="Regular-S" transform="matrix(1.0,0.0,0.0,1.0,1423.3784157876948,633.018435318945)">  <path stroke="none" stroke-dasharray="none" stroke-linecap="butt" fill-opacity="1" fill="#000000" stroke-opacity="1" stroke-linejoin="miter" stroke-width="1px" stroke-miterlimit="4" fill-rule="nonzero" d="M27.752,55.503C24.042,55.51,20.367,54.768,16.951,53.323C15.301,52.624,13.72,51.767,12.237,50.765C10.763,49.769,9.389,48.634,8.13,47.378C6.874,46.119,5.737,44.744,4.742,43.27C3.739,41.785,2.882,40.206,2.185,38.557C0.735,35.136,-0.007,31.461,0,27.752C-0.007,24.042,0.735,20.367,2.18,16.948C2.88,15.299,3.736,13.718,4.738,12.233C5.735,10.759,6.869,9.384,8.126,8.126C9.384,6.869,10.759,5.735,12.233,4.738C13.718,3.734,15.297,2.877,16.946,2.18C20.367,0.735,24.042,-0.007,27.752,0C31.461,-0.007,35.136,0.735,38.555,2.18C40.204,2.88,41.785,3.736,43.268,4.738C44.742,5.735,46.116,6.869,47.375,8.126C48.632,9.384,49.766,10.759,50.763,12.233C51.767,13.718,52.624,15.297,53.321,16.948C54.766,20.365,55.508,24.04,55.501,27.749C55.508,31.459,54.766,35.134,53.321,38.55C52.621,40.2,51.764,41.778,50.763,43.264C49.766,44.738,48.632,46.112,47.375,47.371C46.116,48.627,44.742,49.764,43.268,50.759C41.783,51.762,40.204,52.619,38.555,53.316C35.138,54.764,31.464,55.505,27.754,55.499ZM27.756,13.359C26.746,13.359,25.767,13.714,24.988,14.358L15.534,22.199C14.717,22.861,14.173,23.802,14.009,24.841C13.92,25.13,13.874,25.432,13.876,25.733L13.876,36.423C13.871,37.92,14.466,39.354,15.528,40.409C16.582,41.47,18.019,42.065,19.513,42.06L35.99,42.06C37.487,42.065,38.921,41.47,39.976,40.409C41.037,39.354,41.632,37.918,41.627,36.423L41.627,25.733C41.627,25.452,41.587,25.17,41.51,24.897C41.359,23.835,40.81,22.872,39.976,22.199L30.522,14.358C29.745,13.712,28.766,13.359,27.754,13.359L27.754,13.359ZM27.756,13.359"/>
</g>
  <g id="Light-S" transform="matrix(1.0,0.0,0.0,1.0,1126.668415787695,633.018435318945)">  <path stroke-linejoin="miter" fill="#000000" fill-opacity="1" stroke-opacity="1" stroke-dasharray="none" fill-rule="nonzero" stroke="none" stroke-width="1px" stroke-linecap="butt" stroke-miterlimit="4" d="M27.752,55.503C24.042,55.51,20.367,54.768,16.951,53.323C15.301,52.624,13.72,51.767,12.237,50.765C10.763,49.769,9.389,48.634,8.13,47.378C6.874,46.119,5.737,44.744,4.742,43.27C3.739,41.785,2.882,40.206,2.185,38.557C0.735,35.136,-0.007,31.461,0,27.752C-0.007,24.042,0.735,20.367,2.18,16.948C2.88,15.299,3.736,13.718,4.738,12.233C5.735,10.759,6.869,9.384,8.126,8.126C9.384,6.869,10.759,5.735,12.233,4.738C13.718,3.734,15.297,2.877,16.946,2.18C20.367,0.735,24.042,-0.007,27.752,0C31.461,-0.007,35.136,0.735,38.555,2.18C40.204,2.88,41.785,3.736,43.268,4.738C44.742,5.735,46.116,6.869,47.375,8.126C48.632,9.384,49.766,10.759,50.763,12.233C51.767,13.718,52.624,15.297,53.321,16.948C54.766,20.365,55.508,24.04,55.501,27.749C55.508,31.459,54.766,35.134,53.321,38.55C52.621,40.2,51.764,41.778,50.763,43.264C49.766,44.738,48.632,46.112,47.375,47.371C46.116,48.627,44.742,49.764,43.268,50.759C41.783,51.762,40.204,52.619,38.555,53.316C35.138,54.764,31.464,55.505,27.754,55.499ZM27.756,13.359C26.746,13.359,25.767,13.714,24.988,14.358L15.534,22.199C14.717,22.861,14.173,23.802,14.009,24.841C13.92,25.13,13.874,25.432,13.876,25.733L13.876,36.423C13.871,37.92,14.466,39.354,15.528,40.409C16.582,41.47,18.019,42.065,19.513,42.06L35.99,42.06C37.487,42.065,38.921,41.47,39.976,40.409C41.037,39.354,41.632,37.918,41.627,36.423L41.627,25.733C41.627,25.452,41.587,25.17,41.51,24.897C41.359,23.835,40.81,22.872,39.976,22.199L30.522,14.358C29.745,13.712,28.766,13.359,27.754,13.359L27.754,13.359ZM27.756,13.359"/>
</g>
  <g id="Thin-S" transform="matrix(1.0,0.0,0.0,1.0,829.958415787695,633.018435318945)">  <path stroke-width="1px" stroke-linejoin="miter" fill="#000000" fill-opacity="1" stroke-linecap="butt" fill-rule="nonzero" stroke-dasharray="none" stroke-opacity="1" stroke-miterlimit="4" stroke="none" d="M27.752,55.503C24.042,55.51,20.367,54.768,16.951,53.323C15.301,52.624,13.72,51.767,12.237,50.765C10.763,49.769,9.389,48.634,8.13,47.378C6.874,46.119,5.737,44.744,4.742,43.27C3.739,41.785,2.882,40.206,2.185,38.557C0.735,35.136,-0.007,31.461,0,27.752C-0.007,24.042,0.735,20.367,2.18,16.948C2.88,15.299,3.736,13.718,4.738,12.233C5.735,10.759,6.869,9.384,8.126,8.126C9.384,6.869,10.759,5.735,12.233,4.738C13.718,3.734,15.297,2.877,16.946,2.18C20.367,0.735,24.042,-0.007,27.752,0C31.461,-0.007,35.136,0.735,38.555,2.18C40.204,2.88,41.785,3.736,43.268,4.738C44.742,5.735,46.116,6.869,47.375,8.126C48.632,9.384,49.766,10.759,50.763,12.233C51.767,13.718,52.624,15.297,53.321,16.948C54.766,20.365,55.508,24.04,55.501,27.749C55.508,31.459,54.766,35.134,53.321,38.55C52.621,40.2,51.764,41.778,50.763,43.264C49.766,44.738,48.632,46.112,47.375,47.371C46.116,48.627,44.742,49.764,43.268,50.759C41.783,51.762,40.204,52.619,38.555,53.316C35.138,54.764,31.464,55.505,27.754,55.499ZM27.756,13.359C26.746,13.359,25.767,13.714,24.988,14.358L15.534,22.199C14.717,22.861,14.173,23.802,14.009,24.841C13.92,25.13,13.874,25.432,13.876,25.733L13.876,36.423C13.871,37.92,14.466,39.354,15.528,40.409C16.582,41.47,18.019,42.065,19.513,42.06L35.99,42.06C37.487,42.065,38.921,41.47,39.976,40.409C41.037,39.354,41.632,37.918,41.627,36.423L41.627,25.733C41.627,25.452,41.587,25.17,41.51,24.897C41.359,23.835,40.81,22.872,39.976,22.199L30.522,14.358C29.745,13.712,28.766,13.359,27.754,13.359L27.754,13.359ZM27.756,13.359"/>
</g>
  <g id="Ultralight-S" transform="matrix(1.0,0.0,0.0,1.0,533.248415787695,633.018435318945)">  <path stroke-dasharray="none" stroke="none" fill="#000000" stroke-width="1px" stroke-linecap="butt" stroke-miterlimit="4" stroke-opacity="1" stroke-linejoin="miter" fill-rule="nonzero" fill-opacity="1" d="M27.752,55.503C24.042,55.51,20.367,54.768,16.951,53.323C15.301,52.624,13.72,51.767,12.237,50.765C10.763,49.769,9.389,48.634,8.13,47.378C6.874,46.119,5.737,44.744,4.742,43.27C3.739,41.785,2.882,40.206,2.185,38.557C0.735,35.136,-0.007,31.461,0,27.752C-0.007,24.042,0.735,20.367,2.18,16.948C2.88,15.299,3.736,13.718,4.738,12.233C5.735,10.759,6.869,9.384,8.126,8.126C9.384,6.869,10.759,5.735,12.233,4.738C13.718,3.734,15.297,2.877,16.946,2.18C20.367,0.735,24.042,-0.007,27.752,0C31.461,-0.007,35.136,0.735,38.555,2.18C40.204,2.88,41.785,3.736,43.268,4.738C44.742,5.735,46.116,6.869,47.375,8.126C48.632,9.384,49.766,10.759,50.763,12.233C51.767,13.718,52.624,15.297,53.321,16.948C54.766,20.365,55.508,24.04,55.501,27.749C55.508,31.459,54.766,35.134,53.321,38.55C52.621,40.2,51.764,41.778,50.763,43.264C49.766,44.738,48.632,46.112,47.375,47.371C46.116,48.627,44.742,49.764,43.268,50.759C41.783,51.762,40.204,52.619,38.555,53.316C35.138,54.764,31.464,55.505,27.754,55.499ZM27.756,13.359C26.746,13.359,25.767,13.714,24.988,14.358L15.534,22.199C14.717,22.861,14.173,23.802,14.009,24.841C13.92,25.13,13.874,25.432,13.876,25.733L13.876,36.423C13.871,37.92,14.466,39.354,15.528,40.409C16.582,41.47,18.019,42.065,19.513,42.06L35.99,42.06C37.487,42.065,38.921,41.47,39.976,40.409C41.037,39.354,41.632,37.918,41.627,36.423L41.627,25.733C41.627,25.452,41.587,25.17,41.51,24.897C41.359,23.835,40.81,22.872,39.976,22.199L30.522,14.358C29.745,13.712,28.766,13.359,27.754,13.359L27.754,13.359ZM27.756,13.359"/>
</g>
 </g>
</svg>
