<?xml version="1.0" encoding="UTF-8"?>
<!--Generator: CustomSymbols by @serious_bret-->
<!DOCTYPE svg
PUBLIC "-//W3C//DTD SVG 1.1//EN"
       "http://www.w3.org/Graphics/SVG/1.1/DTD/svg11.dtd">
<svg version="1.1" xmlns="http://www.w3.org/2000/svg" xmlns:xlink="http://www.w3.org/1999/xlink" width="3300" height="2200">
 <g id="Notes">
  <rect height="2200" id="artboard" style="fill:white;opacity:1" width="3300" x="0" y="0"/>
  <line id="" style="fill:none;stroke:black;opacity:1;stroke-width:0.5;" x1="263" x2="3036" y1="292" y2="292"/>
  <text id="reftext1" style="stroke:none;fill:black;font-family:-apple-system,&quot;SF Pro Display&quot;,&quot;SF Pro Text&quot;,Helvetica,sans-serif;font-weight:bold;" transform="matrix(1 0 0 1 263 322)">Weight/Scale Variations</text>
  <text id="reftext2" style="stroke:none;fill:black;font-family:-apple-system,&quot;SF Pro Display&quot;,&quot;SF Pro Text&quot;,Helvetica,sans-serif;text-anchor:middle;" transform="matrix(1 0 0 1 559.711 322)">Ultralight</text>
  <text style="stroke:none;fill:black;font-family:-apple-system,&quot;SF Pro Display&quot;,&quot;SF Pro Text&quot;,Helvetica,sans-serif;text-anchor:middle;" transform="matrix(1 0 0 1 856.422 322)">Thin</text>
  <text style="stroke:none;fill:black;font-family:-apple-system,&quot;SF Pro Display&quot;,&quot;SF Pro Text&quot;,Helvetica,sans-serif;text-anchor:middle;" transform="matrix(1 0 0 1 1153.13 322)">Light</text>
  <text style="stroke:none;fill:black;font-family:-apple-system,&quot;SF Pro Display&quot;,&quot;SF Pro Text&quot;,Helvetica,sans-serif;text-anchor:middle;" transform="matrix(1 0 0 1 1449.84 322)">Regular</text>
  <text style="stroke:none;fill:black;font-family:-apple-system,&quot;SF Pro Display&quot;,&quot;SF Pro Text&quot;,Helvetica,sans-serif;text-anchor:middle;" transform="matrix(1 0 0 1 1746.56 322)">Medium</text>
  <text style="stroke:none;fill:black;font-family:-apple-system,&quot;SF Pro Display&quot;,&quot;SF Pro Text&quot;,Helvetica,sans-serif;text-anchor:middle;" transform="matrix(1 0 0 1 2043.27 322)">Semibold</text>
  <text style="stroke:none;fill:black;font-family:-apple-system,&quot;SF Pro Display&quot;,&quot;SF Pro Text&quot;,Helvetica,sans-serif;text-anchor:middle;" transform="matrix(1 0 0 1 2339.98 322)">Bold</text>
  <text style="stroke:none;fill:black;font-family:-apple-system,&quot;SF Pro Display&quot;,&quot;SF Pro Text&quot;,Helvetica,sans-serif;text-anchor:middle;" transform="matrix(1 0 0 1 2636.69 322)">Heavy</text>
  <text style="stroke:none;fill:black;font-family:-apple-system,&quot;SF Pro Display&quot;,&quot;SF Pro Text&quot;,Helvetica,sans-serif;text-anchor:middle;" transform="matrix(1 0 0 1 2933.4 322)">Black</text>
  <line id="" style="fill:none;stroke:black;opacity:1;stroke-width:0.5;" x1="263" x2="3036" y1="1903" y2="1903"/>
  <g id="" transform="matrix(1 0 0 1 263 1933)">
   <path d="M9.24805 0.830078C13.5547 0.830078 17.1387-2.74414 17.1387-7.05078C17.1387-11.3574 13.5449-14.9316 9.23828-14.9316C4.94141-14.9316 1.36719-11.3574 1.36719-7.05078C1.36719-2.74414 4.95117 0.830078 9.24805 0.830078ZM9.24805-0.654297C5.70312-0.654297 2.87109-3.49609 2.87109-7.05078C2.87109-10.6055 5.69336-13.4473 9.23828-13.4473C12.793-13.4473 15.6348-10.6055 15.6445-7.05078C15.6543-3.49609 12.8027-0.654297 9.24805-0.654297ZM6.39648-6.31836L8.50586-6.31836L8.50586-4.19922C8.50586-3.75977 8.79883-3.45703 9.22852-3.45703C9.67773-3.45703 9.9707-3.75977 9.9707-4.19922L9.9707-6.31836L12.0996-6.31836C12.5391-6.31836 12.8418-6.61133 12.8418-7.04102C12.8418-7.48047 12.5391-7.7832 12.0996-7.7832L9.9707-7.7832L9.9707-9.89258C9.9707-10.3418 9.67773-10.6445 9.22852-10.6445C8.79883-10.6445 8.50586-10.3418 8.50586-9.89258L8.50586-7.7832L6.39648-7.7832C5.94727-7.7832 5.64453-7.48047 5.64453-7.04102C5.64453-6.61133 5.94727-6.31836 6.39648-6.31836Z"/>
  </g>
  <g id="" transform="matrix(1 0 0 1 281.506 1933)">
   <path d="M11.709 2.91016C17.1582 2.91016 21.6699-1.61133 21.6699-7.05078C21.6699-12.5 17.1484-17.0117 11.6992-17.0117C6.25977-17.0117 1.74805-12.5 1.74805-7.05078C1.74805-1.61133 6.26953 2.91016 11.709 2.91016ZM11.709 1.25C7.09961 1.25 3.41797-2.44141 3.41797-7.05078C3.41797-11.6602 7.08984-15.3516 11.6992-15.3516C16.3086-15.3516 20-11.6602 20.0098-7.05078C20.0195-2.44141 16.3184 1.25 11.709 1.25ZM7.98828-6.23047L10.8789-6.23047L10.8789-3.32031C10.8789-2.83203 11.2109-2.5 11.6895-2.5C12.1777-2.5 12.5195-2.83203 12.5195-3.32031L12.5195-6.23047L15.4297-6.23047C15.918-6.23047 16.25-6.5625 16.25-7.04102C16.25-7.5293 15.918-7.87109 15.4297-7.87109L12.5195-7.87109L12.5195-10.7617C12.5195-11.2695 12.1777-11.6016 11.6895-11.6016C11.2109-11.6016 10.8789-11.2598 10.8789-10.7617L10.8789-7.87109L7.98828-7.87109C7.48047-7.87109 7.14844-7.5293 7.14844-7.04102C7.14844-6.5625 7.49023-6.23047 7.98828-6.23047Z"/>
  </g>
  <g id="" transform="matrix(1 0 0 1 304.924 1933)">
   <path d="M14.9707 5.66406C21.9336 5.66406 27.6953-0.0976562 27.6953-7.05078C27.6953-14.0137 21.9238-19.7754 14.9609-19.7754C8.00781-19.7754 2.25586-14.0137 2.25586-7.05078C2.25586-0.0976562 8.01758 5.66406 14.9707 5.66406ZM14.9707 3.84766C8.93555 3.84766 4.08203-1.01562 4.08203-7.05078C4.08203-13.0957 8.92578-17.9492 14.9609-17.9492C21.0059-17.9492 25.8594-13.0957 25.8691-7.05078C25.8789-1.01562 21.0156 3.84766 14.9707 3.84766ZM10.0586-6.14258L14.0625-6.14258L14.0625-2.12891C14.0625-1.5918 14.4336-1.2207 14.9512-1.2207C15.4883-1.2207 15.8594-1.5918 15.8594-2.12891L15.8594-6.14258L19.8828-6.14258C20.4102-6.14258 20.791-6.51367 20.791-7.03125C20.791-7.56836 20.4199-7.94922 19.8828-7.94922L15.8594-7.94922L15.8594-11.9531C15.8594-12.5098 15.4883-12.8809 14.9512-12.8809C14.4336-12.8809 14.0625-12.5 14.0625-11.9531L14.0625-7.94922L10.0586-7.94922C9.50195-7.94922 9.13086-7.56836 9.13086-7.03125C9.13086-6.51367 9.51172-6.14258 10.0586-6.14258Z"/>
  </g>
  <text style="stroke:none;fill:black;font-family:-apple-system,&quot;SF Pro Display&quot;,&quot;SF Pro Text&quot;,Helvetica,sans-serif;font-weight:bold;" transform="matrix(1 0 0 1 263 1953)">Design Variations</text>
  <text style="stroke:none;fill:black;font-family:-apple-system,&quot;SF Pro Display&quot;,&quot;SF Pro Text&quot;,Helvetica,sans-serif;" transform="matrix(1 0 0 1 263 1971)">Symbols are supported in up to nine weights and three scales.</text>
  <text style="stroke:none;fill:black;font-family:-apple-system,&quot;SF Pro Display&quot;,&quot;SF Pro Text&quot;,Helvetica,sans-serif;" transform="matrix(1 0 0 1 263 1989)">For optimal layout with text and other symbols, vertically align</text>
  <text style="stroke:none;fill:black;font-family:-apple-system,&quot;SF Pro Display&quot;,&quot;SF Pro Text&quot;,Helvetica,sans-serif;" transform="matrix(1 0 0 1 263 2007)">symbols with the adjacent text.</text>
  <line id="" style="fill:none;stroke:#00AEEF;stroke-width:0.5;opacity:1.0;" x1="776" x2="776" y1="1919" y2="1933"/>
  <g id="" transform="matrix(1 0 0 1 776 1933)">
   <path d="M3.31055 0.126953C3.82812 0.126953 4.08203-0.0683594 4.26758-0.605469L5.52734-4.0625L11.2891-4.0625L12.5488-0.605469C12.7344-0.0683594 12.9883 0.126953 13.4961 0.126953C14.0137 0.126953 14.3457-0.185547 14.3457-0.673828C14.3457-0.839844 14.3164-0.986328 14.2383-1.20117L9.6582-13.3887C9.43359-13.9941 9.0332-14.2871 8.4082-14.2871C7.80273-14.2871 7.39258-13.9941 7.17773-13.3984L2.59766-1.19141C2.51953-0.976562 2.49023-0.830078 2.49023-0.664062C2.49023-0.175781 2.80273 0.126953 3.31055 0.126953ZM6.00586-5.53711L8.37891-12.1094L8.42773-12.1094L10.8008-5.53711Z"/>
  </g>
  <line id="" style="fill:none;stroke:#00AEEF;stroke-width:0.5;opacity:1.0;" x1="792.836" x2="792.836" y1="1919" y2="1933"/>
  <text style="stroke:none;fill:black;font-family:-apple-system,&quot;SF Pro Display&quot;,&quot;SF Pro Text&quot;,Helvetica,sans-serif;font-weight:bold;" transform="matrix(1 0 0 1 776 1953)">Margins</text>
  <text style="stroke:none;fill:black;font-family:-apple-system,&quot;SF Pro Display&quot;,&quot;SF Pro Text&quot;,Helvetica,sans-serif;" transform="matrix(1 0 0 1 776 1971)">Leading and trailing margins on the left and right side of each symbol</text>
  <text style="stroke:none;fill:black;font-family:-apple-system,&quot;SF Pro Display&quot;,&quot;SF Pro Text&quot;,Helvetica,sans-serif;" transform="matrix(1 0 0 1 776 1989)">can be adjusted by modifying the x-location of the margin guidelines.</text>
  <text style="stroke:none;fill:black;font-family:-apple-system,&quot;SF Pro Display&quot;,&quot;SF Pro Text&quot;,Helvetica,sans-serif;" transform="matrix(1 0 0 1 776 2007)">Modifications are automatically applied proportionally to all</text>
  <text style="stroke:none;fill:black;font-family:-apple-system,&quot;SF Pro Display&quot;,&quot;SF Pro Text&quot;,Helvetica,sans-serif;" transform="matrix(1 0 0 1 776 2025)">scales and weights.</text>
  <g id="" transform="matrix(1 0 0 1 1289 1933)">
   <path d="M2.8418 1.86523L4.54102 3.57422C5.40039 4.44336 6.38672 4.38477 7.31445 3.35938L17.4902-7.85156C17.7539-7.76367 18.0273-7.7832 18.3398-7.8418L19.4043-8.03711L20.0684-7.36328L20.0293-6.80664C19.9902-6.30859 20.1172-5.92773 20.6055-5.44922L21.3672-4.70703C21.8457-4.22852 22.4609-4.19922 22.9297-4.66797L25.8398-7.58789C26.3086-8.05664 26.2891-8.65234 25.8105-9.13086L25.0391-9.89258C24.5605-10.3711 24.1895-10.5273 23.7109-10.4883L23.1348-10.4395L22.4902-11.0742L22.7344-12.1973C22.8613-12.7637 22.7051-13.2031 22.1191-13.7891L19.9219-15.9766C16.582-19.2969 12.1484-19.2188 9.25781-16.3281C8.83789-15.918 8.80859-15.3418 9.04297-14.9512C9.27734-14.5898 9.73633-14.3555 10.3809-14.5215C11.8457-14.8633 13.3691-14.9219 14.7949-13.9844L14.209-12.5293C14.0137-12.0508 13.9844-11.6504 14.1113-11.2891L3.04688-0.898438C2.06055 0.0195312 1.98242 0.996094 2.8418 1.86523ZM10.752-15.957C13.1836-17.7344 16.4746-17.4316 18.7012-15.2051L21.1328-12.793C21.3672-12.5586 21.4062-12.373 21.3379-12.0312L21.0156-10.5469L22.5195-9.0625L23.5059-9.12109C23.7598-9.13086 23.8379-9.11133 24.0332-8.91602L24.6094-8.33984L22.168-5.89844L21.5918-6.47461C21.3965-6.66992 21.3672-6.74805 21.377-7.01172L21.4453-7.98828L19.9512-9.47266L18.4277-9.21875C18.1055-9.15039 17.959-9.17969 17.7148-9.41406L15.7129-11.416C15.459-11.6504 15.4297-11.8164 15.5859-12.1875L16.4648-14.2773C14.9023-15.7324 12.8711-16.3574 10.8398-15.7617C10.6836-15.7227 10.625-15.8496 10.752-15.957ZM5.27344 2.30469L4.10156 1.14258C3.63281 0.683594 3.74023 0.341797 4.14062-0.0195312L14.9512-10.1953L16.416-8.71094L6.42578 2.27539C6.07422 2.67578 5.74219 2.77344 5.27344 2.30469Z"/>
  </g>
  <text style="stroke:none;fill:black;font-family:-apple-system,&quot;SF Pro Display&quot;,&quot;SF Pro Text&quot;,Helvetica,sans-serif;font-weight:bold;" transform="matrix(1 0 0 1 1289 1953)">Exporting</text>
  <text style="stroke:none;fill:black;font-family:-apple-system,&quot;SF Pro Display&quot;,&quot;SF Pro Text&quot;,Helvetica,sans-serif;" transform="matrix(1 0 0 1 1289 1971)">Symbols should be outlined when exporting to ensure the</text>
  <text style="stroke:none;fill:black;font-family:-apple-system,&quot;SF Pro Display&quot;,&quot;SF Pro Text&quot;,Helvetica,sans-serif;" transform="matrix(1 0 0 1 1289 1989)">design is preserved when submitting to Xcode.</text>
  <text id="template-version" style="stroke:none;fill:black;font-family:-apple-system,&quot;SF Pro Display&quot;,&quot;SF Pro Text&quot;,Helvetica,sans-serif;text-anchor:end;" transform="matrix(1 0 0 1 3036 1933)">Template v.2.0</text>
  <text style="stroke:none;fill:black;font-family:-apple-system,&quot;SF Pro Display&quot;,&quot;SF Pro Text&quot;,Helvetica,sans-serif;text-anchor:end;" transform="matrix(1 0 0 1 3036 1951)">Requires Xcode 12 or greater</text>
  <text style="stroke:none;fill:black;font-family:-apple-system,&quot;SF Pro Display&quot;,&quot;SF Pro Text&quot;,Helvetica,sans-serif;" transform="matrix(1 0 0 1 263 726)">Small</text>
  <text style="stroke:none;fill:black;font-family:-apple-system,&quot;SF Pro Display&quot;,&quot;SF Pro Text&quot;,Helvetica,sans-serif;" transform="matrix(1 0 0 1 263 1156)">Medium</text>
  <text style="stroke:none;fill:black;font-family:-apple-system,&quot;SF Pro Display&quot;,&quot;SF Pro Text&quot;,Helvetica,sans-serif;" transform="matrix(1 0 0 1 263 1586)">Large</text>
 </g>
 <g id="Guides">
  <g id="H-reference" style="fill:#27AAE1;stroke:none;" transform="matrix(1 0 0 1 339 696)">
   <path d="M0.976562 0L3.66211 0L12.9883-24.4629L45.752-24.4629L55.127 0L57.7637 0L30.6152-70.459L28.125-70.459ZM29.3457-67.1387L29.4434-67.1387L44.873-26.709L13.8672-26.709Z"/>
  </g>
  <line id="Baseline-S" style="fill:none;stroke:#27AAE1;opacity:1;stroke-width:0.5;" x1="263" x2="3036" y1="696" y2="696"/>
  <line id="Capline-S" style="fill:none;stroke:#27AAE1;opacity:1;stroke-width:0.5;" x1="263" x2="3036" y1="625.541" y2="625.541"/>
  <g id="H-reference" style="fill:#27AAE1;stroke:none;" transform="matrix(1 0 0 1 339 1126)">
   <path d="M0.976562 0L3.66211 0L12.9883-24.4629L45.752-24.4629L55.127 0L57.7637 0L30.6152-70.459L28.125-70.459ZM29.3457-67.1387L29.4434-67.1387L44.873-26.709L13.8672-26.709Z"/>
  </g>
  <line id="Baseline-M" style="fill:none;stroke:#27AAE1;opacity:1;stroke-width:0.5;" x1="263" x2="3036" y1="1126" y2="1126"/>
  <line id="Capline-M" style="fill:none;stroke:#27AAE1;opacity:1;stroke-width:0.5;" x1="263" x2="3036" y1="1055.54" y2="1055.54"/>
  <g id="H-reference" style="fill:#27AAE1;stroke:none;" transform="matrix(1 0 0 1 339 1556)">
   <path d="M0.976562 0L3.66211 0L12.9883-24.4629L45.752-24.4629L55.127 0L57.7637 0L30.6152-70.459L28.125-70.459ZM29.3457-67.1387L29.4434-67.1387L44.873-26.709L13.8672-26.709Z"/>
  </g>
  <line id="Baseline-L" style="fill:none;stroke:#27AAE1;opacity:1;stroke-width:0.5;" x1="263" x2="3036" y1="1556" y2="1556"/>
  <line id="Capline-L" style="fill:none;stroke:#27AAE1;opacity:1;stroke-width:0.5;" x1="263" x2="3036" y1="1485.54" y2="1485.54"/>
  <line id="left-margin" x1="1415.3329373506665" x2="1415.3329373506665" y1="1030.79" y2="1150.12" style="fill:none;stroke:#00AEEF;stroke-width:0.5;opacity:1.0;"/>
  <line id="right-margin" x1="1486.9270626493333" x2="1486.9270626493333" y1="1030.79" y2="1150.12" style="fill:none;stroke:#00AEEF;stroke-width:0.5;opacity:1.0;"/>
 </g>
 <g id="Symbols">
  <g id="Black-L" transform="matrix(1.0,0.0,0.0,1.0,2888.958999190455,1475.0490187217051)">  <path xml:space="preserve" y="0px" fill="#000000" stroke-opacity="1" fill-rule="nonzero" fill-opacity="1" stroke-dasharray="none" stroke-linecap="butt" stroke-linejoin="miter" version="1.1" stroke="none" stroke-width="1px" x="0px" stroke-miterlimit="4" xmlns:xlink="http://www.w3.org/1999/xlink" d="M45.575,91.332C39.466,91.332,33.431,90.125,27.835,87.748C25.128,86.614,22.531,85.187,20.081,83.541C17.667,81.895,15.399,80.03,13.351,77.982C11.302,75.933,9.437,73.666,7.791,71.252C6.145,68.801,4.718,66.204,3.585,63.497C1.207,57.901,0,51.866,0,45.758C0,39.649,1.207,33.614,3.585,28.018C4.718,25.311,6.145,22.714,7.791,20.264C9.437,17.849,11.302,15.582,13.351,13.533C15.399,11.485,17.667,9.62,20.081,7.974C22.531,6.328,25.128,4.901,27.835,3.767C33.431,1.39,39.466,0.183,45.575,0.183C51.683,0.183,57.718,1.39,63.314,3.767C66.021,4.901,68.618,6.328,71.069,7.974C73.483,9.62,75.751,11.485,77.799,13.533C79.847,15.582,81.713,17.849,83.359,20.264C85.004,22.714,86.431,25.311,87.565,28.018C89.942,33.614,91.149,39.649,91.149,45.758C91.149,51.866,89.942,57.901,87.565,63.497C86.431,66.204,85.004,68.801,83.359,71.252C81.713,73.666,79.847,75.933,77.799,77.982C75.751,80.03,73.483,81.895,71.069,83.541C68.618,85.187,66.021,86.614,63.314,87.748C57.718,90.125,51.683,91.332,45.575,91.332ZM62.693,22.97C59.547,22.97,56.987,25.531,56.987,28.676L56.987,62.144C56.987,65.29,59.547,67.85,62.693,67.85L66.241,67.85C69.386,67.85,71.947,65.29,71.947,62.144L71.947,28.676C71.947,25.531,69.386,22.97,66.241,22.97L62.693,22.97ZM43.453,32.224C40.308,32.224,37.747,34.785,37.747,37.93L37.747,62.144C37.747,65.29,40.308,67.85,43.453,67.85L47.001,67.85C50.147,67.85,52.707,65.29,52.707,62.144L52.707,37.93C52.707,34.785,50.147,32.224,47.001,32.224L43.453,32.224ZM24.214,40.783C21.068,40.783,18.508,43.344,18.508,46.489L18.508,62.144C18.508,65.29,21.068,67.85,24.214,67.85L27.762,67.85C30.907,67.85,33.468,65.29,33.468,62.144L33.468,46.453C33.468,43.307,30.907,40.747,27.762,40.747L24.214,40.747ZM24.214,40.783"/>
</g>
  <g id="Heavy-L" transform="matrix(1.0,0.0,0.0,1.0,2592.248999190455,1475.0490187217051)">  <path x="0px" stroke-dasharray="none" stroke-miterlimit="4" fill-rule="nonzero" y="0px" stroke-linecap="butt" xmlns:xlink="http://www.w3.org/1999/xlink" xml:space="preserve" stroke-linejoin="miter" fill-opacity="1" stroke="none" fill="#000000" stroke-opacity="1" stroke-width="1px" version="1.1" d="M45.575,91.332C39.466,91.332,33.431,90.125,27.835,87.748C25.128,86.614,22.531,85.187,20.081,83.541C17.667,81.895,15.399,80.03,13.351,77.982C11.302,75.933,9.437,73.666,7.791,71.252C6.145,68.801,4.718,66.204,3.585,63.497C1.207,57.901,0,51.866,0,45.758C0,39.649,1.207,33.614,3.585,28.018C4.718,25.311,6.145,22.714,7.791,20.264C9.437,17.849,11.302,15.582,13.351,13.533C15.399,11.485,17.667,9.62,20.081,7.974C22.531,6.328,25.128,4.901,27.835,3.767C33.431,1.39,39.466,0.183,45.575,0.183C51.683,0.183,57.718,1.39,63.314,3.767C66.021,4.901,68.618,6.328,71.069,7.974C73.483,9.62,75.751,11.485,77.799,13.533C79.847,15.582,81.713,17.849,83.359,20.264C85.004,22.714,86.431,25.311,87.565,28.018C89.942,33.614,91.149,39.649,91.149,45.758C91.149,51.866,89.942,57.901,87.565,63.497C86.431,66.204,85.004,68.801,83.359,71.252C81.713,73.666,79.847,75.933,77.799,77.982C75.751,80.03,73.483,81.895,71.069,83.541C68.618,85.187,66.021,86.614,63.314,87.748C57.718,90.125,51.683,91.332,45.575,91.332ZM62.693,22.97C59.547,22.97,56.987,25.531,56.987,28.676L56.987,62.144C56.987,65.29,59.547,67.85,62.693,67.85L66.241,67.85C69.386,67.85,71.947,65.29,71.947,62.144L71.947,28.676C71.947,25.531,69.386,22.97,66.241,22.97L62.693,22.97ZM43.453,32.224C40.308,32.224,37.747,34.785,37.747,37.93L37.747,62.144C37.747,65.29,40.308,67.85,43.453,67.85L47.001,67.85C50.147,67.85,52.707,65.29,52.707,62.144L52.707,37.93C52.707,34.785,50.147,32.224,47.001,32.224L43.453,32.224ZM24.214,40.783C21.068,40.783,18.508,43.344,18.508,46.489L18.508,62.144C18.508,65.29,21.068,67.85,24.214,67.85L27.762,67.85C30.907,67.85,33.468,65.29,33.468,62.144L33.468,46.453C33.468,43.307,30.907,40.747,27.762,40.747L24.214,40.747ZM24.214,40.783"/>
</g>
  <g id="Bold-L" transform="matrix(1.0,0.0,0.0,1.0,2295.538999190455,1475.0490187217051)">  <path fill-opacity="1" stroke="none" y="0px" xml:space="preserve" stroke-dasharray="none" stroke-linejoin="miter" version="1.1" stroke-miterlimit="4" xmlns:xlink="http://www.w3.org/1999/xlink" fill="#000000" stroke-width="1px" fill-rule="nonzero" stroke-linecap="butt" stroke-opacity="1" x="0px" d="M45.575,91.332C39.466,91.332,33.431,90.125,27.835,87.748C25.128,86.614,22.531,85.187,20.081,83.541C17.667,81.895,15.399,80.03,13.351,77.982C11.302,75.933,9.437,73.666,7.791,71.252C6.145,68.801,4.718,66.204,3.585,63.497C1.207,57.901,0,51.866,0,45.758C0,39.649,1.207,33.614,3.585,28.018C4.718,25.311,6.145,22.714,7.791,20.264C9.437,17.849,11.302,15.582,13.351,13.533C15.399,11.485,17.667,9.62,20.081,7.974C22.531,6.328,25.128,4.901,27.835,3.767C33.431,1.39,39.466,0.183,45.575,0.183C51.683,0.183,57.718,1.39,63.314,3.767C66.021,4.901,68.618,6.328,71.069,7.974C73.483,9.62,75.751,11.485,77.799,13.533C79.847,15.582,81.713,17.849,83.359,20.264C85.004,22.714,86.431,25.311,87.565,28.018C89.942,33.614,91.149,39.649,91.149,45.758C91.149,51.866,89.942,57.901,87.565,63.497C86.431,66.204,85.004,68.801,83.359,71.252C81.713,73.666,79.847,75.933,77.799,77.982C75.751,80.03,73.483,81.895,71.069,83.541C68.618,85.187,66.021,86.614,63.314,87.748C57.718,90.125,51.683,91.332,45.575,91.332ZM62.693,22.97C59.547,22.97,56.987,25.531,56.987,28.676L56.987,62.144C56.987,65.29,59.547,67.85,62.693,67.85L66.241,67.85C69.386,67.85,71.947,65.29,71.947,62.144L71.947,28.676C71.947,25.531,69.386,22.97,66.241,22.97L62.693,22.97ZM43.453,32.224C40.308,32.224,37.747,34.785,37.747,37.93L37.747,62.144C37.747,65.29,40.308,67.85,43.453,67.85L47.001,67.85C50.147,67.85,52.707,65.29,52.707,62.144L52.707,37.93C52.707,34.785,50.147,32.224,47.001,32.224L43.453,32.224ZM24.214,40.783C21.068,40.783,18.508,43.344,18.508,46.489L18.508,62.144C18.508,65.29,21.068,67.85,24.214,67.85L27.762,67.85C30.907,67.85,33.468,65.29,33.468,62.144L33.468,46.453C33.468,43.307,30.907,40.747,27.762,40.747L24.214,40.747ZM24.214,40.783"/>
</g>
  <g id="Semibold-L" transform="matrix(1.0,0.0,0.0,1.0,1998.828999190455,1475.0490187217051)">  <path stroke-linejoin="miter" fill-rule="nonzero" version="1.1" fill-opacity="1" xml:space="preserve" y="0px" fill="#000000" xmlns:xlink="http://www.w3.org/1999/xlink" stroke-dasharray="none" stroke-opacity="1" stroke="none" stroke-miterlimit="4" stroke-linecap="butt" stroke-width="1px" x="0px" d="M45.575,91.332C39.466,91.332,33.431,90.125,27.835,87.748C25.128,86.614,22.531,85.187,20.081,83.541C17.667,81.895,15.399,80.03,13.351,77.982C11.302,75.933,9.437,73.666,7.791,71.252C6.145,68.801,4.718,66.204,3.585,63.497C1.207,57.901,0,51.866,0,45.758C0,39.649,1.207,33.614,3.585,28.018C4.718,25.311,6.145,22.714,7.791,20.264C9.437,17.849,11.302,15.582,13.351,13.533C15.399,11.485,17.667,9.62,20.081,7.974C22.531,6.328,25.128,4.901,27.835,3.767C33.431,1.39,39.466,0.183,45.575,0.183C51.683,0.183,57.718,1.39,63.314,3.767C66.021,4.901,68.618,6.328,71.069,7.974C73.483,9.62,75.751,11.485,77.799,13.533C79.847,15.582,81.713,17.849,83.359,20.264C85.004,22.714,86.431,25.311,87.565,28.018C89.942,33.614,91.149,39.649,91.149,45.758C91.149,51.866,89.942,57.901,87.565,63.497C86.431,66.204,85.004,68.801,83.359,71.252C81.713,73.666,79.847,75.933,77.799,77.982C75.751,80.03,73.483,81.895,71.069,83.541C68.618,85.187,66.021,86.614,63.314,87.748C57.718,90.125,51.683,91.332,45.575,91.332ZM62.693,22.97C59.547,22.97,56.987,25.531,56.987,28.676L56.987,62.144C56.987,65.29,59.547,67.85,62.693,67.85L66.241,67.85C69.386,67.85,71.947,65.29,71.947,62.144L71.947,28.676C71.947,25.531,69.386,22.97,66.241,22.97L62.693,22.97ZM43.453,32.224C40.308,32.224,37.747,34.785,37.747,37.93L37.747,62.144C37.747,65.29,40.308,67.85,43.453,67.85L47.001,67.85C50.147,67.85,52.707,65.29,52.707,62.144L52.707,37.93C52.707,34.785,50.147,32.224,47.001,32.224L43.453,32.224ZM24.214,40.783C21.068,40.783,18.508,43.344,18.508,46.489L18.508,62.144C18.508,65.29,21.068,67.85,24.214,67.85L27.762,67.85C30.907,67.85,33.468,65.29,33.468,62.144L33.468,46.453C33.468,43.307,30.907,40.747,27.762,40.747L24.214,40.747ZM24.214,40.783"/>
</g>
  <g id="Medium-L" transform="matrix(1.0,0.0,0.0,1.0,1702.118999190455,1475.0490187217051)">  <path stroke-linejoin="miter" fill-rule="nonzero" fill="#000000" y="0px" stroke-dasharray="none" fill-opacity="1" xmlns:xlink="http://www.w3.org/1999/xlink" x="0px" version="1.1" stroke-miterlimit="4" stroke-opacity="1" xml:space="preserve" stroke="none" stroke-width="1px" stroke-linecap="butt" d="M45.575,91.332C39.466,91.332,33.431,90.125,27.835,87.748C25.128,86.614,22.531,85.187,20.081,83.541C17.667,81.895,15.399,80.03,13.351,77.982C11.302,75.933,9.437,73.666,7.791,71.252C6.145,68.801,4.718,66.204,3.585,63.497C1.207,57.901,0,51.866,0,45.758C0,39.649,1.207,33.614,3.585,28.018C4.718,25.311,6.145,22.714,7.791,20.264C9.437,17.849,11.302,15.582,13.351,13.533C15.399,11.485,17.667,9.62,20.081,7.974C22.531,6.328,25.128,4.901,27.835,3.767C33.431,1.39,39.466,0.183,45.575,0.183C51.683,0.183,57.718,1.39,63.314,3.767C66.021,4.901,68.618,6.328,71.069,7.974C73.483,9.62,75.751,11.485,77.799,13.533C79.847,15.582,81.713,17.849,83.359,20.264C85.004,22.714,86.431,25.311,87.565,28.018C89.942,33.614,91.149,39.649,91.149,45.758C91.149,51.866,89.942,57.901,87.565,63.497C86.431,66.204,85.004,68.801,83.359,71.252C81.713,73.666,79.847,75.933,77.799,77.982C75.751,80.03,73.483,81.895,71.069,83.541C68.618,85.187,66.021,86.614,63.314,87.748C57.718,90.125,51.683,91.332,45.575,91.332ZM62.693,22.97C59.547,22.97,56.987,25.531,56.987,28.676L56.987,62.144C56.987,65.29,59.547,67.85,62.693,67.85L66.241,67.85C69.386,67.85,71.947,65.29,71.947,62.144L71.947,28.676C71.947,25.531,69.386,22.97,66.241,22.97L62.693,22.97ZM43.453,32.224C40.308,32.224,37.747,34.785,37.747,37.93L37.747,62.144C37.747,65.29,40.308,67.85,43.453,67.85L47.001,67.85C50.147,67.85,52.707,65.29,52.707,62.144L52.707,37.93C52.707,34.785,50.147,32.224,47.001,32.224L43.453,32.224ZM24.214,40.783C21.068,40.783,18.508,43.344,18.508,46.489L18.508,62.144C18.508,65.29,21.068,67.85,24.214,67.85L27.762,67.85C30.907,67.85,33.468,65.29,33.468,62.144L33.468,46.453C33.468,43.307,30.907,40.747,27.762,40.747L24.214,40.747ZM24.214,40.783"/>
</g>
  <g id="Regular-L" transform="matrix(1.0,0.0,0.0,1.0,1405.408999190455,1475.0490187217051)">  <path stroke-miterlimit="4" xml:space="preserve" stroke="none" fill-rule="nonzero" x="0px" stroke-width="1px" y="0px" stroke-linejoin="miter" fill-opacity="1" stroke-linecap="butt" fill="#000000" stroke-opacity="1" version="1.1" stroke-dasharray="none" xmlns:xlink="http://www.w3.org/1999/xlink" d="M45.575,91.332C39.466,91.332,33.431,90.125,27.835,87.748C25.128,86.614,22.531,85.187,20.081,83.541C17.667,81.895,15.399,80.03,13.351,77.982C11.302,75.933,9.437,73.666,7.791,71.252C6.145,68.801,4.718,66.204,3.585,63.497C1.207,57.901,0,51.866,0,45.758C0,39.649,1.207,33.614,3.585,28.018C4.718,25.311,6.145,22.714,7.791,20.264C9.437,17.849,11.302,15.582,13.351,13.533C15.399,11.485,17.667,9.62,20.081,7.974C22.531,6.328,25.128,4.901,27.835,3.767C33.431,1.39,39.466,0.183,45.575,0.183C51.683,0.183,57.718,1.39,63.314,3.767C66.021,4.901,68.618,6.328,71.069,7.974C73.483,9.62,75.751,11.485,77.799,13.533C79.847,15.582,81.713,17.849,83.359,20.264C85.004,22.714,86.431,25.311,87.565,28.018C89.942,33.614,91.149,39.649,91.149,45.758C91.149,51.866,89.942,57.901,87.565,63.497C86.431,66.204,85.004,68.801,83.359,71.252C81.713,73.666,79.847,75.933,77.799,77.982C75.751,80.03,73.483,81.895,71.069,83.541C68.618,85.187,66.021,86.614,63.314,87.748C57.718,90.125,51.683,91.332,45.575,91.332ZM62.693,22.97C59.547,22.97,56.987,25.531,56.987,28.676L56.987,62.144C56.987,65.29,59.547,67.85,62.693,67.85L66.241,67.85C69.386,67.85,71.947,65.29,71.947,62.144L71.947,28.676C71.947,25.531,69.386,22.97,66.241,22.97L62.693,22.97ZM43.453,32.224C40.308,32.224,37.747,34.785,37.747,37.93L37.747,62.144C37.747,65.29,40.308,67.85,43.453,67.85L47.001,67.85C50.147,67.85,52.707,65.29,52.707,62.144L52.707,37.93C52.707,34.785,50.147,32.224,47.001,32.224L43.453,32.224ZM24.214,40.783C21.068,40.783,18.508,43.344,18.508,46.489L18.508,62.144C18.508,65.29,21.068,67.85,24.214,67.85L27.762,67.85C30.907,67.85,33.468,65.29,33.468,62.144L33.468,46.453C33.468,43.307,30.907,40.747,27.762,40.747L24.214,40.747ZM24.214,40.783"/>
</g>
  <g id="Light-L" transform="matrix(1.0,0.0,0.0,1.0,1108.6989991904552,1475.0490187217051)">  <path fill-opacity="1" xmlns:xlink="http://www.w3.org/1999/xlink" stroke-miterlimit="4" y="0px" stroke-dasharray="none" stroke="none" version="1.1" stroke-linecap="butt" stroke-width="1px" stroke-linejoin="miter" fill="#000000" xml:space="preserve" fill-rule="nonzero" x="0px" stroke-opacity="1" d="M45.575,91.332C39.466,91.332,33.431,90.125,27.835,87.748C25.128,86.614,22.531,85.187,20.081,83.541C17.667,81.895,15.399,80.03,13.351,77.982C11.302,75.933,9.437,73.666,7.791,71.252C6.145,68.801,4.718,66.204,3.585,63.497C1.207,57.901,0,51.866,0,45.758C0,39.649,1.207,33.614,3.585,28.018C4.718,25.311,6.145,22.714,7.791,20.264C9.437,17.849,11.302,15.582,13.351,13.533C15.399,11.485,17.667,9.62,20.081,7.974C22.531,6.328,25.128,4.901,27.835,3.767C33.431,1.39,39.466,0.183,45.575,0.183C51.683,0.183,57.718,1.39,63.314,3.767C66.021,4.901,68.618,6.328,71.069,7.974C73.483,9.62,75.751,11.485,77.799,13.533C79.847,15.582,81.713,17.849,83.359,20.264C85.004,22.714,86.431,25.311,87.565,28.018C89.942,33.614,91.149,39.649,91.149,45.758C91.149,51.866,89.942,57.901,87.565,63.497C86.431,66.204,85.004,68.801,83.359,71.252C81.713,73.666,79.847,75.933,77.799,77.982C75.751,80.03,73.483,81.895,71.069,83.541C68.618,85.187,66.021,86.614,63.314,87.748C57.718,90.125,51.683,91.332,45.575,91.332ZM62.693,22.97C59.547,22.97,56.987,25.531,56.987,28.676L56.987,62.144C56.987,65.29,59.547,67.85,62.693,67.85L66.241,67.85C69.386,67.85,71.947,65.29,71.947,62.144L71.947,28.676C71.947,25.531,69.386,22.97,66.241,22.97L62.693,22.97ZM43.453,32.224C40.308,32.224,37.747,34.785,37.747,37.93L37.747,62.144C37.747,65.29,40.308,67.85,43.453,67.85L47.001,67.85C50.147,67.85,52.707,65.29,52.707,62.144L52.707,37.93C52.707,34.785,50.147,32.224,47.001,32.224L43.453,32.224ZM24.214,40.783C21.068,40.783,18.508,43.344,18.508,46.489L18.508,62.144C18.508,65.29,21.068,67.85,24.214,67.85L27.762,67.85C30.907,67.85,33.468,65.29,33.468,62.144L33.468,46.453C33.468,43.307,30.907,40.747,27.762,40.747L24.214,40.747ZM24.214,40.783"/>
</g>
  <g id="Thin-L" transform="matrix(1.0,0.0,0.0,1.0,811.9889991904553,1475.0490187217051)">  <path version="1.1" stroke-linecap="butt" stroke-miterlimit="4" stroke-width="1px" xmlns:xlink="http://www.w3.org/1999/xlink" fill-opacity="1" y="0px" x="0px" fill-rule="nonzero" fill="#000000" stroke-linejoin="miter" stroke-dasharray="none" stroke-opacity="1" xml:space="preserve" stroke="none" d="M45.575,91.332C39.466,91.332,33.431,90.125,27.835,87.748C25.128,86.614,22.531,85.187,20.081,83.541C17.667,81.895,15.399,80.03,13.351,77.982C11.302,75.933,9.437,73.666,7.791,71.252C6.145,68.801,4.718,66.204,3.585,63.497C1.207,57.901,0,51.866,0,45.758C0,39.649,1.207,33.614,3.585,28.018C4.718,25.311,6.145,22.714,7.791,20.264C9.437,17.849,11.302,15.582,13.351,13.533C15.399,11.485,17.667,9.62,20.081,7.974C22.531,6.328,25.128,4.901,27.835,3.767C33.431,1.39,39.466,0.183,45.575,0.183C51.683,0.183,57.718,1.39,63.314,3.767C66.021,4.901,68.618,6.328,71.069,7.974C73.483,9.62,75.751,11.485,77.799,13.533C79.847,15.582,81.713,17.849,83.359,20.264C85.004,22.714,86.431,25.311,87.565,28.018C89.942,33.614,91.149,39.649,91.149,45.758C91.149,51.866,89.942,57.901,87.565,63.497C86.431,66.204,85.004,68.801,83.359,71.252C81.713,73.666,79.847,75.933,77.799,77.982C75.751,80.03,73.483,81.895,71.069,83.541C68.618,85.187,66.021,86.614,63.314,87.748C57.718,90.125,51.683,91.332,45.575,91.332ZM62.693,22.97C59.547,22.97,56.987,25.531,56.987,28.676L56.987,62.144C56.987,65.29,59.547,67.85,62.693,67.85L66.241,67.85C69.386,67.85,71.947,65.29,71.947,62.144L71.947,28.676C71.947,25.531,69.386,22.97,66.241,22.97L62.693,22.97ZM43.453,32.224C40.308,32.224,37.747,34.785,37.747,37.93L37.747,62.144C37.747,65.29,40.308,67.85,43.453,67.85L47.001,67.85C50.147,67.85,52.707,65.29,52.707,62.144L52.707,37.93C52.707,34.785,50.147,32.224,47.001,32.224L43.453,32.224ZM24.214,40.783C21.068,40.783,18.508,43.344,18.508,46.489L18.508,62.144C18.508,65.29,21.068,67.85,24.214,67.85L27.762,67.85C30.907,67.85,33.468,65.29,33.468,62.144L33.468,46.453C33.468,43.307,30.907,40.747,27.762,40.747L24.214,40.747ZM24.214,40.783"/>
</g>
  <g id="Ultralight-L" transform="matrix(1.0,0.0,0.0,1.0,515.2789991904552,1475.0490187217051)">  <path fill-opacity="1" version="1.1" stroke-linejoin="miter" stroke-miterlimit="4" x="0px" y="0px" stroke-linecap="butt" stroke-width="1px" stroke="none" xmlns:xlink="http://www.w3.org/1999/xlink" fill="#000000" xml:space="preserve" stroke-dasharray="none" fill-rule="nonzero" stroke-opacity="1" d="M45.575,91.332C39.466,91.332,33.431,90.125,27.835,87.748C25.128,86.614,22.531,85.187,20.081,83.541C17.667,81.895,15.399,80.03,13.351,77.982C11.302,75.933,9.437,73.666,7.791,71.252C6.145,68.801,4.718,66.204,3.585,63.497C1.207,57.901,0,51.866,0,45.758C0,39.649,1.207,33.614,3.585,28.018C4.718,25.311,6.145,22.714,7.791,20.264C9.437,17.849,11.302,15.582,13.351,13.533C15.399,11.485,17.667,9.62,20.081,7.974C22.531,6.328,25.128,4.901,27.835,3.767C33.431,1.39,39.466,0.183,45.575,0.183C51.683,0.183,57.718,1.39,63.314,3.767C66.021,4.901,68.618,6.328,71.069,7.974C73.483,9.62,75.751,11.485,77.799,13.533C79.847,15.582,81.713,17.849,83.359,20.264C85.004,22.714,86.431,25.311,87.565,28.018C89.942,33.614,91.149,39.649,91.149,45.758C91.149,51.866,89.942,57.901,87.565,63.497C86.431,66.204,85.004,68.801,83.359,71.252C81.713,73.666,79.847,75.933,77.799,77.982C75.751,80.03,73.483,81.895,71.069,83.541C68.618,85.187,66.021,86.614,63.314,87.748C57.718,90.125,51.683,91.332,45.575,91.332ZM62.693,22.97C59.547,22.97,56.987,25.531,56.987,28.676L56.987,62.144C56.987,65.29,59.547,67.85,62.693,67.85L66.241,67.85C69.386,67.85,71.947,65.29,71.947,62.144L71.947,28.676C71.947,25.531,69.386,22.97,66.241,22.97L62.693,22.97ZM43.453,32.224C40.308,32.224,37.747,34.785,37.747,37.93L37.747,62.144C37.747,65.29,40.308,67.85,43.453,67.85L47.001,67.85C50.147,67.85,52.707,65.29,52.707,62.144L52.707,37.93C52.707,34.785,50.147,32.224,47.001,32.224L43.453,32.224ZM24.214,40.783C21.068,40.783,18.508,43.344,18.508,46.489L18.508,62.144C18.508,65.29,21.068,67.85,24.214,67.85L27.762,67.85C30.907,67.85,33.468,65.29,33.468,62.144L33.468,46.453C33.468,43.307,30.907,40.747,27.762,40.747L24.214,40.747ZM24.214,40.783"/>
</g>
  <g id="Black-M" transform="matrix(1.0,0.0,0.0,1.0,2899.237363713531,1055.3273832447812)">  <path xml:space="preserve" y="0px" fill="#000000" stroke-opacity="1" fill-rule="nonzero" fill-opacity="1" stroke-dasharray="none" stroke-linecap="butt" stroke-linejoin="miter" version="1.1" stroke="none" stroke-width="1px" x="0px" stroke-miterlimit="4" xmlns:xlink="http://www.w3.org/1999/xlink" d="M35.329,70.8C30.594,70.8,25.916,69.865,21.577,68.022C19.479,67.143,17.466,66.037,15.566,64.761C13.695,63.485,11.937,62.039,10.349,60.451C8.761,58.863,7.315,57.105,6.039,55.234C4.763,53.334,3.658,51.321,2.779,49.223C0.936,44.885,0,40.206,0,35.471C0,30.736,0.936,26.057,2.779,21.719C3.658,19.621,4.763,17.608,6.039,15.708C7.315,13.837,8.761,12.079,10.349,10.491C11.937,8.903,13.695,7.457,15.566,6.181C17.466,4.905,19.479,3.799,21.577,2.92C25.916,1.077,30.594,0.142,35.329,0.142C40.064,0.142,44.743,1.077,49.081,2.92C51.179,3.799,53.192,4.905,55.092,6.181C56.963,7.457,58.721,8.903,60.309,10.491C61.897,12.079,63.343,13.837,64.619,15.708C65.895,17.608,67.001,19.621,67.88,21.719C69.723,26.057,70.658,30.736,70.658,35.471C70.658,40.206,69.723,44.885,67.88,49.223C67.001,51.321,65.895,53.334,64.619,55.234C63.343,57.105,61.897,58.863,60.309,60.451C58.721,62.039,56.963,63.485,55.092,64.761C53.192,66.037,51.179,67.143,49.081,68.022C44.743,69.865,40.064,70.8,35.329,70.8ZM48.599,17.806C46.16,17.806,44.176,19.791,44.176,22.23L44.176,48.174C44.176,50.612,46.16,52.597,48.599,52.597L51.349,52.597C53.788,52.597,55.773,50.612,55.773,48.174L55.773,22.23C55.773,19.791,53.788,17.806,51.349,17.806L48.599,17.806ZM33.685,24.98C31.246,24.98,29.261,26.965,29.261,29.403L29.261,48.174C29.261,50.612,31.246,52.597,33.685,52.597L36.435,52.597C38.873,52.597,40.858,50.612,40.858,48.174L40.858,29.403C40.858,26.965,38.873,24.98,36.435,24.98L33.685,24.98ZM18.77,31.615C16.332,31.615,14.347,33.6,14.347,36.038L14.347,48.174C14.347,50.612,16.332,52.597,18.77,52.597L21.521,52.597C23.959,52.597,25.944,50.612,25.944,48.174L25.944,36.01C25.944,33.571,23.959,31.586,21.521,31.586L18.77,31.586ZM18.77,31.615"/>
</g>
  <g id="Heavy-M" transform="matrix(1.0,0.0,0.0,1.0,2602.527363713531,1055.3273832447812)">  <path x="0px" stroke-dasharray="none" stroke-miterlimit="4" fill-rule="nonzero" y="0px" stroke-linecap="butt" xmlns:xlink="http://www.w3.org/1999/xlink" xml:space="preserve" stroke-linejoin="miter" fill-opacity="1" stroke="none" fill="#000000" stroke-opacity="1" stroke-width="1px" version="1.1" d="M35.329,70.8C30.594,70.8,25.916,69.865,21.577,68.022C19.479,67.143,17.466,66.037,15.566,64.761C13.695,63.485,11.937,62.039,10.349,60.451C8.761,58.863,7.315,57.105,6.039,55.234C4.763,53.334,3.658,51.321,2.779,49.223C0.936,44.885,0,40.206,0,35.471C0,30.736,0.936,26.057,2.779,21.719C3.658,19.621,4.763,17.608,6.039,15.708C7.315,13.837,8.761,12.079,10.349,10.491C11.937,8.903,13.695,7.457,15.566,6.181C17.466,4.905,19.479,3.799,21.577,2.92C25.916,1.077,30.594,0.142,35.329,0.142C40.064,0.142,44.743,1.077,49.081,2.92C51.179,3.799,53.192,4.905,55.092,6.181C56.963,7.457,58.721,8.903,60.309,10.491C61.897,12.079,63.343,13.837,64.619,15.708C65.895,17.608,67.001,19.621,67.88,21.719C69.723,26.057,70.658,30.736,70.658,35.471C70.658,40.206,69.723,44.885,67.88,49.223C67.001,51.321,65.895,53.334,64.619,55.234C63.343,57.105,61.897,58.863,60.309,60.451C58.721,62.039,56.963,63.485,55.092,64.761C53.192,66.037,51.179,67.143,49.081,68.022C44.743,69.865,40.064,70.8,35.329,70.8ZM48.599,17.806C46.16,17.806,44.176,19.791,44.176,22.23L44.176,48.174C44.176,50.612,46.16,52.597,48.599,52.597L51.349,52.597C53.788,52.597,55.773,50.612,55.773,48.174L55.773,22.23C55.773,19.791,53.788,17.806,51.349,17.806L48.599,17.806ZM33.685,24.98C31.246,24.98,29.261,26.965,29.261,29.403L29.261,48.174C29.261,50.612,31.246,52.597,33.685,52.597L36.435,52.597C38.873,52.597,40.858,50.612,40.858,48.174L40.858,29.403C40.858,26.965,38.873,24.98,36.435,24.98L33.685,24.98ZM18.77,31.615C16.332,31.615,14.347,33.6,14.347,36.038L14.347,48.174C14.347,50.612,16.332,52.597,18.77,52.597L21.521,52.597C23.959,52.597,25.944,50.612,25.944,48.174L25.944,36.01C25.944,33.571,23.959,31.586,21.521,31.586L18.77,31.586ZM18.77,31.615"/>
</g>
  <g id="Bold-M" transform="matrix(1.0,0.0,0.0,1.0,2305.817363713531,1055.3273832447812)">  <path fill-opacity="1" stroke="none" y="0px" xml:space="preserve" stroke-dasharray="none" stroke-linejoin="miter" version="1.1" stroke-miterlimit="4" xmlns:xlink="http://www.w3.org/1999/xlink" fill="#000000" stroke-width="1px" fill-rule="nonzero" stroke-linecap="butt" stroke-opacity="1" x="0px" d="M35.329,70.8C30.594,70.8,25.916,69.865,21.577,68.022C19.479,67.143,17.466,66.037,15.566,64.761C13.695,63.485,11.937,62.039,10.349,60.451C8.761,58.863,7.315,57.105,6.039,55.234C4.763,53.334,3.658,51.321,2.779,49.223C0.936,44.885,0,40.206,0,35.471C0,30.736,0.936,26.057,2.779,21.719C3.658,19.621,4.763,17.608,6.039,15.708C7.315,13.837,8.761,12.079,10.349,10.491C11.937,8.903,13.695,7.457,15.566,6.181C17.466,4.905,19.479,3.799,21.577,2.92C25.916,1.077,30.594,0.142,35.329,0.142C40.064,0.142,44.743,1.077,49.081,2.92C51.179,3.799,53.192,4.905,55.092,6.181C56.963,7.457,58.721,8.903,60.309,10.491C61.897,12.079,63.343,13.837,64.619,15.708C65.895,17.608,67.001,19.621,67.88,21.719C69.723,26.057,70.658,30.736,70.658,35.471C70.658,40.206,69.723,44.885,67.88,49.223C67.001,51.321,65.895,53.334,64.619,55.234C63.343,57.105,61.897,58.863,60.309,60.451C58.721,62.039,56.963,63.485,55.092,64.761C53.192,66.037,51.179,67.143,49.081,68.022C44.743,69.865,40.064,70.8,35.329,70.8ZM48.599,17.806C46.16,17.806,44.176,19.791,44.176,22.23L44.176,48.174C44.176,50.612,46.16,52.597,48.599,52.597L51.349,52.597C53.788,52.597,55.773,50.612,55.773,48.174L55.773,22.23C55.773,19.791,53.788,17.806,51.349,17.806L48.599,17.806ZM33.685,24.98C31.246,24.98,29.261,26.965,29.261,29.403L29.261,48.174C29.261,50.612,31.246,52.597,33.685,52.597L36.435,52.597C38.873,52.597,40.858,50.612,40.858,48.174L40.858,29.403C40.858,26.965,38.873,24.98,36.435,24.98L33.685,24.98ZM18.77,31.615C16.332,31.615,14.347,33.6,14.347,36.038L14.347,48.174C14.347,50.612,16.332,52.597,18.77,52.597L21.521,52.597C23.959,52.597,25.944,50.612,25.944,48.174L25.944,36.01C25.944,33.571,23.959,31.586,21.521,31.586L18.77,31.586ZM18.77,31.615"/>
</g>
  <g id="Semibold-M" transform="matrix(1.0,0.0,0.0,1.0,2009.1073637135312,1055.3273832447812)">  <path stroke-linejoin="miter" fill-rule="nonzero" version="1.1" fill-opacity="1" xml:space="preserve" y="0px" fill="#000000" xmlns:xlink="http://www.w3.org/1999/xlink" stroke-dasharray="none" stroke-opacity="1" stroke="none" stroke-miterlimit="4" stroke-linecap="butt" stroke-width="1px" x="0px" d="M35.329,70.8C30.594,70.8,25.916,69.865,21.577,68.022C19.479,67.143,17.466,66.037,15.566,64.761C13.695,63.485,11.937,62.039,10.349,60.451C8.761,58.863,7.315,57.105,6.039,55.234C4.763,53.334,3.658,51.321,2.779,49.223C0.936,44.885,0,40.206,0,35.471C0,30.736,0.936,26.057,2.779,21.719C3.658,19.621,4.763,17.608,6.039,15.708C7.315,13.837,8.761,12.079,10.349,10.491C11.937,8.903,13.695,7.457,15.566,6.181C17.466,4.905,19.479,3.799,21.577,2.92C25.916,1.077,30.594,0.142,35.329,0.142C40.064,0.142,44.743,1.077,49.081,2.92C51.179,3.799,53.192,4.905,55.092,6.181C56.963,7.457,58.721,8.903,60.309,10.491C61.897,12.079,63.343,13.837,64.619,15.708C65.895,17.608,67.001,19.621,67.88,21.719C69.723,26.057,70.658,30.736,70.658,35.471C70.658,40.206,69.723,44.885,67.88,49.223C67.001,51.321,65.895,53.334,64.619,55.234C63.343,57.105,61.897,58.863,60.309,60.451C58.721,62.039,56.963,63.485,55.092,64.761C53.192,66.037,51.179,67.143,49.081,68.022C44.743,69.865,40.064,70.8,35.329,70.8ZM48.599,17.806C46.16,17.806,44.176,19.791,44.176,22.23L44.176,48.174C44.176,50.612,46.16,52.597,48.599,52.597L51.349,52.597C53.788,52.597,55.773,50.612,55.773,48.174L55.773,22.23C55.773,19.791,53.788,17.806,51.349,17.806L48.599,17.806ZM33.685,24.98C31.246,24.98,29.261,26.965,29.261,29.403L29.261,48.174C29.261,50.612,31.246,52.597,33.685,52.597L36.435,52.597C38.873,52.597,40.858,50.612,40.858,48.174L40.858,29.403C40.858,26.965,38.873,24.98,36.435,24.98L33.685,24.98ZM18.77,31.615C16.332,31.615,14.347,33.6,14.347,36.038L14.347,48.174C14.347,50.612,16.332,52.597,18.77,52.597L21.521,52.597C23.959,52.597,25.944,50.612,25.944,48.174L25.944,36.01C25.944,33.571,23.959,31.586,21.521,31.586L18.77,31.586ZM18.77,31.615"/>
</g>
  <g id="Medium-M" transform="matrix(1.0,0.0,0.0,1.0,1712.3973637135311,1055.3273832447812)">  <path stroke-linejoin="miter" fill-rule="nonzero" fill="#000000" y="0px" stroke-dasharray="none" fill-opacity="1" xmlns:xlink="http://www.w3.org/1999/xlink" x="0px" version="1.1" stroke-miterlimit="4" stroke-opacity="1" xml:space="preserve" stroke="none" stroke-width="1px" stroke-linecap="butt" d="M35.329,70.8C30.594,70.8,25.916,69.865,21.577,68.022C19.479,67.143,17.466,66.037,15.566,64.761C13.695,63.485,11.937,62.039,10.349,60.451C8.761,58.863,7.315,57.105,6.039,55.234C4.763,53.334,3.658,51.321,2.779,49.223C0.936,44.885,0,40.206,0,35.471C0,30.736,0.936,26.057,2.779,21.719C3.658,19.621,4.763,17.608,6.039,15.708C7.315,13.837,8.761,12.079,10.349,10.491C11.937,8.903,13.695,7.457,15.566,6.181C17.466,4.905,19.479,3.799,21.577,2.92C25.916,1.077,30.594,0.142,35.329,0.142C40.064,0.142,44.743,1.077,49.081,2.92C51.179,3.799,53.192,4.905,55.092,6.181C56.963,7.457,58.721,8.903,60.309,10.491C61.897,12.079,63.343,13.837,64.619,15.708C65.895,17.608,67.001,19.621,67.88,21.719C69.723,26.057,70.658,30.736,70.658,35.471C70.658,40.206,69.723,44.885,67.88,49.223C67.001,51.321,65.895,53.334,64.619,55.234C63.343,57.105,61.897,58.863,60.309,60.451C58.721,62.039,56.963,63.485,55.092,64.761C53.192,66.037,51.179,67.143,49.081,68.022C44.743,69.865,40.064,70.8,35.329,70.8ZM48.599,17.806C46.16,17.806,44.176,19.791,44.176,22.23L44.176,48.174C44.176,50.612,46.16,52.597,48.599,52.597L51.349,52.597C53.788,52.597,55.773,50.612,55.773,48.174L55.773,22.23C55.773,19.791,53.788,17.806,51.349,17.806L48.599,17.806ZM33.685,24.98C31.246,24.98,29.261,26.965,29.261,29.403L29.261,48.174C29.261,50.612,31.246,52.597,33.685,52.597L36.435,52.597C38.873,52.597,40.858,50.612,40.858,48.174L40.858,29.403C40.858,26.965,38.873,24.98,36.435,24.98L33.685,24.98ZM18.77,31.615C16.332,31.615,14.347,33.6,14.347,36.038L14.347,48.174C14.347,50.612,16.332,52.597,18.77,52.597L21.521,52.597C23.959,52.597,25.944,50.612,25.944,48.174L25.944,36.01C25.944,33.571,23.959,31.586,21.521,31.586L18.77,31.586ZM18.77,31.615"/>
</g>
  <g id="Regular-M" transform="matrix(1.0,0.0,0.0,1.0,1415.687363713531,1055.3273832447812)">  <path stroke-miterlimit="4" xml:space="preserve" stroke="none" fill-rule="nonzero" x="0px" stroke-width="1px" y="0px" stroke-linejoin="miter" fill-opacity="1" stroke-linecap="butt" fill="#000000" stroke-opacity="1" version="1.1" stroke-dasharray="none" xmlns:xlink="http://www.w3.org/1999/xlink" d="M35.329,70.8C30.594,70.8,25.916,69.865,21.577,68.022C19.479,67.143,17.466,66.037,15.566,64.761C13.695,63.485,11.937,62.039,10.349,60.451C8.761,58.863,7.315,57.105,6.039,55.234C4.763,53.334,3.658,51.321,2.779,49.223C0.936,44.885,0,40.206,0,35.471C0,30.736,0.936,26.057,2.779,21.719C3.658,19.621,4.763,17.608,6.039,15.708C7.315,13.837,8.761,12.079,10.349,10.491C11.937,8.903,13.695,7.457,15.566,6.181C17.466,4.905,19.479,3.799,21.577,2.92C25.916,1.077,30.594,0.142,35.329,0.142C40.064,0.142,44.743,1.077,49.081,2.92C51.179,3.799,53.192,4.905,55.092,6.181C56.963,7.457,58.721,8.903,60.309,10.491C61.897,12.079,63.343,13.837,64.619,15.708C65.895,17.608,67.001,19.621,67.88,21.719C69.723,26.057,70.658,30.736,70.658,35.471C70.658,40.206,69.723,44.885,67.88,49.223C67.001,51.321,65.895,53.334,64.619,55.234C63.343,57.105,61.897,58.863,60.309,60.451C58.721,62.039,56.963,63.485,55.092,64.761C53.192,66.037,51.179,67.143,49.081,68.022C44.743,69.865,40.064,70.8,35.329,70.8ZM48.599,17.806C46.16,17.806,44.176,19.791,44.176,22.23L44.176,48.174C44.176,50.612,46.16,52.597,48.599,52.597L51.349,52.597C53.788,52.597,55.773,50.612,55.773,48.174L55.773,22.23C55.773,19.791,53.788,17.806,51.349,17.806L48.599,17.806ZM33.685,24.98C31.246,24.98,29.261,26.965,29.261,29.403L29.261,48.174C29.261,50.612,31.246,52.597,33.685,52.597L36.435,52.597C38.873,52.597,40.858,50.612,40.858,48.174L40.858,29.403C40.858,26.965,38.873,24.98,36.435,24.98L33.685,24.98ZM18.77,31.615C16.332,31.615,14.347,33.6,14.347,36.038L14.347,48.174C14.347,50.612,16.332,52.597,18.77,52.597L21.521,52.597C23.959,52.597,25.944,50.612,25.944,48.174L25.944,36.01C25.944,33.571,23.959,31.586,21.521,31.586L18.77,31.586ZM18.77,31.615"/>
</g>
  <g id="Light-M" transform="matrix(1.0,0.0,0.0,1.0,1118.9773637135313,1055.3273832447812)">  <path fill-opacity="1" xmlns:xlink="http://www.w3.org/1999/xlink" stroke-miterlimit="4" y="0px" stroke-dasharray="none" stroke="none" version="1.1" stroke-linecap="butt" stroke-width="1px" stroke-linejoin="miter" fill="#000000" xml:space="preserve" fill-rule="nonzero" x="0px" stroke-opacity="1" d="M35.329,70.8C30.594,70.8,25.916,69.865,21.577,68.022C19.479,67.143,17.466,66.037,15.566,64.761C13.695,63.485,11.937,62.039,10.349,60.451C8.761,58.863,7.315,57.105,6.039,55.234C4.763,53.334,3.658,51.321,2.779,49.223C0.936,44.885,0,40.206,0,35.471C0,30.736,0.936,26.057,2.779,21.719C3.658,19.621,4.763,17.608,6.039,15.708C7.315,13.837,8.761,12.079,10.349,10.491C11.937,8.903,13.695,7.457,15.566,6.181C17.466,4.905,19.479,3.799,21.577,2.92C25.916,1.077,30.594,0.142,35.329,0.142C40.064,0.142,44.743,1.077,49.081,2.92C51.179,3.799,53.192,4.905,55.092,6.181C56.963,7.457,58.721,8.903,60.309,10.491C61.897,12.079,63.343,13.837,64.619,15.708C65.895,17.608,67.001,19.621,67.88,21.719C69.723,26.057,70.658,30.736,70.658,35.471C70.658,40.206,69.723,44.885,67.88,49.223C67.001,51.321,65.895,53.334,64.619,55.234C63.343,57.105,61.897,58.863,60.309,60.451C58.721,62.039,56.963,63.485,55.092,64.761C53.192,66.037,51.179,67.143,49.081,68.022C44.743,69.865,40.064,70.8,35.329,70.8ZM48.599,17.806C46.16,17.806,44.176,19.791,44.176,22.23L44.176,48.174C44.176,50.612,46.16,52.597,48.599,52.597L51.349,52.597C53.788,52.597,55.773,50.612,55.773,48.174L55.773,22.23C55.773,19.791,53.788,17.806,51.349,17.806L48.599,17.806ZM33.685,24.98C31.246,24.98,29.261,26.965,29.261,29.403L29.261,48.174C29.261,50.612,31.246,52.597,33.685,52.597L36.435,52.597C38.873,52.597,40.858,50.612,40.858,48.174L40.858,29.403C40.858,26.965,38.873,24.98,36.435,24.98L33.685,24.98ZM18.77,31.615C16.332,31.615,14.347,33.6,14.347,36.038L14.347,48.174C14.347,50.612,16.332,52.597,18.77,52.597L21.521,52.597C23.959,52.597,25.944,50.612,25.944,48.174L25.944,36.01C25.944,33.571,23.959,31.586,21.521,31.586L18.77,31.586ZM18.77,31.615"/>
</g>
  <g id="Thin-M" transform="matrix(1.0,0.0,0.0,1.0,822.2673637135313,1055.3273832447812)">  <path version="1.1" stroke-linecap="butt" stroke-miterlimit="4" stroke-width="1px" xmlns:xlink="http://www.w3.org/1999/xlink" fill-opacity="1" y="0px" x="0px" fill-rule="nonzero" fill="#000000" stroke-linejoin="miter" stroke-dasharray="none" stroke-opacity="1" xml:space="preserve" stroke="none" d="M35.329,70.8C30.594,70.8,25.916,69.865,21.577,68.022C19.479,67.143,17.466,66.037,15.566,64.761C13.695,63.485,11.937,62.039,10.349,60.451C8.761,58.863,7.315,57.105,6.039,55.234C4.763,53.334,3.658,51.321,2.779,49.223C0.936,44.885,0,40.206,0,35.471C0,30.736,0.936,26.057,2.779,21.719C3.658,19.621,4.763,17.608,6.039,15.708C7.315,13.837,8.761,12.079,10.349,10.491C11.937,8.903,13.695,7.457,15.566,6.181C17.466,4.905,19.479,3.799,21.577,2.92C25.916,1.077,30.594,0.142,35.329,0.142C40.064,0.142,44.743,1.077,49.081,2.92C51.179,3.799,53.192,4.905,55.092,6.181C56.963,7.457,58.721,8.903,60.309,10.491C61.897,12.079,63.343,13.837,64.619,15.708C65.895,17.608,67.001,19.621,67.88,21.719C69.723,26.057,70.658,30.736,70.658,35.471C70.658,40.206,69.723,44.885,67.88,49.223C67.001,51.321,65.895,53.334,64.619,55.234C63.343,57.105,61.897,58.863,60.309,60.451C58.721,62.039,56.963,63.485,55.092,64.761C53.192,66.037,51.179,67.143,49.081,68.022C44.743,69.865,40.064,70.8,35.329,70.8ZM48.599,17.806C46.16,17.806,44.176,19.791,44.176,22.23L44.176,48.174C44.176,50.612,46.16,52.597,48.599,52.597L51.349,52.597C53.788,52.597,55.773,50.612,55.773,48.174L55.773,22.23C55.773,19.791,53.788,17.806,51.349,17.806L48.599,17.806ZM33.685,24.98C31.246,24.98,29.261,26.965,29.261,29.403L29.261,48.174C29.261,50.612,31.246,52.597,33.685,52.597L36.435,52.597C38.873,52.597,40.858,50.612,40.858,48.174L40.858,29.403C40.858,26.965,38.873,24.98,36.435,24.98L33.685,24.98ZM18.77,31.615C16.332,31.615,14.347,33.6,14.347,36.038L14.347,48.174C14.347,50.612,16.332,52.597,18.77,52.597L21.521,52.597C23.959,52.597,25.944,50.612,25.944,48.174L25.944,36.01C25.944,33.571,23.959,31.586,21.521,31.586L18.77,31.586ZM18.77,31.615"/>
</g>
  <g id="Ultralight-M" transform="matrix(1.0,0.0,0.0,1.0,525.5573637135312,1055.3273832447812)">  <path fill-opacity="1" version="1.1" stroke-linejoin="miter" stroke-miterlimit="4" x="0px" y="0px" stroke-linecap="butt" stroke-width="1px" stroke="none" xmlns:xlink="http://www.w3.org/1999/xlink" fill="#000000" xml:space="preserve" stroke-dasharray="none" fill-rule="nonzero" stroke-opacity="1" d="M35.329,70.8C30.594,70.8,25.916,69.865,21.577,68.022C19.479,67.143,17.466,66.037,15.566,64.761C13.695,63.485,11.937,62.039,10.349,60.451C8.761,58.863,7.315,57.105,6.039,55.234C4.763,53.334,3.658,51.321,2.779,49.223C0.936,44.885,0,40.206,0,35.471C0,30.736,0.936,26.057,2.779,21.719C3.658,19.621,4.763,17.608,6.039,15.708C7.315,13.837,8.761,12.079,10.349,10.491C11.937,8.903,13.695,7.457,15.566,6.181C17.466,4.905,19.479,3.799,21.577,2.92C25.916,1.077,30.594,0.142,35.329,0.142C40.064,0.142,44.743,1.077,49.081,2.92C51.179,3.799,53.192,4.905,55.092,6.181C56.963,7.457,58.721,8.903,60.309,10.491C61.897,12.079,63.343,13.837,64.619,15.708C65.895,17.608,67.001,19.621,67.88,21.719C69.723,26.057,70.658,30.736,70.658,35.471C70.658,40.206,69.723,44.885,67.88,49.223C67.001,51.321,65.895,53.334,64.619,55.234C63.343,57.105,61.897,58.863,60.309,60.451C58.721,62.039,56.963,63.485,55.092,64.761C53.192,66.037,51.179,67.143,49.081,68.022C44.743,69.865,40.064,70.8,35.329,70.8ZM48.599,17.806C46.16,17.806,44.176,19.791,44.176,22.23L44.176,48.174C44.176,50.612,46.16,52.597,48.599,52.597L51.349,52.597C53.788,52.597,55.773,50.612,55.773,48.174L55.773,22.23C55.773,19.791,53.788,17.806,51.349,17.806L48.599,17.806ZM33.685,24.98C31.246,24.98,29.261,26.965,29.261,29.403L29.261,48.174C29.261,50.612,31.246,52.597,33.685,52.597L36.435,52.597C38.873,52.597,40.858,50.612,40.858,48.174L40.858,29.403C40.858,26.965,38.873,24.98,36.435,24.98L33.685,24.98ZM18.77,31.615C16.332,31.615,14.347,33.6,14.347,36.038L14.347,48.174C14.347,50.612,16.332,52.597,18.77,52.597L21.521,52.597C23.959,52.597,25.944,50.612,25.944,48.174L25.944,36.01C25.944,33.571,23.959,31.586,21.521,31.586L18.77,31.586ZM18.77,31.615"/>
</g>
  <g id="Black-S" transform="matrix(1.0,0.0,0.0,1.0,2906.9284157876946,633.018435318945)">  <path xml:space="preserve" y="0px" fill="#000000" stroke-opacity="1" fill-rule="nonzero" fill-opacity="1" stroke-dasharray="none" stroke-linecap="butt" stroke-linejoin="miter" version="1.1" stroke="none" stroke-width="1px" x="0px" stroke-miterlimit="4" xmlns:xlink="http://www.w3.org/1999/xlink" d="M27.663,55.437C23.955,55.437,20.292,54.704,16.895,53.261C15.252,52.573,13.676,51.707,12.188,50.708C10.723,49.709,9.347,48.576,8.103,47.333C6.86,46.09,5.728,44.713,4.729,43.248C3.73,41.761,2.864,40.184,2.176,38.541C0.733,35.145,0,31.481,0,27.774C0,24.066,0.733,20.403,2.176,17.006C2.864,15.363,3.73,13.787,4.729,12.3C5.728,10.834,6.86,9.458,8.103,8.214C9.347,6.971,10.723,5.839,12.188,4.84C13.676,3.841,15.252,2.975,16.895,2.287C20.292,0.844,23.955,0.111,27.663,0.111C31.37,0.111,35.034,0.844,38.43,2.287C40.073,2.975,41.65,3.841,43.137,4.84C44.602,5.839,45.979,6.971,47.222,8.214C48.465,9.458,49.598,10.834,50.597,12.3C51.596,13.787,52.462,15.363,53.15,17.006C54.593,20.403,55.326,24.066,55.326,27.774C55.326,31.481,54.593,35.145,53.15,38.541C52.462,40.184,51.596,41.761,50.597,43.248C49.598,44.713,48.465,46.09,47.222,47.333C45.979,48.576,44.602,49.709,43.137,50.708C41.65,51.707,40.073,52.573,38.43,53.261C35.034,54.704,31.37,55.437,27.663,55.437ZM38.053,13.942C36.144,13.942,34.59,15.496,34.59,17.406L34.59,37.72C34.59,39.629,36.144,41.183,38.053,41.183L40.206,41.183C42.116,41.183,43.67,39.629,43.67,37.72L43.67,17.406C43.67,15.496,42.116,13.942,40.206,13.942L38.053,13.942ZM26.375,19.559C24.466,19.559,22.912,21.113,22.912,23.023L22.912,37.72C22.912,39.629,24.466,41.183,26.375,41.183L28.529,41.183C30.438,41.183,31.992,39.629,31.992,37.72L31.992,23.023C31.992,21.113,30.438,19.559,28.529,19.559L26.375,19.559ZM14.697,24.754C12.788,24.754,11.234,26.309,11.234,28.218L11.234,37.72C11.234,39.629,12.788,41.183,14.697,41.183L16.851,41.183C18.76,41.183,20.314,39.629,20.314,37.72L20.314,28.196C20.314,26.286,18.76,24.732,16.851,24.732L14.697,24.732ZM14.697,24.754"/>
</g>
  <g id="Heavy-S" transform="matrix(1.0,0.0,0.0,1.0,2610.2184157876945,633.018435318945)">  <path x="0px" stroke-dasharray="none" stroke-miterlimit="4" fill-rule="nonzero" y="0px" stroke-linecap="butt" xmlns:xlink="http://www.w3.org/1999/xlink" xml:space="preserve" stroke-linejoin="miter" fill-opacity="1" stroke="none" fill="#000000" stroke-opacity="1" stroke-width="1px" version="1.1" d="M27.663,55.437C23.955,55.437,20.292,54.704,16.895,53.261C15.252,52.573,13.676,51.707,12.188,50.708C10.723,49.709,9.347,48.576,8.103,47.333C6.86,46.09,5.728,44.713,4.729,43.248C3.73,41.761,2.864,40.184,2.176,38.541C0.733,35.145,0,31.481,0,27.774C0,24.066,0.733,20.403,2.176,17.006C2.864,15.363,3.73,13.787,4.729,12.3C5.728,10.834,6.86,9.458,8.103,8.214C9.347,6.971,10.723,5.839,12.188,4.84C13.676,3.841,15.252,2.975,16.895,2.287C20.292,0.844,23.955,0.111,27.663,0.111C31.37,0.111,35.034,0.844,38.43,2.287C40.073,2.975,41.65,3.841,43.137,4.84C44.602,5.839,45.979,6.971,47.222,8.214C48.465,9.458,49.598,10.834,50.597,12.3C51.596,13.787,52.462,15.363,53.15,17.006C54.593,20.403,55.326,24.066,55.326,27.774C55.326,31.481,54.593,35.145,53.15,38.541C52.462,40.184,51.596,41.761,50.597,43.248C49.598,44.713,48.465,46.09,47.222,47.333C45.979,48.576,44.602,49.709,43.137,50.708C41.65,51.707,40.073,52.573,38.43,53.261C35.034,54.704,31.37,55.437,27.663,55.437ZM38.053,13.942C36.144,13.942,34.59,15.496,34.59,17.406L34.59,37.72C34.59,39.629,36.144,41.183,38.053,41.183L40.206,41.183C42.116,41.183,43.67,39.629,43.67,37.72L43.67,17.406C43.67,15.496,42.116,13.942,40.206,13.942L38.053,13.942ZM26.375,19.559C24.466,19.559,22.912,21.113,22.912,23.023L22.912,37.72C22.912,39.629,24.466,41.183,26.375,41.183L28.529,41.183C30.438,41.183,31.992,39.629,31.992,37.72L31.992,23.023C31.992,21.113,30.438,19.559,28.529,19.559L26.375,19.559ZM14.697,24.754C12.788,24.754,11.234,26.309,11.234,28.218L11.234,37.72C11.234,39.629,12.788,41.183,14.697,41.183L16.851,41.183C18.76,41.183,20.314,39.629,20.314,37.72L20.314,28.196C20.314,26.286,18.76,24.732,16.851,24.732L14.697,24.732ZM14.697,24.754"/>
</g>
  <g id="Bold-S" transform="matrix(1.0,0.0,0.0,1.0,2313.5084157876945,633.018435318945)">  <path fill-opacity="1" stroke="none" y="0px" xml:space="preserve" stroke-dasharray="none" stroke-linejoin="miter" version="1.1" stroke-miterlimit="4" xmlns:xlink="http://www.w3.org/1999/xlink" fill="#000000" stroke-width="1px" fill-rule="nonzero" stroke-linecap="butt" stroke-opacity="1" x="0px" d="M27.663,55.437C23.955,55.437,20.292,54.704,16.895,53.261C15.252,52.573,13.676,51.707,12.188,50.708C10.723,49.709,9.347,48.576,8.103,47.333C6.86,46.09,5.728,44.713,4.729,43.248C3.73,41.761,2.864,40.184,2.176,38.541C0.733,35.145,0,31.481,0,27.774C0,24.066,0.733,20.403,2.176,17.006C2.864,15.363,3.73,13.787,4.729,12.3C5.728,10.834,6.86,9.458,8.103,8.214C9.347,6.971,10.723,5.839,12.188,4.84C13.676,3.841,15.252,2.975,16.895,2.287C20.292,0.844,23.955,0.111,27.663,0.111C31.37,0.111,35.034,0.844,38.43,2.287C40.073,2.975,41.65,3.841,43.137,4.84C44.602,5.839,45.979,6.971,47.222,8.214C48.465,9.458,49.598,10.834,50.597,12.3C51.596,13.787,52.462,15.363,53.15,17.006C54.593,20.403,55.326,24.066,55.326,27.774C55.326,31.481,54.593,35.145,53.15,38.541C52.462,40.184,51.596,41.761,50.597,43.248C49.598,44.713,48.465,46.09,47.222,47.333C45.979,48.576,44.602,49.709,43.137,50.708C41.65,51.707,40.073,52.573,38.43,53.261C35.034,54.704,31.37,55.437,27.663,55.437ZM38.053,13.942C36.144,13.942,34.59,15.496,34.59,17.406L34.59,37.72C34.59,39.629,36.144,41.183,38.053,41.183L40.206,41.183C42.116,41.183,43.67,39.629,43.67,37.72L43.67,17.406C43.67,15.496,42.116,13.942,40.206,13.942L38.053,13.942ZM26.375,19.559C24.466,19.559,22.912,21.113,22.912,23.023L22.912,37.72C22.912,39.629,24.466,41.183,26.375,41.183L28.529,41.183C30.438,41.183,31.992,39.629,31.992,37.72L31.992,23.023C31.992,21.113,30.438,19.559,28.529,19.559L26.375,19.559ZM14.697,24.754C12.788,24.754,11.234,26.309,11.234,28.218L11.234,37.72C11.234,39.629,12.788,41.183,14.697,41.183L16.851,41.183C18.76,41.183,20.314,39.629,20.314,37.72L20.314,28.196C20.314,26.286,18.76,24.732,16.851,24.732L14.697,24.732ZM14.697,24.754"/>
</g>
  <g id="Semibold-S" transform="matrix(1.0,0.0,0.0,1.0,2016.798415787695,633.018435318945)">  <path stroke-linejoin="miter" fill-rule="nonzero" version="1.1" fill-opacity="1" xml:space="preserve" y="0px" fill="#000000" xmlns:xlink="http://www.w3.org/1999/xlink" stroke-dasharray="none" stroke-opacity="1" stroke="none" stroke-miterlimit="4" stroke-linecap="butt" stroke-width="1px" x="0px" d="M27.663,55.437C23.955,55.437,20.292,54.704,16.895,53.261C15.252,52.573,13.676,51.707,12.188,50.708C10.723,49.709,9.347,48.576,8.103,47.333C6.86,46.09,5.728,44.713,4.729,43.248C3.73,41.761,2.864,40.184,2.176,38.541C0.733,35.145,0,31.481,0,27.774C0,24.066,0.733,20.403,2.176,17.006C2.864,15.363,3.73,13.787,4.729,12.3C5.728,10.834,6.86,9.458,8.103,8.214C9.347,6.971,10.723,5.839,12.188,4.84C13.676,3.841,15.252,2.975,16.895,2.287C20.292,0.844,23.955,0.111,27.663,0.111C31.37,0.111,35.034,0.844,38.43,2.287C40.073,2.975,41.65,3.841,43.137,4.84C44.602,5.839,45.979,6.971,47.222,8.214C48.465,9.458,49.598,10.834,50.597,12.3C51.596,13.787,52.462,15.363,53.15,17.006C54.593,20.403,55.326,24.066,55.326,27.774C55.326,31.481,54.593,35.145,53.15,38.541C52.462,40.184,51.596,41.761,50.597,43.248C49.598,44.713,48.465,46.09,47.222,47.333C45.979,48.576,44.602,49.709,43.137,50.708C41.65,51.707,40.073,52.573,38.43,53.261C35.034,54.704,31.37,55.437,27.663,55.437ZM38.053,13.942C36.144,13.942,34.59,15.496,34.59,17.406L34.59,37.72C34.59,39.629,36.144,41.183,38.053,41.183L40.206,41.183C42.116,41.183,43.67,39.629,43.67,37.72L43.67,17.406C43.67,15.496,42.116,13.942,40.206,13.942L38.053,13.942ZM26.375,19.559C24.466,19.559,22.912,21.113,22.912,23.023L22.912,37.72C22.912,39.629,24.466,41.183,26.375,41.183L28.529,41.183C30.438,41.183,31.992,39.629,31.992,37.72L31.992,23.023C31.992,21.113,30.438,19.559,28.529,19.559L26.375,19.559ZM14.697,24.754C12.788,24.754,11.234,26.309,11.234,28.218L11.234,37.72C11.234,39.629,12.788,41.183,14.697,41.183L16.851,41.183C18.76,41.183,20.314,39.629,20.314,37.72L20.314,28.196C20.314,26.286,18.76,24.732,16.851,24.732L14.697,24.732ZM14.697,24.754"/>
</g>
  <g id="Medium-S" transform="matrix(1.0,0.0,0.0,1.0,1720.0884157876949,633.018435318945)">  <path stroke-linejoin="miter" fill-rule="nonzero" fill="#000000" y="0px" stroke-dasharray="none" fill-opacity="1" xmlns:xlink="http://www.w3.org/1999/xlink" x="0px" version="1.1" stroke-miterlimit="4" stroke-opacity="1" xml:space="preserve" stroke="none" stroke-width="1px" stroke-linecap="butt" d="M27.663,55.437C23.955,55.437,20.292,54.704,16.895,53.261C15.252,52.573,13.676,51.707,12.188,50.708C10.723,49.709,9.347,48.576,8.103,47.333C6.86,46.09,5.728,44.713,4.729,43.248C3.73,41.761,2.864,40.184,2.176,38.541C0.733,35.145,0,31.481,0,27.774C0,24.066,0.733,20.403,2.176,17.006C2.864,15.363,3.73,13.787,4.729,12.3C5.728,10.834,6.86,9.458,8.103,8.214C9.347,6.971,10.723,5.839,12.188,4.84C13.676,3.841,15.252,2.975,16.895,2.287C20.292,0.844,23.955,0.111,27.663,0.111C31.37,0.111,35.034,0.844,38.43,2.287C40.073,2.975,41.65,3.841,43.137,4.84C44.602,5.839,45.979,6.971,47.222,8.214C48.465,9.458,49.598,10.834,50.597,12.3C51.596,13.787,52.462,15.363,53.15,17.006C54.593,20.403,55.326,24.066,55.326,27.774C55.326,31.481,54.593,35.145,53.15,38.541C52.462,40.184,51.596,41.761,50.597,43.248C49.598,44.713,48.465,46.09,47.222,47.333C45.979,48.576,44.602,49.709,43.137,50.708C41.65,51.707,40.073,52.573,38.43,53.261C35.034,54.704,31.37,55.437,27.663,55.437ZM38.053,13.942C36.144,13.942,34.59,15.496,34.59,17.406L34.59,37.72C34.59,39.629,36.144,41.183,38.053,41.183L40.206,41.183C42.116,41.183,43.67,39.629,43.67,37.72L43.67,17.406C43.67,15.496,42.116,13.942,40.206,13.942L38.053,13.942ZM26.375,19.559C24.466,19.559,22.912,21.113,22.912,23.023L22.912,37.72C22.912,39.629,24.466,41.183,26.375,41.183L28.529,41.183C30.438,41.183,31.992,39.629,31.992,37.72L31.992,23.023C31.992,21.113,30.438,19.559,28.529,19.559L26.375,19.559ZM14.697,24.754C12.788,24.754,11.234,26.309,11.234,28.218L11.234,37.72C11.234,39.629,12.788,41.183,14.697,41.183L16.851,41.183C18.76,41.183,20.314,39.629,20.314,37.72L20.314,28.196C20.314,26.286,18.76,24.732,16.851,24.732L14.697,24.732ZM14.697,24.754"/>
</g>
  <g id="Regular-S" transform="matrix(1.0,0.0,0.0,1.0,1423.3784157876948,633.018435318945)">  <path stroke-miterlimit="4" xml:space="preserve" stroke="none" fill-rule="nonzero" x="0px" stroke-width="1px" y="0px" stroke-linejoin="miter" fill-opacity="1" stroke-linecap="butt" fill="#000000" stroke-opacity="1" version="1.1" stroke-dasharray="none" xmlns:xlink="http://www.w3.org/1999/xlink" d="M27.663,55.437C23.955,55.437,20.292,54.704,16.895,53.261C15.252,52.573,13.676,51.707,12.188,50.708C10.723,49.709,9.347,48.576,8.103,47.333C6.86,46.09,5.728,44.713,4.729,43.248C3.73,41.761,2.864,40.184,2.176,38.541C0.733,35.145,0,31.481,0,27.774C0,24.066,0.733,20.403,2.176,17.006C2.864,15.363,3.73,13.787,4.729,12.3C5.728,10.834,6.86,9.458,8.103,8.214C9.347,6.971,10.723,5.839,12.188,4.84C13.676,3.841,15.252,2.975,16.895,2.287C20.292,0.844,23.955,0.111,27.663,0.111C31.37,0.111,35.034,0.844,38.43,2.287C40.073,2.975,41.65,3.841,43.137,4.84C44.602,5.839,45.979,6.971,47.222,8.214C48.465,9.458,49.598,10.834,50.597,12.3C51.596,13.787,52.462,15.363,53.15,17.006C54.593,20.403,55.326,24.066,55.326,27.774C55.326,31.481,54.593,35.145,53.15,38.541C52.462,40.184,51.596,41.761,50.597,43.248C49.598,44.713,48.465,46.09,47.222,47.333C45.979,48.576,44.602,49.709,43.137,50.708C41.65,51.707,40.073,52.573,38.43,53.261C35.034,54.704,31.37,55.437,27.663,55.437ZM38.053,13.942C36.144,13.942,34.59,15.496,34.59,17.406L34.59,37.72C34.59,39.629,36.144,41.183,38.053,41.183L40.206,41.183C42.116,41.183,43.67,39.629,43.67,37.72L43.67,17.406C43.67,15.496,42.116,13.942,40.206,13.942L38.053,13.942ZM26.375,19.559C24.466,19.559,22.912,21.113,22.912,23.023L22.912,37.72C22.912,39.629,24.466,41.183,26.375,41.183L28.529,41.183C30.438,41.183,31.992,39.629,31.992,37.72L31.992,23.023C31.992,21.113,30.438,19.559,28.529,19.559L26.375,19.559ZM14.697,24.754C12.788,24.754,11.234,26.309,11.234,28.218L11.234,37.72C11.234,39.629,12.788,41.183,14.697,41.183L16.851,41.183C18.76,41.183,20.314,39.629,20.314,37.72L20.314,28.196C20.314,26.286,18.76,24.732,16.851,24.732L14.697,24.732ZM14.697,24.754"/>
</g>
  <g id="Light-S" transform="matrix(1.0,0.0,0.0,1.0,1126.668415787695,633.018435318945)">  <path fill-opacity="1" xmlns:xlink="http://www.w3.org/1999/xlink" stroke-miterlimit="4" y="0px" stroke-dasharray="none" stroke="none" version="1.1" stroke-linecap="butt" stroke-width="1px" stroke-linejoin="miter" fill="#000000" xml:space="preserve" fill-rule="nonzero" x="0px" stroke-opacity="1" d="M27.663,55.437C23.955,55.437,20.292,54.704,16.895,53.261C15.252,52.573,13.676,51.707,12.188,50.708C10.723,49.709,9.347,48.576,8.103,47.333C6.86,46.09,5.728,44.713,4.729,43.248C3.73,41.761,2.864,40.184,2.176,38.541C0.733,35.145,0,31.481,0,27.774C0,24.066,0.733,20.403,2.176,17.006C2.864,15.363,3.73,13.787,4.729,12.3C5.728,10.834,6.86,9.458,8.103,8.214C9.347,6.971,10.723,5.839,12.188,4.84C13.676,3.841,15.252,2.975,16.895,2.287C20.292,0.844,23.955,0.111,27.663,0.111C31.37,0.111,35.034,0.844,38.43,2.287C40.073,2.975,41.65,3.841,43.137,4.84C44.602,5.839,45.979,6.971,47.222,8.214C48.465,9.458,49.598,10.834,50.597,12.3C51.596,13.787,52.462,15.363,53.15,17.006C54.593,20.403,55.326,24.066,55.326,27.774C55.326,31.481,54.593,35.145,53.15,38.541C52.462,40.184,51.596,41.761,50.597,43.248C49.598,44.713,48.465,46.09,47.222,47.333C45.979,48.576,44.602,49.709,43.137,50.708C41.65,51.707,40.073,52.573,38.43,53.261C35.034,54.704,31.37,55.437,27.663,55.437ZM38.053,13.942C36.144,13.942,34.59,15.496,34.59,17.406L34.59,37.72C34.59,39.629,36.144,41.183,38.053,41.183L40.206,41.183C42.116,41.183,43.67,39.629,43.67,37.72L43.67,17.406C43.67,15.496,42.116,13.942,40.206,13.942L38.053,13.942ZM26.375,19.559C24.466,19.559,22.912,21.113,22.912,23.023L22.912,37.72C22.912,39.629,24.466,41.183,26.375,41.183L28.529,41.183C30.438,41.183,31.992,39.629,31.992,37.72L31.992,23.023C31.992,21.113,30.438,19.559,28.529,19.559L26.375,19.559ZM14.697,24.754C12.788,24.754,11.234,26.309,11.234,28.218L11.234,37.72C11.234,39.629,12.788,41.183,14.697,41.183L16.851,41.183C18.76,41.183,20.314,39.629,20.314,37.72L20.314,28.196C20.314,26.286,18.76,24.732,16.851,24.732L14.697,24.732ZM14.697,24.754"/>
</g>
  <g id="Thin-S" transform="matrix(1.0,0.0,0.0,1.0,829.958415787695,633.018435318945)">  <path version="1.1" stroke-linecap="butt" stroke-miterlimit="4" stroke-width="1px" xmlns:xlink="http://www.w3.org/1999/xlink" fill-opacity="1" y="0px" x="0px" fill-rule="nonzero" fill="#000000" stroke-linejoin="miter" stroke-dasharray="none" stroke-opacity="1" xml:space="preserve" stroke="none" d="M27.663,55.437C23.955,55.437,20.292,54.704,16.895,53.261C15.252,52.573,13.676,51.707,12.188,50.708C10.723,49.709,9.347,48.576,8.103,47.333C6.86,46.09,5.728,44.713,4.729,43.248C3.73,41.761,2.864,40.184,2.176,38.541C0.733,35.145,0,31.481,0,27.774C0,24.066,0.733,20.403,2.176,17.006C2.864,15.363,3.73,13.787,4.729,12.3C5.728,10.834,6.86,9.458,8.103,8.214C9.347,6.971,10.723,5.839,12.188,4.84C13.676,3.841,15.252,2.975,16.895,2.287C20.292,0.844,23.955,0.111,27.663,0.111C31.37,0.111,35.034,0.844,38.43,2.287C40.073,2.975,41.65,3.841,43.137,4.84C44.602,5.839,45.979,6.971,47.222,8.214C48.465,9.458,49.598,10.834,50.597,12.3C51.596,13.787,52.462,15.363,53.15,17.006C54.593,20.403,55.326,24.066,55.326,27.774C55.326,31.481,54.593,35.145,53.15,38.541C52.462,40.184,51.596,41.761,50.597,43.248C49.598,44.713,48.465,46.09,47.222,47.333C45.979,48.576,44.602,49.709,43.137,50.708C41.65,51.707,40.073,52.573,38.43,53.261C35.034,54.704,31.37,55.437,27.663,55.437ZM38.053,13.942C36.144,13.942,34.59,15.496,34.59,17.406L34.59,37.72C34.59,39.629,36.144,41.183,38.053,41.183L40.206,41.183C42.116,41.183,43.67,39.629,43.67,37.72L43.67,17.406C43.67,15.496,42.116,13.942,40.206,13.942L38.053,13.942ZM26.375,19.559C24.466,19.559,22.912,21.113,22.912,23.023L22.912,37.72C22.912,39.629,24.466,41.183,26.375,41.183L28.529,41.183C30.438,41.183,31.992,39.629,31.992,37.72L31.992,23.023C31.992,21.113,30.438,19.559,28.529,19.559L26.375,19.559ZM14.697,24.754C12.788,24.754,11.234,26.309,11.234,28.218L11.234,37.72C11.234,39.629,12.788,41.183,14.697,41.183L16.851,41.183C18.76,41.183,20.314,39.629,20.314,37.72L20.314,28.196C20.314,26.286,18.76,24.732,16.851,24.732L14.697,24.732ZM14.697,24.754"/>
</g>
  <g id="Ultralight-S" transform="matrix(1.0,0.0,0.0,1.0,533.248415787695,633.018435318945)">  <path fill-opacity="1" version="1.1" stroke-linejoin="miter" stroke-miterlimit="4" x="0px" y="0px" stroke-linecap="butt" stroke-width="1px" stroke="none" xmlns:xlink="http://www.w3.org/1999/xlink" fill="#000000" xml:space="preserve" stroke-dasharray="none" fill-rule="nonzero" stroke-opacity="1" d="M27.663,55.437C23.955,55.437,20.292,54.704,16.895,53.261C15.252,52.573,13.676,51.707,12.188,50.708C10.723,49.709,9.347,48.576,8.103,47.333C6.86,46.09,5.728,44.713,4.729,43.248C3.73,41.761,2.864,40.184,2.176,38.541C0.733,35.145,0,31.481,0,27.774C0,24.066,0.733,20.403,2.176,17.006C2.864,15.363,3.73,13.787,4.729,12.3C5.728,10.834,6.86,9.458,8.103,8.214C9.347,6.971,10.723,5.839,12.188,4.84C13.676,3.841,15.252,2.975,16.895,2.287C20.292,0.844,23.955,0.111,27.663,0.111C31.37,0.111,35.034,0.844,38.43,2.287C40.073,2.975,41.65,3.841,43.137,4.84C44.602,5.839,45.979,6.971,47.222,8.214C48.465,9.458,49.598,10.834,50.597,12.3C51.596,13.787,52.462,15.363,53.15,17.006C54.593,20.403,55.326,24.066,55.326,27.774C55.326,31.481,54.593,35.145,53.15,38.541C52.462,40.184,51.596,41.761,50.597,43.248C49.598,44.713,48.465,46.09,47.222,47.333C45.979,48.576,44.602,49.709,43.137,50.708C41.65,51.707,40.073,52.573,38.43,53.261C35.034,54.704,31.37,55.437,27.663,55.437ZM38.053,13.942C36.144,13.942,34.59,15.496,34.59,17.406L34.59,37.72C34.59,39.629,36.144,41.183,38.053,41.183L40.206,41.183C42.116,41.183,43.67,39.629,43.67,37.72L43.67,17.406C43.67,15.496,42.116,13.942,40.206,13.942L38.053,13.942ZM26.375,19.559C24.466,19.559,22.912,21.113,22.912,23.023L22.912,37.72C22.912,39.629,24.466,41.183,26.375,41.183L28.529,41.183C30.438,41.183,31.992,39.629,31.992,37.72L31.992,23.023C31.992,21.113,30.438,19.559,28.529,19.559L26.375,19.559ZM14.697,24.754C12.788,24.754,11.234,26.309,11.234,28.218L11.234,37.72C11.234,39.629,12.788,41.183,14.697,41.183L16.851,41.183C18.76,41.183,20.314,39.629,20.314,37.72L20.314,28.196C20.314,26.286,18.76,24.732,16.851,24.732L14.697,24.732ZM14.697,24.754"/>
</g>
 </g>
</svg>
