<?xml version="1.0" encoding="UTF-8"?>
<!--Generator: CustomSymbols by @serious_bret-->
<!DOCTYPE svg
PUBLIC "-//W3C//DTD SVG 1.1//EN"
       "http://www.w3.org/Graphics/SVG/1.1/DTD/svg11.dtd">
<svg version="1.1" xmlns="http://www.w3.org/2000/svg" xmlns:xlink="http://www.w3.org/1999/xlink" width="3300" height="2200">
 <g id="Notes">
  <rect height="2200" id="artboard" style="fill:white;opacity:1" width="3300" x="0" y="0"/>
  <line id="" style="fill:none;stroke:black;opacity:1;stroke-width:0.5;" x1="263" x2="3036" y1="292" y2="292"/>
  <text id="reftext1" style="stroke:none;fill:black;font-family:-apple-system,&quot;SF Pro Display&quot;,&quot;SF Pro Text&quot;,Helvetica,sans-serif;font-weight:bold;" transform="matrix(1 0 0 1 263 322)">Weight/Scale Variations</text>
  <text id="reftext2" style="stroke:none;fill:black;font-family:-apple-system,&quot;SF Pro Display&quot;,&quot;SF Pro Text&quot;,Helvetica,sans-serif;text-anchor:middle;" transform="matrix(1 0 0 1 559.711 322)">Ultralight</text>
  <text style="stroke:none;fill:black;font-family:-apple-system,&quot;SF Pro Display&quot;,&quot;SF Pro Text&quot;,Helvetica,sans-serif;text-anchor:middle;" transform="matrix(1 0 0 1 856.422 322)">Thin</text>
  <text style="stroke:none;fill:black;font-family:-apple-system,&quot;SF Pro Display&quot;,&quot;SF Pro Text&quot;,Helvetica,sans-serif;text-anchor:middle;" transform="matrix(1 0 0 1 1153.13 322)">Light</text>
  <text style="stroke:none;fill:black;font-family:-apple-system,&quot;SF Pro Display&quot;,&quot;SF Pro Text&quot;,Helvetica,sans-serif;text-anchor:middle;" transform="matrix(1 0 0 1 1449.84 322)">Regular</text>
  <text style="stroke:none;fill:black;font-family:-apple-system,&quot;SF Pro Display&quot;,&quot;SF Pro Text&quot;,Helvetica,sans-serif;text-anchor:middle;" transform="matrix(1 0 0 1 1746.56 322)">Medium</text>
  <text style="stroke:none;fill:black;font-family:-apple-system,&quot;SF Pro Display&quot;,&quot;SF Pro Text&quot;,Helvetica,sans-serif;text-anchor:middle;" transform="matrix(1 0 0 1 2043.27 322)">Semibold</text>
  <text style="stroke:none;fill:black;font-family:-apple-system,&quot;SF Pro Display&quot;,&quot;SF Pro Text&quot;,Helvetica,sans-serif;text-anchor:middle;" transform="matrix(1 0 0 1 2339.98 322)">Bold</text>
  <text style="stroke:none;fill:black;font-family:-apple-system,&quot;SF Pro Display&quot;,&quot;SF Pro Text&quot;,Helvetica,sans-serif;text-anchor:middle;" transform="matrix(1 0 0 1 2636.69 322)">Heavy</text>
  <text style="stroke:none;fill:black;font-family:-apple-system,&quot;SF Pro Display&quot;,&quot;SF Pro Text&quot;,Helvetica,sans-serif;text-anchor:middle;" transform="matrix(1 0 0 1 2933.4 322)">Black</text>
  <line id="" style="fill:none;stroke:black;opacity:1;stroke-width:0.5;" x1="263" x2="3036" y1="1903" y2="1903"/>
  <g id="" transform="matrix(1 0 0 1 263 1933)">
   <path d="M9.24805 0.830078C13.5547 0.830078 17.1387-2.74414 17.1387-7.05078C17.1387-11.3574 13.5449-14.9316 9.23828-14.9316C4.94141-14.9316 1.36719-11.3574 1.36719-7.05078C1.36719-2.74414 4.95117 0.830078 9.24805 0.830078ZM9.24805-0.654297C5.70312-0.654297 2.87109-3.49609 2.87109-7.05078C2.87109-10.6055 5.69336-13.4473 9.23828-13.4473C12.793-13.4473 15.6348-10.6055 15.6445-7.05078C15.6543-3.49609 12.8027-0.654297 9.24805-0.654297ZM6.39648-6.31836L8.50586-6.31836L8.50586-4.19922C8.50586-3.75977 8.79883-3.45703 9.22852-3.45703C9.67773-3.45703 9.9707-3.75977 9.9707-4.19922L9.9707-6.31836L12.0996-6.31836C12.5391-6.31836 12.8418-6.61133 12.8418-7.04102C12.8418-7.48047 12.5391-7.7832 12.0996-7.7832L9.9707-7.7832L9.9707-9.89258C9.9707-10.3418 9.67773-10.6445 9.22852-10.6445C8.79883-10.6445 8.50586-10.3418 8.50586-9.89258L8.50586-7.7832L6.39648-7.7832C5.94727-7.7832 5.64453-7.48047 5.64453-7.04102C5.64453-6.61133 5.94727-6.31836 6.39648-6.31836Z"/>
  </g>
  <g id="" transform="matrix(1 0 0 1 281.506 1933)">
   <path d="M11.709 2.91016C17.1582 2.91016 21.6699-1.61133 21.6699-7.05078C21.6699-12.5 17.1484-17.0117 11.6992-17.0117C6.25977-17.0117 1.74805-12.5 1.74805-7.05078C1.74805-1.61133 6.26953 2.91016 11.709 2.91016ZM11.709 1.25C7.09961 1.25 3.41797-2.44141 3.41797-7.05078C3.41797-11.6602 7.08984-15.3516 11.6992-15.3516C16.3086-15.3516 20-11.6602 20.0098-7.05078C20.0195-2.44141 16.3184 1.25 11.709 1.25ZM7.98828-6.23047L10.8789-6.23047L10.8789-3.32031C10.8789-2.83203 11.2109-2.5 11.6895-2.5C12.1777-2.5 12.5195-2.83203 12.5195-3.32031L12.5195-6.23047L15.4297-6.23047C15.918-6.23047 16.25-6.5625 16.25-7.04102C16.25-7.5293 15.918-7.87109 15.4297-7.87109L12.5195-7.87109L12.5195-10.7617C12.5195-11.2695 12.1777-11.6016 11.6895-11.6016C11.2109-11.6016 10.8789-11.2598 10.8789-10.7617L10.8789-7.87109L7.98828-7.87109C7.48047-7.87109 7.14844-7.5293 7.14844-7.04102C7.14844-6.5625 7.49023-6.23047 7.98828-6.23047Z"/>
  </g>
  <g id="" transform="matrix(1 0 0 1 304.924 1933)">
   <path d="M14.9707 5.66406C21.9336 5.66406 27.6953-0.0976562 27.6953-7.05078C27.6953-14.0137 21.9238-19.7754 14.9609-19.7754C8.00781-19.7754 2.25586-14.0137 2.25586-7.05078C2.25586-0.0976562 8.01758 5.66406 14.9707 5.66406ZM14.9707 3.84766C8.93555 3.84766 4.08203-1.01562 4.08203-7.05078C4.08203-13.0957 8.92578-17.9492 14.9609-17.9492C21.0059-17.9492 25.8594-13.0957 25.8691-7.05078C25.8789-1.01562 21.0156 3.84766 14.9707 3.84766ZM10.0586-6.14258L14.0625-6.14258L14.0625-2.12891C14.0625-1.5918 14.4336-1.2207 14.9512-1.2207C15.4883-1.2207 15.8594-1.5918 15.8594-2.12891L15.8594-6.14258L19.8828-6.14258C20.4102-6.14258 20.791-6.51367 20.791-7.03125C20.791-7.56836 20.4199-7.94922 19.8828-7.94922L15.8594-7.94922L15.8594-11.9531C15.8594-12.5098 15.4883-12.8809 14.9512-12.8809C14.4336-12.8809 14.0625-12.5 14.0625-11.9531L14.0625-7.94922L10.0586-7.94922C9.50195-7.94922 9.13086-7.56836 9.13086-7.03125C9.13086-6.51367 9.51172-6.14258 10.0586-6.14258Z"/>
  </g>
  <text style="stroke:none;fill:black;font-family:-apple-system,&quot;SF Pro Display&quot;,&quot;SF Pro Text&quot;,Helvetica,sans-serif;font-weight:bold;" transform="matrix(1 0 0 1 263 1953)">Design Variations</text>
  <text style="stroke:none;fill:black;font-family:-apple-system,&quot;SF Pro Display&quot;,&quot;SF Pro Text&quot;,Helvetica,sans-serif;" transform="matrix(1 0 0 1 263 1971)">Symbols are supported in up to nine weights and three scales.</text>
  <text style="stroke:none;fill:black;font-family:-apple-system,&quot;SF Pro Display&quot;,&quot;SF Pro Text&quot;,Helvetica,sans-serif;" transform="matrix(1 0 0 1 263 1989)">For optimal layout with text and other symbols, vertically align</text>
  <text style="stroke:none;fill:black;font-family:-apple-system,&quot;SF Pro Display&quot;,&quot;SF Pro Text&quot;,Helvetica,sans-serif;" transform="matrix(1 0 0 1 263 2007)">symbols with the adjacent text.</text>
  <line id="" style="fill:none;stroke:#00AEEF;stroke-width:0.5;opacity:1.0;" x1="776" x2="776" y1="1919" y2="1933"/>
  <g id="" transform="matrix(1 0 0 1 776 1933)">
   <path d="M3.31055 0.126953C3.82812 0.126953 4.08203-0.0683594 4.26758-0.605469L5.52734-4.0625L11.2891-4.0625L12.5488-0.605469C12.7344-0.0683594 12.9883 0.126953 13.4961 0.126953C14.0137 0.126953 14.3457-0.185547 14.3457-0.673828C14.3457-0.839844 14.3164-0.986328 14.2383-1.20117L9.6582-13.3887C9.43359-13.9941 9.0332-14.2871 8.4082-14.2871C7.80273-14.2871 7.39258-13.9941 7.17773-13.3984L2.59766-1.19141C2.51953-0.976562 2.49023-0.830078 2.49023-0.664062C2.49023-0.175781 2.80273 0.126953 3.31055 0.126953ZM6.00586-5.53711L8.37891-12.1094L8.42773-12.1094L10.8008-5.53711Z"/>
  </g>
  <line id="" style="fill:none;stroke:#00AEEF;stroke-width:0.5;opacity:1.0;" x1="792.836" x2="792.836" y1="1919" y2="1933"/>
  <text style="stroke:none;fill:black;font-family:-apple-system,&quot;SF Pro Display&quot;,&quot;SF Pro Text&quot;,Helvetica,sans-serif;font-weight:bold;" transform="matrix(1 0 0 1 776 1953)">Margins</text>
  <text style="stroke:none;fill:black;font-family:-apple-system,&quot;SF Pro Display&quot;,&quot;SF Pro Text&quot;,Helvetica,sans-serif;" transform="matrix(1 0 0 1 776 1971)">Leading and trailing margins on the left and right side of each symbol</text>
  <text style="stroke:none;fill:black;font-family:-apple-system,&quot;SF Pro Display&quot;,&quot;SF Pro Text&quot;,Helvetica,sans-serif;" transform="matrix(1 0 0 1 776 1989)">can be adjusted by modifying the x-location of the margin guidelines.</text>
  <text style="stroke:none;fill:black;font-family:-apple-system,&quot;SF Pro Display&quot;,&quot;SF Pro Text&quot;,Helvetica,sans-serif;" transform="matrix(1 0 0 1 776 2007)">Modifications are automatically applied proportionally to all</text>
  <text style="stroke:none;fill:black;font-family:-apple-system,&quot;SF Pro Display&quot;,&quot;SF Pro Text&quot;,Helvetica,sans-serif;" transform="matrix(1 0 0 1 776 2025)">scales and weights.</text>
  <g id="" transform="matrix(1 0 0 1 1289 1933)">
   <path d="M2.8418 1.86523L4.54102 3.57422C5.40039 4.44336 6.38672 4.38477 7.31445 3.35938L17.4902-7.85156C17.7539-7.76367 18.0273-7.7832 18.3398-7.8418L19.4043-8.03711L20.0684-7.36328L20.0293-6.80664C19.9902-6.30859 20.1172-5.92773 20.6055-5.44922L21.3672-4.70703C21.8457-4.22852 22.4609-4.19922 22.9297-4.66797L25.8398-7.58789C26.3086-8.05664 26.2891-8.65234 25.8105-9.13086L25.0391-9.89258C24.5605-10.3711 24.1895-10.5273 23.7109-10.4883L23.1348-10.4395L22.4902-11.0742L22.7344-12.1973C22.8613-12.7637 22.7051-13.2031 22.1191-13.7891L19.9219-15.9766C16.582-19.2969 12.1484-19.2188 9.25781-16.3281C8.83789-15.918 8.80859-15.3418 9.04297-14.9512C9.27734-14.5898 9.73633-14.3555 10.3809-14.5215C11.8457-14.8633 13.3691-14.9219 14.7949-13.9844L14.209-12.5293C14.0137-12.0508 13.9844-11.6504 14.1113-11.2891L3.04688-0.898438C2.06055 0.0195312 1.98242 0.996094 2.8418 1.86523ZM10.752-15.957C13.1836-17.7344 16.4746-17.4316 18.7012-15.2051L21.1328-12.793C21.3672-12.5586 21.4062-12.373 21.3379-12.0312L21.0156-10.5469L22.5195-9.0625L23.5059-9.12109C23.7598-9.13086 23.8379-9.11133 24.0332-8.91602L24.6094-8.33984L22.168-5.89844L21.5918-6.47461C21.3965-6.66992 21.3672-6.74805 21.377-7.01172L21.4453-7.98828L19.9512-9.47266L18.4277-9.21875C18.1055-9.15039 17.959-9.17969 17.7148-9.41406L15.7129-11.416C15.459-11.6504 15.4297-11.8164 15.5859-12.1875L16.4648-14.2773C14.9023-15.7324 12.8711-16.3574 10.8398-15.7617C10.6836-15.7227 10.625-15.8496 10.752-15.957ZM5.27344 2.30469L4.10156 1.14258C3.63281 0.683594 3.74023 0.341797 4.14062-0.0195312L14.9512-10.1953L16.416-8.71094L6.42578 2.27539C6.07422 2.67578 5.74219 2.77344 5.27344 2.30469Z"/>
  </g>
  <text style="stroke:none;fill:black;font-family:-apple-system,&quot;SF Pro Display&quot;,&quot;SF Pro Text&quot;,Helvetica,sans-serif;font-weight:bold;" transform="matrix(1 0 0 1 1289 1953)">Exporting</text>
  <text style="stroke:none;fill:black;font-family:-apple-system,&quot;SF Pro Display&quot;,&quot;SF Pro Text&quot;,Helvetica,sans-serif;" transform="matrix(1 0 0 1 1289 1971)">Symbols should be outlined when exporting to ensure the</text>
  <text style="stroke:none;fill:black;font-family:-apple-system,&quot;SF Pro Display&quot;,&quot;SF Pro Text&quot;,Helvetica,sans-serif;" transform="matrix(1 0 0 1 1289 1989)">design is preserved when submitting to Xcode.</text>
  <text id="template-version" style="stroke:none;fill:black;font-family:-apple-system,&quot;SF Pro Display&quot;,&quot;SF Pro Text&quot;,Helvetica,sans-serif;text-anchor:end;" transform="matrix(1 0 0 1 3036 1933)">Template v.2.0</text>
  <text style="stroke:none;fill:black;font-family:-apple-system,&quot;SF Pro Display&quot;,&quot;SF Pro Text&quot;,Helvetica,sans-serif;text-anchor:end;" transform="matrix(1 0 0 1 3036 1951)">Requires Xcode 12 or greater</text>
  <text style="stroke:none;fill:black;font-family:-apple-system,&quot;SF Pro Display&quot;,&quot;SF Pro Text&quot;,Helvetica,sans-serif;" transform="matrix(1 0 0 1 263 726)">Small</text>
  <text style="stroke:none;fill:black;font-family:-apple-system,&quot;SF Pro Display&quot;,&quot;SF Pro Text&quot;,Helvetica,sans-serif;" transform="matrix(1 0 0 1 263 1156)">Medium</text>
  <text style="stroke:none;fill:black;font-family:-apple-system,&quot;SF Pro Display&quot;,&quot;SF Pro Text&quot;,Helvetica,sans-serif;" transform="matrix(1 0 0 1 263 1586)">Large</text>
 </g>
 <g id="Guides">
  <g id="H-reference" style="fill:#27AAE1;stroke:none;" transform="matrix(1 0 0 1 339 696)">
   <path d="M0.976562 0L3.66211 0L12.9883-24.4629L45.752-24.4629L55.127 0L57.7637 0L30.6152-70.459L28.125-70.459ZM29.3457-67.1387L29.4434-67.1387L44.873-26.709L13.8672-26.709Z"/>
  </g>
  <line id="Baseline-S" style="fill:none;stroke:#27AAE1;opacity:1;stroke-width:0.5;" x1="263" x2="3036" y1="696" y2="696"/>
  <line id="Capline-S" style="fill:none;stroke:#27AAE1;opacity:1;stroke-width:0.5;" x1="263" x2="3036" y1="625.541" y2="625.541"/>
  <g id="H-reference" style="fill:#27AAE1;stroke:none;" transform="matrix(1 0 0 1 339 1126)">
   <path d="M0.976562 0L3.66211 0L12.9883-24.4629L45.752-24.4629L55.127 0L57.7637 0L30.6152-70.459L28.125-70.459ZM29.3457-67.1387L29.4434-67.1387L44.873-26.709L13.8672-26.709Z"/>
  </g>
  <line id="Baseline-M" style="fill:none;stroke:#27AAE1;opacity:1;stroke-width:0.5;" x1="263" x2="3036" y1="1126" y2="1126"/>
  <line id="Capline-M" style="fill:none;stroke:#27AAE1;opacity:1;stroke-width:0.5;" x1="263" x2="3036" y1="1055.54" y2="1055.54"/>
  <g id="H-reference" style="fill:#27AAE1;stroke:none;" transform="matrix(1 0 0 1 339 1556)">
   <path d="M0.976562 0L3.66211 0L12.9883-24.4629L45.752-24.4629L55.127 0L57.7637 0L30.6152-70.459L28.125-70.459ZM29.3457-67.1387L29.4434-67.1387L44.873-26.709L13.8672-26.709Z"/>
  </g>
  <line id="Baseline-L" style="fill:none;stroke:#27AAE1;opacity:1;stroke-width:0.5;" x1="263" x2="3036" y1="1556" y2="1556"/>
  <line id="Capline-L" style="fill:none;stroke:#27AAE1;opacity:1;stroke-width:0.5;" x1="263" x2="3036" y1="1485.54" y2="1485.54"/>
  <line id="left-margin" x1="1415.3329373506665" x2="1415.3329373506665" y1="1030.79" y2="1150.12" style="fill:none;stroke:#00AEEF;stroke-width:0.5;opacity:1.0;"/>
  <line id="right-margin" x1="1486.9270626493333" x2="1486.9270626493333" y1="1030.79" y2="1150.12" style="fill:none;stroke:#00AEEF;stroke-width:0.5;opacity:1.0;"/>
 </g>
 <g id="Symbols">
  <g id="Black-L" transform="matrix(1.0,0.0,0.0,1.0,2888.958999190455,1475.0490187217051)">  <path stroke-opacity="1" stroke-dasharray="none" fill-opacity="1" stroke-linecap="butt" version="1.1" fill-rule="nonzero" xml:space="preserve" xmlns:xlink="http://www.w3.org/1999/xlink" stroke-linejoin="miter" y="0px" stroke-miterlimit="4" stroke-width="1px" x="0px" fill="#000000" stroke="none" d="M45.721,91.954C39.613,91.954,33.541,90.747,27.908,88.37C25.201,87.236,22.604,85.809,20.154,84.163C17.74,82.517,15.472,80.652,13.387,78.567C11.302,76.482,9.437,74.214,7.791,71.8C6.145,69.35,4.718,66.753,3.585,64.046C1.207,58.377,0,52.341,0,46.233C0,40.125,1.207,34.053,3.585,28.42C4.718,25.713,6.145,23.117,7.791,20.666C9.437,18.252,11.302,15.984,13.387,13.899C15.472,11.814,17.74,9.949,20.154,8.303C22.604,6.657,25.201,5.23,27.908,4.097C33.541,1.719,39.576,0.475,45.721,0.512C51.829,0.512,57.901,1.719,63.534,4.097C66.241,5.23,68.838,6.657,71.288,8.303C73.702,9.949,75.97,11.814,78.055,13.899C80.14,15.984,82.005,18.252,83.651,20.666C85.297,23.117,86.724,25.713,87.857,28.42C90.235,34.053,91.479,40.088,91.442,46.233C91.442,52.341,90.235,58.413,87.857,64.046C86.724,66.753,85.297,69.35,83.651,71.8C82.005,74.214,80.14,76.482,78.055,78.567C75.97,80.652,73.702,82.517,71.288,84.163C68.838,85.809,66.241,87.236,63.534,88.37C57.901,90.747,51.829,91.954,45.721,91.954ZM33.797,26.811C31.785,26.811,29.81,27.213,27.945,27.981C26.152,28.749,24.543,29.81,23.19,31.2C21.836,32.553,20.739,34.199,19.971,35.955C19.203,37.82,18.8,39.796,18.8,41.807L18.8,49.891C18.8,51.902,19.203,53.878,19.971,55.743C20.739,57.535,21.8,59.145,23.19,60.498C24.543,61.851,26.189,62.949,27.945,63.717C29.774,64.485,31.785,64.887,33.797,64.887L52.597,64.887C57.864,68.362,61.961,70.154,64.778,70.154C65.692,70.191,66.57,69.935,67.338,69.423C68.545,68.618,69.313,67.265,69.35,65.802C69.313,64.412,68.874,63.058,68.143,61.925C69.971,60.535,71.471,58.779,72.495,56.731C73.593,54.609,74.141,52.268,74.141,49.927L74.141,41.844C74.141,39.832,73.739,37.857,72.971,35.992C72.203,34.199,71.142,32.59,69.752,31.237C68.399,29.883,66.753,28.786,64.997,28.018C63.132,27.25,61.156,26.847,59.145,26.847L33.797,26.811ZM46.27,57.243C41.698,57.243,36.65,57.06,36.028,56.475C35.736,56.036,35.589,55.487,35.626,54.975C35.662,54.061,35.809,53.183,36.138,52.341C36.796,50.659,37.93,49.196,39.43,48.135C41.624,46.709,44.185,45.977,46.818,46.014L46.965,46.014L47.111,46.014C49.671,45.904,52.195,46.635,54.317,48.062C55.816,49.159,56.95,50.622,57.645,52.341C58.45,54.317,58.413,56.145,58.047,56.475C57.608,56.95,51.72,57.243,46.27,57.243L46.27,57.243ZM47.001,44.514C43.709,44.514,41.076,41.844,41.039,38.552C41.039,35.26,43.709,32.627,47.001,32.59C50.293,32.59,52.963,35.26,52.963,38.552C52.927,41.844,50.293,44.514,47.001,44.514L47.001,44.514ZM47.001,44.514"/>
</g>
  <g id="Heavy-L" transform="matrix(1.0,0.0,0.0,1.0,2592.248999190455,1475.0490187217051)">  <path stroke-linecap="butt" stroke-dasharray="none" version="1.1" stroke-linejoin="miter" stroke-miterlimit="4" x="0px" stroke-opacity="1" y="0px" fill-opacity="1" fill-rule="nonzero" xmlns:xlink="http://www.w3.org/1999/xlink" stroke-width="1px" xml:space="preserve" fill="#000000" stroke="none" d="M45.721,91.954C39.613,91.954,33.541,90.747,27.908,88.37C25.201,87.236,22.604,85.809,20.154,84.163C17.74,82.517,15.472,80.652,13.387,78.567C11.302,76.482,9.437,74.214,7.791,71.8C6.145,69.35,4.718,66.753,3.585,64.046C1.207,58.377,0,52.341,0,46.233C0,40.125,1.207,34.053,3.585,28.42C4.718,25.713,6.145,23.117,7.791,20.666C9.437,18.252,11.302,15.984,13.387,13.899C15.472,11.814,17.74,9.949,20.154,8.303C22.604,6.657,25.201,5.23,27.908,4.097C33.541,1.719,39.576,0.475,45.721,0.512C51.829,0.512,57.901,1.719,63.534,4.097C66.241,5.23,68.838,6.657,71.288,8.303C73.702,9.949,75.97,11.814,78.055,13.899C80.14,15.984,82.005,18.252,83.651,20.666C85.297,23.117,86.724,25.713,87.857,28.42C90.235,34.053,91.479,40.088,91.442,46.233C91.442,52.341,90.235,58.413,87.857,64.046C86.724,66.753,85.297,69.35,83.651,71.8C82.005,74.214,80.14,76.482,78.055,78.567C75.97,80.652,73.702,82.517,71.288,84.163C68.838,85.809,66.241,87.236,63.534,88.37C57.901,90.747,51.829,91.954,45.721,91.954ZM33.797,26.811C31.785,26.811,29.81,27.213,27.945,27.981C26.152,28.749,24.543,29.81,23.19,31.2C21.836,32.553,20.739,34.199,19.971,35.955C19.203,37.82,18.8,39.796,18.8,41.807L18.8,49.891C18.8,51.902,19.203,53.878,19.971,55.743C20.739,57.535,21.8,59.145,23.19,60.498C24.543,61.851,26.189,62.949,27.945,63.717C29.774,64.485,31.785,64.887,33.797,64.887L52.597,64.887C57.864,68.362,61.961,70.154,64.778,70.154C65.692,70.191,66.57,69.935,67.338,69.423C68.545,68.618,69.313,67.265,69.35,65.802C69.313,64.412,68.874,63.058,68.143,61.925C69.971,60.535,71.471,58.779,72.495,56.731C73.593,54.609,74.141,52.268,74.141,49.927L74.141,41.844C74.141,39.832,73.739,37.857,72.971,35.992C72.203,34.199,71.142,32.59,69.752,31.237C68.399,29.883,66.753,28.786,64.997,28.018C63.132,27.25,61.156,26.847,59.145,26.847L33.797,26.811ZM46.27,57.243C41.698,57.243,36.65,57.06,36.028,56.475C35.736,56.036,35.589,55.487,35.626,54.975C35.662,54.061,35.809,53.183,36.138,52.341C36.796,50.659,37.93,49.196,39.43,48.135C41.624,46.709,44.185,45.977,46.818,46.014L46.965,46.014L47.111,46.014C49.671,45.904,52.195,46.635,54.317,48.062C55.816,49.159,56.95,50.622,57.645,52.341C58.45,54.317,58.413,56.145,58.047,56.475C57.608,56.95,51.72,57.243,46.27,57.243L46.27,57.243ZM47.001,44.514C43.709,44.514,41.076,41.844,41.039,38.552C41.039,35.26,43.709,32.627,47.001,32.59C50.293,32.59,52.963,35.26,52.963,38.552C52.927,41.844,50.293,44.514,47.001,44.514L47.001,44.514ZM47.001,44.514"/>
</g>
  <g id="Bold-L" transform="matrix(1.0,0.0,0.0,1.0,2295.538999190455,1475.0490187217051)">  <path x="0px" stroke-miterlimit="4" y="0px" fill-opacity="1" version="1.1" fill="#000000" stroke-linecap="butt" stroke-opacity="1" stroke-dasharray="none" fill-rule="nonzero" xml:space="preserve" stroke="none" stroke-linejoin="miter" xmlns:xlink="http://www.w3.org/1999/xlink" stroke-width="1px" d="M45.721,91.954C39.613,91.954,33.541,90.747,27.908,88.37C25.201,87.236,22.604,85.809,20.154,84.163C17.74,82.517,15.472,80.652,13.387,78.567C11.302,76.482,9.437,74.214,7.791,71.8C6.145,69.35,4.718,66.753,3.585,64.046C1.207,58.377,0,52.341,0,46.233C0,40.125,1.207,34.053,3.585,28.42C4.718,25.713,6.145,23.117,7.791,20.666C9.437,18.252,11.302,15.984,13.387,13.899C15.472,11.814,17.74,9.949,20.154,8.303C22.604,6.657,25.201,5.23,27.908,4.097C33.541,1.719,39.576,0.475,45.721,0.512C51.829,0.512,57.901,1.719,63.534,4.097C66.241,5.23,68.838,6.657,71.288,8.303C73.702,9.949,75.97,11.814,78.055,13.899C80.14,15.984,82.005,18.252,83.651,20.666C85.297,23.117,86.724,25.713,87.857,28.42C90.235,34.053,91.479,40.088,91.442,46.233C91.442,52.341,90.235,58.413,87.857,64.046C86.724,66.753,85.297,69.35,83.651,71.8C82.005,74.214,80.14,76.482,78.055,78.567C75.97,80.652,73.702,82.517,71.288,84.163C68.838,85.809,66.241,87.236,63.534,88.37C57.901,90.747,51.829,91.954,45.721,91.954ZM33.797,26.811C31.785,26.811,29.81,27.213,27.945,27.981C26.152,28.749,24.543,29.81,23.19,31.2C21.836,32.553,20.739,34.199,19.971,35.955C19.203,37.82,18.8,39.796,18.8,41.807L18.8,49.891C18.8,51.902,19.203,53.878,19.971,55.743C20.739,57.535,21.8,59.145,23.19,60.498C24.543,61.851,26.189,62.949,27.945,63.717C29.774,64.485,31.785,64.887,33.797,64.887L52.597,64.887C57.864,68.362,61.961,70.154,64.778,70.154C65.692,70.191,66.57,69.935,67.338,69.423C68.545,68.618,69.313,67.265,69.35,65.802C69.313,64.412,68.874,63.058,68.143,61.925C69.971,60.535,71.471,58.779,72.495,56.731C73.593,54.609,74.141,52.268,74.141,49.927L74.141,41.844C74.141,39.832,73.739,37.857,72.971,35.992C72.203,34.199,71.142,32.59,69.752,31.237C68.399,29.883,66.753,28.786,64.997,28.018C63.132,27.25,61.156,26.847,59.145,26.847L33.797,26.811ZM46.27,57.243C41.698,57.243,36.65,57.06,36.028,56.475C35.736,56.036,35.589,55.487,35.626,54.975C35.662,54.061,35.809,53.183,36.138,52.341C36.796,50.659,37.93,49.196,39.43,48.135C41.624,46.709,44.185,45.977,46.818,46.014L46.965,46.014L47.111,46.014C49.671,45.904,52.195,46.635,54.317,48.062C55.816,49.159,56.95,50.622,57.645,52.341C58.45,54.317,58.413,56.145,58.047,56.475C57.608,56.95,51.72,57.243,46.27,57.243L46.27,57.243ZM47.001,44.514C43.709,44.514,41.076,41.844,41.039,38.552C41.039,35.26,43.709,32.627,47.001,32.59C50.293,32.59,52.963,35.26,52.963,38.552C52.927,41.844,50.293,44.514,47.001,44.514L47.001,44.514ZM47.001,44.514"/>
</g>
  <g id="Semibold-L" transform="matrix(1.0,0.0,0.0,1.0,1998.828999190455,1475.0490187217051)">  <path version="1.1" stroke-width="1px" stroke-dasharray="none" xmlns:xlink="http://www.w3.org/1999/xlink" fill="#000000" stroke-opacity="1" y="0px" fill-opacity="1" stroke-linecap="butt" stroke-miterlimit="4" xml:space="preserve" x="0px" fill-rule="nonzero" stroke="none" stroke-linejoin="miter" d="M45.721,91.954C39.613,91.954,33.541,90.747,27.908,88.37C25.201,87.236,22.604,85.809,20.154,84.163C17.74,82.517,15.472,80.652,13.387,78.567C11.302,76.482,9.437,74.214,7.791,71.8C6.145,69.35,4.718,66.753,3.585,64.046C1.207,58.377,0,52.341,0,46.233C0,40.125,1.207,34.053,3.585,28.42C4.718,25.713,6.145,23.117,7.791,20.666C9.437,18.252,11.302,15.984,13.387,13.899C15.472,11.814,17.74,9.949,20.154,8.303C22.604,6.657,25.201,5.23,27.908,4.097C33.541,1.719,39.576,0.475,45.721,0.512C51.829,0.512,57.901,1.719,63.534,4.097C66.241,5.23,68.838,6.657,71.288,8.303C73.702,9.949,75.97,11.814,78.055,13.899C80.14,15.984,82.005,18.252,83.651,20.666C85.297,23.117,86.724,25.713,87.857,28.42C90.235,34.053,91.479,40.088,91.442,46.233C91.442,52.341,90.235,58.413,87.857,64.046C86.724,66.753,85.297,69.35,83.651,71.8C82.005,74.214,80.14,76.482,78.055,78.567C75.97,80.652,73.702,82.517,71.288,84.163C68.838,85.809,66.241,87.236,63.534,88.37C57.901,90.747,51.829,91.954,45.721,91.954ZM33.797,26.811C31.785,26.811,29.81,27.213,27.945,27.981C26.152,28.749,24.543,29.81,23.19,31.2C21.836,32.553,20.739,34.199,19.971,35.955C19.203,37.82,18.8,39.796,18.8,41.807L18.8,49.891C18.8,51.902,19.203,53.878,19.971,55.743C20.739,57.535,21.8,59.145,23.19,60.498C24.543,61.851,26.189,62.949,27.945,63.717C29.774,64.485,31.785,64.887,33.797,64.887L52.597,64.887C57.864,68.362,61.961,70.154,64.778,70.154C65.692,70.191,66.57,69.935,67.338,69.423C68.545,68.618,69.313,67.265,69.35,65.802C69.313,64.412,68.874,63.058,68.143,61.925C69.971,60.535,71.471,58.779,72.495,56.731C73.593,54.609,74.141,52.268,74.141,49.927L74.141,41.844C74.141,39.832,73.739,37.857,72.971,35.992C72.203,34.199,71.142,32.59,69.752,31.237C68.399,29.883,66.753,28.786,64.997,28.018C63.132,27.25,61.156,26.847,59.145,26.847L33.797,26.811ZM46.27,57.243C41.698,57.243,36.65,57.06,36.028,56.475C35.736,56.036,35.589,55.487,35.626,54.975C35.662,54.061,35.809,53.183,36.138,52.341C36.796,50.659,37.93,49.196,39.43,48.135C41.624,46.709,44.185,45.977,46.818,46.014L46.965,46.014L47.111,46.014C49.671,45.904,52.195,46.635,54.317,48.062C55.816,49.159,56.95,50.622,57.645,52.341C58.45,54.317,58.413,56.145,58.047,56.475C57.608,56.95,51.72,57.243,46.27,57.243L46.27,57.243ZM47.001,44.514C43.709,44.514,41.076,41.844,41.039,38.552C41.039,35.26,43.709,32.627,47.001,32.59C50.293,32.59,52.963,35.26,52.963,38.552C52.927,41.844,50.293,44.514,47.001,44.514L47.001,44.514ZM47.001,44.514"/>
</g>
  <g id="Medium-L" transform="matrix(1.0,0.0,0.0,1.0,1702.118999190455,1475.0490187217051)">  <path stroke-linecap="butt" xmlns:xlink="http://www.w3.org/1999/xlink" fill-opacity="1" x="0px" fill="#000000" stroke-opacity="1" y="0px" version="1.1" stroke-linejoin="miter" xml:space="preserve" stroke-miterlimit="4" stroke-width="1px" stroke="none" fill-rule="nonzero" stroke-dasharray="none" d="M45.721,91.954C39.613,91.954,33.541,90.747,27.908,88.37C25.201,87.236,22.604,85.809,20.154,84.163C17.74,82.517,15.472,80.652,13.387,78.567C11.302,76.482,9.437,74.214,7.791,71.8C6.145,69.35,4.718,66.753,3.585,64.046C1.207,58.377,0,52.341,0,46.233C0,40.125,1.207,34.053,3.585,28.42C4.718,25.713,6.145,23.117,7.791,20.666C9.437,18.252,11.302,15.984,13.387,13.899C15.472,11.814,17.74,9.949,20.154,8.303C22.604,6.657,25.201,5.23,27.908,4.097C33.541,1.719,39.576,0.475,45.721,0.512C51.829,0.512,57.901,1.719,63.534,4.097C66.241,5.23,68.838,6.657,71.288,8.303C73.702,9.949,75.97,11.814,78.055,13.899C80.14,15.984,82.005,18.252,83.651,20.666C85.297,23.117,86.724,25.713,87.857,28.42C90.235,34.053,91.479,40.088,91.442,46.233C91.442,52.341,90.235,58.413,87.857,64.046C86.724,66.753,85.297,69.35,83.651,71.8C82.005,74.214,80.14,76.482,78.055,78.567C75.97,80.652,73.702,82.517,71.288,84.163C68.838,85.809,66.241,87.236,63.534,88.37C57.901,90.747,51.829,91.954,45.721,91.954ZM33.797,26.811C31.785,26.811,29.81,27.213,27.945,27.981C26.152,28.749,24.543,29.81,23.19,31.2C21.836,32.553,20.739,34.199,19.971,35.955C19.203,37.82,18.8,39.796,18.8,41.807L18.8,49.891C18.8,51.902,19.203,53.878,19.971,55.743C20.739,57.535,21.8,59.145,23.19,60.498C24.543,61.851,26.189,62.949,27.945,63.717C29.774,64.485,31.785,64.887,33.797,64.887L52.597,64.887C57.864,68.362,61.961,70.154,64.778,70.154C65.692,70.191,66.57,69.935,67.338,69.423C68.545,68.618,69.313,67.265,69.35,65.802C69.313,64.412,68.874,63.058,68.143,61.925C69.971,60.535,71.471,58.779,72.495,56.731C73.593,54.609,74.141,52.268,74.141,49.927L74.141,41.844C74.141,39.832,73.739,37.857,72.971,35.992C72.203,34.199,71.142,32.59,69.752,31.237C68.399,29.883,66.753,28.786,64.997,28.018C63.132,27.25,61.156,26.847,59.145,26.847L33.797,26.811ZM46.27,57.243C41.698,57.243,36.65,57.06,36.028,56.475C35.736,56.036,35.589,55.487,35.626,54.975C35.662,54.061,35.809,53.183,36.138,52.341C36.796,50.659,37.93,49.196,39.43,48.135C41.624,46.709,44.185,45.977,46.818,46.014L46.965,46.014L47.111,46.014C49.671,45.904,52.195,46.635,54.317,48.062C55.816,49.159,56.95,50.622,57.645,52.341C58.45,54.317,58.413,56.145,58.047,56.475C57.608,56.95,51.72,57.243,46.27,57.243L46.27,57.243ZM47.001,44.514C43.709,44.514,41.076,41.844,41.039,38.552C41.039,35.26,43.709,32.627,47.001,32.59C50.293,32.59,52.963,35.26,52.963,38.552C52.927,41.844,50.293,44.514,47.001,44.514L47.001,44.514ZM47.001,44.514"/>
</g>
  <g id="Regular-L" transform="matrix(1.0,0.0,0.0,1.0,1405.408999190455,1475.0490187217051)">  <path stroke-linecap="butt" x="0px" stroke-opacity="1" version="1.1" fill="#000000" y="0px" xmlns:xlink="http://www.w3.org/1999/xlink" fill-opacity="1" fill-rule="nonzero" xml:space="preserve" stroke-linejoin="miter" stroke-dasharray="none" stroke="none" stroke-miterlimit="4" stroke-width="1px" d="M45.721,91.954C39.613,91.954,33.541,90.747,27.908,88.37C25.201,87.236,22.604,85.809,20.154,84.163C17.74,82.517,15.472,80.652,13.387,78.567C11.302,76.482,9.437,74.214,7.791,71.8C6.145,69.35,4.718,66.753,3.585,64.046C1.207,58.377,0,52.341,0,46.233C0,40.125,1.207,34.053,3.585,28.42C4.718,25.713,6.145,23.117,7.791,20.666C9.437,18.252,11.302,15.984,13.387,13.899C15.472,11.814,17.74,9.949,20.154,8.303C22.604,6.657,25.201,5.23,27.908,4.097C33.541,1.719,39.576,0.475,45.721,0.512C51.829,0.512,57.901,1.719,63.534,4.097C66.241,5.23,68.838,6.657,71.288,8.303C73.702,9.949,75.97,11.814,78.055,13.899C80.14,15.984,82.005,18.252,83.651,20.666C85.297,23.117,86.724,25.713,87.857,28.42C90.235,34.053,91.479,40.088,91.442,46.233C91.442,52.341,90.235,58.413,87.857,64.046C86.724,66.753,85.297,69.35,83.651,71.8C82.005,74.214,80.14,76.482,78.055,78.567C75.97,80.652,73.702,82.517,71.288,84.163C68.838,85.809,66.241,87.236,63.534,88.37C57.901,90.747,51.829,91.954,45.721,91.954ZM33.797,26.811C31.785,26.811,29.81,27.213,27.945,27.981C26.152,28.749,24.543,29.81,23.19,31.2C21.836,32.553,20.739,34.199,19.971,35.955C19.203,37.82,18.8,39.796,18.8,41.807L18.8,49.891C18.8,51.902,19.203,53.878,19.971,55.743C20.739,57.535,21.8,59.145,23.19,60.498C24.543,61.851,26.189,62.949,27.945,63.717C29.774,64.485,31.785,64.887,33.797,64.887L52.597,64.887C57.864,68.362,61.961,70.154,64.778,70.154C65.692,70.191,66.57,69.935,67.338,69.423C68.545,68.618,69.313,67.265,69.35,65.802C69.313,64.412,68.874,63.058,68.143,61.925C69.971,60.535,71.471,58.779,72.495,56.731C73.593,54.609,74.141,52.268,74.141,49.927L74.141,41.844C74.141,39.832,73.739,37.857,72.971,35.992C72.203,34.199,71.142,32.59,69.752,31.237C68.399,29.883,66.753,28.786,64.997,28.018C63.132,27.25,61.156,26.847,59.145,26.847L33.797,26.811ZM46.27,57.243C41.698,57.243,36.65,57.06,36.028,56.475C35.736,56.036,35.589,55.487,35.626,54.975C35.662,54.061,35.809,53.183,36.138,52.341C36.796,50.659,37.93,49.196,39.43,48.135C41.624,46.709,44.185,45.977,46.818,46.014L46.965,46.014L47.111,46.014C49.671,45.904,52.195,46.635,54.317,48.062C55.816,49.159,56.95,50.622,57.645,52.341C58.45,54.317,58.413,56.145,58.047,56.475C57.608,56.95,51.72,57.243,46.27,57.243L46.27,57.243ZM47.001,44.514C43.709,44.514,41.076,41.844,41.039,38.552C41.039,35.26,43.709,32.627,47.001,32.59C50.293,32.59,52.963,35.26,52.963,38.552C52.927,41.844,50.293,44.514,47.001,44.514L47.001,44.514ZM47.001,44.514"/>
</g>
  <g id="Light-L" transform="matrix(1.0,0.0,0.0,1.0,1108.6989991904552,1475.0490187217051)">  <path stroke-linecap="butt" version="1.1" stroke-opacity="1" fill-opacity="1" x="0px" fill-rule="nonzero" xml:space="preserve" y="0px" stroke="none" fill="#000000" xmlns:xlink="http://www.w3.org/1999/xlink" stroke-linejoin="miter" stroke-width="1px" stroke-dasharray="none" stroke-miterlimit="4" d="M45.721,91.954C39.613,91.954,33.541,90.747,27.908,88.37C25.201,87.236,22.604,85.809,20.154,84.163C17.74,82.517,15.472,80.652,13.387,78.567C11.302,76.482,9.437,74.214,7.791,71.8C6.145,69.35,4.718,66.753,3.585,64.046C1.207,58.377,0,52.341,0,46.233C0,40.125,1.207,34.053,3.585,28.42C4.718,25.713,6.145,23.117,7.791,20.666C9.437,18.252,11.302,15.984,13.387,13.899C15.472,11.814,17.74,9.949,20.154,8.303C22.604,6.657,25.201,5.23,27.908,4.097C33.541,1.719,39.576,0.475,45.721,0.512C51.829,0.512,57.901,1.719,63.534,4.097C66.241,5.23,68.838,6.657,71.288,8.303C73.702,9.949,75.97,11.814,78.055,13.899C80.14,15.984,82.005,18.252,83.651,20.666C85.297,23.117,86.724,25.713,87.857,28.42C90.235,34.053,91.479,40.088,91.442,46.233C91.442,52.341,90.235,58.413,87.857,64.046C86.724,66.753,85.297,69.35,83.651,71.8C82.005,74.214,80.14,76.482,78.055,78.567C75.97,80.652,73.702,82.517,71.288,84.163C68.838,85.809,66.241,87.236,63.534,88.37C57.901,90.747,51.829,91.954,45.721,91.954ZM33.797,26.811C31.785,26.811,29.81,27.213,27.945,27.981C26.152,28.749,24.543,29.81,23.19,31.2C21.836,32.553,20.739,34.199,19.971,35.955C19.203,37.82,18.8,39.796,18.8,41.807L18.8,49.891C18.8,51.902,19.203,53.878,19.971,55.743C20.739,57.535,21.8,59.145,23.19,60.498C24.543,61.851,26.189,62.949,27.945,63.717C29.774,64.485,31.785,64.887,33.797,64.887L52.597,64.887C57.864,68.362,61.961,70.154,64.778,70.154C65.692,70.191,66.57,69.935,67.338,69.423C68.545,68.618,69.313,67.265,69.35,65.802C69.313,64.412,68.874,63.058,68.143,61.925C69.971,60.535,71.471,58.779,72.495,56.731C73.593,54.609,74.141,52.268,74.141,49.927L74.141,41.844C74.141,39.832,73.739,37.857,72.971,35.992C72.203,34.199,71.142,32.59,69.752,31.237C68.399,29.883,66.753,28.786,64.997,28.018C63.132,27.25,61.156,26.847,59.145,26.847L33.797,26.811ZM46.27,57.243C41.698,57.243,36.65,57.06,36.028,56.475C35.736,56.036,35.589,55.487,35.626,54.975C35.662,54.061,35.809,53.183,36.138,52.341C36.796,50.659,37.93,49.196,39.43,48.135C41.624,46.709,44.185,45.977,46.818,46.014L46.965,46.014L47.111,46.014C49.671,45.904,52.195,46.635,54.317,48.062C55.816,49.159,56.95,50.622,57.645,52.341C58.45,54.317,58.413,56.145,58.047,56.475C57.608,56.95,51.72,57.243,46.27,57.243L46.27,57.243ZM47.001,44.514C43.709,44.514,41.076,41.844,41.039,38.552C41.039,35.26,43.709,32.627,47.001,32.59C50.293,32.59,52.963,35.26,52.963,38.552C52.927,41.844,50.293,44.514,47.001,44.514L47.001,44.514ZM47.001,44.514"/>
</g>
  <g id="Thin-L" transform="matrix(1.0,0.0,0.0,1.0,811.9889991904553,1475.0490187217051)">  <path stroke="none" stroke-opacity="1" stroke-dasharray="none" xml:space="preserve" xmlns:xlink="http://www.w3.org/1999/xlink" fill-rule="nonzero" stroke-linecap="butt" stroke-linejoin="miter" fill-opacity="1" x="0px" stroke-width="1px" stroke-miterlimit="4" fill="#000000" y="0px" version="1.1" d="M45.721,91.954C39.613,91.954,33.541,90.747,27.908,88.37C25.201,87.236,22.604,85.809,20.154,84.163C17.74,82.517,15.472,80.652,13.387,78.567C11.302,76.482,9.437,74.214,7.791,71.8C6.145,69.35,4.718,66.753,3.585,64.046C1.207,58.377,0,52.341,0,46.233C0,40.125,1.207,34.053,3.585,28.42C4.718,25.713,6.145,23.117,7.791,20.666C9.437,18.252,11.302,15.984,13.387,13.899C15.472,11.814,17.74,9.949,20.154,8.303C22.604,6.657,25.201,5.23,27.908,4.097C33.541,1.719,39.576,0.475,45.721,0.512C51.829,0.512,57.901,1.719,63.534,4.097C66.241,5.23,68.838,6.657,71.288,8.303C73.702,9.949,75.97,11.814,78.055,13.899C80.14,15.984,82.005,18.252,83.651,20.666C85.297,23.117,86.724,25.713,87.857,28.42C90.235,34.053,91.479,40.088,91.442,46.233C91.442,52.341,90.235,58.413,87.857,64.046C86.724,66.753,85.297,69.35,83.651,71.8C82.005,74.214,80.14,76.482,78.055,78.567C75.97,80.652,73.702,82.517,71.288,84.163C68.838,85.809,66.241,87.236,63.534,88.37C57.901,90.747,51.829,91.954,45.721,91.954ZM33.797,26.811C31.785,26.811,29.81,27.213,27.945,27.981C26.152,28.749,24.543,29.81,23.19,31.2C21.836,32.553,20.739,34.199,19.971,35.955C19.203,37.82,18.8,39.796,18.8,41.807L18.8,49.891C18.8,51.902,19.203,53.878,19.971,55.743C20.739,57.535,21.8,59.145,23.19,60.498C24.543,61.851,26.189,62.949,27.945,63.717C29.774,64.485,31.785,64.887,33.797,64.887L52.597,64.887C57.864,68.362,61.961,70.154,64.778,70.154C65.692,70.191,66.57,69.935,67.338,69.423C68.545,68.618,69.313,67.265,69.35,65.802C69.313,64.412,68.874,63.058,68.143,61.925C69.971,60.535,71.471,58.779,72.495,56.731C73.593,54.609,74.141,52.268,74.141,49.927L74.141,41.844C74.141,39.832,73.739,37.857,72.971,35.992C72.203,34.199,71.142,32.59,69.752,31.237C68.399,29.883,66.753,28.786,64.997,28.018C63.132,27.25,61.156,26.847,59.145,26.847L33.797,26.811ZM46.27,57.243C41.698,57.243,36.65,57.06,36.028,56.475C35.736,56.036,35.589,55.487,35.626,54.975C35.662,54.061,35.809,53.183,36.138,52.341C36.796,50.659,37.93,49.196,39.43,48.135C41.624,46.709,44.185,45.977,46.818,46.014L46.965,46.014L47.111,46.014C49.671,45.904,52.195,46.635,54.317,48.062C55.816,49.159,56.95,50.622,57.645,52.341C58.45,54.317,58.413,56.145,58.047,56.475C57.608,56.95,51.72,57.243,46.27,57.243L46.27,57.243ZM47.001,44.514C43.709,44.514,41.076,41.844,41.039,38.552C41.039,35.26,43.709,32.627,47.001,32.59C50.293,32.59,52.963,35.26,52.963,38.552C52.927,41.844,50.293,44.514,47.001,44.514L47.001,44.514ZM47.001,44.514"/>
</g>
  <g id="Ultralight-L" transform="matrix(1.0,0.0,0.0,1.0,515.2789991904552,1475.0490187217051)">  <path stroke-linecap="butt" stroke-opacity="1" stroke-dasharray="none" fill-rule="nonzero" stroke-miterlimit="4" stroke-linejoin="miter" xml:space="preserve" stroke="none" x="0px" xmlns:xlink="http://www.w3.org/1999/xlink" version="1.1" fill="#000000" fill-opacity="1" y="0px" stroke-width="1px" d="M45.721,91.954C39.613,91.954,33.541,90.747,27.908,88.37C25.201,87.236,22.604,85.809,20.154,84.163C17.74,82.517,15.472,80.652,13.387,78.567C11.302,76.482,9.437,74.214,7.791,71.8C6.145,69.35,4.718,66.753,3.585,64.046C1.207,58.377,0,52.341,0,46.233C0,40.125,1.207,34.053,3.585,28.42C4.718,25.713,6.145,23.117,7.791,20.666C9.437,18.252,11.302,15.984,13.387,13.899C15.472,11.814,17.74,9.949,20.154,8.303C22.604,6.657,25.201,5.23,27.908,4.097C33.541,1.719,39.576,0.475,45.721,0.512C51.829,0.512,57.901,1.719,63.534,4.097C66.241,5.23,68.838,6.657,71.288,8.303C73.702,9.949,75.97,11.814,78.055,13.899C80.14,15.984,82.005,18.252,83.651,20.666C85.297,23.117,86.724,25.713,87.857,28.42C90.235,34.053,91.479,40.088,91.442,46.233C91.442,52.341,90.235,58.413,87.857,64.046C86.724,66.753,85.297,69.35,83.651,71.8C82.005,74.214,80.14,76.482,78.055,78.567C75.97,80.652,73.702,82.517,71.288,84.163C68.838,85.809,66.241,87.236,63.534,88.37C57.901,90.747,51.829,91.954,45.721,91.954ZM33.797,26.811C31.785,26.811,29.81,27.213,27.945,27.981C26.152,28.749,24.543,29.81,23.19,31.2C21.836,32.553,20.739,34.199,19.971,35.955C19.203,37.82,18.8,39.796,18.8,41.807L18.8,49.891C18.8,51.902,19.203,53.878,19.971,55.743C20.739,57.535,21.8,59.145,23.19,60.498C24.543,61.851,26.189,62.949,27.945,63.717C29.774,64.485,31.785,64.887,33.797,64.887L52.597,64.887C57.864,68.362,61.961,70.154,64.778,70.154C65.692,70.191,66.57,69.935,67.338,69.423C68.545,68.618,69.313,67.265,69.35,65.802C69.313,64.412,68.874,63.058,68.143,61.925C69.971,60.535,71.471,58.779,72.495,56.731C73.593,54.609,74.141,52.268,74.141,49.927L74.141,41.844C74.141,39.832,73.739,37.857,72.971,35.992C72.203,34.199,71.142,32.59,69.752,31.237C68.399,29.883,66.753,28.786,64.997,28.018C63.132,27.25,61.156,26.847,59.145,26.847L33.797,26.811ZM46.27,57.243C41.698,57.243,36.65,57.06,36.028,56.475C35.736,56.036,35.589,55.487,35.626,54.975C35.662,54.061,35.809,53.183,36.138,52.341C36.796,50.659,37.93,49.196,39.43,48.135C41.624,46.709,44.185,45.977,46.818,46.014L46.965,46.014L47.111,46.014C49.671,45.904,52.195,46.635,54.317,48.062C55.816,49.159,56.95,50.622,57.645,52.341C58.45,54.317,58.413,56.145,58.047,56.475C57.608,56.95,51.72,57.243,46.27,57.243L46.27,57.243ZM47.001,44.514C43.709,44.514,41.076,41.844,41.039,38.552C41.039,35.26,43.709,32.627,47.001,32.59C50.293,32.59,52.963,35.26,52.963,38.552C52.927,41.844,50.293,44.514,47.001,44.514L47.001,44.514ZM47.001,44.514"/>
</g>
  <g id="Black-M" transform="matrix(1.0,0.0,0.0,1.0,2899.237363713531,1055.3273832447812)">  <path stroke-opacity="1" stroke-dasharray="none" fill-opacity="1" stroke-linecap="butt" version="1.1" fill-rule="nonzero" xml:space="preserve" xmlns:xlink="http://www.w3.org/1999/xlink" stroke-linejoin="miter" y="0px" stroke-miterlimit="4" stroke-width="1px" x="0px" fill="#000000" stroke="none" d="M35.443,71.282C30.707,71.282,26.001,70.347,21.634,68.504C19.536,67.625,17.523,66.519,15.623,65.243C13.752,63.967,11.994,62.521,10.378,60.905C8.761,59.288,7.315,57.53,6.039,55.659C4.763,53.759,3.658,51.746,2.779,49.648C0.936,45.253,0,40.575,0,35.84C0,31.104,0.936,26.398,2.779,22.031C3.658,19.933,4.763,17.92,6.039,16.02C7.315,14.149,8.761,12.391,10.378,10.775C11.994,9.158,13.752,7.712,15.623,6.436C17.523,5.16,19.536,4.055,21.634,3.176C26.001,1.333,30.679,0.369,35.443,0.397C40.178,0.397,44.885,1.333,49.251,3.176C51.349,4.055,53.362,5.16,55.262,6.436C57.134,7.712,58.891,9.158,60.508,10.775C62.124,12.391,63.57,14.149,64.846,16.02C66.122,17.92,67.228,19.933,68.107,22.031C69.95,26.398,70.914,31.076,70.885,35.84C70.885,40.575,69.95,45.282,68.107,49.648C67.228,51.746,66.122,53.759,64.846,55.659C63.57,57.53,62.124,59.288,60.508,60.905C58.891,62.521,57.134,63.967,55.262,65.243C53.362,66.519,51.349,67.625,49.251,68.504C44.885,70.347,40.178,71.282,35.443,71.282ZM26.199,20.784C24.64,20.784,23.109,21.095,21.663,21.691C20.273,22.286,19.026,23.109,17.977,24.186C16.927,25.235,16.077,26.511,15.481,27.872C14.886,29.318,14.574,30.849,14.574,32.409L14.574,38.675C14.574,40.234,14.886,41.766,15.481,43.212C16.077,44.601,16.899,45.849,17.977,46.898C19.026,47.947,20.302,48.797,21.663,49.393C23.08,49.988,24.64,50.3,26.199,50.3L40.773,50.3C44.856,52.994,48.032,54.383,50.215,54.383C50.924,54.412,51.604,54.213,52.2,53.816C53.136,53.192,53.731,52.143,53.759,51.009C53.731,49.932,53.391,48.882,52.824,48.004C54.241,46.926,55.404,45.565,56.198,43.977C57.048,42.333,57.474,40.518,57.474,38.703L57.474,32.437C57.474,30.878,57.162,29.347,56.566,27.9C55.971,26.511,55.149,25.264,54.071,24.214C53.022,23.165,51.746,22.315,50.385,21.719C48.939,21.124,47.408,20.812,45.849,20.812L26.199,20.784ZM35.868,44.374C32.324,44.374,28.411,44.232,27.929,43.779C27.702,43.438,27.589,43.013,27.617,42.616C27.645,41.907,27.759,41.227,28.014,40.575C28.524,39.27,29.403,38.136,30.566,37.314C32.267,36.208,34.252,35.641,36.293,35.669L36.407,35.669L36.52,35.669C38.505,35.584,40.461,36.151,42.106,37.257C43.268,38.108,44.147,39.242,44.686,40.575C45.31,42.106,45.282,43.524,44.998,43.779C44.658,44.147,40.093,44.374,35.868,44.374L35.868,44.374ZM36.435,34.507C33.883,34.507,31.842,32.437,31.813,29.885C31.813,27.333,33.883,25.292,36.435,25.264C38.987,25.264,41.057,27.333,41.057,29.885C41.028,32.437,38.987,34.507,36.435,34.507L36.435,34.507ZM36.435,34.507"/>
</g>
  <g id="Heavy-M" transform="matrix(1.0,0.0,0.0,1.0,2602.527363713531,1055.3273832447812)">  <path stroke-linecap="butt" stroke-dasharray="none" version="1.1" stroke-linejoin="miter" stroke-miterlimit="4" x="0px" stroke-opacity="1" y="0px" fill-opacity="1" fill-rule="nonzero" xmlns:xlink="http://www.w3.org/1999/xlink" stroke-width="1px" xml:space="preserve" fill="#000000" stroke="none" d="M35.443,71.282C30.707,71.282,26.001,70.347,21.634,68.504C19.536,67.625,17.523,66.519,15.623,65.243C13.752,63.967,11.994,62.521,10.378,60.905C8.761,59.288,7.315,57.53,6.039,55.659C4.763,53.759,3.658,51.746,2.779,49.648C0.936,45.253,0,40.575,0,35.84C0,31.104,0.936,26.398,2.779,22.031C3.658,19.933,4.763,17.92,6.039,16.02C7.315,14.149,8.761,12.391,10.378,10.775C11.994,9.158,13.752,7.712,15.623,6.436C17.523,5.16,19.536,4.055,21.634,3.176C26.001,1.333,30.679,0.369,35.443,0.397C40.178,0.397,44.885,1.333,49.251,3.176C51.349,4.055,53.362,5.16,55.262,6.436C57.134,7.712,58.891,9.158,60.508,10.775C62.124,12.391,63.57,14.149,64.846,16.02C66.122,17.92,67.228,19.933,68.107,22.031C69.95,26.398,70.914,31.076,70.885,35.84C70.885,40.575,69.95,45.282,68.107,49.648C67.228,51.746,66.122,53.759,64.846,55.659C63.57,57.53,62.124,59.288,60.508,60.905C58.891,62.521,57.134,63.967,55.262,65.243C53.362,66.519,51.349,67.625,49.251,68.504C44.885,70.347,40.178,71.282,35.443,71.282ZM26.199,20.784C24.64,20.784,23.109,21.095,21.663,21.691C20.273,22.286,19.026,23.109,17.977,24.186C16.927,25.235,16.077,26.511,15.481,27.872C14.886,29.318,14.574,30.849,14.574,32.409L14.574,38.675C14.574,40.234,14.886,41.766,15.481,43.212C16.077,44.601,16.899,45.849,17.977,46.898C19.026,47.947,20.302,48.797,21.663,49.393C23.08,49.988,24.64,50.3,26.199,50.3L40.773,50.3C44.856,52.994,48.032,54.383,50.215,54.383C50.924,54.412,51.604,54.213,52.2,53.816C53.136,53.192,53.731,52.143,53.759,51.009C53.731,49.932,53.391,48.882,52.824,48.004C54.241,46.926,55.404,45.565,56.198,43.977C57.048,42.333,57.474,40.518,57.474,38.703L57.474,32.437C57.474,30.878,57.162,29.347,56.566,27.9C55.971,26.511,55.149,25.264,54.071,24.214C53.022,23.165,51.746,22.315,50.385,21.719C48.939,21.124,47.408,20.812,45.849,20.812L26.199,20.784ZM35.868,44.374C32.324,44.374,28.411,44.232,27.929,43.779C27.702,43.438,27.589,43.013,27.617,42.616C27.645,41.907,27.759,41.227,28.014,40.575C28.524,39.27,29.403,38.136,30.566,37.314C32.267,36.208,34.252,35.641,36.293,35.669L36.407,35.669L36.52,35.669C38.505,35.584,40.461,36.151,42.106,37.257C43.268,38.108,44.147,39.242,44.686,40.575C45.31,42.106,45.282,43.524,44.998,43.779C44.658,44.147,40.093,44.374,35.868,44.374L35.868,44.374ZM36.435,34.507C33.883,34.507,31.842,32.437,31.813,29.885C31.813,27.333,33.883,25.292,36.435,25.264C38.987,25.264,41.057,27.333,41.057,29.885C41.028,32.437,38.987,34.507,36.435,34.507L36.435,34.507ZM36.435,34.507"/>
</g>
  <g id="Bold-M" transform="matrix(1.0,0.0,0.0,1.0,2305.817363713531,1055.3273832447812)">  <path x="0px" stroke-miterlimit="4" y="0px" fill-opacity="1" version="1.1" fill="#000000" stroke-linecap="butt" stroke-opacity="1" stroke-dasharray="none" fill-rule="nonzero" xml:space="preserve" stroke="none" stroke-linejoin="miter" xmlns:xlink="http://www.w3.org/1999/xlink" stroke-width="1px" d="M35.443,71.282C30.707,71.282,26.001,70.347,21.634,68.504C19.536,67.625,17.523,66.519,15.623,65.243C13.752,63.967,11.994,62.521,10.378,60.905C8.761,59.288,7.315,57.53,6.039,55.659C4.763,53.759,3.658,51.746,2.779,49.648C0.936,45.253,0,40.575,0,35.84C0,31.104,0.936,26.398,2.779,22.031C3.658,19.933,4.763,17.92,6.039,16.02C7.315,14.149,8.761,12.391,10.378,10.775C11.994,9.158,13.752,7.712,15.623,6.436C17.523,5.16,19.536,4.055,21.634,3.176C26.001,1.333,30.679,0.369,35.443,0.397C40.178,0.397,44.885,1.333,49.251,3.176C51.349,4.055,53.362,5.16,55.262,6.436C57.134,7.712,58.891,9.158,60.508,10.775C62.124,12.391,63.57,14.149,64.846,16.02C66.122,17.92,67.228,19.933,68.107,22.031C69.95,26.398,70.914,31.076,70.885,35.84C70.885,40.575,69.95,45.282,68.107,49.648C67.228,51.746,66.122,53.759,64.846,55.659C63.57,57.53,62.124,59.288,60.508,60.905C58.891,62.521,57.134,63.967,55.262,65.243C53.362,66.519,51.349,67.625,49.251,68.504C44.885,70.347,40.178,71.282,35.443,71.282ZM26.199,20.784C24.64,20.784,23.109,21.095,21.663,21.691C20.273,22.286,19.026,23.109,17.977,24.186C16.927,25.235,16.077,26.511,15.481,27.872C14.886,29.318,14.574,30.849,14.574,32.409L14.574,38.675C14.574,40.234,14.886,41.766,15.481,43.212C16.077,44.601,16.899,45.849,17.977,46.898C19.026,47.947,20.302,48.797,21.663,49.393C23.08,49.988,24.64,50.3,26.199,50.3L40.773,50.3C44.856,52.994,48.032,54.383,50.215,54.383C50.924,54.412,51.604,54.213,52.2,53.816C53.136,53.192,53.731,52.143,53.759,51.009C53.731,49.932,53.391,48.882,52.824,48.004C54.241,46.926,55.404,45.565,56.198,43.977C57.048,42.333,57.474,40.518,57.474,38.703L57.474,32.437C57.474,30.878,57.162,29.347,56.566,27.9C55.971,26.511,55.149,25.264,54.071,24.214C53.022,23.165,51.746,22.315,50.385,21.719C48.939,21.124,47.408,20.812,45.849,20.812L26.199,20.784ZM35.868,44.374C32.324,44.374,28.411,44.232,27.929,43.779C27.702,43.438,27.589,43.013,27.617,42.616C27.645,41.907,27.759,41.227,28.014,40.575C28.524,39.27,29.403,38.136,30.566,37.314C32.267,36.208,34.252,35.641,36.293,35.669L36.407,35.669L36.52,35.669C38.505,35.584,40.461,36.151,42.106,37.257C43.268,38.108,44.147,39.242,44.686,40.575C45.31,42.106,45.282,43.524,44.998,43.779C44.658,44.147,40.093,44.374,35.868,44.374L35.868,44.374ZM36.435,34.507C33.883,34.507,31.842,32.437,31.813,29.885C31.813,27.333,33.883,25.292,36.435,25.264C38.987,25.264,41.057,27.333,41.057,29.885C41.028,32.437,38.987,34.507,36.435,34.507L36.435,34.507ZM36.435,34.507"/>
</g>
  <g id="Semibold-M" transform="matrix(1.0,0.0,0.0,1.0,2009.1073637135312,1055.3273832447812)">  <path version="1.1" stroke-width="1px" stroke-dasharray="none" xmlns:xlink="http://www.w3.org/1999/xlink" fill="#000000" stroke-opacity="1" y="0px" fill-opacity="1" stroke-linecap="butt" stroke-miterlimit="4" xml:space="preserve" x="0px" fill-rule="nonzero" stroke="none" stroke-linejoin="miter" d="M35.443,71.282C30.707,71.282,26.001,70.347,21.634,68.504C19.536,67.625,17.523,66.519,15.623,65.243C13.752,63.967,11.994,62.521,10.378,60.905C8.761,59.288,7.315,57.53,6.039,55.659C4.763,53.759,3.658,51.746,2.779,49.648C0.936,45.253,0,40.575,0,35.84C0,31.104,0.936,26.398,2.779,22.031C3.658,19.933,4.763,17.92,6.039,16.02C7.315,14.149,8.761,12.391,10.378,10.775C11.994,9.158,13.752,7.712,15.623,6.436C17.523,5.16,19.536,4.055,21.634,3.176C26.001,1.333,30.679,0.369,35.443,0.397C40.178,0.397,44.885,1.333,49.251,3.176C51.349,4.055,53.362,5.16,55.262,6.436C57.134,7.712,58.891,9.158,60.508,10.775C62.124,12.391,63.57,14.149,64.846,16.02C66.122,17.92,67.228,19.933,68.107,22.031C69.95,26.398,70.914,31.076,70.885,35.84C70.885,40.575,69.95,45.282,68.107,49.648C67.228,51.746,66.122,53.759,64.846,55.659C63.57,57.53,62.124,59.288,60.508,60.905C58.891,62.521,57.134,63.967,55.262,65.243C53.362,66.519,51.349,67.625,49.251,68.504C44.885,70.347,40.178,71.282,35.443,71.282ZM26.199,20.784C24.64,20.784,23.109,21.095,21.663,21.691C20.273,22.286,19.026,23.109,17.977,24.186C16.927,25.235,16.077,26.511,15.481,27.872C14.886,29.318,14.574,30.849,14.574,32.409L14.574,38.675C14.574,40.234,14.886,41.766,15.481,43.212C16.077,44.601,16.899,45.849,17.977,46.898C19.026,47.947,20.302,48.797,21.663,49.393C23.08,49.988,24.64,50.3,26.199,50.3L40.773,50.3C44.856,52.994,48.032,54.383,50.215,54.383C50.924,54.412,51.604,54.213,52.2,53.816C53.136,53.192,53.731,52.143,53.759,51.009C53.731,49.932,53.391,48.882,52.824,48.004C54.241,46.926,55.404,45.565,56.198,43.977C57.048,42.333,57.474,40.518,57.474,38.703L57.474,32.437C57.474,30.878,57.162,29.347,56.566,27.9C55.971,26.511,55.149,25.264,54.071,24.214C53.022,23.165,51.746,22.315,50.385,21.719C48.939,21.124,47.408,20.812,45.849,20.812L26.199,20.784ZM35.868,44.374C32.324,44.374,28.411,44.232,27.929,43.779C27.702,43.438,27.589,43.013,27.617,42.616C27.645,41.907,27.759,41.227,28.014,40.575C28.524,39.27,29.403,38.136,30.566,37.314C32.267,36.208,34.252,35.641,36.293,35.669L36.407,35.669L36.52,35.669C38.505,35.584,40.461,36.151,42.106,37.257C43.268,38.108,44.147,39.242,44.686,40.575C45.31,42.106,45.282,43.524,44.998,43.779C44.658,44.147,40.093,44.374,35.868,44.374L35.868,44.374ZM36.435,34.507C33.883,34.507,31.842,32.437,31.813,29.885C31.813,27.333,33.883,25.292,36.435,25.264C38.987,25.264,41.057,27.333,41.057,29.885C41.028,32.437,38.987,34.507,36.435,34.507L36.435,34.507ZM36.435,34.507"/>
</g>
  <g id="Medium-M" transform="matrix(1.0,0.0,0.0,1.0,1712.3973637135311,1055.3273832447812)">  <path stroke-linecap="butt" xmlns:xlink="http://www.w3.org/1999/xlink" fill-opacity="1" x="0px" fill="#000000" stroke-opacity="1" y="0px" version="1.1" stroke-linejoin="miter" xml:space="preserve" stroke-miterlimit="4" stroke-width="1px" stroke="none" fill-rule="nonzero" stroke-dasharray="none" d="M35.443,71.282C30.707,71.282,26.001,70.347,21.634,68.504C19.536,67.625,17.523,66.519,15.623,65.243C13.752,63.967,11.994,62.521,10.378,60.905C8.761,59.288,7.315,57.53,6.039,55.659C4.763,53.759,3.658,51.746,2.779,49.648C0.936,45.253,0,40.575,0,35.84C0,31.104,0.936,26.398,2.779,22.031C3.658,19.933,4.763,17.92,6.039,16.02C7.315,14.149,8.761,12.391,10.378,10.775C11.994,9.158,13.752,7.712,15.623,6.436C17.523,5.16,19.536,4.055,21.634,3.176C26.001,1.333,30.679,0.369,35.443,0.397C40.178,0.397,44.885,1.333,49.251,3.176C51.349,4.055,53.362,5.16,55.262,6.436C57.134,7.712,58.891,9.158,60.508,10.775C62.124,12.391,63.57,14.149,64.846,16.02C66.122,17.92,67.228,19.933,68.107,22.031C69.95,26.398,70.914,31.076,70.885,35.84C70.885,40.575,69.95,45.282,68.107,49.648C67.228,51.746,66.122,53.759,64.846,55.659C63.57,57.53,62.124,59.288,60.508,60.905C58.891,62.521,57.134,63.967,55.262,65.243C53.362,66.519,51.349,67.625,49.251,68.504C44.885,70.347,40.178,71.282,35.443,71.282ZM26.199,20.784C24.64,20.784,23.109,21.095,21.663,21.691C20.273,22.286,19.026,23.109,17.977,24.186C16.927,25.235,16.077,26.511,15.481,27.872C14.886,29.318,14.574,30.849,14.574,32.409L14.574,38.675C14.574,40.234,14.886,41.766,15.481,43.212C16.077,44.601,16.899,45.849,17.977,46.898C19.026,47.947,20.302,48.797,21.663,49.393C23.08,49.988,24.64,50.3,26.199,50.3L40.773,50.3C44.856,52.994,48.032,54.383,50.215,54.383C50.924,54.412,51.604,54.213,52.2,53.816C53.136,53.192,53.731,52.143,53.759,51.009C53.731,49.932,53.391,48.882,52.824,48.004C54.241,46.926,55.404,45.565,56.198,43.977C57.048,42.333,57.474,40.518,57.474,38.703L57.474,32.437C57.474,30.878,57.162,29.347,56.566,27.9C55.971,26.511,55.149,25.264,54.071,24.214C53.022,23.165,51.746,22.315,50.385,21.719C48.939,21.124,47.408,20.812,45.849,20.812L26.199,20.784ZM35.868,44.374C32.324,44.374,28.411,44.232,27.929,43.779C27.702,43.438,27.589,43.013,27.617,42.616C27.645,41.907,27.759,41.227,28.014,40.575C28.524,39.27,29.403,38.136,30.566,37.314C32.267,36.208,34.252,35.641,36.293,35.669L36.407,35.669L36.52,35.669C38.505,35.584,40.461,36.151,42.106,37.257C43.268,38.108,44.147,39.242,44.686,40.575C45.31,42.106,45.282,43.524,44.998,43.779C44.658,44.147,40.093,44.374,35.868,44.374L35.868,44.374ZM36.435,34.507C33.883,34.507,31.842,32.437,31.813,29.885C31.813,27.333,33.883,25.292,36.435,25.264C38.987,25.264,41.057,27.333,41.057,29.885C41.028,32.437,38.987,34.507,36.435,34.507L36.435,34.507ZM36.435,34.507"/>
</g>
  <g id="Regular-M" transform="matrix(1.0,0.0,0.0,1.0,1415.687363713531,1055.3273832447812)">  <path stroke-linecap="butt" x="0px" stroke-opacity="1" version="1.1" fill="#000000" y="0px" xmlns:xlink="http://www.w3.org/1999/xlink" fill-opacity="1" fill-rule="nonzero" xml:space="preserve" stroke-linejoin="miter" stroke-dasharray="none" stroke="none" stroke-miterlimit="4" stroke-width="1px" d="M35.443,71.282C30.707,71.282,26.001,70.347,21.634,68.504C19.536,67.625,17.523,66.519,15.623,65.243C13.752,63.967,11.994,62.521,10.378,60.905C8.761,59.288,7.315,57.53,6.039,55.659C4.763,53.759,3.658,51.746,2.779,49.648C0.936,45.253,0,40.575,0,35.84C0,31.104,0.936,26.398,2.779,22.031C3.658,19.933,4.763,17.92,6.039,16.02C7.315,14.149,8.761,12.391,10.378,10.775C11.994,9.158,13.752,7.712,15.623,6.436C17.523,5.16,19.536,4.055,21.634,3.176C26.001,1.333,30.679,0.369,35.443,0.397C40.178,0.397,44.885,1.333,49.251,3.176C51.349,4.055,53.362,5.16,55.262,6.436C57.134,7.712,58.891,9.158,60.508,10.775C62.124,12.391,63.57,14.149,64.846,16.02C66.122,17.92,67.228,19.933,68.107,22.031C69.95,26.398,70.914,31.076,70.885,35.84C70.885,40.575,69.95,45.282,68.107,49.648C67.228,51.746,66.122,53.759,64.846,55.659C63.57,57.53,62.124,59.288,60.508,60.905C58.891,62.521,57.134,63.967,55.262,65.243C53.362,66.519,51.349,67.625,49.251,68.504C44.885,70.347,40.178,71.282,35.443,71.282ZM26.199,20.784C24.64,20.784,23.109,21.095,21.663,21.691C20.273,22.286,19.026,23.109,17.977,24.186C16.927,25.235,16.077,26.511,15.481,27.872C14.886,29.318,14.574,30.849,14.574,32.409L14.574,38.675C14.574,40.234,14.886,41.766,15.481,43.212C16.077,44.601,16.899,45.849,17.977,46.898C19.026,47.947,20.302,48.797,21.663,49.393C23.08,49.988,24.64,50.3,26.199,50.3L40.773,50.3C44.856,52.994,48.032,54.383,50.215,54.383C50.924,54.412,51.604,54.213,52.2,53.816C53.136,53.192,53.731,52.143,53.759,51.009C53.731,49.932,53.391,48.882,52.824,48.004C54.241,46.926,55.404,45.565,56.198,43.977C57.048,42.333,57.474,40.518,57.474,38.703L57.474,32.437C57.474,30.878,57.162,29.347,56.566,27.9C55.971,26.511,55.149,25.264,54.071,24.214C53.022,23.165,51.746,22.315,50.385,21.719C48.939,21.124,47.408,20.812,45.849,20.812L26.199,20.784ZM35.868,44.374C32.324,44.374,28.411,44.232,27.929,43.779C27.702,43.438,27.589,43.013,27.617,42.616C27.645,41.907,27.759,41.227,28.014,40.575C28.524,39.27,29.403,38.136,30.566,37.314C32.267,36.208,34.252,35.641,36.293,35.669L36.407,35.669L36.52,35.669C38.505,35.584,40.461,36.151,42.106,37.257C43.268,38.108,44.147,39.242,44.686,40.575C45.31,42.106,45.282,43.524,44.998,43.779C44.658,44.147,40.093,44.374,35.868,44.374L35.868,44.374ZM36.435,34.507C33.883,34.507,31.842,32.437,31.813,29.885C31.813,27.333,33.883,25.292,36.435,25.264C38.987,25.264,41.057,27.333,41.057,29.885C41.028,32.437,38.987,34.507,36.435,34.507L36.435,34.507ZM36.435,34.507"/>
</g>
  <g id="Light-M" transform="matrix(1.0,0.0,0.0,1.0,1118.9773637135313,1055.3273832447812)">  <path stroke-linecap="butt" version="1.1" stroke-opacity="1" fill-opacity="1" x="0px" fill-rule="nonzero" xml:space="preserve" y="0px" stroke="none" fill="#000000" xmlns:xlink="http://www.w3.org/1999/xlink" stroke-linejoin="miter" stroke-width="1px" stroke-dasharray="none" stroke-miterlimit="4" d="M35.443,71.282C30.707,71.282,26.001,70.347,21.634,68.504C19.536,67.625,17.523,66.519,15.623,65.243C13.752,63.967,11.994,62.521,10.378,60.905C8.761,59.288,7.315,57.53,6.039,55.659C4.763,53.759,3.658,51.746,2.779,49.648C0.936,45.253,0,40.575,0,35.84C0,31.104,0.936,26.398,2.779,22.031C3.658,19.933,4.763,17.92,6.039,16.02C7.315,14.149,8.761,12.391,10.378,10.775C11.994,9.158,13.752,7.712,15.623,6.436C17.523,5.16,19.536,4.055,21.634,3.176C26.001,1.333,30.679,0.369,35.443,0.397C40.178,0.397,44.885,1.333,49.251,3.176C51.349,4.055,53.362,5.16,55.262,6.436C57.134,7.712,58.891,9.158,60.508,10.775C62.124,12.391,63.57,14.149,64.846,16.02C66.122,17.92,67.228,19.933,68.107,22.031C69.95,26.398,70.914,31.076,70.885,35.84C70.885,40.575,69.95,45.282,68.107,49.648C67.228,51.746,66.122,53.759,64.846,55.659C63.57,57.53,62.124,59.288,60.508,60.905C58.891,62.521,57.134,63.967,55.262,65.243C53.362,66.519,51.349,67.625,49.251,68.504C44.885,70.347,40.178,71.282,35.443,71.282ZM26.199,20.784C24.64,20.784,23.109,21.095,21.663,21.691C20.273,22.286,19.026,23.109,17.977,24.186C16.927,25.235,16.077,26.511,15.481,27.872C14.886,29.318,14.574,30.849,14.574,32.409L14.574,38.675C14.574,40.234,14.886,41.766,15.481,43.212C16.077,44.601,16.899,45.849,17.977,46.898C19.026,47.947,20.302,48.797,21.663,49.393C23.08,49.988,24.64,50.3,26.199,50.3L40.773,50.3C44.856,52.994,48.032,54.383,50.215,54.383C50.924,54.412,51.604,54.213,52.2,53.816C53.136,53.192,53.731,52.143,53.759,51.009C53.731,49.932,53.391,48.882,52.824,48.004C54.241,46.926,55.404,45.565,56.198,43.977C57.048,42.333,57.474,40.518,57.474,38.703L57.474,32.437C57.474,30.878,57.162,29.347,56.566,27.9C55.971,26.511,55.149,25.264,54.071,24.214C53.022,23.165,51.746,22.315,50.385,21.719C48.939,21.124,47.408,20.812,45.849,20.812L26.199,20.784ZM35.868,44.374C32.324,44.374,28.411,44.232,27.929,43.779C27.702,43.438,27.589,43.013,27.617,42.616C27.645,41.907,27.759,41.227,28.014,40.575C28.524,39.27,29.403,38.136,30.566,37.314C32.267,36.208,34.252,35.641,36.293,35.669L36.407,35.669L36.52,35.669C38.505,35.584,40.461,36.151,42.106,37.257C43.268,38.108,44.147,39.242,44.686,40.575C45.31,42.106,45.282,43.524,44.998,43.779C44.658,44.147,40.093,44.374,35.868,44.374L35.868,44.374ZM36.435,34.507C33.883,34.507,31.842,32.437,31.813,29.885C31.813,27.333,33.883,25.292,36.435,25.264C38.987,25.264,41.057,27.333,41.057,29.885C41.028,32.437,38.987,34.507,36.435,34.507L36.435,34.507ZM36.435,34.507"/>
</g>
  <g id="Thin-M" transform="matrix(1.0,0.0,0.0,1.0,822.2673637135313,1055.3273832447812)">  <path stroke="none" stroke-opacity="1" stroke-dasharray="none" xml:space="preserve" xmlns:xlink="http://www.w3.org/1999/xlink" fill-rule="nonzero" stroke-linecap="butt" stroke-linejoin="miter" fill-opacity="1" x="0px" stroke-width="1px" stroke-miterlimit="4" fill="#000000" y="0px" version="1.1" d="M35.443,71.282C30.707,71.282,26.001,70.347,21.634,68.504C19.536,67.625,17.523,66.519,15.623,65.243C13.752,63.967,11.994,62.521,10.378,60.905C8.761,59.288,7.315,57.53,6.039,55.659C4.763,53.759,3.658,51.746,2.779,49.648C0.936,45.253,0,40.575,0,35.84C0,31.104,0.936,26.398,2.779,22.031C3.658,19.933,4.763,17.92,6.039,16.02C7.315,14.149,8.761,12.391,10.378,10.775C11.994,9.158,13.752,7.712,15.623,6.436C17.523,5.16,19.536,4.055,21.634,3.176C26.001,1.333,30.679,0.369,35.443,0.397C40.178,0.397,44.885,1.333,49.251,3.176C51.349,4.055,53.362,5.16,55.262,6.436C57.134,7.712,58.891,9.158,60.508,10.775C62.124,12.391,63.57,14.149,64.846,16.02C66.122,17.92,67.228,19.933,68.107,22.031C69.95,26.398,70.914,31.076,70.885,35.84C70.885,40.575,69.95,45.282,68.107,49.648C67.228,51.746,66.122,53.759,64.846,55.659C63.57,57.53,62.124,59.288,60.508,60.905C58.891,62.521,57.134,63.967,55.262,65.243C53.362,66.519,51.349,67.625,49.251,68.504C44.885,70.347,40.178,71.282,35.443,71.282ZM26.199,20.784C24.64,20.784,23.109,21.095,21.663,21.691C20.273,22.286,19.026,23.109,17.977,24.186C16.927,25.235,16.077,26.511,15.481,27.872C14.886,29.318,14.574,30.849,14.574,32.409L14.574,38.675C14.574,40.234,14.886,41.766,15.481,43.212C16.077,44.601,16.899,45.849,17.977,46.898C19.026,47.947,20.302,48.797,21.663,49.393C23.08,49.988,24.64,50.3,26.199,50.3L40.773,50.3C44.856,52.994,48.032,54.383,50.215,54.383C50.924,54.412,51.604,54.213,52.2,53.816C53.136,53.192,53.731,52.143,53.759,51.009C53.731,49.932,53.391,48.882,52.824,48.004C54.241,46.926,55.404,45.565,56.198,43.977C57.048,42.333,57.474,40.518,57.474,38.703L57.474,32.437C57.474,30.878,57.162,29.347,56.566,27.9C55.971,26.511,55.149,25.264,54.071,24.214C53.022,23.165,51.746,22.315,50.385,21.719C48.939,21.124,47.408,20.812,45.849,20.812L26.199,20.784ZM35.868,44.374C32.324,44.374,28.411,44.232,27.929,43.779C27.702,43.438,27.589,43.013,27.617,42.616C27.645,41.907,27.759,41.227,28.014,40.575C28.524,39.27,29.403,38.136,30.566,37.314C32.267,36.208,34.252,35.641,36.293,35.669L36.407,35.669L36.52,35.669C38.505,35.584,40.461,36.151,42.106,37.257C43.268,38.108,44.147,39.242,44.686,40.575C45.31,42.106,45.282,43.524,44.998,43.779C44.658,44.147,40.093,44.374,35.868,44.374L35.868,44.374ZM36.435,34.507C33.883,34.507,31.842,32.437,31.813,29.885C31.813,27.333,33.883,25.292,36.435,25.264C38.987,25.264,41.057,27.333,41.057,29.885C41.028,32.437,38.987,34.507,36.435,34.507L36.435,34.507ZM36.435,34.507"/>
</g>
  <g id="Ultralight-M" transform="matrix(1.0,0.0,0.0,1.0,525.5573637135312,1055.3273832447812)">  <path stroke-linecap="butt" stroke-opacity="1" stroke-dasharray="none" fill-rule="nonzero" stroke-miterlimit="4" stroke-linejoin="miter" xml:space="preserve" stroke="none" x="0px" xmlns:xlink="http://www.w3.org/1999/xlink" version="1.1" fill="#000000" fill-opacity="1" y="0px" stroke-width="1px" d="M35.443,71.282C30.707,71.282,26.001,70.347,21.634,68.504C19.536,67.625,17.523,66.519,15.623,65.243C13.752,63.967,11.994,62.521,10.378,60.905C8.761,59.288,7.315,57.53,6.039,55.659C4.763,53.759,3.658,51.746,2.779,49.648C0.936,45.253,0,40.575,0,35.84C0,31.104,0.936,26.398,2.779,22.031C3.658,19.933,4.763,17.92,6.039,16.02C7.315,14.149,8.761,12.391,10.378,10.775C11.994,9.158,13.752,7.712,15.623,6.436C17.523,5.16,19.536,4.055,21.634,3.176C26.001,1.333,30.679,0.369,35.443,0.397C40.178,0.397,44.885,1.333,49.251,3.176C51.349,4.055,53.362,5.16,55.262,6.436C57.134,7.712,58.891,9.158,60.508,10.775C62.124,12.391,63.57,14.149,64.846,16.02C66.122,17.92,67.228,19.933,68.107,22.031C69.95,26.398,70.914,31.076,70.885,35.84C70.885,40.575,69.95,45.282,68.107,49.648C67.228,51.746,66.122,53.759,64.846,55.659C63.57,57.53,62.124,59.288,60.508,60.905C58.891,62.521,57.134,63.967,55.262,65.243C53.362,66.519,51.349,67.625,49.251,68.504C44.885,70.347,40.178,71.282,35.443,71.282ZM26.199,20.784C24.64,20.784,23.109,21.095,21.663,21.691C20.273,22.286,19.026,23.109,17.977,24.186C16.927,25.235,16.077,26.511,15.481,27.872C14.886,29.318,14.574,30.849,14.574,32.409L14.574,38.675C14.574,40.234,14.886,41.766,15.481,43.212C16.077,44.601,16.899,45.849,17.977,46.898C19.026,47.947,20.302,48.797,21.663,49.393C23.08,49.988,24.64,50.3,26.199,50.3L40.773,50.3C44.856,52.994,48.032,54.383,50.215,54.383C50.924,54.412,51.604,54.213,52.2,53.816C53.136,53.192,53.731,52.143,53.759,51.009C53.731,49.932,53.391,48.882,52.824,48.004C54.241,46.926,55.404,45.565,56.198,43.977C57.048,42.333,57.474,40.518,57.474,38.703L57.474,32.437C57.474,30.878,57.162,29.347,56.566,27.9C55.971,26.511,55.149,25.264,54.071,24.214C53.022,23.165,51.746,22.315,50.385,21.719C48.939,21.124,47.408,20.812,45.849,20.812L26.199,20.784ZM35.868,44.374C32.324,44.374,28.411,44.232,27.929,43.779C27.702,43.438,27.589,43.013,27.617,42.616C27.645,41.907,27.759,41.227,28.014,40.575C28.524,39.27,29.403,38.136,30.566,37.314C32.267,36.208,34.252,35.641,36.293,35.669L36.407,35.669L36.52,35.669C38.505,35.584,40.461,36.151,42.106,37.257C43.268,38.108,44.147,39.242,44.686,40.575C45.31,42.106,45.282,43.524,44.998,43.779C44.658,44.147,40.093,44.374,35.868,44.374L35.868,44.374ZM36.435,34.507C33.883,34.507,31.842,32.437,31.813,29.885C31.813,27.333,33.883,25.292,36.435,25.264C38.987,25.264,41.057,27.333,41.057,29.885C41.028,32.437,38.987,34.507,36.435,34.507L36.435,34.507ZM36.435,34.507"/>
</g>
  <g id="Black-S" transform="matrix(1.0,0.0,0.0,1.0,2906.9284157876946,633.018435318945)">  <path stroke-opacity="1" stroke-dasharray="none" fill-opacity="1" stroke-linecap="butt" version="1.1" fill-rule="nonzero" xml:space="preserve" xmlns:xlink="http://www.w3.org/1999/xlink" stroke-linejoin="miter" y="0px" stroke-miterlimit="4" stroke-width="1px" x="0px" fill="#000000" stroke="none" d="M27.752,55.814C24.044,55.814,20.359,55.081,16.94,53.638C15.297,52.95,13.72,52.084,12.233,51.085C10.768,50.086,9.391,48.954,8.126,47.688C6.86,46.423,5.728,45.046,4.729,43.581C3.73,42.094,2.864,40.517,2.176,38.874C0.733,35.433,0,31.77,0,28.062C0,24.355,0.733,20.669,2.176,17.25C2.864,15.607,3.73,14.031,4.729,12.544C5.728,11.078,6.86,9.702,8.126,8.436C9.391,7.171,10.768,6.039,12.233,5.04C13.72,4.041,15.297,3.175,16.94,2.487C20.359,1.043,24.022,0.289,27.752,0.311C31.459,0.311,35.145,1.043,38.564,2.487C40.206,3.175,41.783,4.041,43.27,5.04C44.736,6.039,46.112,7.171,47.378,8.436C48.643,9.702,49.775,11.078,50.774,12.544C51.773,14.031,52.639,15.607,53.327,17.25C54.771,20.669,55.525,24.333,55.503,28.062C55.503,31.77,54.771,35.455,53.327,38.874C52.639,40.517,51.773,42.094,50.774,43.581C49.775,45.046,48.643,46.423,47.378,47.688C46.112,48.954,44.736,50.086,43.27,51.085C41.783,52.084,40.206,52.95,38.564,53.638C35.145,55.081,31.459,55.814,27.752,55.814ZM20.514,16.274C19.293,16.274,18.094,16.518,16.962,16.984C15.874,17.45,14.897,18.094,14.076,18.938C13.254,19.759,12.588,20.758,12.122,21.824C11.656,22.956,11.411,24.155,11.411,25.376L11.411,30.283C11.411,31.504,11.656,32.702,12.122,33.835C12.588,34.923,13.232,35.899,14.076,36.721C14.897,37.542,15.896,38.208,16.962,38.675C18.072,39.141,19.293,39.385,20.514,39.385L31.925,39.385C35.122,41.494,37.609,42.582,39.318,42.582C39.873,42.604,40.406,42.449,40.873,42.138C41.605,41.65,42.071,40.828,42.094,39.94C42.071,39.096,41.805,38.275,41.361,37.587C42.471,36.743,43.381,35.677,44.003,34.434C44.669,33.146,45.002,31.726,45.002,30.305L45.002,25.398C45.002,24.177,44.758,22.978,44.292,21.846C43.825,20.758,43.181,19.781,42.338,18.96C41.516,18.138,40.517,17.472,39.452,17.006C38.319,16.54,37.121,16.296,35.899,16.296L20.514,16.274ZM28.085,34.745C25.309,34.745,22.246,34.634,21.868,34.279C21.691,34.012,21.602,33.679,21.624,33.369C21.646,32.813,21.735,32.281,21.935,31.77C22.334,30.749,23.023,29.861,23.933,29.217C25.265,28.351,26.819,27.907,28.418,27.929L28.506,27.929L28.595,27.929C30.149,27.863,31.681,28.307,32.969,29.172C33.879,29.839,34.567,30.727,34.989,31.77C35.478,32.969,35.455,34.079,35.233,34.279C34.967,34.567,31.393,34.745,28.085,34.745L28.085,34.745ZM28.529,27.019C26.531,27.019,24.932,25.398,24.91,23.4C24.91,21.402,26.531,19.804,28.529,19.781C30.527,19.781,32.147,21.402,32.147,23.4C32.125,25.398,30.527,27.019,28.529,27.019L28.529,27.019ZM28.529,27.019"/>
</g>
  <g id="Heavy-S" transform="matrix(1.0,0.0,0.0,1.0,2610.2184157876945,633.018435318945)">  <path stroke-linecap="butt" stroke-dasharray="none" version="1.1" stroke-linejoin="miter" stroke-miterlimit="4" x="0px" stroke-opacity="1" y="0px" fill-opacity="1" fill-rule="nonzero" xmlns:xlink="http://www.w3.org/1999/xlink" stroke-width="1px" xml:space="preserve" fill="#000000" stroke="none" d="M27.752,55.814C24.044,55.814,20.359,55.081,16.94,53.638C15.297,52.95,13.72,52.084,12.233,51.085C10.768,50.086,9.391,48.954,8.126,47.688C6.86,46.423,5.728,45.046,4.729,43.581C3.73,42.094,2.864,40.517,2.176,38.874C0.733,35.433,0,31.77,0,28.062C0,24.355,0.733,20.669,2.176,17.25C2.864,15.607,3.73,14.031,4.729,12.544C5.728,11.078,6.86,9.702,8.126,8.436C9.391,7.171,10.768,6.039,12.233,5.04C13.72,4.041,15.297,3.175,16.94,2.487C20.359,1.043,24.022,0.289,27.752,0.311C31.459,0.311,35.145,1.043,38.564,2.487C40.206,3.175,41.783,4.041,43.27,5.04C44.736,6.039,46.112,7.171,47.378,8.436C48.643,9.702,49.775,11.078,50.774,12.544C51.773,14.031,52.639,15.607,53.327,17.25C54.771,20.669,55.525,24.333,55.503,28.062C55.503,31.77,54.771,35.455,53.327,38.874C52.639,40.517,51.773,42.094,50.774,43.581C49.775,45.046,48.643,46.423,47.378,47.688C46.112,48.954,44.736,50.086,43.27,51.085C41.783,52.084,40.206,52.95,38.564,53.638C35.145,55.081,31.459,55.814,27.752,55.814ZM20.514,16.274C19.293,16.274,18.094,16.518,16.962,16.984C15.874,17.45,14.897,18.094,14.076,18.938C13.254,19.759,12.588,20.758,12.122,21.824C11.656,22.956,11.411,24.155,11.411,25.376L11.411,30.283C11.411,31.504,11.656,32.702,12.122,33.835C12.588,34.923,13.232,35.899,14.076,36.721C14.897,37.542,15.896,38.208,16.962,38.675C18.072,39.141,19.293,39.385,20.514,39.385L31.925,39.385C35.122,41.494,37.609,42.582,39.318,42.582C39.873,42.604,40.406,42.449,40.873,42.138C41.605,41.65,42.071,40.828,42.094,39.94C42.071,39.096,41.805,38.275,41.361,37.587C42.471,36.743,43.381,35.677,44.003,34.434C44.669,33.146,45.002,31.726,45.002,30.305L45.002,25.398C45.002,24.177,44.758,22.978,44.292,21.846C43.825,20.758,43.181,19.781,42.338,18.96C41.516,18.138,40.517,17.472,39.452,17.006C38.319,16.54,37.121,16.296,35.899,16.296L20.514,16.274ZM28.085,34.745C25.309,34.745,22.246,34.634,21.868,34.279C21.691,34.012,21.602,33.679,21.624,33.369C21.646,32.813,21.735,32.281,21.935,31.77C22.334,30.749,23.023,29.861,23.933,29.217C25.265,28.351,26.819,27.907,28.418,27.929L28.506,27.929L28.595,27.929C30.149,27.863,31.681,28.307,32.969,29.172C33.879,29.839,34.567,30.727,34.989,31.77C35.478,32.969,35.455,34.079,35.233,34.279C34.967,34.567,31.393,34.745,28.085,34.745L28.085,34.745ZM28.529,27.019C26.531,27.019,24.932,25.398,24.91,23.4C24.91,21.402,26.531,19.804,28.529,19.781C30.527,19.781,32.147,21.402,32.147,23.4C32.125,25.398,30.527,27.019,28.529,27.019L28.529,27.019ZM28.529,27.019"/>
</g>
  <g id="Bold-S" transform="matrix(1.0,0.0,0.0,1.0,2313.5084157876945,633.018435318945)">  <path x="0px" stroke-miterlimit="4" y="0px" fill-opacity="1" version="1.1" fill="#000000" stroke-linecap="butt" stroke-opacity="1" stroke-dasharray="none" fill-rule="nonzero" xml:space="preserve" stroke="none" stroke-linejoin="miter" xmlns:xlink="http://www.w3.org/1999/xlink" stroke-width="1px" d="M27.752,55.814C24.044,55.814,20.359,55.081,16.94,53.638C15.297,52.95,13.72,52.084,12.233,51.085C10.768,50.086,9.391,48.954,8.126,47.688C6.86,46.423,5.728,45.046,4.729,43.581C3.73,42.094,2.864,40.517,2.176,38.874C0.733,35.433,0,31.77,0,28.062C0,24.355,0.733,20.669,2.176,17.25C2.864,15.607,3.73,14.031,4.729,12.544C5.728,11.078,6.86,9.702,8.126,8.436C9.391,7.171,10.768,6.039,12.233,5.04C13.72,4.041,15.297,3.175,16.94,2.487C20.359,1.043,24.022,0.289,27.752,0.311C31.459,0.311,35.145,1.043,38.564,2.487C40.206,3.175,41.783,4.041,43.27,5.04C44.736,6.039,46.112,7.171,47.378,8.436C48.643,9.702,49.775,11.078,50.774,12.544C51.773,14.031,52.639,15.607,53.327,17.25C54.771,20.669,55.525,24.333,55.503,28.062C55.503,31.77,54.771,35.455,53.327,38.874C52.639,40.517,51.773,42.094,50.774,43.581C49.775,45.046,48.643,46.423,47.378,47.688C46.112,48.954,44.736,50.086,43.27,51.085C41.783,52.084,40.206,52.95,38.564,53.638C35.145,55.081,31.459,55.814,27.752,55.814ZM20.514,16.274C19.293,16.274,18.094,16.518,16.962,16.984C15.874,17.45,14.897,18.094,14.076,18.938C13.254,19.759,12.588,20.758,12.122,21.824C11.656,22.956,11.411,24.155,11.411,25.376L11.411,30.283C11.411,31.504,11.656,32.702,12.122,33.835C12.588,34.923,13.232,35.899,14.076,36.721C14.897,37.542,15.896,38.208,16.962,38.675C18.072,39.141,19.293,39.385,20.514,39.385L31.925,39.385C35.122,41.494,37.609,42.582,39.318,42.582C39.873,42.604,40.406,42.449,40.873,42.138C41.605,41.65,42.071,40.828,42.094,39.94C42.071,39.096,41.805,38.275,41.361,37.587C42.471,36.743,43.381,35.677,44.003,34.434C44.669,33.146,45.002,31.726,45.002,30.305L45.002,25.398C45.002,24.177,44.758,22.978,44.292,21.846C43.825,20.758,43.181,19.781,42.338,18.96C41.516,18.138,40.517,17.472,39.452,17.006C38.319,16.54,37.121,16.296,35.899,16.296L20.514,16.274ZM28.085,34.745C25.309,34.745,22.246,34.634,21.868,34.279C21.691,34.012,21.602,33.679,21.624,33.369C21.646,32.813,21.735,32.281,21.935,31.77C22.334,30.749,23.023,29.861,23.933,29.217C25.265,28.351,26.819,27.907,28.418,27.929L28.506,27.929L28.595,27.929C30.149,27.863,31.681,28.307,32.969,29.172C33.879,29.839,34.567,30.727,34.989,31.77C35.478,32.969,35.455,34.079,35.233,34.279C34.967,34.567,31.393,34.745,28.085,34.745L28.085,34.745ZM28.529,27.019C26.531,27.019,24.932,25.398,24.91,23.4C24.91,21.402,26.531,19.804,28.529,19.781C30.527,19.781,32.147,21.402,32.147,23.4C32.125,25.398,30.527,27.019,28.529,27.019L28.529,27.019ZM28.529,27.019"/>
</g>
  <g id="Semibold-S" transform="matrix(1.0,0.0,0.0,1.0,2016.798415787695,633.018435318945)">  <path version="1.1" stroke-width="1px" stroke-dasharray="none" xmlns:xlink="http://www.w3.org/1999/xlink" fill="#000000" stroke-opacity="1" y="0px" fill-opacity="1" stroke-linecap="butt" stroke-miterlimit="4" xml:space="preserve" x="0px" fill-rule="nonzero" stroke="none" stroke-linejoin="miter" d="M27.752,55.814C24.044,55.814,20.359,55.081,16.94,53.638C15.297,52.95,13.72,52.084,12.233,51.085C10.768,50.086,9.391,48.954,8.126,47.688C6.86,46.423,5.728,45.046,4.729,43.581C3.73,42.094,2.864,40.517,2.176,38.874C0.733,35.433,0,31.77,0,28.062C0,24.355,0.733,20.669,2.176,17.25C2.864,15.607,3.73,14.031,4.729,12.544C5.728,11.078,6.86,9.702,8.126,8.436C9.391,7.171,10.768,6.039,12.233,5.04C13.72,4.041,15.297,3.175,16.94,2.487C20.359,1.043,24.022,0.289,27.752,0.311C31.459,0.311,35.145,1.043,38.564,2.487C40.206,3.175,41.783,4.041,43.27,5.04C44.736,6.039,46.112,7.171,47.378,8.436C48.643,9.702,49.775,11.078,50.774,12.544C51.773,14.031,52.639,15.607,53.327,17.25C54.771,20.669,55.525,24.333,55.503,28.062C55.503,31.77,54.771,35.455,53.327,38.874C52.639,40.517,51.773,42.094,50.774,43.581C49.775,45.046,48.643,46.423,47.378,47.688C46.112,48.954,44.736,50.086,43.27,51.085C41.783,52.084,40.206,52.95,38.564,53.638C35.145,55.081,31.459,55.814,27.752,55.814ZM20.514,16.274C19.293,16.274,18.094,16.518,16.962,16.984C15.874,17.45,14.897,18.094,14.076,18.938C13.254,19.759,12.588,20.758,12.122,21.824C11.656,22.956,11.411,24.155,11.411,25.376L11.411,30.283C11.411,31.504,11.656,32.702,12.122,33.835C12.588,34.923,13.232,35.899,14.076,36.721C14.897,37.542,15.896,38.208,16.962,38.675C18.072,39.141,19.293,39.385,20.514,39.385L31.925,39.385C35.122,41.494,37.609,42.582,39.318,42.582C39.873,42.604,40.406,42.449,40.873,42.138C41.605,41.65,42.071,40.828,42.094,39.94C42.071,39.096,41.805,38.275,41.361,37.587C42.471,36.743,43.381,35.677,44.003,34.434C44.669,33.146,45.002,31.726,45.002,30.305L45.002,25.398C45.002,24.177,44.758,22.978,44.292,21.846C43.825,20.758,43.181,19.781,42.338,18.96C41.516,18.138,40.517,17.472,39.452,17.006C38.319,16.54,37.121,16.296,35.899,16.296L20.514,16.274ZM28.085,34.745C25.309,34.745,22.246,34.634,21.868,34.279C21.691,34.012,21.602,33.679,21.624,33.369C21.646,32.813,21.735,32.281,21.935,31.77C22.334,30.749,23.023,29.861,23.933,29.217C25.265,28.351,26.819,27.907,28.418,27.929L28.506,27.929L28.595,27.929C30.149,27.863,31.681,28.307,32.969,29.172C33.879,29.839,34.567,30.727,34.989,31.77C35.478,32.969,35.455,34.079,35.233,34.279C34.967,34.567,31.393,34.745,28.085,34.745L28.085,34.745ZM28.529,27.019C26.531,27.019,24.932,25.398,24.91,23.4C24.91,21.402,26.531,19.804,28.529,19.781C30.527,19.781,32.147,21.402,32.147,23.4C32.125,25.398,30.527,27.019,28.529,27.019L28.529,27.019ZM28.529,27.019"/>
</g>
  <g id="Medium-S" transform="matrix(1.0,0.0,0.0,1.0,1720.0884157876949,633.018435318945)">  <path stroke-linecap="butt" xmlns:xlink="http://www.w3.org/1999/xlink" fill-opacity="1" x="0px" fill="#000000" stroke-opacity="1" y="0px" version="1.1" stroke-linejoin="miter" xml:space="preserve" stroke-miterlimit="4" stroke-width="1px" stroke="none" fill-rule="nonzero" stroke-dasharray="none" d="M27.752,55.814C24.044,55.814,20.359,55.081,16.94,53.638C15.297,52.95,13.72,52.084,12.233,51.085C10.768,50.086,9.391,48.954,8.126,47.688C6.86,46.423,5.728,45.046,4.729,43.581C3.73,42.094,2.864,40.517,2.176,38.874C0.733,35.433,0,31.77,0,28.062C0,24.355,0.733,20.669,2.176,17.25C2.864,15.607,3.73,14.031,4.729,12.544C5.728,11.078,6.86,9.702,8.126,8.436C9.391,7.171,10.768,6.039,12.233,5.04C13.72,4.041,15.297,3.175,16.94,2.487C20.359,1.043,24.022,0.289,27.752,0.311C31.459,0.311,35.145,1.043,38.564,2.487C40.206,3.175,41.783,4.041,43.27,5.04C44.736,6.039,46.112,7.171,47.378,8.436C48.643,9.702,49.775,11.078,50.774,12.544C51.773,14.031,52.639,15.607,53.327,17.25C54.771,20.669,55.525,24.333,55.503,28.062C55.503,31.77,54.771,35.455,53.327,38.874C52.639,40.517,51.773,42.094,50.774,43.581C49.775,45.046,48.643,46.423,47.378,47.688C46.112,48.954,44.736,50.086,43.27,51.085C41.783,52.084,40.206,52.95,38.564,53.638C35.145,55.081,31.459,55.814,27.752,55.814ZM20.514,16.274C19.293,16.274,18.094,16.518,16.962,16.984C15.874,17.45,14.897,18.094,14.076,18.938C13.254,19.759,12.588,20.758,12.122,21.824C11.656,22.956,11.411,24.155,11.411,25.376L11.411,30.283C11.411,31.504,11.656,32.702,12.122,33.835C12.588,34.923,13.232,35.899,14.076,36.721C14.897,37.542,15.896,38.208,16.962,38.675C18.072,39.141,19.293,39.385,20.514,39.385L31.925,39.385C35.122,41.494,37.609,42.582,39.318,42.582C39.873,42.604,40.406,42.449,40.873,42.138C41.605,41.65,42.071,40.828,42.094,39.94C42.071,39.096,41.805,38.275,41.361,37.587C42.471,36.743,43.381,35.677,44.003,34.434C44.669,33.146,45.002,31.726,45.002,30.305L45.002,25.398C45.002,24.177,44.758,22.978,44.292,21.846C43.825,20.758,43.181,19.781,42.338,18.96C41.516,18.138,40.517,17.472,39.452,17.006C38.319,16.54,37.121,16.296,35.899,16.296L20.514,16.274ZM28.085,34.745C25.309,34.745,22.246,34.634,21.868,34.279C21.691,34.012,21.602,33.679,21.624,33.369C21.646,32.813,21.735,32.281,21.935,31.77C22.334,30.749,23.023,29.861,23.933,29.217C25.265,28.351,26.819,27.907,28.418,27.929L28.506,27.929L28.595,27.929C30.149,27.863,31.681,28.307,32.969,29.172C33.879,29.839,34.567,30.727,34.989,31.77C35.478,32.969,35.455,34.079,35.233,34.279C34.967,34.567,31.393,34.745,28.085,34.745L28.085,34.745ZM28.529,27.019C26.531,27.019,24.932,25.398,24.91,23.4C24.91,21.402,26.531,19.804,28.529,19.781C30.527,19.781,32.147,21.402,32.147,23.4C32.125,25.398,30.527,27.019,28.529,27.019L28.529,27.019ZM28.529,27.019"/>
</g>
  <g id="Regular-S" transform="matrix(1.0,0.0,0.0,1.0,1423.3784157876948,633.018435318945)">  <path stroke-linecap="butt" x="0px" stroke-opacity="1" version="1.1" fill="#000000" y="0px" xmlns:xlink="http://www.w3.org/1999/xlink" fill-opacity="1" fill-rule="nonzero" xml:space="preserve" stroke-linejoin="miter" stroke-dasharray="none" stroke="none" stroke-miterlimit="4" stroke-width="1px" d="M27.752,55.814C24.044,55.814,20.359,55.081,16.94,53.638C15.297,52.95,13.72,52.084,12.233,51.085C10.768,50.086,9.391,48.954,8.126,47.688C6.86,46.423,5.728,45.046,4.729,43.581C3.73,42.094,2.864,40.517,2.176,38.874C0.733,35.433,0,31.77,0,28.062C0,24.355,0.733,20.669,2.176,17.25C2.864,15.607,3.73,14.031,4.729,12.544C5.728,11.078,6.86,9.702,8.126,8.436C9.391,7.171,10.768,6.039,12.233,5.04C13.72,4.041,15.297,3.175,16.94,2.487C20.359,1.043,24.022,0.289,27.752,0.311C31.459,0.311,35.145,1.043,38.564,2.487C40.206,3.175,41.783,4.041,43.27,5.04C44.736,6.039,46.112,7.171,47.378,8.436C48.643,9.702,49.775,11.078,50.774,12.544C51.773,14.031,52.639,15.607,53.327,17.25C54.771,20.669,55.525,24.333,55.503,28.062C55.503,31.77,54.771,35.455,53.327,38.874C52.639,40.517,51.773,42.094,50.774,43.581C49.775,45.046,48.643,46.423,47.378,47.688C46.112,48.954,44.736,50.086,43.27,51.085C41.783,52.084,40.206,52.95,38.564,53.638C35.145,55.081,31.459,55.814,27.752,55.814ZM20.514,16.274C19.293,16.274,18.094,16.518,16.962,16.984C15.874,17.45,14.897,18.094,14.076,18.938C13.254,19.759,12.588,20.758,12.122,21.824C11.656,22.956,11.411,24.155,11.411,25.376L11.411,30.283C11.411,31.504,11.656,32.702,12.122,33.835C12.588,34.923,13.232,35.899,14.076,36.721C14.897,37.542,15.896,38.208,16.962,38.675C18.072,39.141,19.293,39.385,20.514,39.385L31.925,39.385C35.122,41.494,37.609,42.582,39.318,42.582C39.873,42.604,40.406,42.449,40.873,42.138C41.605,41.65,42.071,40.828,42.094,39.94C42.071,39.096,41.805,38.275,41.361,37.587C42.471,36.743,43.381,35.677,44.003,34.434C44.669,33.146,45.002,31.726,45.002,30.305L45.002,25.398C45.002,24.177,44.758,22.978,44.292,21.846C43.825,20.758,43.181,19.781,42.338,18.96C41.516,18.138,40.517,17.472,39.452,17.006C38.319,16.54,37.121,16.296,35.899,16.296L20.514,16.274ZM28.085,34.745C25.309,34.745,22.246,34.634,21.868,34.279C21.691,34.012,21.602,33.679,21.624,33.369C21.646,32.813,21.735,32.281,21.935,31.77C22.334,30.749,23.023,29.861,23.933,29.217C25.265,28.351,26.819,27.907,28.418,27.929L28.506,27.929L28.595,27.929C30.149,27.863,31.681,28.307,32.969,29.172C33.879,29.839,34.567,30.727,34.989,31.77C35.478,32.969,35.455,34.079,35.233,34.279C34.967,34.567,31.393,34.745,28.085,34.745L28.085,34.745ZM28.529,27.019C26.531,27.019,24.932,25.398,24.91,23.4C24.91,21.402,26.531,19.804,28.529,19.781C30.527,19.781,32.147,21.402,32.147,23.4C32.125,25.398,30.527,27.019,28.529,27.019L28.529,27.019ZM28.529,27.019"/>
</g>
  <g id="Light-S" transform="matrix(1.0,0.0,0.0,1.0,1126.668415787695,633.018435318945)">  <path stroke-linecap="butt" version="1.1" stroke-opacity="1" fill-opacity="1" x="0px" fill-rule="nonzero" xml:space="preserve" y="0px" stroke="none" fill="#000000" xmlns:xlink="http://www.w3.org/1999/xlink" stroke-linejoin="miter" stroke-width="1px" stroke-dasharray="none" stroke-miterlimit="4" d="M27.752,55.814C24.044,55.814,20.359,55.081,16.94,53.638C15.297,52.95,13.72,52.084,12.233,51.085C10.768,50.086,9.391,48.954,8.126,47.688C6.86,46.423,5.728,45.046,4.729,43.581C3.73,42.094,2.864,40.517,2.176,38.874C0.733,35.433,0,31.77,0,28.062C0,24.355,0.733,20.669,2.176,17.25C2.864,15.607,3.73,14.031,4.729,12.544C5.728,11.078,6.86,9.702,8.126,8.436C9.391,7.171,10.768,6.039,12.233,5.04C13.72,4.041,15.297,3.175,16.94,2.487C20.359,1.043,24.022,0.289,27.752,0.311C31.459,0.311,35.145,1.043,38.564,2.487C40.206,3.175,41.783,4.041,43.27,5.04C44.736,6.039,46.112,7.171,47.378,8.436C48.643,9.702,49.775,11.078,50.774,12.544C51.773,14.031,52.639,15.607,53.327,17.25C54.771,20.669,55.525,24.333,55.503,28.062C55.503,31.77,54.771,35.455,53.327,38.874C52.639,40.517,51.773,42.094,50.774,43.581C49.775,45.046,48.643,46.423,47.378,47.688C46.112,48.954,44.736,50.086,43.27,51.085C41.783,52.084,40.206,52.95,38.564,53.638C35.145,55.081,31.459,55.814,27.752,55.814ZM20.514,16.274C19.293,16.274,18.094,16.518,16.962,16.984C15.874,17.45,14.897,18.094,14.076,18.938C13.254,19.759,12.588,20.758,12.122,21.824C11.656,22.956,11.411,24.155,11.411,25.376L11.411,30.283C11.411,31.504,11.656,32.702,12.122,33.835C12.588,34.923,13.232,35.899,14.076,36.721C14.897,37.542,15.896,38.208,16.962,38.675C18.072,39.141,19.293,39.385,20.514,39.385L31.925,39.385C35.122,41.494,37.609,42.582,39.318,42.582C39.873,42.604,40.406,42.449,40.873,42.138C41.605,41.65,42.071,40.828,42.094,39.94C42.071,39.096,41.805,38.275,41.361,37.587C42.471,36.743,43.381,35.677,44.003,34.434C44.669,33.146,45.002,31.726,45.002,30.305L45.002,25.398C45.002,24.177,44.758,22.978,44.292,21.846C43.825,20.758,43.181,19.781,42.338,18.96C41.516,18.138,40.517,17.472,39.452,17.006C38.319,16.54,37.121,16.296,35.899,16.296L20.514,16.274ZM28.085,34.745C25.309,34.745,22.246,34.634,21.868,34.279C21.691,34.012,21.602,33.679,21.624,33.369C21.646,32.813,21.735,32.281,21.935,31.77C22.334,30.749,23.023,29.861,23.933,29.217C25.265,28.351,26.819,27.907,28.418,27.929L28.506,27.929L28.595,27.929C30.149,27.863,31.681,28.307,32.969,29.172C33.879,29.839,34.567,30.727,34.989,31.77C35.478,32.969,35.455,34.079,35.233,34.279C34.967,34.567,31.393,34.745,28.085,34.745L28.085,34.745ZM28.529,27.019C26.531,27.019,24.932,25.398,24.91,23.4C24.91,21.402,26.531,19.804,28.529,19.781C30.527,19.781,32.147,21.402,32.147,23.4C32.125,25.398,30.527,27.019,28.529,27.019L28.529,27.019ZM28.529,27.019"/>
</g>
  <g id="Thin-S" transform="matrix(1.0,0.0,0.0,1.0,829.958415787695,633.018435318945)">  <path stroke="none" stroke-opacity="1" stroke-dasharray="none" xml:space="preserve" xmlns:xlink="http://www.w3.org/1999/xlink" fill-rule="nonzero" stroke-linecap="butt" stroke-linejoin="miter" fill-opacity="1" x="0px" stroke-width="1px" stroke-miterlimit="4" fill="#000000" y="0px" version="1.1" d="M27.752,55.814C24.044,55.814,20.359,55.081,16.94,53.638C15.297,52.95,13.72,52.084,12.233,51.085C10.768,50.086,9.391,48.954,8.126,47.688C6.86,46.423,5.728,45.046,4.729,43.581C3.73,42.094,2.864,40.517,2.176,38.874C0.733,35.433,0,31.77,0,28.062C0,24.355,0.733,20.669,2.176,17.25C2.864,15.607,3.73,14.031,4.729,12.544C5.728,11.078,6.86,9.702,8.126,8.436C9.391,7.171,10.768,6.039,12.233,5.04C13.72,4.041,15.297,3.175,16.94,2.487C20.359,1.043,24.022,0.289,27.752,0.311C31.459,0.311,35.145,1.043,38.564,2.487C40.206,3.175,41.783,4.041,43.27,5.04C44.736,6.039,46.112,7.171,47.378,8.436C48.643,9.702,49.775,11.078,50.774,12.544C51.773,14.031,52.639,15.607,53.327,17.25C54.771,20.669,55.525,24.333,55.503,28.062C55.503,31.77,54.771,35.455,53.327,38.874C52.639,40.517,51.773,42.094,50.774,43.581C49.775,45.046,48.643,46.423,47.378,47.688C46.112,48.954,44.736,50.086,43.27,51.085C41.783,52.084,40.206,52.95,38.564,53.638C35.145,55.081,31.459,55.814,27.752,55.814ZM20.514,16.274C19.293,16.274,18.094,16.518,16.962,16.984C15.874,17.45,14.897,18.094,14.076,18.938C13.254,19.759,12.588,20.758,12.122,21.824C11.656,22.956,11.411,24.155,11.411,25.376L11.411,30.283C11.411,31.504,11.656,32.702,12.122,33.835C12.588,34.923,13.232,35.899,14.076,36.721C14.897,37.542,15.896,38.208,16.962,38.675C18.072,39.141,19.293,39.385,20.514,39.385L31.925,39.385C35.122,41.494,37.609,42.582,39.318,42.582C39.873,42.604,40.406,42.449,40.873,42.138C41.605,41.65,42.071,40.828,42.094,39.94C42.071,39.096,41.805,38.275,41.361,37.587C42.471,36.743,43.381,35.677,44.003,34.434C44.669,33.146,45.002,31.726,45.002,30.305L45.002,25.398C45.002,24.177,44.758,22.978,44.292,21.846C43.825,20.758,43.181,19.781,42.338,18.96C41.516,18.138,40.517,17.472,39.452,17.006C38.319,16.54,37.121,16.296,35.899,16.296L20.514,16.274ZM28.085,34.745C25.309,34.745,22.246,34.634,21.868,34.279C21.691,34.012,21.602,33.679,21.624,33.369C21.646,32.813,21.735,32.281,21.935,31.77C22.334,30.749,23.023,29.861,23.933,29.217C25.265,28.351,26.819,27.907,28.418,27.929L28.506,27.929L28.595,27.929C30.149,27.863,31.681,28.307,32.969,29.172C33.879,29.839,34.567,30.727,34.989,31.77C35.478,32.969,35.455,34.079,35.233,34.279C34.967,34.567,31.393,34.745,28.085,34.745L28.085,34.745ZM28.529,27.019C26.531,27.019,24.932,25.398,24.91,23.4C24.91,21.402,26.531,19.804,28.529,19.781C30.527,19.781,32.147,21.402,32.147,23.4C32.125,25.398,30.527,27.019,28.529,27.019L28.529,27.019ZM28.529,27.019"/>
</g>
  <g id="Ultralight-S" transform="matrix(1.0,0.0,0.0,1.0,533.248415787695,633.018435318945)">  <path stroke-linecap="butt" stroke-opacity="1" stroke-dasharray="none" fill-rule="nonzero" stroke-miterlimit="4" stroke-linejoin="miter" xml:space="preserve" stroke="none" x="0px" xmlns:xlink="http://www.w3.org/1999/xlink" version="1.1" fill="#000000" fill-opacity="1" y="0px" stroke-width="1px" d="M27.752,55.814C24.044,55.814,20.359,55.081,16.94,53.638C15.297,52.95,13.72,52.084,12.233,51.085C10.768,50.086,9.391,48.954,8.126,47.688C6.86,46.423,5.728,45.046,4.729,43.581C3.73,42.094,2.864,40.517,2.176,38.874C0.733,35.433,0,31.77,0,28.062C0,24.355,0.733,20.669,2.176,17.25C2.864,15.607,3.73,14.031,4.729,12.544C5.728,11.078,6.86,9.702,8.126,8.436C9.391,7.171,10.768,6.039,12.233,5.04C13.72,4.041,15.297,3.175,16.94,2.487C20.359,1.043,24.022,0.289,27.752,0.311C31.459,0.311,35.145,1.043,38.564,2.487C40.206,3.175,41.783,4.041,43.27,5.04C44.736,6.039,46.112,7.171,47.378,8.436C48.643,9.702,49.775,11.078,50.774,12.544C51.773,14.031,52.639,15.607,53.327,17.25C54.771,20.669,55.525,24.333,55.503,28.062C55.503,31.77,54.771,35.455,53.327,38.874C52.639,40.517,51.773,42.094,50.774,43.581C49.775,45.046,48.643,46.423,47.378,47.688C46.112,48.954,44.736,50.086,43.27,51.085C41.783,52.084,40.206,52.95,38.564,53.638C35.145,55.081,31.459,55.814,27.752,55.814ZM20.514,16.274C19.293,16.274,18.094,16.518,16.962,16.984C15.874,17.45,14.897,18.094,14.076,18.938C13.254,19.759,12.588,20.758,12.122,21.824C11.656,22.956,11.411,24.155,11.411,25.376L11.411,30.283C11.411,31.504,11.656,32.702,12.122,33.835C12.588,34.923,13.232,35.899,14.076,36.721C14.897,37.542,15.896,38.208,16.962,38.675C18.072,39.141,19.293,39.385,20.514,39.385L31.925,39.385C35.122,41.494,37.609,42.582,39.318,42.582C39.873,42.604,40.406,42.449,40.873,42.138C41.605,41.65,42.071,40.828,42.094,39.94C42.071,39.096,41.805,38.275,41.361,37.587C42.471,36.743,43.381,35.677,44.003,34.434C44.669,33.146,45.002,31.726,45.002,30.305L45.002,25.398C45.002,24.177,44.758,22.978,44.292,21.846C43.825,20.758,43.181,19.781,42.338,18.96C41.516,18.138,40.517,17.472,39.452,17.006C38.319,16.54,37.121,16.296,35.899,16.296L20.514,16.274ZM28.085,34.745C25.309,34.745,22.246,34.634,21.868,34.279C21.691,34.012,21.602,33.679,21.624,33.369C21.646,32.813,21.735,32.281,21.935,31.77C22.334,30.749,23.023,29.861,23.933,29.217C25.265,28.351,26.819,27.907,28.418,27.929L28.506,27.929L28.595,27.929C30.149,27.863,31.681,28.307,32.969,29.172C33.879,29.839,34.567,30.727,34.989,31.77C35.478,32.969,35.455,34.079,35.233,34.279C34.967,34.567,31.393,34.745,28.085,34.745L28.085,34.745ZM28.529,27.019C26.531,27.019,24.932,25.398,24.91,23.4C24.91,21.402,26.531,19.804,28.529,19.781C30.527,19.781,32.147,21.402,32.147,23.4C32.125,25.398,30.527,27.019,28.529,27.019L28.529,27.019ZM28.529,27.019"/>
</g>
 </g>
</svg>
