<?xml version="1.0" encoding="UTF-8"?>
<!--Generator: CustomSymbols by @serious_bret-->
<!DOCTYPE svg
PUBLIC "-//W3C//DTD SVG 1.1//EN"
       "http://www.w3.org/Graphics/SVG/1.1/DTD/svg11.dtd">
<svg version="1.1" xmlns="http://www.w3.org/2000/svg" xmlns:xlink="http://www.w3.org/1999/xlink" width="3300" height="2200">
 <g id="Notes">
  <rect height="2200" id="artboard" style="fill:white;opacity:1" width="3300" x="0" y="0"/>
  <line id="" style="fill:none;stroke:black;opacity:1;stroke-width:0.5;" x1="263" x2="3036" y1="292" y2="292"/>
  <text id="reftext1" style="stroke:none;fill:black;font-family:-apple-system,&quot;SF Pro Display&quot;,&quot;SF Pro Text&quot;,Helvetica,sans-serif;font-weight:bold;" transform="matrix(1 0 0 1 263 322)">Weight/Scale Variations</text>
  <text id="reftext2" style="stroke:none;fill:black;font-family:-apple-system,&quot;SF Pro Display&quot;,&quot;SF Pro Text&quot;,Helvetica,sans-serif;text-anchor:middle;" transform="matrix(1 0 0 1 559.711 322)">Ultralight</text>
  <text style="stroke:none;fill:black;font-family:-apple-system,&quot;SF Pro Display&quot;,&quot;SF Pro Text&quot;,Helvetica,sans-serif;text-anchor:middle;" transform="matrix(1 0 0 1 856.422 322)">Thin</text>
  <text style="stroke:none;fill:black;font-family:-apple-system,&quot;SF Pro Display&quot;,&quot;SF Pro Text&quot;,Helvetica,sans-serif;text-anchor:middle;" transform="matrix(1 0 0 1 1153.13 322)">Light</text>
  <text style="stroke:none;fill:black;font-family:-apple-system,&quot;SF Pro Display&quot;,&quot;SF Pro Text&quot;,Helvetica,sans-serif;text-anchor:middle;" transform="matrix(1 0 0 1 1449.84 322)">Regular</text>
  <text style="stroke:none;fill:black;font-family:-apple-system,&quot;SF Pro Display&quot;,&quot;SF Pro Text&quot;,Helvetica,sans-serif;text-anchor:middle;" transform="matrix(1 0 0 1 1746.56 322)">Medium</text>
  <text style="stroke:none;fill:black;font-family:-apple-system,&quot;SF Pro Display&quot;,&quot;SF Pro Text&quot;,Helvetica,sans-serif;text-anchor:middle;" transform="matrix(1 0 0 1 2043.27 322)">Semibold</text>
  <text style="stroke:none;fill:black;font-family:-apple-system,&quot;SF Pro Display&quot;,&quot;SF Pro Text&quot;,Helvetica,sans-serif;text-anchor:middle;" transform="matrix(1 0 0 1 2339.98 322)">Bold</text>
  <text style="stroke:none;fill:black;font-family:-apple-system,&quot;SF Pro Display&quot;,&quot;SF Pro Text&quot;,Helvetica,sans-serif;text-anchor:middle;" transform="matrix(1 0 0 1 2636.69 322)">Heavy</text>
  <text style="stroke:none;fill:black;font-family:-apple-system,&quot;SF Pro Display&quot;,&quot;SF Pro Text&quot;,Helvetica,sans-serif;text-anchor:middle;" transform="matrix(1 0 0 1 2933.4 322)">Black</text>
  <line id="" style="fill:none;stroke:black;opacity:1;stroke-width:0.5;" x1="263" x2="3036" y1="1903" y2="1903"/>
  <g id="" transform="matrix(1 0 0 1 263 1933)">
   <path d="M9.24805 0.830078C13.5547 0.830078 17.1387-2.74414 17.1387-7.05078C17.1387-11.3574 13.5449-14.9316 9.23828-14.9316C4.94141-14.9316 1.36719-11.3574 1.36719-7.05078C1.36719-2.74414 4.95117 0.830078 9.24805 0.830078ZM9.24805-0.654297C5.70312-0.654297 2.87109-3.49609 2.87109-7.05078C2.87109-10.6055 5.69336-13.4473 9.23828-13.4473C12.793-13.4473 15.6348-10.6055 15.6445-7.05078C15.6543-3.49609 12.8027-0.654297 9.24805-0.654297ZM6.39648-6.31836L8.50586-6.31836L8.50586-4.19922C8.50586-3.75977 8.79883-3.45703 9.22852-3.45703C9.67773-3.45703 9.9707-3.75977 9.9707-4.19922L9.9707-6.31836L12.0996-6.31836C12.5391-6.31836 12.8418-6.61133 12.8418-7.04102C12.8418-7.48047 12.5391-7.7832 12.0996-7.7832L9.9707-7.7832L9.9707-9.89258C9.9707-10.3418 9.67773-10.6445 9.22852-10.6445C8.79883-10.6445 8.50586-10.3418 8.50586-9.89258L8.50586-7.7832L6.39648-7.7832C5.94727-7.7832 5.64453-7.48047 5.64453-7.04102C5.64453-6.61133 5.94727-6.31836 6.39648-6.31836Z"/>
  </g>
  <g id="" transform="matrix(1 0 0 1 281.506 1933)">
   <path d="M11.709 2.91016C17.1582 2.91016 21.6699-1.61133 21.6699-7.05078C21.6699-12.5 17.1484-17.0117 11.6992-17.0117C6.25977-17.0117 1.74805-12.5 1.74805-7.05078C1.74805-1.61133 6.26953 2.91016 11.709 2.91016ZM11.709 1.25C7.09961 1.25 3.41797-2.44141 3.41797-7.05078C3.41797-11.6602 7.08984-15.3516 11.6992-15.3516C16.3086-15.3516 20-11.6602 20.0098-7.05078C20.0195-2.44141 16.3184 1.25 11.709 1.25ZM7.98828-6.23047L10.8789-6.23047L10.8789-3.32031C10.8789-2.83203 11.2109-2.5 11.6895-2.5C12.1777-2.5 12.5195-2.83203 12.5195-3.32031L12.5195-6.23047L15.4297-6.23047C15.918-6.23047 16.25-6.5625 16.25-7.04102C16.25-7.5293 15.918-7.87109 15.4297-7.87109L12.5195-7.87109L12.5195-10.7617C12.5195-11.2695 12.1777-11.6016 11.6895-11.6016C11.2109-11.6016 10.8789-11.2598 10.8789-10.7617L10.8789-7.87109L7.98828-7.87109C7.48047-7.87109 7.14844-7.5293 7.14844-7.04102C7.14844-6.5625 7.49023-6.23047 7.98828-6.23047Z"/>
  </g>
  <g id="" transform="matrix(1 0 0 1 304.924 1933)">
   <path d="M14.9707 5.66406C21.9336 5.66406 27.6953-0.0976562 27.6953-7.05078C27.6953-14.0137 21.9238-19.7754 14.9609-19.7754C8.00781-19.7754 2.25586-14.0137 2.25586-7.05078C2.25586-0.0976562 8.01758 5.66406 14.9707 5.66406ZM14.9707 3.84766C8.93555 3.84766 4.08203-1.01562 4.08203-7.05078C4.08203-13.0957 8.92578-17.9492 14.9609-17.9492C21.0059-17.9492 25.8594-13.0957 25.8691-7.05078C25.8789-1.01562 21.0156 3.84766 14.9707 3.84766ZM10.0586-6.14258L14.0625-6.14258L14.0625-2.12891C14.0625-1.5918 14.4336-1.2207 14.9512-1.2207C15.4883-1.2207 15.8594-1.5918 15.8594-2.12891L15.8594-6.14258L19.8828-6.14258C20.4102-6.14258 20.791-6.51367 20.791-7.03125C20.791-7.56836 20.4199-7.94922 19.8828-7.94922L15.8594-7.94922L15.8594-11.9531C15.8594-12.5098 15.4883-12.8809 14.9512-12.8809C14.4336-12.8809 14.0625-12.5 14.0625-11.9531L14.0625-7.94922L10.0586-7.94922C9.50195-7.94922 9.13086-7.56836 9.13086-7.03125C9.13086-6.51367 9.51172-6.14258 10.0586-6.14258Z"/>
  </g>
  <text style="stroke:none;fill:black;font-family:-apple-system,&quot;SF Pro Display&quot;,&quot;SF Pro Text&quot;,Helvetica,sans-serif;font-weight:bold;" transform="matrix(1 0 0 1 263 1953)">Design Variations</text>
  <text style="stroke:none;fill:black;font-family:-apple-system,&quot;SF Pro Display&quot;,&quot;SF Pro Text&quot;,Helvetica,sans-serif;" transform="matrix(1 0 0 1 263 1971)">Symbols are supported in up to nine weights and three scales.</text>
  <text style="stroke:none;fill:black;font-family:-apple-system,&quot;SF Pro Display&quot;,&quot;SF Pro Text&quot;,Helvetica,sans-serif;" transform="matrix(1 0 0 1 263 1989)">For optimal layout with text and other symbols, vertically align</text>
  <text style="stroke:none;fill:black;font-family:-apple-system,&quot;SF Pro Display&quot;,&quot;SF Pro Text&quot;,Helvetica,sans-serif;" transform="matrix(1 0 0 1 263 2007)">symbols with the adjacent text.</text>
  <line id="" style="fill:none;stroke:#00AEEF;stroke-width:0.5;opacity:1.0;" x1="776" x2="776" y1="1919" y2="1933"/>
  <g id="" transform="matrix(1 0 0 1 776 1933)">
   <path d="M3.31055 0.126953C3.82812 0.126953 4.08203-0.0683594 4.26758-0.605469L5.52734-4.0625L11.2891-4.0625L12.5488-0.605469C12.7344-0.0683594 12.9883 0.126953 13.4961 0.126953C14.0137 0.126953 14.3457-0.185547 14.3457-0.673828C14.3457-0.839844 14.3164-0.986328 14.2383-1.20117L9.6582-13.3887C9.43359-13.9941 9.0332-14.2871 8.4082-14.2871C7.80273-14.2871 7.39258-13.9941 7.17773-13.3984L2.59766-1.19141C2.51953-0.976562 2.49023-0.830078 2.49023-0.664062C2.49023-0.175781 2.80273 0.126953 3.31055 0.126953ZM6.00586-5.53711L8.37891-12.1094L8.42773-12.1094L10.8008-5.53711Z"/>
  </g>
  <line id="" style="fill:none;stroke:#00AEEF;stroke-width:0.5;opacity:1.0;" x1="792.836" x2="792.836" y1="1919" y2="1933"/>
  <text style="stroke:none;fill:black;font-family:-apple-system,&quot;SF Pro Display&quot;,&quot;SF Pro Text&quot;,Helvetica,sans-serif;font-weight:bold;" transform="matrix(1 0 0 1 776 1953)">Margins</text>
  <text style="stroke:none;fill:black;font-family:-apple-system,&quot;SF Pro Display&quot;,&quot;SF Pro Text&quot;,Helvetica,sans-serif;" transform="matrix(1 0 0 1 776 1971)">Leading and trailing margins on the left and right side of each symbol</text>
  <text style="stroke:none;fill:black;font-family:-apple-system,&quot;SF Pro Display&quot;,&quot;SF Pro Text&quot;,Helvetica,sans-serif;" transform="matrix(1 0 0 1 776 1989)">can be adjusted by modifying the x-location of the margin guidelines.</text>
  <text style="stroke:none;fill:black;font-family:-apple-system,&quot;SF Pro Display&quot;,&quot;SF Pro Text&quot;,Helvetica,sans-serif;" transform="matrix(1 0 0 1 776 2007)">Modifications are automatically applied proportionally to all</text>
  <text style="stroke:none;fill:black;font-family:-apple-system,&quot;SF Pro Display&quot;,&quot;SF Pro Text&quot;,Helvetica,sans-serif;" transform="matrix(1 0 0 1 776 2025)">scales and weights.</text>
  <g id="" transform="matrix(1 0 0 1 1289 1933)">
   <path d="M2.8418 1.86523L4.54102 3.57422C5.40039 4.44336 6.38672 4.38477 7.31445 3.35938L17.4902-7.85156C17.7539-7.76367 18.0273-7.7832 18.3398-7.8418L19.4043-8.03711L20.0684-7.36328L20.0293-6.80664C19.9902-6.30859 20.1172-5.92773 20.6055-5.44922L21.3672-4.70703C21.8457-4.22852 22.4609-4.19922 22.9297-4.66797L25.8398-7.58789C26.3086-8.05664 26.2891-8.65234 25.8105-9.13086L25.0391-9.89258C24.5605-10.3711 24.1895-10.5273 23.7109-10.4883L23.1348-10.4395L22.4902-11.0742L22.7344-12.1973C22.8613-12.7637 22.7051-13.2031 22.1191-13.7891L19.9219-15.9766C16.582-19.2969 12.1484-19.2188 9.25781-16.3281C8.83789-15.918 8.80859-15.3418 9.04297-14.9512C9.27734-14.5898 9.73633-14.3555 10.3809-14.5215C11.8457-14.8633 13.3691-14.9219 14.7949-13.9844L14.209-12.5293C14.0137-12.0508 13.9844-11.6504 14.1113-11.2891L3.04688-0.898438C2.06055 0.0195312 1.98242 0.996094 2.8418 1.86523ZM10.752-15.957C13.1836-17.7344 16.4746-17.4316 18.7012-15.2051L21.1328-12.793C21.3672-12.5586 21.4062-12.373 21.3379-12.0312L21.0156-10.5469L22.5195-9.0625L23.5059-9.12109C23.7598-9.13086 23.8379-9.11133 24.0332-8.91602L24.6094-8.33984L22.168-5.89844L21.5918-6.47461C21.3965-6.66992 21.3672-6.74805 21.377-7.01172L21.4453-7.98828L19.9512-9.47266L18.4277-9.21875C18.1055-9.15039 17.959-9.17969 17.7148-9.41406L15.7129-11.416C15.459-11.6504 15.4297-11.8164 15.5859-12.1875L16.4648-14.2773C14.9023-15.7324 12.8711-16.3574 10.8398-15.7617C10.6836-15.7227 10.625-15.8496 10.752-15.957ZM5.27344 2.30469L4.10156 1.14258C3.63281 0.683594 3.74023 0.341797 4.14062-0.0195312L14.9512-10.1953L16.416-8.71094L6.42578 2.27539C6.07422 2.67578 5.74219 2.77344 5.27344 2.30469Z"/>
  </g>
  <text style="stroke:none;fill:black;font-family:-apple-system,&quot;SF Pro Display&quot;,&quot;SF Pro Text&quot;,Helvetica,sans-serif;font-weight:bold;" transform="matrix(1 0 0 1 1289 1953)">Exporting</text>
  <text style="stroke:none;fill:black;font-family:-apple-system,&quot;SF Pro Display&quot;,&quot;SF Pro Text&quot;,Helvetica,sans-serif;" transform="matrix(1 0 0 1 1289 1971)">Symbols should be outlined when exporting to ensure the</text>
  <text style="stroke:none;fill:black;font-family:-apple-system,&quot;SF Pro Display&quot;,&quot;SF Pro Text&quot;,Helvetica,sans-serif;" transform="matrix(1 0 0 1 1289 1989)">design is preserved when submitting to Xcode.</text>
  <text id="template-version" style="stroke:none;fill:black;font-family:-apple-system,&quot;SF Pro Display&quot;,&quot;SF Pro Text&quot;,Helvetica,sans-serif;text-anchor:end;" transform="matrix(1 0 0 1 3036 1933)">Template v.2.0</text>
  <text style="stroke:none;fill:black;font-family:-apple-system,&quot;SF Pro Display&quot;,&quot;SF Pro Text&quot;,Helvetica,sans-serif;text-anchor:end;" transform="matrix(1 0 0 1 3036 1951)">Requires Xcode 12 or greater</text>
  <text style="stroke:none;fill:black;font-family:-apple-system,&quot;SF Pro Display&quot;,&quot;SF Pro Text&quot;,Helvetica,sans-serif;" transform="matrix(1 0 0 1 263 726)">Small</text>
  <text style="stroke:none;fill:black;font-family:-apple-system,&quot;SF Pro Display&quot;,&quot;SF Pro Text&quot;,Helvetica,sans-serif;" transform="matrix(1 0 0 1 263 1156)">Medium</text>
  <text style="stroke:none;fill:black;font-family:-apple-system,&quot;SF Pro Display&quot;,&quot;SF Pro Text&quot;,Helvetica,sans-serif;" transform="matrix(1 0 0 1 263 1586)">Large</text>
 </g>
 <g id="Guides">
  <g id="H-reference" style="fill:#27AAE1;stroke:none;" transform="matrix(1 0 0 1 339 696)">
   <path d="M0.976562 0L3.66211 0L12.9883-24.4629L45.752-24.4629L55.127 0L57.7637 0L30.6152-70.459L28.125-70.459ZM29.3457-67.1387L29.4434-67.1387L44.873-26.709L13.8672-26.709Z"/>
  </g>
  <line id="Baseline-S" style="fill:none;stroke:#27AAE1;opacity:1;stroke-width:0.5;" x1="263" x2="3036" y1="696" y2="696"/>
  <line id="Capline-S" style="fill:none;stroke:#27AAE1;opacity:1;stroke-width:0.5;" x1="263" x2="3036" y1="625.541" y2="625.541"/>
  <g id="H-reference" style="fill:#27AAE1;stroke:none;" transform="matrix(1 0 0 1 339 1126)">
   <path d="M0.976562 0L3.66211 0L12.9883-24.4629L45.752-24.4629L55.127 0L57.7637 0L30.6152-70.459L28.125-70.459ZM29.3457-67.1387L29.4434-67.1387L44.873-26.709L13.8672-26.709Z"/>
  </g>
  <line id="Baseline-M" style="fill:none;stroke:#27AAE1;opacity:1;stroke-width:0.5;" x1="263" x2="3036" y1="1126" y2="1126"/>
  <line id="Capline-M" style="fill:none;stroke:#27AAE1;opacity:1;stroke-width:0.5;" x1="263" x2="3036" y1="1055.54" y2="1055.54"/>
  <g id="H-reference" style="fill:#27AAE1;stroke:none;" transform="matrix(1 0 0 1 339 1556)">
   <path d="M0.976562 0L3.66211 0L12.9883-24.4629L45.752-24.4629L55.127 0L57.7637 0L30.6152-70.459L28.125-70.459ZM29.3457-67.1387L29.4434-67.1387L44.873-26.709L13.8672-26.709Z"/>
  </g>
  <line id="Baseline-L" style="fill:none;stroke:#27AAE1;opacity:1;stroke-width:0.5;" x1="263" x2="3036" y1="1556" y2="1556"/>
  <line id="Capline-L" style="fill:none;stroke:#27AAE1;opacity:1;stroke-width:0.5;" x1="263" x2="3036" y1="1485.54" y2="1485.54"/>
  <line id="left-margin" x1="1415.3329373506665" x2="1415.3329373506665" y1="1030.79" y2="1150.12" style="fill:none;stroke:#00AEEF;stroke-width:0.5;opacity:1.0;"/>
  <line id="right-margin" x1="1486.9270626493333" x2="1486.9270626493333" y1="1030.79" y2="1150.12" style="fill:none;stroke:#00AEEF;stroke-width:0.5;opacity:1.0;"/>
 </g>
 <g id="Symbols">
  <g id="Black-L" transform="matrix(1.0,0.0,0.0,1.0,2888.958999190455,1475.0490187217051)">  <path xmlns:xlink="http://www.w3.org/1999/xlink" xml:space="preserve" fill="#000000" stroke-width="1px" stroke-opacity="1" y="0px" stroke-dasharray="none" fill-opacity="1" stroke-miterlimit="4" stroke="none" x="0px" fill-rule="nonzero" stroke-linecap="butt" version="1.1" stroke-linejoin="miter" d="M45.721,91.442C39.613,91.442,33.541,90.235,27.908,87.857C25.201,86.724,22.604,85.297,20.154,83.651C17.74,82.005,15.472,80.14,13.387,78.055C11.302,75.97,9.437,73.702,7.791,71.288C6.145,68.838,4.718,66.241,3.585,63.534C1.207,57.901,0,51.829,0,45.721C0,39.613,1.207,33.541,3.585,27.908C4.718,25.201,6.145,22.604,7.791,20.154C9.437,17.74,11.302,15.472,13.387,13.387C15.472,11.302,17.74,9.437,20.154,7.791C22.604,6.145,25.201,4.718,27.908,3.585C33.541,1.207,39.613,0,45.721,0C51.829,0,57.901,1.207,63.534,3.585C66.241,4.718,68.838,6.145,71.288,7.791C73.702,9.437,75.97,11.302,78.055,13.387C80.14,15.472,82.005,17.74,83.651,20.154C85.297,22.604,86.724,25.201,87.857,27.908C90.235,33.541,91.479,39.576,91.442,45.721C91.442,51.829,90.235,57.901,87.857,63.534C86.724,66.241,85.297,68.838,83.651,71.288C82.005,73.702,80.14,75.97,78.055,78.055C75.97,80.14,73.702,82.005,71.288,83.651C68.838,85.297,66.241,86.724,63.534,87.857C57.901,90.235,51.829,91.442,45.721,91.442ZM38.223,23.629C36.833,23.629,35.479,23.885,34.199,24.433C32.919,24.945,31.749,25.713,30.761,26.664C28.64,28.676,27.469,31.456,27.506,34.382L27.506,60.827C27.506,63.753,28.676,66.533,30.761,68.545C31.749,69.496,32.919,70.264,34.199,70.776C35.479,71.288,36.869,71.581,38.223,71.581C40.088,71.581,41.954,71.069,43.563,70.118L66.423,56.914C69.752,55.012,71.8,51.464,71.764,47.623C71.8,43.782,69.752,40.234,66.423,38.332L43.563,25.128C41.954,24.141,40.125,23.629,38.223,23.629L38.223,23.629ZM38.223,23.629"/>
</g>
  <g id="Heavy-L" transform="matrix(1.0,0.0,0.0,1.0,2592.248999190455,1475.0490187217051)">  <path fill-opacity="1" y="0px" stroke-linecap="butt" version="1.1" xml:space="preserve" xmlns:xlink="http://www.w3.org/1999/xlink" stroke-linejoin="miter" fill="#000000" stroke-dasharray="none" stroke-opacity="1" stroke="none" stroke-width="1px" fill-rule="nonzero" x="0px" stroke-miterlimit="4" d="M45.721,91.442C39.613,91.442,33.541,90.235,27.908,87.857C25.201,86.724,22.604,85.297,20.154,83.651C17.74,82.005,15.472,80.14,13.387,78.055C11.302,75.97,9.437,73.702,7.791,71.288C6.145,68.838,4.718,66.241,3.585,63.534C1.207,57.901,0,51.829,0,45.721C0,39.613,1.207,33.541,3.585,27.908C4.718,25.201,6.145,22.604,7.791,20.154C9.437,17.74,11.302,15.472,13.387,13.387C15.472,11.302,17.74,9.437,20.154,7.791C22.604,6.145,25.201,4.718,27.908,3.585C33.541,1.207,39.613,0,45.721,0C51.829,0,57.901,1.207,63.534,3.585C66.241,4.718,68.838,6.145,71.288,7.791C73.702,9.437,75.97,11.302,78.055,13.387C80.14,15.472,82.005,17.74,83.651,20.154C85.297,22.604,86.724,25.201,87.857,27.908C90.235,33.541,91.479,39.576,91.442,45.721C91.442,51.829,90.235,57.901,87.857,63.534C86.724,66.241,85.297,68.838,83.651,71.288C82.005,73.702,80.14,75.97,78.055,78.055C75.97,80.14,73.702,82.005,71.288,83.651C68.838,85.297,66.241,86.724,63.534,87.857C57.901,90.235,51.829,91.442,45.721,91.442ZM38.223,23.629C36.833,23.629,35.479,23.885,34.199,24.433C32.919,24.945,31.749,25.713,30.761,26.664C28.64,28.676,27.469,31.456,27.506,34.382L27.506,60.827C27.506,63.753,28.676,66.533,30.761,68.545C31.749,69.496,32.919,70.264,34.199,70.776C35.479,71.288,36.869,71.581,38.223,71.581C40.088,71.581,41.954,71.069,43.563,70.118L66.423,56.914C69.752,55.012,71.8,51.464,71.764,47.623C71.8,43.782,69.752,40.234,66.423,38.332L43.563,25.128C41.954,24.141,40.125,23.629,38.223,23.629L38.223,23.629ZM38.223,23.629"/>
</g>
  <g id="Bold-L" transform="matrix(1.0,0.0,0.0,1.0,2295.538999190455,1475.0490187217051)">  <path x="0px" fill-rule="nonzero" version="1.1" xml:space="preserve" stroke-miterlimit="4" y="0px" stroke-linecap="butt" xmlns:xlink="http://www.w3.org/1999/xlink" stroke-width="1px" stroke-linejoin="miter" fill-opacity="1" stroke="none" stroke-dasharray="none" fill="#000000" stroke-opacity="1" d="M45.721,91.442C39.613,91.442,33.541,90.235,27.908,87.857C25.201,86.724,22.604,85.297,20.154,83.651C17.74,82.005,15.472,80.14,13.387,78.055C11.302,75.97,9.437,73.702,7.791,71.288C6.145,68.838,4.718,66.241,3.585,63.534C1.207,57.901,0,51.829,0,45.721C0,39.613,1.207,33.541,3.585,27.908C4.718,25.201,6.145,22.604,7.791,20.154C9.437,17.74,11.302,15.472,13.387,13.387C15.472,11.302,17.74,9.437,20.154,7.791C22.604,6.145,25.201,4.718,27.908,3.585C33.541,1.207,39.613,0,45.721,0C51.829,0,57.901,1.207,63.534,3.585C66.241,4.718,68.838,6.145,71.288,7.791C73.702,9.437,75.97,11.302,78.055,13.387C80.14,15.472,82.005,17.74,83.651,20.154C85.297,22.604,86.724,25.201,87.857,27.908C90.235,33.541,91.479,39.576,91.442,45.721C91.442,51.829,90.235,57.901,87.857,63.534C86.724,66.241,85.297,68.838,83.651,71.288C82.005,73.702,80.14,75.97,78.055,78.055C75.97,80.14,73.702,82.005,71.288,83.651C68.838,85.297,66.241,86.724,63.534,87.857C57.901,90.235,51.829,91.442,45.721,91.442ZM38.223,23.629C36.833,23.629,35.479,23.885,34.199,24.433C32.919,24.945,31.749,25.713,30.761,26.664C28.64,28.676,27.469,31.456,27.506,34.382L27.506,60.827C27.506,63.753,28.676,66.533,30.761,68.545C31.749,69.496,32.919,70.264,34.199,70.776C35.479,71.288,36.869,71.581,38.223,71.581C40.088,71.581,41.954,71.069,43.563,70.118L66.423,56.914C69.752,55.012,71.8,51.464,71.764,47.623C71.8,43.782,69.752,40.234,66.423,38.332L43.563,25.128C41.954,24.141,40.125,23.629,38.223,23.629L38.223,23.629ZM38.223,23.629"/>
</g>
  <g id="Semibold-L" transform="matrix(1.0,0.0,0.0,1.0,1998.828999190455,1475.0490187217051)">  <path fill-rule="nonzero" stroke-opacity="1" x="0px" fill-opacity="1" xml:space="preserve" stroke-linejoin="miter" xmlns:xlink="http://www.w3.org/1999/xlink" stroke-width="1px" stroke-linecap="butt" stroke-dasharray="none" version="1.1" stroke="none" stroke-miterlimit="4" y="0px" fill="#000000" d="M45.721,91.442C39.613,91.442,33.541,90.235,27.908,87.857C25.201,86.724,22.604,85.297,20.154,83.651C17.74,82.005,15.472,80.14,13.387,78.055C11.302,75.97,9.437,73.702,7.791,71.288C6.145,68.838,4.718,66.241,3.585,63.534C1.207,57.901,0,51.829,0,45.721C0,39.613,1.207,33.541,3.585,27.908C4.718,25.201,6.145,22.604,7.791,20.154C9.437,17.74,11.302,15.472,13.387,13.387C15.472,11.302,17.74,9.437,20.154,7.791C22.604,6.145,25.201,4.718,27.908,3.585C33.541,1.207,39.613,0,45.721,0C51.829,0,57.901,1.207,63.534,3.585C66.241,4.718,68.838,6.145,71.288,7.791C73.702,9.437,75.97,11.302,78.055,13.387C80.14,15.472,82.005,17.74,83.651,20.154C85.297,22.604,86.724,25.201,87.857,27.908C90.235,33.541,91.479,39.576,91.442,45.721C91.442,51.829,90.235,57.901,87.857,63.534C86.724,66.241,85.297,68.838,83.651,71.288C82.005,73.702,80.14,75.97,78.055,78.055C75.97,80.14,73.702,82.005,71.288,83.651C68.838,85.297,66.241,86.724,63.534,87.857C57.901,90.235,51.829,91.442,45.721,91.442ZM38.223,23.629C36.833,23.629,35.479,23.885,34.199,24.433C32.919,24.945,31.749,25.713,30.761,26.664C28.64,28.676,27.469,31.456,27.506,34.382L27.506,60.827C27.506,63.753,28.676,66.533,30.761,68.545C31.749,69.496,32.919,70.264,34.199,70.776C35.479,71.288,36.869,71.581,38.223,71.581C40.088,71.581,41.954,71.069,43.563,70.118L66.423,56.914C69.752,55.012,71.8,51.464,71.764,47.623C71.8,43.782,69.752,40.234,66.423,38.332L43.563,25.128C41.954,24.141,40.125,23.629,38.223,23.629L38.223,23.629ZM38.223,23.629"/>
</g>
  <g id="Medium-L" transform="matrix(1.0,0.0,0.0,1.0,1702.118999190455,1475.0490187217051)">  <path stroke-linecap="butt" version="1.1" stroke-opacity="1" fill-opacity="1" x="0px" fill-rule="nonzero" xml:space="preserve" y="0px" stroke="none" fill="#000000" xmlns:xlink="http://www.w3.org/1999/xlink" stroke-linejoin="miter" stroke-width="1px" stroke-dasharray="none" stroke-miterlimit="4" d="M45.721,91.442C39.613,91.442,33.541,90.235,27.908,87.857C25.201,86.724,22.604,85.297,20.154,83.651C17.74,82.005,15.472,80.14,13.387,78.055C11.302,75.97,9.437,73.702,7.791,71.288C6.145,68.838,4.718,66.241,3.585,63.534C1.207,57.901,0,51.829,0,45.721C0,39.613,1.207,33.541,3.585,27.908C4.718,25.201,6.145,22.604,7.791,20.154C9.437,17.74,11.302,15.472,13.387,13.387C15.472,11.302,17.74,9.437,20.154,7.791C22.604,6.145,25.201,4.718,27.908,3.585C33.541,1.207,39.613,0,45.721,0C51.829,0,57.901,1.207,63.534,3.585C66.241,4.718,68.838,6.145,71.288,7.791C73.702,9.437,75.97,11.302,78.055,13.387C80.14,15.472,82.005,17.74,83.651,20.154C85.297,22.604,86.724,25.201,87.857,27.908C90.235,33.541,91.479,39.576,91.442,45.721C91.442,51.829,90.235,57.901,87.857,63.534C86.724,66.241,85.297,68.838,83.651,71.288C82.005,73.702,80.14,75.97,78.055,78.055C75.97,80.14,73.702,82.005,71.288,83.651C68.838,85.297,66.241,86.724,63.534,87.857C57.901,90.235,51.829,91.442,45.721,91.442ZM38.223,23.629C36.833,23.629,35.479,23.885,34.199,24.433C32.919,24.945,31.749,25.713,30.761,26.664C28.64,28.676,27.469,31.456,27.506,34.382L27.506,60.827C27.506,63.753,28.676,66.533,30.761,68.545C31.749,69.496,32.919,70.264,34.199,70.776C35.479,71.288,36.869,71.581,38.223,71.581C40.088,71.581,41.954,71.069,43.563,70.118L66.423,56.914C69.752,55.012,71.8,51.464,71.764,47.623C71.8,43.782,69.752,40.234,66.423,38.332L43.563,25.128C41.954,24.141,40.125,23.629,38.223,23.629L38.223,23.629ZM38.223,23.629"/>
</g>
  <g id="Regular-L" transform="matrix(1.0,0.0,0.0,1.0,1405.408999190455,1475.0490187217051)">  <path stroke-dasharray="none" y="0px" stroke="none" xmlns:xlink="http://www.w3.org/1999/xlink" stroke-linecap="butt" fill-opacity="1" stroke-linejoin="miter" xml:space="preserve" stroke-miterlimit="4" x="0px" fill="#000000" stroke-width="1px" fill-rule="nonzero" stroke-opacity="1" version="1.1" d="M45.721,91.442C39.613,91.442,33.541,90.235,27.908,87.857C25.201,86.724,22.604,85.297,20.154,83.651C17.74,82.005,15.472,80.14,13.387,78.055C11.302,75.97,9.437,73.702,7.791,71.288C6.145,68.838,4.718,66.241,3.585,63.534C1.207,57.901,0,51.829,0,45.721C0,39.613,1.207,33.541,3.585,27.908C4.718,25.201,6.145,22.604,7.791,20.154C9.437,17.74,11.302,15.472,13.387,13.387C15.472,11.302,17.74,9.437,20.154,7.791C22.604,6.145,25.201,4.718,27.908,3.585C33.541,1.207,39.613,0,45.721,0C51.829,0,57.901,1.207,63.534,3.585C66.241,4.718,68.838,6.145,71.288,7.791C73.702,9.437,75.97,11.302,78.055,13.387C80.14,15.472,82.005,17.74,83.651,20.154C85.297,22.604,86.724,25.201,87.857,27.908C90.235,33.541,91.479,39.576,91.442,45.721C91.442,51.829,90.235,57.901,87.857,63.534C86.724,66.241,85.297,68.838,83.651,71.288C82.005,73.702,80.14,75.97,78.055,78.055C75.97,80.14,73.702,82.005,71.288,83.651C68.838,85.297,66.241,86.724,63.534,87.857C57.901,90.235,51.829,91.442,45.721,91.442ZM38.223,23.629C36.833,23.629,35.479,23.885,34.199,24.433C32.919,24.945,31.749,25.713,30.761,26.664C28.64,28.676,27.469,31.456,27.506,34.382L27.506,60.827C27.506,63.753,28.676,66.533,30.761,68.545C31.749,69.496,32.919,70.264,34.199,70.776C35.479,71.288,36.869,71.581,38.223,71.581C40.088,71.581,41.954,71.069,43.563,70.118L66.423,56.914C69.752,55.012,71.8,51.464,71.764,47.623C71.8,43.782,69.752,40.234,66.423,38.332L43.563,25.128C41.954,24.141,40.125,23.629,38.223,23.629L38.223,23.629ZM38.223,23.629"/>
</g>
  <g id="Light-L" transform="matrix(1.0,0.0,0.0,1.0,1108.6989991904552,1475.0490187217051)">  <path stroke-opacity="1" fill-rule="nonzero" y="0px" stroke-miterlimit="4" version="1.1" stroke-dasharray="none" stroke-linejoin="miter" stroke-linecap="butt" fill-opacity="1" xml:space="preserve" xmlns:xlink="http://www.w3.org/1999/xlink" fill="#000000" x="0px" stroke-width="1px" stroke="none" d="M45.721,91.442C39.613,91.442,33.541,90.235,27.908,87.857C25.201,86.724,22.604,85.297,20.154,83.651C17.74,82.005,15.472,80.14,13.387,78.055C11.302,75.97,9.437,73.702,7.791,71.288C6.145,68.838,4.718,66.241,3.585,63.534C1.207,57.901,0,51.829,0,45.721C0,39.613,1.207,33.541,3.585,27.908C4.718,25.201,6.145,22.604,7.791,20.154C9.437,17.74,11.302,15.472,13.387,13.387C15.472,11.302,17.74,9.437,20.154,7.791C22.604,6.145,25.201,4.718,27.908,3.585C33.541,1.207,39.613,0,45.721,0C51.829,0,57.901,1.207,63.534,3.585C66.241,4.718,68.838,6.145,71.288,7.791C73.702,9.437,75.97,11.302,78.055,13.387C80.14,15.472,82.005,17.74,83.651,20.154C85.297,22.604,86.724,25.201,87.857,27.908C90.235,33.541,91.479,39.576,91.442,45.721C91.442,51.829,90.235,57.901,87.857,63.534C86.724,66.241,85.297,68.838,83.651,71.288C82.005,73.702,80.14,75.97,78.055,78.055C75.97,80.14,73.702,82.005,71.288,83.651C68.838,85.297,66.241,86.724,63.534,87.857C57.901,90.235,51.829,91.442,45.721,91.442ZM38.223,23.629C36.833,23.629,35.479,23.885,34.199,24.433C32.919,24.945,31.749,25.713,30.761,26.664C28.64,28.676,27.469,31.456,27.506,34.382L27.506,60.827C27.506,63.753,28.676,66.533,30.761,68.545C31.749,69.496,32.919,70.264,34.199,70.776C35.479,71.288,36.869,71.581,38.223,71.581C40.088,71.581,41.954,71.069,43.563,70.118L66.423,56.914C69.752,55.012,71.8,51.464,71.764,47.623C71.8,43.782,69.752,40.234,66.423,38.332L43.563,25.128C41.954,24.141,40.125,23.629,38.223,23.629L38.223,23.629ZM38.223,23.629"/>
</g>
  <g id="Thin-L" transform="matrix(1.0,0.0,0.0,1.0,811.9889991904553,1475.0490187217051)">  <path y="0px" xmlns:xlink="http://www.w3.org/1999/xlink" stroke-dasharray="none" stroke-linejoin="miter" xml:space="preserve" fill="#000000" stroke-miterlimit="4" version="1.1" stroke-opacity="1" stroke-linecap="butt" fill-opacity="1" x="0px" stroke="none" stroke-width="1px" fill-rule="nonzero" d="M45.721,91.442C39.613,91.442,33.541,90.235,27.908,87.857C25.201,86.724,22.604,85.297,20.154,83.651C17.74,82.005,15.472,80.14,13.387,78.055C11.302,75.97,9.437,73.702,7.791,71.288C6.145,68.838,4.718,66.241,3.585,63.534C1.207,57.901,0,51.829,0,45.721C0,39.613,1.207,33.541,3.585,27.908C4.718,25.201,6.145,22.604,7.791,20.154C9.437,17.74,11.302,15.472,13.387,13.387C15.472,11.302,17.74,9.437,20.154,7.791C22.604,6.145,25.201,4.718,27.908,3.585C33.541,1.207,39.613,0,45.721,0C51.829,0,57.901,1.207,63.534,3.585C66.241,4.718,68.838,6.145,71.288,7.791C73.702,9.437,75.97,11.302,78.055,13.387C80.14,15.472,82.005,17.74,83.651,20.154C85.297,22.604,86.724,25.201,87.857,27.908C90.235,33.541,91.479,39.576,91.442,45.721C91.442,51.829,90.235,57.901,87.857,63.534C86.724,66.241,85.297,68.838,83.651,71.288C82.005,73.702,80.14,75.97,78.055,78.055C75.97,80.14,73.702,82.005,71.288,83.651C68.838,85.297,66.241,86.724,63.534,87.857C57.901,90.235,51.829,91.442,45.721,91.442ZM38.223,23.629C36.833,23.629,35.479,23.885,34.199,24.433C32.919,24.945,31.749,25.713,30.761,26.664C28.64,28.676,27.469,31.456,27.506,34.382L27.506,60.827C27.506,63.753,28.676,66.533,30.761,68.545C31.749,69.496,32.919,70.264,34.199,70.776C35.479,71.288,36.869,71.581,38.223,71.581C40.088,71.581,41.954,71.069,43.563,70.118L66.423,56.914C69.752,55.012,71.8,51.464,71.764,47.623C71.8,43.782,69.752,40.234,66.423,38.332L43.563,25.128C41.954,24.141,40.125,23.629,38.223,23.629L38.223,23.629ZM38.223,23.629"/>
</g>
  <g id="Ultralight-L" transform="matrix(1.0,0.0,0.0,1.0,515.2789991904552,1475.0490187217051)">  <path fill="#000000" xmlns:xlink="http://www.w3.org/1999/xlink" y="0px" xml:space="preserve" stroke-linejoin="miter" stroke-linecap="butt" stroke-width="1px" stroke="none" stroke-miterlimit="4" fill-opacity="1" x="0px" version="1.1" stroke-dasharray="none" stroke-opacity="1" fill-rule="nonzero" d="M45.721,91.442C39.613,91.442,33.541,90.235,27.908,87.857C25.201,86.724,22.604,85.297,20.154,83.651C17.74,82.005,15.472,80.14,13.387,78.055C11.302,75.97,9.437,73.702,7.791,71.288C6.145,68.838,4.718,66.241,3.585,63.534C1.207,57.901,0,51.829,0,45.721C0,39.613,1.207,33.541,3.585,27.908C4.718,25.201,6.145,22.604,7.791,20.154C9.437,17.74,11.302,15.472,13.387,13.387C15.472,11.302,17.74,9.437,20.154,7.791C22.604,6.145,25.201,4.718,27.908,3.585C33.541,1.207,39.613,0,45.721,0C51.829,0,57.901,1.207,63.534,3.585C66.241,4.718,68.838,6.145,71.288,7.791C73.702,9.437,75.97,11.302,78.055,13.387C80.14,15.472,82.005,17.74,83.651,20.154C85.297,22.604,86.724,25.201,87.857,27.908C90.235,33.541,91.479,39.576,91.442,45.721C91.442,51.829,90.235,57.901,87.857,63.534C86.724,66.241,85.297,68.838,83.651,71.288C82.005,73.702,80.14,75.97,78.055,78.055C75.97,80.14,73.702,82.005,71.288,83.651C68.838,85.297,66.241,86.724,63.534,87.857C57.901,90.235,51.829,91.442,45.721,91.442ZM38.223,23.629C36.833,23.629,35.479,23.885,34.199,24.433C32.919,24.945,31.749,25.713,30.761,26.664C28.64,28.676,27.469,31.456,27.506,34.382L27.506,60.827C27.506,63.753,28.676,66.533,30.761,68.545C31.749,69.496,32.919,70.264,34.199,70.776C35.479,71.288,36.869,71.581,38.223,71.581C40.088,71.581,41.954,71.069,43.563,70.118L66.423,56.914C69.752,55.012,71.8,51.464,71.764,47.623C71.8,43.782,69.752,40.234,66.423,38.332L43.563,25.128C41.954,24.141,40.125,23.629,38.223,23.629L38.223,23.629ZM38.223,23.629"/>
</g>
  <g id="Black-M" transform="matrix(1.0,0.0,0.0,1.0,2899.237363713531,1055.3273832447812)">  <path xmlns:xlink="http://www.w3.org/1999/xlink" xml:space="preserve" fill="#000000" stroke-width="1px" stroke-opacity="1" y="0px" stroke-dasharray="none" fill-opacity="1" stroke-miterlimit="4" stroke="none" x="0px" fill-rule="nonzero" stroke-linecap="butt" version="1.1" stroke-linejoin="miter" d="M35.443,70.885C30.707,70.885,26.001,69.95,21.634,68.107C19.536,67.228,17.523,66.122,15.623,64.846C13.752,63.57,11.994,62.124,10.378,60.508C8.761,58.891,7.315,57.134,6.039,55.262C4.763,53.362,3.658,51.349,2.779,49.251C0.936,44.885,0,40.178,0,35.443C0,30.707,0.936,26.001,2.779,21.634C3.658,19.536,4.763,17.523,6.039,15.623C7.315,13.752,8.761,11.994,10.378,10.378C11.994,8.761,13.752,7.315,15.623,6.039C17.523,4.763,19.536,3.658,21.634,2.779C26.001,0.936,30.708,0,35.443,0C40.178,0,44.885,0.936,49.251,2.779C51.349,3.658,53.362,4.763,55.262,6.039C57.134,7.315,58.891,8.761,60.508,10.378C62.124,11.994,63.57,13.752,64.846,15.623C66.122,17.523,67.228,19.536,68.107,21.634C69.95,26.001,70.914,30.679,70.885,35.443C70.885,40.178,69.95,44.885,68.107,49.251C67.228,51.349,66.122,53.362,64.846,55.262C63.57,57.134,62.124,58.891,60.508,60.508C58.891,62.124,57.134,63.57,55.262,64.846C53.362,66.122,51.349,67.228,49.251,68.107C44.885,69.95,40.178,70.885,35.443,70.885ZM29.63,18.317C28.553,18.317,27.503,18.515,26.511,18.941C25.519,19.338,24.611,19.933,23.846,20.67C22.201,22.23,21.294,24.385,21.322,26.653L21.322,47.153C21.322,49.421,22.23,51.576,23.846,53.136C24.611,53.873,25.519,54.468,26.511,54.865C27.503,55.262,28.581,55.489,29.63,55.489C31.076,55.489,32.522,55.092,33.77,54.355L51.491,44.119C54.071,42.645,55.659,39.894,55.631,36.917C55.659,33.94,54.071,31.19,51.491,29.715L33.77,19.479C32.522,18.714,31.104,18.317,29.63,18.317L29.63,18.317ZM29.63,18.317"/>
</g>
  <g id="Heavy-M" transform="matrix(1.0,0.0,0.0,1.0,2602.527363713531,1055.3273832447812)">  <path fill-opacity="1" y="0px" stroke-linecap="butt" version="1.1" xml:space="preserve" xmlns:xlink="http://www.w3.org/1999/xlink" stroke-linejoin="miter" fill="#000000" stroke-dasharray="none" stroke-opacity="1" stroke="none" stroke-width="1px" fill-rule="nonzero" x="0px" stroke-miterlimit="4" d="M35.443,70.885C30.707,70.885,26.001,69.95,21.634,68.107C19.536,67.228,17.523,66.122,15.623,64.846C13.752,63.57,11.994,62.124,10.378,60.508C8.761,58.891,7.315,57.134,6.039,55.262C4.763,53.362,3.658,51.349,2.779,49.251C0.936,44.885,0,40.178,0,35.443C0,30.707,0.936,26.001,2.779,21.634C3.658,19.536,4.763,17.523,6.039,15.623C7.315,13.752,8.761,11.994,10.378,10.378C11.994,8.761,13.752,7.315,15.623,6.039C17.523,4.763,19.536,3.658,21.634,2.779C26.001,0.936,30.708,0,35.443,0C40.178,0,44.885,0.936,49.251,2.779C51.349,3.658,53.362,4.763,55.262,6.039C57.134,7.315,58.891,8.761,60.508,10.378C62.124,11.994,63.57,13.752,64.846,15.623C66.122,17.523,67.228,19.536,68.107,21.634C69.95,26.001,70.914,30.679,70.885,35.443C70.885,40.178,69.95,44.885,68.107,49.251C67.228,51.349,66.122,53.362,64.846,55.262C63.57,57.134,62.124,58.891,60.508,60.508C58.891,62.124,57.134,63.57,55.262,64.846C53.362,66.122,51.349,67.228,49.251,68.107C44.885,69.95,40.178,70.885,35.443,70.885ZM29.63,18.317C28.553,18.317,27.503,18.515,26.511,18.941C25.519,19.338,24.611,19.933,23.846,20.67C22.201,22.23,21.294,24.385,21.322,26.653L21.322,47.153C21.322,49.421,22.23,51.576,23.846,53.136C24.611,53.873,25.519,54.468,26.511,54.865C27.503,55.262,28.581,55.489,29.63,55.489C31.076,55.489,32.522,55.092,33.77,54.355L51.491,44.119C54.071,42.645,55.659,39.894,55.631,36.917C55.659,33.94,54.071,31.19,51.491,29.715L33.77,19.479C32.522,18.714,31.104,18.317,29.63,18.317L29.63,18.317ZM29.63,18.317"/>
</g>
  <g id="Bold-M" transform="matrix(1.0,0.0,0.0,1.0,2305.817363713531,1055.3273832447812)">  <path x="0px" fill-rule="nonzero" version="1.1" xml:space="preserve" stroke-miterlimit="4" y="0px" stroke-linecap="butt" xmlns:xlink="http://www.w3.org/1999/xlink" stroke-width="1px" stroke-linejoin="miter" fill-opacity="1" stroke="none" stroke-dasharray="none" fill="#000000" stroke-opacity="1" d="M35.443,70.885C30.707,70.885,26.001,69.95,21.634,68.107C19.536,67.228,17.523,66.122,15.623,64.846C13.752,63.57,11.994,62.124,10.378,60.508C8.761,58.891,7.315,57.134,6.039,55.262C4.763,53.362,3.658,51.349,2.779,49.251C0.936,44.885,0,40.178,0,35.443C0,30.707,0.936,26.001,2.779,21.634C3.658,19.536,4.763,17.523,6.039,15.623C7.315,13.752,8.761,11.994,10.378,10.378C11.994,8.761,13.752,7.315,15.623,6.039C17.523,4.763,19.536,3.658,21.634,2.779C26.001,0.936,30.708,0,35.443,0C40.178,0,44.885,0.936,49.251,2.779C51.349,3.658,53.362,4.763,55.262,6.039C57.134,7.315,58.891,8.761,60.508,10.378C62.124,11.994,63.57,13.752,64.846,15.623C66.122,17.523,67.228,19.536,68.107,21.634C69.95,26.001,70.914,30.679,70.885,35.443C70.885,40.178,69.95,44.885,68.107,49.251C67.228,51.349,66.122,53.362,64.846,55.262C63.57,57.134,62.124,58.891,60.508,60.508C58.891,62.124,57.134,63.57,55.262,64.846C53.362,66.122,51.349,67.228,49.251,68.107C44.885,69.95,40.178,70.885,35.443,70.885ZM29.63,18.317C28.553,18.317,27.503,18.515,26.511,18.941C25.519,19.338,24.611,19.933,23.846,20.67C22.201,22.23,21.294,24.385,21.322,26.653L21.322,47.153C21.322,49.421,22.23,51.576,23.846,53.136C24.611,53.873,25.519,54.468,26.511,54.865C27.503,55.262,28.581,55.489,29.63,55.489C31.076,55.489,32.522,55.092,33.77,54.355L51.491,44.119C54.071,42.645,55.659,39.894,55.631,36.917C55.659,33.94,54.071,31.19,51.491,29.715L33.77,19.479C32.522,18.714,31.104,18.317,29.63,18.317L29.63,18.317ZM29.63,18.317"/>
</g>
  <g id="Semibold-M" transform="matrix(1.0,0.0,0.0,1.0,2009.1073637135312,1055.3273832447812)">  <path fill-rule="nonzero" stroke-opacity="1" x="0px" fill-opacity="1" xml:space="preserve" stroke-linejoin="miter" xmlns:xlink="http://www.w3.org/1999/xlink" stroke-width="1px" stroke-linecap="butt" stroke-dasharray="none" version="1.1" stroke="none" stroke-miterlimit="4" y="0px" fill="#000000" d="M35.443,70.885C30.707,70.885,26.001,69.95,21.634,68.107C19.536,67.228,17.523,66.122,15.623,64.846C13.752,63.57,11.994,62.124,10.378,60.508C8.761,58.891,7.315,57.134,6.039,55.262C4.763,53.362,3.658,51.349,2.779,49.251C0.936,44.885,0,40.178,0,35.443C0,30.707,0.936,26.001,2.779,21.634C3.658,19.536,4.763,17.523,6.039,15.623C7.315,13.752,8.761,11.994,10.378,10.378C11.994,8.761,13.752,7.315,15.623,6.039C17.523,4.763,19.536,3.658,21.634,2.779C26.001,0.936,30.708,0,35.443,0C40.178,0,44.885,0.936,49.251,2.779C51.349,3.658,53.362,4.763,55.262,6.039C57.134,7.315,58.891,8.761,60.508,10.378C62.124,11.994,63.57,13.752,64.846,15.623C66.122,17.523,67.228,19.536,68.107,21.634C69.95,26.001,70.914,30.679,70.885,35.443C70.885,40.178,69.95,44.885,68.107,49.251C67.228,51.349,66.122,53.362,64.846,55.262C63.57,57.134,62.124,58.891,60.508,60.508C58.891,62.124,57.134,63.57,55.262,64.846C53.362,66.122,51.349,67.228,49.251,68.107C44.885,69.95,40.178,70.885,35.443,70.885ZM29.63,18.317C28.553,18.317,27.503,18.515,26.511,18.941C25.519,19.338,24.611,19.933,23.846,20.67C22.201,22.23,21.294,24.385,21.322,26.653L21.322,47.153C21.322,49.421,22.23,51.576,23.846,53.136C24.611,53.873,25.519,54.468,26.511,54.865C27.503,55.262,28.581,55.489,29.63,55.489C31.076,55.489,32.522,55.092,33.77,54.355L51.491,44.119C54.071,42.645,55.659,39.894,55.631,36.917C55.659,33.94,54.071,31.19,51.491,29.715L33.77,19.479C32.522,18.714,31.104,18.317,29.63,18.317L29.63,18.317ZM29.63,18.317"/>
</g>
  <g id="Medium-M" transform="matrix(1.0,0.0,0.0,1.0,1712.3973637135311,1055.3273832447812)">  <path stroke-linecap="butt" version="1.1" stroke-opacity="1" fill-opacity="1" x="0px" fill-rule="nonzero" xml:space="preserve" y="0px" stroke="none" fill="#000000" xmlns:xlink="http://www.w3.org/1999/xlink" stroke-linejoin="miter" stroke-width="1px" stroke-dasharray="none" stroke-miterlimit="4" d="M35.443,70.885C30.707,70.885,26.001,69.95,21.634,68.107C19.536,67.228,17.523,66.122,15.623,64.846C13.752,63.57,11.994,62.124,10.378,60.508C8.761,58.891,7.315,57.134,6.039,55.262C4.763,53.362,3.658,51.349,2.779,49.251C0.936,44.885,0,40.178,0,35.443C0,30.707,0.936,26.001,2.779,21.634C3.658,19.536,4.763,17.523,6.039,15.623C7.315,13.752,8.761,11.994,10.378,10.378C11.994,8.761,13.752,7.315,15.623,6.039C17.523,4.763,19.536,3.658,21.634,2.779C26.001,0.936,30.708,0,35.443,0C40.178,0,44.885,0.936,49.251,2.779C51.349,3.658,53.362,4.763,55.262,6.039C57.134,7.315,58.891,8.761,60.508,10.378C62.124,11.994,63.57,13.752,64.846,15.623C66.122,17.523,67.228,19.536,68.107,21.634C69.95,26.001,70.914,30.679,70.885,35.443C70.885,40.178,69.95,44.885,68.107,49.251C67.228,51.349,66.122,53.362,64.846,55.262C63.57,57.134,62.124,58.891,60.508,60.508C58.891,62.124,57.134,63.57,55.262,64.846C53.362,66.122,51.349,67.228,49.251,68.107C44.885,69.95,40.178,70.885,35.443,70.885ZM29.63,18.317C28.553,18.317,27.503,18.515,26.511,18.941C25.519,19.338,24.611,19.933,23.846,20.67C22.201,22.23,21.294,24.385,21.322,26.653L21.322,47.153C21.322,49.421,22.23,51.576,23.846,53.136C24.611,53.873,25.519,54.468,26.511,54.865C27.503,55.262,28.581,55.489,29.63,55.489C31.076,55.489,32.522,55.092,33.77,54.355L51.491,44.119C54.071,42.645,55.659,39.894,55.631,36.917C55.659,33.94,54.071,31.19,51.491,29.715L33.77,19.479C32.522,18.714,31.104,18.317,29.63,18.317L29.63,18.317ZM29.63,18.317"/>
</g>
  <g id="Regular-M" transform="matrix(1.0,0.0,0.0,1.0,1415.687363713531,1055.3273832447812)">  <path stroke-dasharray="none" y="0px" stroke="none" xmlns:xlink="http://www.w3.org/1999/xlink" stroke-linecap="butt" fill-opacity="1" stroke-linejoin="miter" xml:space="preserve" stroke-miterlimit="4" x="0px" fill="#000000" stroke-width="1px" fill-rule="nonzero" stroke-opacity="1" version="1.1" d="M35.443,70.885C30.707,70.885,26.001,69.95,21.634,68.107C19.536,67.228,17.523,66.122,15.623,64.846C13.752,63.57,11.994,62.124,10.378,60.508C8.761,58.891,7.315,57.134,6.039,55.262C4.763,53.362,3.658,51.349,2.779,49.251C0.936,44.885,0,40.178,0,35.443C0,30.707,0.936,26.001,2.779,21.634C3.658,19.536,4.763,17.523,6.039,15.623C7.315,13.752,8.761,11.994,10.378,10.378C11.994,8.761,13.752,7.315,15.623,6.039C17.523,4.763,19.536,3.658,21.634,2.779C26.001,0.936,30.708,0,35.443,0C40.178,0,44.885,0.936,49.251,2.779C51.349,3.658,53.362,4.763,55.262,6.039C57.134,7.315,58.891,8.761,60.508,10.378C62.124,11.994,63.57,13.752,64.846,15.623C66.122,17.523,67.228,19.536,68.107,21.634C69.95,26.001,70.914,30.679,70.885,35.443C70.885,40.178,69.95,44.885,68.107,49.251C67.228,51.349,66.122,53.362,64.846,55.262C63.57,57.134,62.124,58.891,60.508,60.508C58.891,62.124,57.134,63.57,55.262,64.846C53.362,66.122,51.349,67.228,49.251,68.107C44.885,69.95,40.178,70.885,35.443,70.885ZM29.63,18.317C28.553,18.317,27.503,18.515,26.511,18.941C25.519,19.338,24.611,19.933,23.846,20.67C22.201,22.23,21.294,24.385,21.322,26.653L21.322,47.153C21.322,49.421,22.23,51.576,23.846,53.136C24.611,53.873,25.519,54.468,26.511,54.865C27.503,55.262,28.581,55.489,29.63,55.489C31.076,55.489,32.522,55.092,33.77,54.355L51.491,44.119C54.071,42.645,55.659,39.894,55.631,36.917C55.659,33.94,54.071,31.19,51.491,29.715L33.77,19.479C32.522,18.714,31.104,18.317,29.63,18.317L29.63,18.317ZM29.63,18.317"/>
</g>
  <g id="Light-M" transform="matrix(1.0,0.0,0.0,1.0,1118.9773637135313,1055.3273832447812)">  <path stroke-opacity="1" fill-rule="nonzero" y="0px" stroke-miterlimit="4" version="1.1" stroke-dasharray="none" stroke-linejoin="miter" stroke-linecap="butt" fill-opacity="1" xml:space="preserve" xmlns:xlink="http://www.w3.org/1999/xlink" fill="#000000" x="0px" stroke-width="1px" stroke="none" d="M35.443,70.885C30.707,70.885,26.001,69.95,21.634,68.107C19.536,67.228,17.523,66.122,15.623,64.846C13.752,63.57,11.994,62.124,10.378,60.508C8.761,58.891,7.315,57.134,6.039,55.262C4.763,53.362,3.658,51.349,2.779,49.251C0.936,44.885,0,40.178,0,35.443C0,30.707,0.936,26.001,2.779,21.634C3.658,19.536,4.763,17.523,6.039,15.623C7.315,13.752,8.761,11.994,10.378,10.378C11.994,8.761,13.752,7.315,15.623,6.039C17.523,4.763,19.536,3.658,21.634,2.779C26.001,0.936,30.708,0,35.443,0C40.178,0,44.885,0.936,49.251,2.779C51.349,3.658,53.362,4.763,55.262,6.039C57.134,7.315,58.891,8.761,60.508,10.378C62.124,11.994,63.57,13.752,64.846,15.623C66.122,17.523,67.228,19.536,68.107,21.634C69.95,26.001,70.914,30.679,70.885,35.443C70.885,40.178,69.95,44.885,68.107,49.251C67.228,51.349,66.122,53.362,64.846,55.262C63.57,57.134,62.124,58.891,60.508,60.508C58.891,62.124,57.134,63.57,55.262,64.846C53.362,66.122,51.349,67.228,49.251,68.107C44.885,69.95,40.178,70.885,35.443,70.885ZM29.63,18.317C28.553,18.317,27.503,18.515,26.511,18.941C25.519,19.338,24.611,19.933,23.846,20.67C22.201,22.23,21.294,24.385,21.322,26.653L21.322,47.153C21.322,49.421,22.23,51.576,23.846,53.136C24.611,53.873,25.519,54.468,26.511,54.865C27.503,55.262,28.581,55.489,29.63,55.489C31.076,55.489,32.522,55.092,33.77,54.355L51.491,44.119C54.071,42.645,55.659,39.894,55.631,36.917C55.659,33.94,54.071,31.19,51.491,29.715L33.77,19.479C32.522,18.714,31.104,18.317,29.63,18.317L29.63,18.317ZM29.63,18.317"/>
</g>
  <g id="Thin-M" transform="matrix(1.0,0.0,0.0,1.0,822.2673637135313,1055.3273832447812)">  <path y="0px" xmlns:xlink="http://www.w3.org/1999/xlink" stroke-dasharray="none" stroke-linejoin="miter" xml:space="preserve" fill="#000000" stroke-miterlimit="4" version="1.1" stroke-opacity="1" stroke-linecap="butt" fill-opacity="1" x="0px" stroke="none" stroke-width="1px" fill-rule="nonzero" d="M35.443,70.885C30.707,70.885,26.001,69.95,21.634,68.107C19.536,67.228,17.523,66.122,15.623,64.846C13.752,63.57,11.994,62.124,10.378,60.508C8.761,58.891,7.315,57.134,6.039,55.262C4.763,53.362,3.658,51.349,2.779,49.251C0.936,44.885,0,40.178,0,35.443C0,30.707,0.936,26.001,2.779,21.634C3.658,19.536,4.763,17.523,6.039,15.623C7.315,13.752,8.761,11.994,10.378,10.378C11.994,8.761,13.752,7.315,15.623,6.039C17.523,4.763,19.536,3.658,21.634,2.779C26.001,0.936,30.708,0,35.443,0C40.178,0,44.885,0.936,49.251,2.779C51.349,3.658,53.362,4.763,55.262,6.039C57.134,7.315,58.891,8.761,60.508,10.378C62.124,11.994,63.57,13.752,64.846,15.623C66.122,17.523,67.228,19.536,68.107,21.634C69.95,26.001,70.914,30.679,70.885,35.443C70.885,40.178,69.95,44.885,68.107,49.251C67.228,51.349,66.122,53.362,64.846,55.262C63.57,57.134,62.124,58.891,60.508,60.508C58.891,62.124,57.134,63.57,55.262,64.846C53.362,66.122,51.349,67.228,49.251,68.107C44.885,69.95,40.178,70.885,35.443,70.885ZM29.63,18.317C28.553,18.317,27.503,18.515,26.511,18.941C25.519,19.338,24.611,19.933,23.846,20.67C22.201,22.23,21.294,24.385,21.322,26.653L21.322,47.153C21.322,49.421,22.23,51.576,23.846,53.136C24.611,53.873,25.519,54.468,26.511,54.865C27.503,55.262,28.581,55.489,29.63,55.489C31.076,55.489,32.522,55.092,33.77,54.355L51.491,44.119C54.071,42.645,55.659,39.894,55.631,36.917C55.659,33.94,54.071,31.19,51.491,29.715L33.77,19.479C32.522,18.714,31.104,18.317,29.63,18.317L29.63,18.317ZM29.63,18.317"/>
</g>
  <g id="Ultralight-M" transform="matrix(1.0,0.0,0.0,1.0,525.5573637135312,1055.3273832447812)">  <path fill="#000000" xmlns:xlink="http://www.w3.org/1999/xlink" y="0px" xml:space="preserve" stroke-linejoin="miter" stroke-linecap="butt" stroke-width="1px" stroke="none" stroke-miterlimit="4" fill-opacity="1" x="0px" version="1.1" stroke-dasharray="none" stroke-opacity="1" fill-rule="nonzero" d="M35.443,70.885C30.707,70.885,26.001,69.95,21.634,68.107C19.536,67.228,17.523,66.122,15.623,64.846C13.752,63.57,11.994,62.124,10.378,60.508C8.761,58.891,7.315,57.134,6.039,55.262C4.763,53.362,3.658,51.349,2.779,49.251C0.936,44.885,0,40.178,0,35.443C0,30.707,0.936,26.001,2.779,21.634C3.658,19.536,4.763,17.523,6.039,15.623C7.315,13.752,8.761,11.994,10.378,10.378C11.994,8.761,13.752,7.315,15.623,6.039C17.523,4.763,19.536,3.658,21.634,2.779C26.001,0.936,30.708,0,35.443,0C40.178,0,44.885,0.936,49.251,2.779C51.349,3.658,53.362,4.763,55.262,6.039C57.134,7.315,58.891,8.761,60.508,10.378C62.124,11.994,63.57,13.752,64.846,15.623C66.122,17.523,67.228,19.536,68.107,21.634C69.95,26.001,70.914,30.679,70.885,35.443C70.885,40.178,69.95,44.885,68.107,49.251C67.228,51.349,66.122,53.362,64.846,55.262C63.57,57.134,62.124,58.891,60.508,60.508C58.891,62.124,57.134,63.57,55.262,64.846C53.362,66.122,51.349,67.228,49.251,68.107C44.885,69.95,40.178,70.885,35.443,70.885ZM29.63,18.317C28.553,18.317,27.503,18.515,26.511,18.941C25.519,19.338,24.611,19.933,23.846,20.67C22.201,22.23,21.294,24.385,21.322,26.653L21.322,47.153C21.322,49.421,22.23,51.576,23.846,53.136C24.611,53.873,25.519,54.468,26.511,54.865C27.503,55.262,28.581,55.489,29.63,55.489C31.076,55.489,32.522,55.092,33.77,54.355L51.491,44.119C54.071,42.645,55.659,39.894,55.631,36.917C55.659,33.94,54.071,31.19,51.491,29.715L33.77,19.479C32.522,18.714,31.104,18.317,29.63,18.317L29.63,18.317ZM29.63,18.317"/>
</g>
  <g id="Black-S" transform="matrix(1.0,0.0,0.0,1.0,2906.9284157876946,633.018435318945)">  <path xmlns:xlink="http://www.w3.org/1999/xlink" xml:space="preserve" fill="#000000" stroke-width="1px" stroke-opacity="1" y="0px" stroke-dasharray="none" fill-opacity="1" stroke-miterlimit="4" stroke="none" x="0px" fill-rule="nonzero" stroke-linecap="butt" version="1.1" stroke-linejoin="miter" d="M27.752,55.503C24.044,55.503,20.359,54.771,16.94,53.327C15.297,52.639,13.72,51.773,12.233,50.774C10.768,49.775,9.391,48.643,8.126,47.378C6.86,46.112,5.728,44.736,4.729,43.27C3.73,41.783,2.864,40.206,2.176,38.564C0.733,35.145,0,31.459,0,27.752C0,24.044,0.733,20.359,2.176,16.94C2.864,15.297,3.73,13.72,4.729,12.233C5.728,10.768,6.86,9.391,8.126,8.126C9.391,6.86,10.768,5.728,12.233,4.729C13.72,3.73,15.297,2.864,16.94,2.176C20.359,0.733,24.044,0,27.752,0C31.459,0,35.145,0.733,38.564,2.176C40.206,2.864,41.783,3.73,43.27,4.729C44.736,5.728,46.112,6.86,47.378,8.126C48.643,9.391,49.775,10.768,50.774,12.233C51.773,13.72,52.639,15.297,53.327,16.94C54.771,20.359,55.525,24.022,55.503,27.752C55.503,31.459,54.771,35.145,53.327,38.564C52.639,40.206,51.773,41.783,50.774,43.27C49.775,44.736,48.643,46.112,47.378,47.378C46.112,48.643,44.736,49.775,43.27,50.774C41.783,51.773,40.206,52.639,38.564,53.327C35.145,54.771,31.459,55.503,27.752,55.503ZM23.2,14.342C22.357,14.342,21.535,14.497,20.758,14.83C19.981,15.141,19.271,15.607,18.671,16.185C17.384,17.406,16.673,19.093,16.695,20.869L16.695,36.921C16.695,38.697,17.406,40.384,18.671,41.605C19.271,42.182,19.981,42.649,20.758,42.959C21.535,43.27,22.379,43.448,23.2,43.448C24.333,43.448,25.465,43.137,26.442,42.56L40.318,34.545C42.338,33.391,43.581,31.237,43.559,28.906C43.581,26.575,42.338,24.421,40.318,23.267L26.442,15.252C25.465,14.653,24.355,14.342,23.2,14.342L23.2,14.342ZM23.2,14.342"/>
</g>
  <g id="Heavy-S" transform="matrix(1.0,0.0,0.0,1.0,2610.2184157876945,633.018435318945)">  <path fill-opacity="1" y="0px" stroke-linecap="butt" version="1.1" xml:space="preserve" xmlns:xlink="http://www.w3.org/1999/xlink" stroke-linejoin="miter" fill="#000000" stroke-dasharray="none" stroke-opacity="1" stroke="none" stroke-width="1px" fill-rule="nonzero" x="0px" stroke-miterlimit="4" d="M27.752,55.503C24.044,55.503,20.359,54.771,16.94,53.327C15.297,52.639,13.72,51.773,12.233,50.774C10.768,49.775,9.391,48.643,8.126,47.378C6.86,46.112,5.728,44.736,4.729,43.27C3.73,41.783,2.864,40.206,2.176,38.564C0.733,35.145,0,31.459,0,27.752C0,24.044,0.733,20.359,2.176,16.94C2.864,15.297,3.73,13.72,4.729,12.233C5.728,10.768,6.86,9.391,8.126,8.126C9.391,6.86,10.768,5.728,12.233,4.729C13.72,3.73,15.297,2.864,16.94,2.176C20.359,0.733,24.044,0,27.752,0C31.459,0,35.145,0.733,38.564,2.176C40.206,2.864,41.783,3.73,43.27,4.729C44.736,5.728,46.112,6.86,47.378,8.126C48.643,9.391,49.775,10.768,50.774,12.233C51.773,13.72,52.639,15.297,53.327,16.94C54.771,20.359,55.525,24.022,55.503,27.752C55.503,31.459,54.771,35.145,53.327,38.564C52.639,40.206,51.773,41.783,50.774,43.27C49.775,44.736,48.643,46.112,47.378,47.378C46.112,48.643,44.736,49.775,43.27,50.774C41.783,51.773,40.206,52.639,38.564,53.327C35.145,54.771,31.459,55.503,27.752,55.503ZM23.2,14.342C22.357,14.342,21.535,14.497,20.758,14.83C19.981,15.141,19.271,15.607,18.671,16.185C17.384,17.406,16.673,19.093,16.695,20.869L16.695,36.921C16.695,38.697,17.406,40.384,18.671,41.605C19.271,42.182,19.981,42.649,20.758,42.959C21.535,43.27,22.379,43.448,23.2,43.448C24.333,43.448,25.465,43.137,26.442,42.56L40.318,34.545C42.338,33.391,43.581,31.237,43.559,28.906C43.581,26.575,42.338,24.421,40.318,23.267L26.442,15.252C25.465,14.653,24.355,14.342,23.2,14.342L23.2,14.342ZM23.2,14.342"/>
</g>
  <g id="Bold-S" transform="matrix(1.0,0.0,0.0,1.0,2313.5084157876945,633.018435318945)">  <path x="0px" fill-rule="nonzero" version="1.1" xml:space="preserve" stroke-miterlimit="4" y="0px" stroke-linecap="butt" xmlns:xlink="http://www.w3.org/1999/xlink" stroke-width="1px" stroke-linejoin="miter" fill-opacity="1" stroke="none" stroke-dasharray="none" fill="#000000" stroke-opacity="1" d="M27.752,55.503C24.044,55.503,20.359,54.771,16.94,53.327C15.297,52.639,13.72,51.773,12.233,50.774C10.768,49.775,9.391,48.643,8.126,47.378C6.86,46.112,5.728,44.736,4.729,43.27C3.73,41.783,2.864,40.206,2.176,38.564C0.733,35.145,0,31.459,0,27.752C0,24.044,0.733,20.359,2.176,16.94C2.864,15.297,3.73,13.72,4.729,12.233C5.728,10.768,6.86,9.391,8.126,8.126C9.391,6.86,10.768,5.728,12.233,4.729C13.72,3.73,15.297,2.864,16.94,2.176C20.359,0.733,24.044,0,27.752,0C31.459,0,35.145,0.733,38.564,2.176C40.206,2.864,41.783,3.73,43.27,4.729C44.736,5.728,46.112,6.86,47.378,8.126C48.643,9.391,49.775,10.768,50.774,12.233C51.773,13.72,52.639,15.297,53.327,16.94C54.771,20.359,55.525,24.022,55.503,27.752C55.503,31.459,54.771,35.145,53.327,38.564C52.639,40.206,51.773,41.783,50.774,43.27C49.775,44.736,48.643,46.112,47.378,47.378C46.112,48.643,44.736,49.775,43.27,50.774C41.783,51.773,40.206,52.639,38.564,53.327C35.145,54.771,31.459,55.503,27.752,55.503ZM23.2,14.342C22.357,14.342,21.535,14.497,20.758,14.83C19.981,15.141,19.271,15.607,18.671,16.185C17.384,17.406,16.673,19.093,16.695,20.869L16.695,36.921C16.695,38.697,17.406,40.384,18.671,41.605C19.271,42.182,19.981,42.649,20.758,42.959C21.535,43.27,22.379,43.448,23.2,43.448C24.333,43.448,25.465,43.137,26.442,42.56L40.318,34.545C42.338,33.391,43.581,31.237,43.559,28.906C43.581,26.575,42.338,24.421,40.318,23.267L26.442,15.252C25.465,14.653,24.355,14.342,23.2,14.342L23.2,14.342ZM23.2,14.342"/>
</g>
  <g id="Semibold-S" transform="matrix(1.0,0.0,0.0,1.0,2016.798415787695,633.018435318945)">  <path fill-rule="nonzero" stroke-opacity="1" x="0px" fill-opacity="1" xml:space="preserve" stroke-linejoin="miter" xmlns:xlink="http://www.w3.org/1999/xlink" stroke-width="1px" stroke-linecap="butt" stroke-dasharray="none" version="1.1" stroke="none" stroke-miterlimit="4" y="0px" fill="#000000" d="M27.752,55.503C24.044,55.503,20.359,54.771,16.94,53.327C15.297,52.639,13.72,51.773,12.233,50.774C10.768,49.775,9.391,48.643,8.126,47.378C6.86,46.112,5.728,44.736,4.729,43.27C3.73,41.783,2.864,40.206,2.176,38.564C0.733,35.145,0,31.459,0,27.752C0,24.044,0.733,20.359,2.176,16.94C2.864,15.297,3.73,13.72,4.729,12.233C5.728,10.768,6.86,9.391,8.126,8.126C9.391,6.86,10.768,5.728,12.233,4.729C13.72,3.73,15.297,2.864,16.94,2.176C20.359,0.733,24.044,0,27.752,0C31.459,0,35.145,0.733,38.564,2.176C40.206,2.864,41.783,3.73,43.27,4.729C44.736,5.728,46.112,6.86,47.378,8.126C48.643,9.391,49.775,10.768,50.774,12.233C51.773,13.72,52.639,15.297,53.327,16.94C54.771,20.359,55.525,24.022,55.503,27.752C55.503,31.459,54.771,35.145,53.327,38.564C52.639,40.206,51.773,41.783,50.774,43.27C49.775,44.736,48.643,46.112,47.378,47.378C46.112,48.643,44.736,49.775,43.27,50.774C41.783,51.773,40.206,52.639,38.564,53.327C35.145,54.771,31.459,55.503,27.752,55.503ZM23.2,14.342C22.357,14.342,21.535,14.497,20.758,14.83C19.981,15.141,19.271,15.607,18.671,16.185C17.384,17.406,16.673,19.093,16.695,20.869L16.695,36.921C16.695,38.697,17.406,40.384,18.671,41.605C19.271,42.182,19.981,42.649,20.758,42.959C21.535,43.27,22.379,43.448,23.2,43.448C24.333,43.448,25.465,43.137,26.442,42.56L40.318,34.545C42.338,33.391,43.581,31.237,43.559,28.906C43.581,26.575,42.338,24.421,40.318,23.267L26.442,15.252C25.465,14.653,24.355,14.342,23.2,14.342L23.2,14.342ZM23.2,14.342"/>
</g>
  <g id="Medium-S" transform="matrix(1.0,0.0,0.0,1.0,1720.0884157876949,633.018435318945)">  <path stroke-linecap="butt" version="1.1" stroke-opacity="1" fill-opacity="1" x="0px" fill-rule="nonzero" xml:space="preserve" y="0px" stroke="none" fill="#000000" xmlns:xlink="http://www.w3.org/1999/xlink" stroke-linejoin="miter" stroke-width="1px" stroke-dasharray="none" stroke-miterlimit="4" d="M27.752,55.503C24.044,55.503,20.359,54.771,16.94,53.327C15.297,52.639,13.72,51.773,12.233,50.774C10.768,49.775,9.391,48.643,8.126,47.378C6.86,46.112,5.728,44.736,4.729,43.27C3.73,41.783,2.864,40.206,2.176,38.564C0.733,35.145,0,31.459,0,27.752C0,24.044,0.733,20.359,2.176,16.94C2.864,15.297,3.73,13.72,4.729,12.233C5.728,10.768,6.86,9.391,8.126,8.126C9.391,6.86,10.768,5.728,12.233,4.729C13.72,3.73,15.297,2.864,16.94,2.176C20.359,0.733,24.044,0,27.752,0C31.459,0,35.145,0.733,38.564,2.176C40.206,2.864,41.783,3.73,43.27,4.729C44.736,5.728,46.112,6.86,47.378,8.126C48.643,9.391,49.775,10.768,50.774,12.233C51.773,13.72,52.639,15.297,53.327,16.94C54.771,20.359,55.525,24.022,55.503,27.752C55.503,31.459,54.771,35.145,53.327,38.564C52.639,40.206,51.773,41.783,50.774,43.27C49.775,44.736,48.643,46.112,47.378,47.378C46.112,48.643,44.736,49.775,43.27,50.774C41.783,51.773,40.206,52.639,38.564,53.327C35.145,54.771,31.459,55.503,27.752,55.503ZM23.2,14.342C22.357,14.342,21.535,14.497,20.758,14.83C19.981,15.141,19.271,15.607,18.671,16.185C17.384,17.406,16.673,19.093,16.695,20.869L16.695,36.921C16.695,38.697,17.406,40.384,18.671,41.605C19.271,42.182,19.981,42.649,20.758,42.959C21.535,43.27,22.379,43.448,23.2,43.448C24.333,43.448,25.465,43.137,26.442,42.56L40.318,34.545C42.338,33.391,43.581,31.237,43.559,28.906C43.581,26.575,42.338,24.421,40.318,23.267L26.442,15.252C25.465,14.653,24.355,14.342,23.2,14.342L23.2,14.342ZM23.2,14.342"/>
</g>
  <g id="Regular-S" transform="matrix(1.0,0.0,0.0,1.0,1423.3784157876948,633.018435318945)">  <path stroke-dasharray="none" y="0px" stroke="none" xmlns:xlink="http://www.w3.org/1999/xlink" stroke-linecap="butt" fill-opacity="1" stroke-linejoin="miter" xml:space="preserve" stroke-miterlimit="4" x="0px" fill="#000000" stroke-width="1px" fill-rule="nonzero" stroke-opacity="1" version="1.1" d="M27.752,55.503C24.044,55.503,20.359,54.771,16.94,53.327C15.297,52.639,13.72,51.773,12.233,50.774C10.768,49.775,9.391,48.643,8.126,47.378C6.86,46.112,5.728,44.736,4.729,43.27C3.73,41.783,2.864,40.206,2.176,38.564C0.733,35.145,0,31.459,0,27.752C0,24.044,0.733,20.359,2.176,16.94C2.864,15.297,3.73,13.72,4.729,12.233C5.728,10.768,6.86,9.391,8.126,8.126C9.391,6.86,10.768,5.728,12.233,4.729C13.72,3.73,15.297,2.864,16.94,2.176C20.359,0.733,24.044,0,27.752,0C31.459,0,35.145,0.733,38.564,2.176C40.206,2.864,41.783,3.73,43.27,4.729C44.736,5.728,46.112,6.86,47.378,8.126C48.643,9.391,49.775,10.768,50.774,12.233C51.773,13.72,52.639,15.297,53.327,16.94C54.771,20.359,55.525,24.022,55.503,27.752C55.503,31.459,54.771,35.145,53.327,38.564C52.639,40.206,51.773,41.783,50.774,43.27C49.775,44.736,48.643,46.112,47.378,47.378C46.112,48.643,44.736,49.775,43.27,50.774C41.783,51.773,40.206,52.639,38.564,53.327C35.145,54.771,31.459,55.503,27.752,55.503ZM23.2,14.342C22.357,14.342,21.535,14.497,20.758,14.83C19.981,15.141,19.271,15.607,18.671,16.185C17.384,17.406,16.673,19.093,16.695,20.869L16.695,36.921C16.695,38.697,17.406,40.384,18.671,41.605C19.271,42.182,19.981,42.649,20.758,42.959C21.535,43.27,22.379,43.448,23.2,43.448C24.333,43.448,25.465,43.137,26.442,42.56L40.318,34.545C42.338,33.391,43.581,31.237,43.559,28.906C43.581,26.575,42.338,24.421,40.318,23.267L26.442,15.252C25.465,14.653,24.355,14.342,23.2,14.342L23.2,14.342ZM23.2,14.342"/>
</g>
  <g id="Light-S" transform="matrix(1.0,0.0,0.0,1.0,1126.668415787695,633.018435318945)">  <path stroke-opacity="1" fill-rule="nonzero" y="0px" stroke-miterlimit="4" version="1.1" stroke-dasharray="none" stroke-linejoin="miter" stroke-linecap="butt" fill-opacity="1" xml:space="preserve" xmlns:xlink="http://www.w3.org/1999/xlink" fill="#000000" x="0px" stroke-width="1px" stroke="none" d="M27.752,55.503C24.044,55.503,20.359,54.771,16.94,53.327C15.297,52.639,13.72,51.773,12.233,50.774C10.768,49.775,9.391,48.643,8.126,47.378C6.86,46.112,5.728,44.736,4.729,43.27C3.73,41.783,2.864,40.206,2.176,38.564C0.733,35.145,0,31.459,0,27.752C0,24.044,0.733,20.359,2.176,16.94C2.864,15.297,3.73,13.72,4.729,12.233C5.728,10.768,6.86,9.391,8.126,8.126C9.391,6.86,10.768,5.728,12.233,4.729C13.72,3.73,15.297,2.864,16.94,2.176C20.359,0.733,24.044,0,27.752,0C31.459,0,35.145,0.733,38.564,2.176C40.206,2.864,41.783,3.73,43.27,4.729C44.736,5.728,46.112,6.86,47.378,8.126C48.643,9.391,49.775,10.768,50.774,12.233C51.773,13.72,52.639,15.297,53.327,16.94C54.771,20.359,55.525,24.022,55.503,27.752C55.503,31.459,54.771,35.145,53.327,38.564C52.639,40.206,51.773,41.783,50.774,43.27C49.775,44.736,48.643,46.112,47.378,47.378C46.112,48.643,44.736,49.775,43.27,50.774C41.783,51.773,40.206,52.639,38.564,53.327C35.145,54.771,31.459,55.503,27.752,55.503ZM23.2,14.342C22.357,14.342,21.535,14.497,20.758,14.83C19.981,15.141,19.271,15.607,18.671,16.185C17.384,17.406,16.673,19.093,16.695,20.869L16.695,36.921C16.695,38.697,17.406,40.384,18.671,41.605C19.271,42.182,19.981,42.649,20.758,42.959C21.535,43.27,22.379,43.448,23.2,43.448C24.333,43.448,25.465,43.137,26.442,42.56L40.318,34.545C42.338,33.391,43.581,31.237,43.559,28.906C43.581,26.575,42.338,24.421,40.318,23.267L26.442,15.252C25.465,14.653,24.355,14.342,23.2,14.342L23.2,14.342ZM23.2,14.342"/>
</g>
  <g id="Thin-S" transform="matrix(1.0,0.0,0.0,1.0,829.958415787695,633.018435318945)">  <path y="0px" xmlns:xlink="http://www.w3.org/1999/xlink" stroke-dasharray="none" stroke-linejoin="miter" xml:space="preserve" fill="#000000" stroke-miterlimit="4" version="1.1" stroke-opacity="1" stroke-linecap="butt" fill-opacity="1" x="0px" stroke="none" stroke-width="1px" fill-rule="nonzero" d="M27.752,55.503C24.044,55.503,20.359,54.771,16.94,53.327C15.297,52.639,13.72,51.773,12.233,50.774C10.768,49.775,9.391,48.643,8.126,47.378C6.86,46.112,5.728,44.736,4.729,43.27C3.73,41.783,2.864,40.206,2.176,38.564C0.733,35.145,0,31.459,0,27.752C0,24.044,0.733,20.359,2.176,16.94C2.864,15.297,3.73,13.72,4.729,12.233C5.728,10.768,6.86,9.391,8.126,8.126C9.391,6.86,10.768,5.728,12.233,4.729C13.72,3.73,15.297,2.864,16.94,2.176C20.359,0.733,24.044,0,27.752,0C31.459,0,35.145,0.733,38.564,2.176C40.206,2.864,41.783,3.73,43.27,4.729C44.736,5.728,46.112,6.86,47.378,8.126C48.643,9.391,49.775,10.768,50.774,12.233C51.773,13.72,52.639,15.297,53.327,16.94C54.771,20.359,55.525,24.022,55.503,27.752C55.503,31.459,54.771,35.145,53.327,38.564C52.639,40.206,51.773,41.783,50.774,43.27C49.775,44.736,48.643,46.112,47.378,47.378C46.112,48.643,44.736,49.775,43.27,50.774C41.783,51.773,40.206,52.639,38.564,53.327C35.145,54.771,31.459,55.503,27.752,55.503ZM23.2,14.342C22.357,14.342,21.535,14.497,20.758,14.83C19.981,15.141,19.271,15.607,18.671,16.185C17.384,17.406,16.673,19.093,16.695,20.869L16.695,36.921C16.695,38.697,17.406,40.384,18.671,41.605C19.271,42.182,19.981,42.649,20.758,42.959C21.535,43.27,22.379,43.448,23.2,43.448C24.333,43.448,25.465,43.137,26.442,42.56L40.318,34.545C42.338,33.391,43.581,31.237,43.559,28.906C43.581,26.575,42.338,24.421,40.318,23.267L26.442,15.252C25.465,14.653,24.355,14.342,23.2,14.342L23.2,14.342ZM23.2,14.342"/>
</g>
  <g id="Ultralight-S" transform="matrix(1.0,0.0,0.0,1.0,533.248415787695,633.018435318945)">  <path fill="#000000" xmlns:xlink="http://www.w3.org/1999/xlink" y="0px" xml:space="preserve" stroke-linejoin="miter" stroke-linecap="butt" stroke-width="1px" stroke="none" stroke-miterlimit="4" fill-opacity="1" x="0px" version="1.1" stroke-dasharray="none" stroke-opacity="1" fill-rule="nonzero" d="M27.752,55.503C24.044,55.503,20.359,54.771,16.94,53.327C15.297,52.639,13.72,51.773,12.233,50.774C10.768,49.775,9.391,48.643,8.126,47.378C6.86,46.112,5.728,44.736,4.729,43.27C3.73,41.783,2.864,40.206,2.176,38.564C0.733,35.145,0,31.459,0,27.752C0,24.044,0.733,20.359,2.176,16.94C2.864,15.297,3.73,13.72,4.729,12.233C5.728,10.768,6.86,9.391,8.126,8.126C9.391,6.86,10.768,5.728,12.233,4.729C13.72,3.73,15.297,2.864,16.94,2.176C20.359,0.733,24.044,0,27.752,0C31.459,0,35.145,0.733,38.564,2.176C40.206,2.864,41.783,3.73,43.27,4.729C44.736,5.728,46.112,6.86,47.378,8.126C48.643,9.391,49.775,10.768,50.774,12.233C51.773,13.72,52.639,15.297,53.327,16.94C54.771,20.359,55.525,24.022,55.503,27.752C55.503,31.459,54.771,35.145,53.327,38.564C52.639,40.206,51.773,41.783,50.774,43.27C49.775,44.736,48.643,46.112,47.378,47.378C46.112,48.643,44.736,49.775,43.27,50.774C41.783,51.773,40.206,52.639,38.564,53.327C35.145,54.771,31.459,55.503,27.752,55.503ZM23.2,14.342C22.357,14.342,21.535,14.497,20.758,14.83C19.981,15.141,19.271,15.607,18.671,16.185C17.384,17.406,16.673,19.093,16.695,20.869L16.695,36.921C16.695,38.697,17.406,40.384,18.671,41.605C19.271,42.182,19.981,42.649,20.758,42.959C21.535,43.27,22.379,43.448,23.2,43.448C24.333,43.448,25.465,43.137,26.442,42.56L40.318,34.545C42.338,33.391,43.581,31.237,43.559,28.906C43.581,26.575,42.338,24.421,40.318,23.267L26.442,15.252C25.465,14.653,24.355,14.342,23.2,14.342L23.2,14.342ZM23.2,14.342"/>
</g>
 </g>
</svg>
